<svg version="1.1" xmlns="http://www.w3.org/2000/svg" xmlns:xlink="http://www.w3.org/1999/xlink" x="0px" y="0px"
     width="400px" height="300px"
     viewBox="0 0 664.5 500" style="enable-background:new 0 0 664.5 500;" xml:space="preserve">
<style type="text/css">
	.st0{fill:url(#SVGID_1_);}
	.st1{fill:#D6D5D5;}
	.st2{fill:#4D433D;}
	.st3{fill:url(#SVGID_2_);}
	.st4{opacity:0.2;fill:#C0BFBF;}
	.st5{fill:#B3B3B3;}
	.st6{fill:#A5A5A5;}
	.st7{fill:#C0BFBF;}
	.st8{fill:url(#SVGID_3_);}
	.st9{fill:#E4E4E4;}
	.st10{fill:url(#SVGID_4_);}
	.st11{fill:url(#SVGID_5_);}
	.st12{fill:#AEAEAE;}
	.st13{opacity:0.4;fill:url(#SVGID_6_);}
	.st14{fill:#D2D2D2;}
	.st15{fill:url(#SVGID_7_);}
	.st16{opacity:0.7;}
	.st17{fill:#E2E2E2;}
	.st18{fill:url(#SVGID_8_);}
	.st19{fill:url(#SVGID_9_);}
	.st20{opacity:0.3;fill:#EBEBEB;}
	.st21{fill:#E0E1E0;}
	.st22{fill:#F0EFEF;}
	.st23{opacity:0.6;fill:url(#SVGID_10_);}
	.st24{opacity:0.3;fill:url(#SVGID_11_);}
	.st25{fill:#4D4542;}
	.st26{fill:url(#SVGID_12_);}
	.st27{fill:url(#SVGID_13_);}
	.st28{opacity:0.6;fill:#F8F3ED;}
	.st29{enable-background:new    ;}
	.st30{fill:#B9B4A8;}
	.st31{fill:#EFEBE6;}
	.st32{fill:#D8D3CC;}
	.st33{fill:#4D5C64;}
	.st34{fill:url(#SVGID_16_);}
	.st35{fill:url(#SVGID_17_);}
	.st36{fill:url(#SVGID_18_);}
	.st37{opacity:0.9;fill:#F8F3ED;}
	.st38{opacity:0.5;fill:#B4AFA2;}
	.st39{fill:url(#SVGID_19_);}
</style>
    <g id="Layer_2">
</g>
    <g id="Layer_1">
	<g>
		<radialGradient id="SVGID_1_" cx="565.4837" cy="359.2006" r="25.9239" gradientUnits="userSpaceOnUse">
			<stop offset="0" style="stop-color:#FFFFFF"/>
            <stop offset="4.789847e-02" style="stop-color:#E4E4E4"/>
            <stop offset="0.1514" style="stop-color:#AFAFAF"/>
            <stop offset="0.2593" style="stop-color:#818181"/>
            <stop offset="0.3693" style="stop-color:#595959"/>
            <stop offset="0.4819" style="stop-color:#393939"/>
            <stop offset="0.5981" style="stop-color:#202020"/>
            <stop offset="0.7192" style="stop-color:#0F0F0F"/>
            <stop offset="0.8484" style="stop-color:#040404"/>
            <stop offset="1" style="stop-color:#010101"/>
		</radialGradient>
        <circle class="st0" cx="565.5" cy="359.2" r="25.9"/>
        <g id="_x36__1_">
			<g>
				<path class="st1" d="M433.3,412.9c-12.1,0-19.6-9.1-26-16.9c-6.8-8.2-12.7-15.4-22.3-13.8c-1.4,0.2-2.7,0.7-4.2,1.2
					c-1.3,0.4-2.5,0.9-3.8,1.2c-14.9,3.4-27.5-6.2-31.8-17c-3.5-8.9-2.3-21.1,11.5-29.1c9.8-5.6,21.9-7.9,33.5-10.1
					c8.7-1.6,17-3.2,23-6c9.7-4.6,13-9.7,14.2-13.2c0.9-2.8,0.6-5.8-0.7-8.1c-3.1-5.4-7.7-6.9-15.4-9.6c-1.7-0.6-3.5-1.2-5.5-1.9
					c-1.4-0.5-2.1-2-1.6-3.4c0.5-1.4,2-2.1,3.4-1.6c1.9,0.7,3.7,1.3,5.4,1.9c8,2.7,14.3,4.9,18.3,12c2.1,3.6,2.5,8.1,1.1,12.3
					c-1.4,4.5-5.5,11-17,16.4c-6.6,3.1-15.2,4.7-24.3,6.4c-11.2,2.1-22.8,4.3-31.8,9.4c-9.2,5.3-12.7,13.7-9.2,22.5
					c3.5,8.9,14,16.5,25.6,13.8c1.1-0.3,2.2-0.6,3.3-1c1.6-0.5,3.2-1.1,5-1.4c12.7-2.1,20.1,6.9,27.3,15.6
					c9.6,11.6,17.8,21.6,37.9,9.7l2.3-1.4c5.5-3.3,11.2-6.7,17.6-8.6c11.7-3.5,19,2.1,31.9,13.3c1.1,1,1.2,2.6,0.3,3.8
					c-1,1.1-2.6,1.2-3.8,0.3c-12.9-11.1-18.2-14.8-26.9-12.2c-5.8,1.7-10.9,4.8-16.4,8.1l-2.3,1.4
					C444.7,411.2,438.5,412.9,433.3,412.9z"/>
			</g>
            <path class="st2" d="M651.7,387.5c-0.7-1.6-5.6-7.6-7.1-8.2c-0.7-0.3-9.5,7.9-8.9,8.9c1.7,2.8,4.8,3.6,6.1,7.2
				c0.8,2.3,1.6,8.4,3.8,7.3c2.7-1.3,1.2-4.6,0.6-7.4c1,0.7,2.1,1.5,2.1,1.5c1,1.8,1.3,5.1,3.2,6.5
				C654.7,405.5,655.4,396.4,651.7,387.5z"/>
            <linearGradient id="SVGID_2_" gradientUnits="userSpaceOnUse" x1="595.0293" y1="333.5905" x2="646.9787"
                            y2="397.3764">
				<stop offset="0" style="stop-color:#D7D6D6"/>
                <stop offset="0.4778" style="stop-color:#E0E1E0"/>
                <stop offset="1" style="stop-color:#F5F6F6"/>
			</linearGradient>
            <path class="st3" d="M647.6,381.1c-1-3.1-15-17.2-20.7-22.9c-1.6-1.5-2.8-3.4-3.6-5.4c-2.7-6.9-10.1-23.7-18.2-28.3
				c-8.3-4.7-19.6-0.2-27.2,2.6c-3.3,1.2-0.6,8.8,4.2,13.7l23.5,27.6c1.5,1.8,3.2,3.3,5.1,4.7c6.8,5,23.6,17.4,27.4,18
				C641.7,391.8,649,385.5,647.6,381.1z"/>
            <path class="st4" d="M616.4,373.1c-1.9-1.4-3.5-3-5.1-4.7l-23.5-27.6c-0.3-0.3-0.7-0.7-1-1.1c-2.5-0.9-5.1-1.7-7.6-2.5
				c0.8,1.3,1.8,2.5,2.9,3.7l23.5,27.6c1.5,1.8,3.2,3.3,5.1,4.7c6.8,5,23.6,17.4,27.4,18c1,0.2,2.2-0.2,3.5-0.9
				C635.7,387.3,622.3,377.5,616.4,373.1z"/>
            <g>
				<g>
					<g>
						<path class="st2" d="M497.9,414.3c-0.2-0.2-0.4-0.3-0.9-0.7c-1.4-1.1-2.9-1.7-4.7-1.9c-8.8-0.8-11,10.5-14.2,15.5
							c-1.6,2.6-4,5.9-4.9,8.8c-1.8,5.5-0.9,10.4,3,13.3c1.5,1.4,3.6,1.8,5.8,2.3c2.1,0.4,4.4-0.8,5.5-2.6c0.9-1.5,8-23.8,9.7-25.3
							c1.4-1.2,1.7-0.6,2.1-2.8C499.8,418.1,499.5,416,497.9,414.3z"/>
                        <path class="st5" d="M496.1,414.2c-8-3.3-11.2,4.8-13.3,9.3c-1.7,3.8-4.7,6.9-6.7,10.6c-4.3,7.6-1.9,17.8,7,17.6
							c5.7-0.1,7.2-9.6,10.3-11.5c3.7-2.2,9.7,1.4,12.2-3.7c3.3-6.7,5.7-15.1-1.3-17.6C500.2,417.4,498.8,415.4,496.1,414.2z"/>
					</g>
                    <g>
						<path class="st2" d="M486.5,448.1c-8.9,0.2-11.3-10.1-7-17.6c0.4-0.7,1-2.3,1.6-4c-2.3,1.8-4.3,4.8-5.8,7.4
							c-4.3,7.6-1.2,18,7.7,17.8c2.5,0,4.2-2,5.6-4.2C488,447.9,487.3,448.1,486.5,448.1z"/>
					</g>
				</g>
                <path class="st6"
                      d="M524.5,419.9l-20.5-2.2c-7.2-1.3-13.4,20.2-5.2,22.3c6.7,1.7,14.8,4.3,22.8,6.7L524.5,419.9z"/>
			</g>
            <g>
				<polygon class="st1" points="591.5,320.9 571.4,400.8 513.4,430.2 533.6,350.3 				"/>
                <polygon class="st7" points="533.6,350.3 513.4,430.2 491.9,412 512.1,332.1 				"/>
                <linearGradient id="SVGID_3_" gradientUnits="userSpaceOnUse" x1="514.7394" y1="326.5023" x2="569.1469"
                                y2="326.5023">
					<stop offset="0" style="stop-color:#AEAEAE"/>
                    <stop offset="9.398603e-02" style="stop-color:#B0B0B0"/>
                    <stop offset="1" style="stop-color:#C0BFBF"/>
				</linearGradient>
                <polygon class="st8" points="591.5,320.9 533.6,350.3 512.1,332.1 570,302.7 				"/>
			</g>
            <g>
				<polygon class="st1" points="598.6,292.5 591.9,318.7 534,348.1 540.7,321.9 				"/>
                <polygon class="st7" points="540.7,321.9 534,348.1 512.5,329.9 524.1,307.9 				"/>
                <polygon class="st9" points="598.6,292.5 540.7,321.9 524.1,307.9 582.1,278.5 				"/>
			</g>
            <g>
				<g>
					<path class="st2" d="M461.8,444.4c-0.2-0.1-0.5-0.2-1.1-0.4c-1.6-0.7-3.3-0.8-5.1-0.4c-8.6,1.8-7.5,13.3-9,18.9
						c-0.8,2.9-2.1,6.8-2.1,9.8c-0.1,5.8,2.2,10.2,6.8,11.8c1.9,0.9,3.9,0.7,6.2,0.5c2.1-0.2,4-2.1,4.5-4.2c0.4-1.7,0.7-25.1,1.9-27
						c1-1.5,1.5-1,1.1-3.3C464.7,447.4,463.9,445.5,461.8,444.4z"/>

                    <linearGradient id="SVGID_4_" gradientUnits="userSpaceOnUse" x1="448.0865" y1="491.5097"
                                    x2="449.6485" y2="467.7341"
                                    gradientTransform="matrix(0.9908 -0.1354 0.1354 0.9908 -48.8069 44.2449)">
						<stop offset="0" style="stop-color:#D0D1D1"/>
                        <stop offset="0.4998" style="stop-color:#DBDBDB"/>
                        <stop offset="1" style="stop-color:#E0E1E0"/>
					</linearGradient>
                    <path class="st10" d="M460.1,444.8c-8.6-0.8-9.3,7.8-10,12.8c-0.6,4.1-2.4,8-3.3,12.1c-1.9,8.5,3.4,17.6,11.8,14.8
						c5.4-1.8,4.1-11.3,6.5-14c2.8-3.2,9.7-1.5,10.6-7.1c1.2-7.4,1.1-16.1-6.4-16.5C464.9,446.6,463,445.1,460.1,444.8z"/>
				</g>
                <g>
					<path class="st2" d="M460.9,480c-8.5,2.8-13.7-6.3-11.8-14.8c0.2-0.8,0.3-2.4,0.4-4.3c-1.7,2.4-2.7,5.8-3.4,8.8
						c-1.9,8.5,4.1,17.6,12.6,14.8c2.4-0.8,3.5-3.1,4.1-5.7C462.2,479.3,461.6,479.7,460.9,480z"/>
				</g>
			</g>
            <linearGradient id="SVGID_5_" gradientUnits="userSpaceOnUse" x1="523.1537" y1="395.0419" x2="570.0488"
                            y2="405.916">
				<stop offset="0" style="stop-color:#D0D1D1"/>
                <stop offset="0.4998" style="stop-color:#DBDBDB"/>
                <stop offset="1" style="stop-color:#E0E1E0"/>
			</linearGradient>
            <path class="st11" d="M535.1,353c-6.3,9.3-19.8,60-21.6,64.4c-5.2,13.3-10.8,25-10.8,25l-33.4,3.6c-7.3,0.5-8,22.9,0.4,22.9
				c0.7,0,26,3.6,39.2,3.6c4.1,0,8.1-1.5,11.1-4.2c10.3-9,19.1-18.9,19.1-18.9s3.4,0.9,7.7,1.6c9,1.5,15.1-4.3,18.7-11.2
				c8.7-16.6,12.1-23.1,21.6-43.5c8.4-18.1,19.1-42,20.2-49.3c2-12.9-6.1-20.9-15.8-22.6C579.1,322.4,542.5,342.1,535.1,353z"/>
            <path class="st12" d="M594.3,399.9c-0.8,0-1.6-0.2-2.4-0.5c-4.6-2.2-6.7-7.5-6.8-7.7c-0.4-1.1,0.1-2.3,1.2-2.7
				c1.1-0.4,2.3,0.1,2.7,1.2c0,0,1.6,3.9,4.7,5.5c0.3,0.1,0.7,0.2,1,0c0.2-0.1,0.4-0.2,0.5-0.5c1.4-3.4,0.1-11.6-0.6-14.5
				c-0.2-1.1,0.5-2.2,1.6-2.5c1.1-0.2,2.2,0.5,2.5,1.6c0.3,1.2,2.5,11.7,0.4,17c-0.5,1.3-1.5,2.3-2.9,2.8
				C595.6,399.8,595,399.9,594.3,399.9z"/>
            <linearGradient id="SVGID_6_" gradientUnits="userSpaceOnUse" x1="513.1161" y1="407.722" x2="566.5161"
                            y2="420.1046">
				<stop offset="0" style="stop-color:#C0BFBF"/>
                <stop offset="1" style="stop-color:#CECECD"/>
			</linearGradient>
            <path class="st13" d="M509.7,447.9c0,0,8-3.9,12.2-16.6c8.8-19.7,16.3-29.8,23.9-42.8c5.8-10,10.6-17.3,3.8-29
				c-2.7-4.7-34.2,53.5-36,58c-5.2,13.3-10.8,25-10.8,25l-33.4,3.6c-0.7,0-1.3,0.3-1.8,0.7c-3.1-0.5-4.9-1.7-7.4-1.9
				c-5-0.5-7.3,2.3-8.5,5.6C464.4,451.5,498.2,447.3,509.7,447.9z"/>
            <g>
				<path class="st14" d="M561.1,413.8c-1,1.7-2.8,2.9-4,2.8c-1.3-0.1-1.5-1.6-0.5-3.3c1-1.7,2.8-2.9,4-2.8
					C561.9,410.6,562.1,412.1,561.1,413.8z"/>
                <path class="st12" d="M529.2,325.2c-0.2-1.5-1.4-2.8-2.6-3c-1.2-0.2-1.9,0.8-1.7,2.3c0.2,1.5,1.4,2.8,2.6,3
					C528.7,327.7,529.5,326.6,529.2,325.2z"/>
                <path class="st14" d="M578.2,406.6c-0.8,1.7-2.4,3.1-3.5,3.1c-1.1,0.1-1.4-1.2-0.6-2.9c0.8-1.7,2.4-3.1,3.5-3.1
					C578.8,403.7,579,404.9,578.2,406.6z"/>
                <path class="st12" d="M534.8,423.1c-3.2,0-6.1-0.6-8.6-1.6c-7.9-2.9-13.5-7.9-16.7-15c-6.7-14.6-3.4-38.8,9.9-73.8
					c0.5-1.3,2.3-5.6,5.3-9c0.8-0.9,2.1-0.9,2.9-0.2c0.9,0.8,0.9,2.1,0.2,2.9c-2.6,3-4.3,7-4.6,7.7c-12.9,33.9-16.2,57-10,70.5
					c2.8,6.1,7.5,10.3,14.3,12.8c12.5,4.6,25.5-3.1,37.5-22.4c0.6-1,1.9-1.3,2.9-0.7c1,0.6,1.3,1.9,0.7,2.9
					C556.2,417.5,544.3,423.1,534.8,423.1z"/>
                <path class="st12" d="M541.1,433.6c-2,0-4.2-0.2-6.4-0.7c-15-3.2-23-11.7-27-18.1c-3.1-5-4.7-10.3-4.4-11.7
					c0.3-1.1,1.4-1.8,2.5-1.5c0.9,0.2,1.6,1.1,1.6,2c0.2,1.1,4.2,20.1,28.1,25.3c13.9,3,23.2-6.1,25-9.7c0.2-0.4,0.1-1-0.3-1.3
					l-2.8-2.5c-0.9-0.8,1.6-4.5,2.8-3.1l2.7,2.5c1.8,1.6,2.3,4.2,1.3,6.3C562.1,425.4,553.6,433.6,541.1,433.6z"/>
			</g>
            <g>
				<linearGradient id="SVGID_7_" gradientUnits="userSpaceOnUse" x1="533.7767" y1="314.1699" x2="521.6113"
                                y2="458.1811">
					<stop offset="0" style="stop-color:#D7D6D6"/>
                    <stop offset="0.4778" style="stop-color:#E0E1E0"/>
                    <stop offset="1" style="stop-color:#F5F6F6"/>
				</linearGradient>
                <path class="st15" d="M537.7,351.3c-16.4,9.6-32.2,43.2-34.4,49.7c-2.7,8.1-3.1,41.6-3.1,41.6c-0.3,7.2,16,8.6,17.3,2.6
					c1.8-8.3,7.9-33.9,9.2-37.2c1.4-3.6,21.4-25.5,24.5-31.3C556.9,365.8,548.9,344.7,537.7,351.3z"/>
                <g>
					<g class="st16">
						<path class="st17" d="M517.5,445.1c0,0,0.2-1.2,0.6-3.3c0.4-2.1,0.9-5.1,1.7-8.7c0.8-3.6,1.8-7.7,2.8-12.2
							c0.5-2.2,1.1-4.5,1.6-6.9c0.7-2.4,1-4.7,2.1-7.1c1.4-2.3,3-4,4.5-5.9c1.6-1.8,3.1-3.6,4.6-5.4c3-3.5,5.7-6.7,8.1-9.5
							c2.3-2.8,4.4-5.1,5.7-6.8c1.3-1.7,1.9-2.7,1.9-2.7c0.1,0-0.5,1.1-1.7,2.9c-1.3,1.7-3.1,4.1-5.4,7c-2.3,2.8-5.1,6.1-8,9.7
							c-1.5,1.8-3,3.6-4.5,5.5c-1.5,1.9-3.1,3.8-4.3,5.8c-1.1,2.2-1.5,4.6-2.2,6.9c-0.6,2.3-1.2,4.6-1.8,6.8
							c-1.1,4.4-2.1,8.6-3,12.2C518.7,440.4,517.6,445.1,517.5,445.1L517.5,445.1z"/>
					</g>
				</g>
                <path class="st4" d="M504,445.8c0,0,0.3-33.5,3.1-41.6c2.2-6.5,18-40.1,34.4-49.7c2.7-1.6,5.1-1.5,7.3-0.4
					c-2.7-3.7-6.6-5.5-11.1-2.9c-16.4,9.6-32.2,43.2-34.4,49.7c-2.7,8.1-3.1,41.6-3.1,41.6c-0.1,2.4,1.7,4.2,4.1,5.2
					C504.1,447.1,504,446.5,504,445.8z"/>
                <path class="st2" d="M519.3,457.2c-0.6-1.4-1.6-2.6-2.2-4c-1-2.3-1.6-7.8-1.7-9c-0.4-3.4-11.5-4.6-13.6-0.1
					c-1,2.1-2.7,6.8-4.1,11c-0.4,1.1-3,11.1-1.3,12.5c0.9,0.8,2.4,0.9,3.1-1.9c-2.2,5.8,1.6,7.9,2.9,4.8c0.7-1.7,0.9-3.4,1.6-5.1
					c-0.5,2.5-1.3,9.1,2.2,8.8c1-0.1,1.7-1.4,1.8-2.3c0.2-1.3,0-4.7,0-6.2c0.3,3.2,0.5,8,3.4,7.2c2.2-0.6,1.2-8.7,1.7-11.5
					c0.2-1.2,0.5-2.4,0.7-3.8C516.1,461.7,521.8,462.5,519.3,457.2z"/>
			</g>
            <path class="st7" d="M602.9,342.8c-2.7,4.7-6.7,8.5-11.5,11c-10.3,5.6-22.1,5.7-30.2-0.8c-4.9-4-7.3-10.9-1.7-16.8
				c3.8-4,37.9-6.7,43.1-3C605.5,335.3,605.4,338.5,602.9,342.8z"/>
            <g>
				<radialGradient id="SVGID_8_" cx="605.4954" cy="296.9894" r="65.0879" gradientUnits="userSpaceOnUse">
					<stop offset="0" style="stop-color:#F0EFEF"/>
                    <stop offset="1" style="stop-color:#E0E1E0"/>
				</radialGradient>
                <path class="st18" d="M562,309.4c-3.8,6-4.9,12.2-4,19.7c0.4,3.6,0.6,7.2,0.7,10.8c1.8,6.2,9.4,13,18.7,14.2
					c0.7,0.1,1.4,0.2,2.1,0.2c16.3,1.3,29.4-13.9,31.7-31.2c0,0,1.9-1.3,2-2.5c0.2-8.3-4.7-18.9-17.5-23.7
					C580.8,291.5,567.6,300.6,562,309.4z"/>
                <linearGradient id="SVGID_9_" gradientUnits="userSpaceOnUse" x1="567.7593" y1="337.3549" x2="611.2224"
                                y2="337.3549">
					<stop offset="0" style="stop-color:#131E2A"/>
                    <stop offset="1" style="stop-color:#1F364A"/>
				</linearGradient>
                <path class="st19" d="M579,334c-5.3,1.1-9.2,3.4-10.8,6.7c-0.7,1.6-0.6,3.5,0.3,5c1.2,1.9,3.2,3.4,6.5,4.7
					c18.9,5.2,33.5-7.5,36.2-27.2C611.2,323.1,603.1,329.2,579,334z"/>
			</g>
            <path class="st20" d="M575.4,349.3c-3.2-1.3-5.3-2.8-6.5-4.7c-0.8-1.3-0.9-2.8-0.5-4.3c-0.1,0.1-0.2,0.2-0.2,0.3
				c-0.7,1.6-0.6,3.5,0.3,5c1.2,1.9,3.2,3.4,6.5,4.7c15.5,4.3,28.2-3.6,33.7-17.5C602.9,346.2,590.5,353.5,575.4,349.3z"/>
            <path class="st21" d="M599.6,367.5c-9.3,6.8-20.5,11.2-31.4,14.6l-6.8,16.7l5.6,4.9c10.3-4,19.8-7.8,27.3-13.8
				c1.2-0.9,2.1-2.2,2.7-3.6l6.8-15.4L599.6,367.5z"/>
            <polygon class="st14" points="568.1,382.1 561.3,398.9 566.9,403.7 573.6,387.1 			"/>
            <path class="st22"
                  d="M599.6,367.5c-9.3,6.8-20.5,11.2-31.4,14.6l5.5,5c11-4.5,22.6-9.5,30-16.1L599.6,367.5z"/>

            <radialGradient id="SVGID_10_" cx="592.5291" cy="313.2477" r="33.8429"
                            gradientTransform="matrix(1.0258 -4.340000e-02 -4.340000e-02 1.0731 5.7742 -8.9631)"
                            gradientUnits="userSpaceOnUse">
				<stop offset="0" style="stop-color:#FFFFFF"/>
                <stop offset="1" style="stop-color:#010101"/>
			</radialGradient>
            <path class="st23" d="M580.5,301.3c-3,5.1,0.9,13,8.8,17.7c7.9,4.7,16.7,4.4,19.7-0.7c3-5.1-0.9-13-8.8-17.7
				C592.4,295.9,583.6,296.2,580.5,301.3z"/>
            <linearGradient id="SVGID_11_" gradientUnits="userSpaceOnUse" x1="547.1464" y1="440.708" x2="553.3068"
                            y2="444.1943">
				<stop offset="0" style="stop-color:#C0BFBF"/>
                <stop offset="0.3923" style="stop-color:#DCDBDA"/>
                <stop offset="0.7669" style="stop-color:#F3F2F2"/>
                <stop offset="1" style="stop-color:#FFFFFF"/>
			</linearGradient>
            <path class="st24" d="M548.7,451.2l12.7-15.8c-5.7,3.8-9.1,5.3-15.2,6.6l-7,7.5c0,0,3.4,0.9,7.7,1.6
				C547.4,451.2,548,451.2,548.7,451.2z"/>
            <path class="st14" d="M599.5,376c-0.2-0.2-0.5-0.2-0.7,0c-6.4,4.3-14.5,7.9-22.2,11.1c-1.2,0.5-2.1,1.4-2.6,2.6l-4.2,10.5
				c-0.1,0.2,0,0.5,0.1,0.6c0.1,0.1,0.3,0.2,0.4,0.2c0.1,0,0.2,0,0.2,0c9.9-3.9,17.3-7.4,23.3-12.4c0.6-0.5,1.1-1.1,1.4-1.8
				l4.4-10.1C599.8,376.5,599.7,376.2,599.5,376z M594.8,386.6c-0.3,0.7-0.7,1.2-1.2,1.7c-6,4.9-13.3,8.4-23.2,12.3
				c-0.1-0.1,4.1-10.6,4.1-10.6c0.4-1.1,1.3-1.9,2.3-2.4c7.8-3.2,15.9-6.8,22.3-11.2C599.2,376.5,594.8,386.6,594.8,386.6z"/>
            <path class="st12" d="M585.3,400.2c-0.7,1.5-1.3,2.8-2,4.2c1.9,2.4,3.2,4.4,3.9,6c0.4,0.9,0.2,1.9-0.4,2.7
				c-0.7,0.8-1.6,1.1-2.6,0.9c-1.6-0.4-1.7-1.1-1.7-1.5c-0.1-1.4-0.3-3.3-2.1-4.8l-2.1-1.9c-1.3-1.5-4.2,2-2.8,3.1l2.2,2
				c0.5,0.4,0.6,0.8,0.7,2.1c0.3,2.6,2.1,4.4,4.9,5.1c0.5,0.1,1,0.2,1.5,0.2c2,0,3.9-0.9,5.2-2.4c1.7-2,2.1-4.7,1.1-7
				C590.1,406.5,588.2,403.6,585.3,400.2z"/>
		</g>
        <g id="_x37__1_">
			<g>
				<g>
					<path class="st25" d="M256.7,135.6c-10.9,6.1-21,15.9-29.1,27.6c-11.2,16.2-18.6,35.7-18.8,53.3c-0.1,3.8,0.2,7.4,0.8,10.6
						c4.1,22.3,22.9,30.4,45.6,17.8c3.4-1.9,6.7-4.2,9.9-6.7l3.1-2.5l33.2-57l0.6-4c0.6-3.6,0.9-7.1,0.9-10.6
						C303.5,133.8,282.8,121.1,256.7,135.6z"/>
                    <linearGradient id="SVGID_12_" gradientUnits="userSpaceOnUse" x1="320.3026" y1="158.4866"
                                    x2="260.6293" y2="261.8438">
						<stop offset="0" style="stop-color:#756C68"/>
                        <stop offset="1" style="stop-color:#645956"/>
					</linearGradient>
                    <path class="st26" d="M290.1,141c-7.5-4.4-17.9-3.9-29.4,2.5c-23.4,13-42.6,45.5-43,72.6c-0.2,13.8,4.6,23.5,12.3,28l90.5,52.3
						c-7.8-4.5-12.5-14.2-12.3-28c0.4-27.1,19.6-59.6,43-72.6c11.5-6.4,21.9-6.9,29.4-2.5L290.1,141z"/>
                    <linearGradient id="SVGID_13_" gradientUnits="userSpaceOnUse" x1="242.1505" y1="105.2002"
                                    x2="175.5691" y2="220.5226">
						<stop offset="0" style="stop-color:#EFEBE6"/>
                        <stop offset="0.1721" style="stop-color:#EAE6E0"/>
                        <stop offset="0.3764" style="stop-color:#DCD8D1"/>
                        <stop offset="0.4242" style="stop-color:#D8D3CC"/>
                        <stop offset="0.7846" style="stop-color:#C2BDB2"/>
                        <stop offset="1" style="stop-color:#B9B4A8"/>
					</linearGradient>
                    <path class="st27" d="M228.3,97.2c-8.4-4.9-19.9-4.3-32.7,2.8c-26,14.5-47.5,50.7-47.9,80.9c-0.2,15.3,5.1,26.2,13.7,31.2
						l61.1,35.6c-8.7-5-13.9-15.9-13.7-31.2c0.4-30.2,21.8-66.4,47.9-80.9c12.8-7.1,24.3-7.7,32.7-2.8L228.3,97.2z"/>
				</g>
                <path class="st28" d="M237.3,151.2c6-6.4,12.5-11.8,19.4-15.6c6.6-3.7,12.8-5.6,18.5-5.9l-61.6-35.6c-5.5,0.4-11.6,2.3-18,5.9
					c-7,3.9-13.6,9.4-19.6,15.8L237.3,151.2z"/>
			</g>
            <g class="st29">
				<g>
					<polygon class="st30"
                             points="354.6,193.6 349.5,190.6 349.4,171.1 354.6,174.1 					"/>
				</g>
                <g>
					<polygon class="st30" points="354.6,171.4 349.4,168.4 349.3,138 354.5,141 					"/>
				</g>
                <g>
					<polygon class="st31" points="354.4,118.5 349.2,115.5 526.3,13.3 531.5,16.3 					"/>
				</g>
                <g>
					<polygon class="st30"
                             points="354.5,138.4 349.3,135.4 349.2,115.5 354.4,118.5 					"/>
				</g>
                <g>
					<polygon class="st31" points="298.2,204 354.6,171.4 349.4,168.4 298.2,198 					"/>
				</g>
                <g>
					<polygon class="st31"
                             points="298.2,170.9 354.5,138.4 349.3,135.4 298.2,164.9 					"/>
				</g>
                <g>
					<polygon class="st31"
                             points="239.4,231.9 191.9,259.3 197.1,262.3 244.6,234.9 					"/>
				</g>
                <g>
					<polygon class="st31" points="239.4,198.8 191.8,226.3 197,229.3 244.6,201.8 					"/>
				</g>
                <g>
					<polygon class="st30" points="20.2,386.7 15,383.7 14.8,308.6 20,311.6 					"/>
				</g>
                <g>
					<polygon class="st32" points="244.6,237.6 244.6,234.9 197.1,262.3 197,232 244.6,204.5 244.6,201.8 197,229.3 196.9,209.5
						20,311.6 20.2,386.7 197.1,284.6 197.1,265 					"/>
                    <polygon class="st32" points="531.5,16.3 354.4,118.5 354.5,138.4 298.2,170.9 298.2,173.5 354.5,141 354.6,171.4 298.2,204
						298.2,206.6 354.6,174.1 354.6,193.6 531.7,91.4 					"/>
				</g>
                <g>
					<polygon class="st31" points="20,311.6 14.8,308.6 191.8,206.5 196.9,209.5 					"/>
				</g>
			</g>
            <path class="st33" d="M39.8,311.4l-6,3.5c-0.9,0.5-1.6,0.1-1.6-0.9v-5.5c0-1,0.7-2.2,1.6-2.7l6-3.5c0.9-0.5,1.6-0.1,1.6,0.9v5.5
				C41.4,309.7,40.7,310.9,39.8,311.4z M41.4,319v-5.5c0-1-0.7-1.4-1.6-0.9l-6,3.5c-0.9,0.5-1.6,1.7-1.6,2.7v5.5
				c0,1,0.7,1.4,1.6,0.9l6-3.5C40.7,321.2,41.4,320,41.4,319z M41.4,329.3v-5.5c0-1-0.7-1.4-1.6-0.9l-6,3.5
				c-0.9,0.5-1.6,1.7-1.6,2.7v5.5c0,1,0.7,1.4,1.6,0.9l6-3.5C40.7,331.5,41.4,330.3,41.4,329.3z M41.4,339.7v-5.5
				c0-1-0.7-1.4-1.6-0.9l-6,3.5c-0.9,0.5-1.6,1.7-1.6,2.7v5.5c0,1,0.7,1.4,1.6,0.9l6-3.5C40.7,341.9,41.4,340.6,41.4,339.7z
				 M51.6,302.8v-5.5c0-1-0.7-1.4-1.6-0.9l-6,3.5c-0.9,0.5-1.6,1.7-1.6,2.7v5.5c0,1,0.7,1.4,1.6,0.9l6-3.5
				C50.9,305,51.6,303.8,51.6,302.8z M51.6,313.1l0-5.5c0-1-0.7-1.4-1.6-0.9l-6,3.5c-0.9,0.5-1.6,1.7-1.6,2.7v5.5
				c0,1,0.7,1.4,1.6,0.9l6-3.5C50.9,315.3,51.6,314.1,51.6,313.1z M51.6,323.4v-5.5c0-1-0.7-1.4-1.6-0.9l-6,3.5
				c-0.9,0.5-1.6,1.7-1.6,2.7v5.5c0,1,0.7,1.4,1.6,0.9l6-3.5C50.9,325.6,51.6,324.4,51.6,323.4z M51.6,333.7v-5.5
				c0-1-0.7-1.4-1.6-0.9l-6,3.5c-0.9,0.5-1.6,1.7-1.6,2.7v5.5c0,1,0.7,1.4,1.6,0.9l6-3.5C50.9,335.9,51.6,334.7,51.6,333.7z
				 M31.1,314.6v-5.5c0-1-0.7-1.4-1.6-0.9l-6,3.5c-0.9,0.5-1.6,1.7-1.6,2.7v5.5c0,1,0.7,1.4,1.6,0.9l6-3.5
				C30.4,316.8,31.1,315.6,31.1,314.6z M31.1,324.9v-5.5c0-1-0.7-1.4-1.6-0.9l-6,3.5c-0.9,0.5-1.6,1.7-1.6,2.7v5.5
				c0,1,0.7,1.4,1.6,0.9l6-3.5C30.4,327.1,31.1,325.9,31.1,324.9z M31.1,335.2v-5.5c0-1-0.7-1.4-1.6-0.9l-6,3.5
				c-0.9,0.5-1.6,1.7-1.6,2.7v5.5c0,1,0.7,1.4,1.6,0.9l6-3.5C30.4,337.4,31.1,336.2,31.1,335.2z M31.1,345.6V340
				c0-1-0.7-1.4-1.6-0.9l-6,3.5c-0.9,0.5-1.6,1.7-1.6,2.7v5.5c0,1,0.7,1.4,1.6,0.9l6-3.5C30.4,347.8,31.1,346.5,31.1,345.6z
				 M61.9,296.8v-5.5c0-1-0.7-1.4-1.6-0.9l-6,3.5c-0.9,0.5-1.6,1.7-1.6,2.7v5.5c0,1,0.7,1.4,1.6,0.9l6-3.5
				C61.2,299,61.9,297.8,61.9,296.8z M61.9,307.2v-5.5c0-1-0.7-1.4-1.6-0.9l-6,3.5c-0.9,0.5-1.6,1.7-1.6,2.7v5.5
				c0,1,0.7,1.4,1.6,0.9l6-3.5C61.2,309.4,61.9,308.2,61.9,307.2z M61.9,317.5v-5.5c0-1-0.7-1.4-1.6-0.9l-6,3.5
				c-0.9,0.5-1.6,1.7-1.6,2.7v5.5c0,1,0.7,1.4,1.6,0.9l6-3.5C61.2,319.7,61.9,318.5,61.9,317.5z M61.9,327.8v-5.5
				c0-1-0.7-1.4-1.6-0.9l-6,3.5c-0.9,0.5-1.6,1.7-1.6,2.7v5.5c0,1,0.7,1.4,1.6,0.9l6-3.5C61.2,330,61.9,328.8,61.9,327.8z
				 M72.2,290.9v-5.5c0-1-0.7-1.4-1.6-0.9l-6,3.5c-0.9,0.5-1.6,1.7-1.6,2.7v5.5c0,1,0.7,1.4,1.6,0.9l6-3.5
				C71.5,293.1,72.2,291.9,72.2,290.9z M72.2,301.2l0-5.5c0-1-0.7-1.4-1.6-0.9l-6,3.5c-0.9,0.5-1.6,1.7-1.6,2.7v5.5
				c0,1,0.7,1.4,1.6,0.9l6-3.5C71.5,303.4,72.2,302.2,72.2,301.2z M72.2,311.5V306c0-1-0.7-1.4-1.6-0.9l-6,3.5
				c-0.9,0.5-1.6,1.7-1.6,2.7v5.5c0,1,0.7,1.4,1.6,0.9l6-3.5C71.5,313.8,72.2,312.5,72.2,311.5z M72.2,321.9v-5.5
				c0-1-0.7-1.4-1.6-0.9l-6,3.5c-0.9,0.5-1.6,1.7-1.6,2.7v5.5c0,1,0.7,1.4,1.6,0.9l6-3.5C71.5,324.1,72.2,322.9,72.2,321.9z
				 M41.4,350v-5.5c0-1-0.7-1.4-1.6-0.9l-6,3.5c-0.9,0.5-1.6,1.7-1.6,2.7v5.5c0,1,0.7,1.4,1.6,0.9l6-3.5
				C40.7,352.2,41.4,351,41.4,350z M41.4,360.3v-5.5c0-1-0.7-1.4-1.6-0.9l-6,3.5c-0.9,0.5-1.6,1.7-1.6,2.7v5.5c0,1,0.7,1.4,1.6,0.9
				l6-3.5C40.7,362.5,41.4,361.3,41.4,360.3z M51.6,344v-5.5c0-1-0.7-1.4-1.6-0.9l-6,3.5c-0.9,0.5-1.6,1.7-1.6,2.7v5.5
				c0,1,0.7,1.4,1.6,0.9l6-3.5C50.9,346.3,51.6,345,51.6,344z M51.6,354.4v-5.5c0-1-0.7-1.4-1.6-0.9l-6,3.5
				c-0.9,0.5-1.6,1.7-1.6,2.7v5.5c0,1,0.7,1.4,1.6,0.9l6-3.5C50.9,356.6,51.6,355.4,51.6,354.4z M31.1,355.9v-5.5
				c0-1-0.7-1.4-1.6-0.9l-6,3.5c-0.9,0.5-1.6,1.7-1.6,2.7v5.5c0,1,0.7,1.4,1.6,0.9l6-3.5C30.4,358.1,31.1,356.9,31.1,355.9z
				 M31.1,366.2v-5.5c0-1-0.7-1.4-1.6-0.9l-6,3.5c-0.9,0.5-1.6,1.7-1.6,2.7v5.5c0,1,0.7,1.4,1.6,0.9l6-3.5
				C30.4,368.4,31.1,367.2,31.1,366.2z M61.9,338.1v-5.5c0-1-0.7-1.4-1.6-0.9l-6,3.5c-0.9,0.5-1.6,1.7-1.6,2.7v5.5
				c0,1,0.7,1.4,1.6,0.9l6-3.5C61.2,340.3,61.9,339.1,61.9,338.1z M61.9,348.4v-5.5c0-1-0.7-1.4-1.6-0.9l-6,3.5
				c-0.9,0.5-1.6,1.7-1.6,2.7v5.5c0,1,0.7,1.4,1.6,0.9l6-3.5C61.2,350.6,61.9,349.4,61.9,348.4z M72.2,332.2v-5.5
				c0-1-0.7-1.4-1.6-0.9l-6,3.5c-0.9,0.5-1.6,1.7-1.6,2.7v5.5c0,1,0.7,1.4,1.6,0.9l6-3.5C71.5,334.4,72.2,333.2,72.2,332.2z
				 M72.2,342.5V337c0-1-0.7-1.4-1.6-0.9l-6,3.5c-0.9,0.5-1.6,1.7-1.6,2.7v5.5c0,1,0.7,1.4,1.6,0.9l6-3.5
				C71.5,344.7,72.2,343.5,72.2,342.5z M41.4,370.6V365c0-1-0.7-1.4-1.6-0.9l-6,3.5c-0.9,0.5-1.6,1.7-1.6,2.7v5.5
				c0,1,0.7,1.4,1.6,0.9l6-3.5C40.7,372.8,41.4,371.6,41.4,370.6z M51.6,364.7v-5.5c0-1-0.7-1.4-1.6-0.9l-6,3.5
				c-0.9,0.5-1.6,1.7-1.6,2.7v5.5c0,1,0.7,1.4,1.6,0.9l6-3.5C50.9,366.9,51.6,365.6,51.6,364.7z M31.1,376.5v-5.5
				c0-1-0.7-1.4-1.6-0.9l-6,3.5c-0.9,0.5-1.6,1.7-1.6,2.7v5.5c0,1,0.7,1.4,1.6,0.9l6-3.5C30.4,378.7,31.1,377.5,31.1,376.5z
				 M61.9,358.7v-5.5c0-1-0.7-1.4-1.6-0.9l-6,3.5c-0.9,0.5-1.6,1.7-1.6,2.7v5.5c0,1,0.7,1.4,1.6,0.9l6-3.5
				C61.2,360.9,61.9,359.7,61.9,358.7z M72.2,352.8v-5.5c0-1-0.7-1.4-1.6-0.9l-6,3.5c-0.9,0.5-1.6,1.7-1.6,2.7v5.5
				c0,1,0.7,1.4,1.6,0.9l6-3.5C71.5,355,72.2,353.8,72.2,352.8z M101.3,275.9l-6,3.5c-0.9,0.5-1.6,0.1-1.6-0.9v-5.5
				c0-1,0.7-2.2,1.6-2.7l6-3.5c0.9-0.5,1.6-0.1,1.6,0.9v5.5C102.9,274.2,102.2,275.4,101.3,275.9z M102.9,283.5v-5.5
				c0-1-0.7-1.4-1.6-0.9l-6,3.5c-0.9,0.5-1.6,1.7-1.6,2.7l0,5.5c0,1,0.7,1.4,1.6,0.9l6-3.5C102.2,285.7,102.9,284.5,102.9,283.5z
				 M102.9,293.8v-5.5c0-1-0.7-1.4-1.6-0.9l-6,3.5c-0.9,0.5-1.6,1.7-1.6,2.7v5.5c0,1,0.7,1.4,1.6,0.9l6-3.5
				C102.2,296,102.9,294.8,102.9,293.8z M102.9,304.1v-5.5c0-1-0.7-1.4-1.6-0.9l-6,3.5c-0.9,0.5-1.6,1.7-1.6,2.7v5.5
				c0,1,0.7,1.4,1.6,0.9l6-3.5C102.2,306.3,102.9,305.1,102.9,304.1z M113.2,267.2v-5.5c0-1-0.7-1.4-1.6-0.9l-6,3.5
				c-0.9,0.5-1.6,1.7-1.6,2.7v5.5c0,1,0.7,1.4,1.6,0.9l6-3.5C112.5,269.4,113.2,268.2,113.2,267.2z M113.2,277.5V272
				c0-1-0.7-1.4-1.6-0.9l-6,3.5c-0.9,0.5-1.6,1.7-1.6,2.7v5.5c0,1,0.7,1.4,1.6,0.9l6-3.5C112.5,279.8,113.2,278.5,113.2,277.5z
				 M113.2,287.9v-5.5c0-1-0.7-1.4-1.6-0.9l-6,3.5c-0.9,0.5-1.6,1.7-1.6,2.7v5.5c0,1,0.7,1.4,1.6,0.9l6-3.5
				C112.5,290.1,113.2,288.9,113.2,287.9z M113.2,298.2v-5.5c0-1-0.7-1.4-1.6-0.9l-6,3.5c-0.9,0.5-1.6,1.7-1.6,2.7v5.5
				c0,1,0.7,1.4,1.6,0.9l6-3.5C112.5,300.4,113.2,299.2,113.2,298.2z M80.9,287.7l-6,3.5c-0.9,0.5-1.6,0.1-1.6-0.9v-5.5
				c0-1,0.7-2.2,1.6-2.7l6-3.5c0.9-0.5,1.6-0.1,1.6,0.9v5.5C82.4,286,81.7,287.2,80.9,287.7z M82.4,295.3v-5.5c0-1-0.7-1.4-1.6-0.9
				l-6,3.5c-0.9,0.5-1.6,1.7-1.6,2.7v5.5c0,1,0.7,1.4,1.6,0.9l6-3.5C81.7,297.5,82.4,296.3,82.4,295.3z M82.4,305.6v-5.5
				c0-1-0.7-1.4-1.6-0.9l-6,3.5c-0.9,0.5-1.6,1.7-1.6,2.7v5.5c0,1,0.7,1.4,1.6,0.9l6-3.5C81.7,307.8,82.4,306.6,82.4,305.6z
				 M82.4,315.9v-5.5c0-1-0.7-1.4-1.6-0.9l-6,3.5c-0.9,0.5-1.6,1.7-1.6,2.7v5.5c0,1,0.7,1.4,1.6,0.9l6-3.5
				C81.7,318.2,82.4,316.9,82.4,315.9z M92.7,279.1v-5.5c0-1-0.7-1.4-1.6-0.9l-6,3.5c-0.9,0.5-1.6,1.7-1.6,2.7v5.5
				c0,1,0.7,1.4,1.6,0.9l6-3.5C92,281.3,92.7,280.1,92.7,279.1z M92.7,289.4v-5.5c0-1-0.7-1.4-1.6-0.9l-6,3.5
				c-0.9,0.5-1.6,1.7-1.6,2.7v5.5c0,1,0.7,1.4,1.6,0.9l6-3.5C92,291.6,92.7,290.4,92.7,289.4z M92.7,299.7l0-5.5
				c0-1-0.7-1.4-1.6-0.9l-6,3.5c-0.9,0.5-1.6,1.7-1.6,2.7v5.5c0,1,0.7,1.4,1.6,0.9l6-3.5C92,301.9,92.7,300.7,92.7,299.7z M92.7,310
				v-5.5c0-1-0.7-1.4-1.6-0.9l-6,3.5c-0.9,0.5-1.6,1.7-1.6,2.7v5.5c0,1,0.7,1.4,1.6,0.9l6-3.5C92,312.2,92.7,311,92.7,310z
				 M123.4,261.3v-5.5c0-1-0.7-1.4-1.6-0.9l-6,3.5c-0.9,0.5-1.6,1.7-1.6,2.7v5.5c0,1,0.7,1.4,1.6,0.9l6-3.5
				C122.7,263.5,123.4,262.3,123.4,261.3z M123.4,271.6v-5.5c0-1-0.7-1.4-1.6-0.9l-6,3.5c-0.9,0.5-1.6,1.7-1.6,2.7l0,5.5
				c0,1,0.7,1.4,1.6,0.9l6-3.5C122.7,273.8,123.4,272.6,123.4,271.6z M123.4,281.9v-5.5c0-1-0.7-1.4-1.6-0.9l-6,3.5
				c-0.9,0.5-1.6,1.7-1.6,2.7v5.5c0,1,0.7,1.4,1.6,0.9l6-3.5C122.7,284.1,123.4,282.9,123.4,281.9z M123.4,292.3v-5.5
				c0-1-0.7-1.4-1.6-0.9l-6,3.5c-0.9,0.5-1.6,1.7-1.6,2.7v5.5c0,1,0.7,1.4,1.6,0.9l6-3.5C122.7,294.5,123.4,293.3,123.4,292.3z
				 M133.7,255.4v-5.5c0-1-0.7-1.4-1.6-0.9l-6,3.5c-0.9,0.5-1.6,1.7-1.6,2.7v5.5c0,1,0.7,1.4,1.6,0.9l6-3.5
				C133,257.6,133.7,256.4,133.7,255.4z M133.7,265.7v-5.5c0-1-0.7-1.4-1.6-0.9l-6,3.5c-0.9,0.5-1.6,1.7-1.6,2.7v5.5
				c0,1,0.7,1.4,1.6,0.9l6-3.5C133,267.9,133.7,266.7,133.7,265.7z M133.7,276v-5.5c0-1-0.7-1.4-1.6-0.9l-6,3.5
				c-0.9,0.5-1.6,1.7-1.6,2.7v5.5c0,1,0.7,1.4,1.6,0.9l6-3.5C133,278.2,133.7,277,133.7,276z M133.7,286.3v-5.5c0-1-0.7-1.4-1.6-0.9
				l-6,3.5c-0.9,0.5-1.6,1.7-1.6,2.7v5.5c0,1,0.7,1.4,1.6,0.9l6-3.5C133,288.5,133.7,287.3,133.7,286.3z M102.9,314.4v-5.5
				c0-1-0.7-1.4-1.6-0.9l-6,3.5c-0.9,0.5-1.6,1.7-1.6,2.7v5.5c0,1,0.7,1.4,1.6,0.9l6-3.5C102.2,316.6,102.9,315.4,102.9,314.4z
				 M102.9,324.8v-5.5c0-1-0.7-1.4-1.6-0.9l-6,3.5c-0.9,0.5-1.6,1.7-1.6,2.7v5.5c0,1,0.7,1.4,1.6,0.9l6-3.5
				C102.2,327,102.9,325.8,102.9,324.8z M113.2,308.5V303c0-1-0.7-1.4-1.6-0.9l-6,3.5c-0.9,0.5-1.6,1.7-1.6,2.7v5.5
				c0,1,0.7,1.4,1.6,0.9l6-3.5C112.5,310.7,113.2,309.5,113.2,308.5z M113.2,318.8v-5.5c0-1-0.7-1.4-1.6-0.9l-6,3.5
				c-0.9,0.5-1.6,1.7-1.6,2.7v5.5c0,1,0.7,1.4,1.6,0.9l6-3.5C112.5,321,113.2,319.8,113.2,318.8z M82.4,326.3v-5.5
				c0-1-0.7-1.4-1.6-0.9l-6,3.5c-0.9,0.5-1.6,1.7-1.6,2.7v5.5c0,1,0.7,1.4,1.6,0.9l6-3.5C81.7,328.5,82.4,327.3,82.4,326.3z
				 M82.4,336.6v-5.5c0-1-0.7-1.4-1.6-0.9l-6,3.5c-0.9,0.5-1.6,1.7-1.6,2.7v5.5c0,1,0.7,1.4,1.6,0.9l6-3.5
				C81.7,338.8,82.4,337.6,82.4,336.6z M92.7,320.3l0-5.5c0-1-0.7-1.4-1.6-0.9l-6,3.5c-0.9,0.5-1.6,1.7-1.6,2.7v5.5
				c0,1,0.7,1.4,1.6,0.9l6-3.5C92,322.5,92.7,321.3,92.7,320.3z M92.7,330.7v-5.5c0-1-0.7-1.4-1.6-0.9l-6,3.5
				c-0.9,0.5-1.6,1.7-1.6,2.7v5.5c0,1,0.7,1.4,1.6,0.9l6-3.5C92,332.9,92.7,331.7,92.7,330.7z M123.4,302.6V297c0-1-0.7-1.4-1.6-0.9
				l-6,3.5c-0.9,0.5-1.6,1.7-1.6,2.7v5.5c0,1,0.7,1.4,1.6,0.9l6-3.5C122.7,304.8,123.4,303.6,123.4,302.6z M123.4,312.9v-5.5
				c0-1-0.7-1.4-1.6-0.9l-6,3.5c-0.9,0.5-1.6,1.7-1.6,2.7v5.5c0,1,0.7,1.4,1.6,0.9l6-3.5C122.7,315.1,123.4,313.9,123.4,312.9z
				 M133.7,296.7v-5.5c0-1-0.7-1.4-1.6-0.9l-6,3.5c-0.9,0.5-1.6,1.7-1.6,2.7v5.5c0,1,0.7,1.4,1.6,0.9l6-3.5
				C133,298.9,133.7,297.7,133.7,296.7z M133.7,307v-5.5c0-1-0.7-1.4-1.6-0.9l-6,3.5c-0.9,0.5-1.6,1.7-1.6,2.7v5.5
				c0,1,0.7,1.4,1.6,0.9l6-3.5C133,309.2,133.7,308,133.7,307z M102.9,335v-5.5c0-1-0.7-1.4-1.6-0.9l-6,3.5
				c-0.9,0.5-1.6,1.7-1.6,2.7v5.5c0,1,0.7,1.4,1.6,0.9l6-3.5C102.2,337.3,102.9,336,102.9,335z M113.2,329.1v-5.5
				c0-1-0.7-1.4-1.6-0.9l-6,3.5c-0.9,0.5-1.6,1.7-1.6,2.7v5.5c0,1,0.7,1.4,1.6,0.9l6-3.5C112.5,331.3,113.2,330.1,113.2,329.1z
				 M82.4,346.9v-5.5c0-1-0.7-1.4-1.6-0.9l-6,3.5c-0.9,0.5-1.6,1.7-1.6,2.7v5.5c0,1,0.7,1.4,1.6,0.9l6-3.5
				C81.7,349.1,82.4,347.9,82.4,346.9z M92.7,340.9v-5.5c0-1-0.7-1.4-1.6-0.9l-6,3.5c-0.9,0.5-1.6,1.7-1.6,2.7v5.5
				c0,1,0.7,1.4,1.6,0.9l6-3.5C92,343.2,92.7,341.9,92.7,340.9z M123.4,323.2v-5.5c0-1-0.7-1.4-1.6-0.9l-6,3.5
				c-0.9,0.5-1.6,1.7-1.6,2.7v5.5c0,1,0.7,1.4,1.6,0.9l6-3.5C122.7,325.4,123.4,324.2,123.4,323.2z M133.7,317.3v-5.5
				c0-1-0.7-1.4-1.6-0.9l-6,3.5c-0.9,0.5-1.6,1.7-1.6,2.7v5.5c0,1,0.7,1.4,1.6,0.9l6-3.5C133,319.5,133.7,318.3,133.7,317.3z
				 M162.9,240.3l-6,3.5c-0.9,0.5-1.6,0.1-1.6-0.9v-5.5c0-1,0.7-2.2,1.6-2.7l6-3.5c0.9-0.5,1.6-0.1,1.6,0.9v5.5
				C164.5,238.6,163.8,239.8,162.9,240.3z M164.5,247.9v-5.5c0-1-0.7-1.4-1.6-0.9l-6,3.5c-0.9,0.5-1.6,1.7-1.6,2.7v5.5
				c0,1,0.7,1.4,1.6,0.9l6-3.5C163.8,250.1,164.5,248.9,164.5,247.9z M164.5,258.3v-5.5c0-1-0.7-1.4-1.6-0.9l-6,3.5
				c-0.9,0.5-1.6,1.7-1.6,2.7v5.5c0,1,0.7,1.4,1.6,0.9l6-3.5C163.8,260.5,164.5,259.3,164.5,258.3z M164.5,268.6V263
				c0-1-0.7-1.4-1.6-0.9l-6,3.5c-0.9,0.5-1.6,1.7-1.6,2.7v5.5c0,1,0.7,1.4,1.6,0.9l6-3.5C163.8,270.8,164.5,269.6,164.5,268.6z
				 M174.7,231.7v-5.5c0-1-0.7-1.4-1.6-0.9l-6,3.5c-0.9,0.5-1.6,1.7-1.6,2.7v5.5c0,1,0.7,1.4,1.6,0.9l6-3.5
				C174,233.9,174.7,232.7,174.7,231.7z M174.7,242v-5.5c0-1-0.7-1.4-1.6-0.9l-6,3.5c-0.9,0.5-1.6,1.7-1.6,2.7v5.5
				c0,1,0.7,1.4,1.6,0.9l6-3.5C174,244.2,174.7,243,174.7,242z M174.7,252.3l0-5.5c0-1-0.7-1.4-1.6-0.9l-6,3.5
				c-0.9,0.5-1.6,1.7-1.6,2.7v5.5c0,1,0.7,1.4,1.6,0.9l6-3.5C174,254.5,174.7,253.3,174.7,252.3z M174.7,262.7v-5.5
				c0-1-0.7-1.4-1.6-0.9l-6,3.5c-0.9,0.5-1.6,1.7-1.6,2.7v5.5c0,1,0.7,1.4,1.6,0.9l6-3.5C174,264.9,174.7,263.6,174.7,262.7z
				 M142.4,252.2l-6,3.5c-0.9,0.5-1.6,0.1-1.6-0.9v-5.5c0-1,0.7-2.2,1.6-2.7l6-3.5c0.9-0.5,1.6-0.1,1.6,0.9v5.5
				C144,250.4,143.3,251.7,142.4,252.2z M144,259.8v-5.5c0-1-0.7-1.4-1.6-0.9l-6,3.5c-0.9,0.5-1.6,1.7-1.6,2.7v5.5
				c0,1,0.7,1.4,1.6,0.9l6-3.5C143.3,262,144,260.8,144,259.8z M144,270.1v-5.5c0-1-0.7-1.4-1.6-0.9l-6,3.5
				c-0.9,0.5-1.6,1.7-1.6,2.7l0,5.5c0,1,0.7,1.4,1.6,0.9l6-3.5C143.3,272.3,144,271.1,144,270.1z M144,280.4v-5.5
				c0-1-0.7-1.4-1.6-0.9l-6,3.5c-0.9,0.5-1.6,1.7-1.6,2.7v5.5c0,1,0.7,1.4,1.6,0.9l6-3.5C143.3,282.6,144,281.4,144,280.4z
				 M154.2,243.5V238c0-1-0.7-1.4-1.6-0.9l-6,3.5c-0.9,0.5-1.6,1.7-1.6,2.7v5.5c0,1,0.7,1.4,1.6,0.9l6-3.5
				C153.5,245.7,154.2,244.5,154.2,243.5z M154.2,253.8v-5.5c0-1-0.7-1.4-1.6-0.9l-6,3.5c-0.9,0.5-1.6,1.7-1.6,2.7v5.5
				c0,1,0.7,1.4,1.6,0.9l6-3.5C153.5,256,154.2,254.8,154.2,253.8z M154.2,264.2v-5.5c0-1-0.7-1.4-1.6-0.9l-6,3.5
				c-0.9,0.5-1.6,1.7-1.6,2.7v5.5c0,1,0.7,1.4,1.6,0.9l6-3.5C153.5,266.4,154.2,265.2,154.2,264.2z M154.2,274.5v-5.5
				c0-1-0.7-1.4-1.6-0.9l-6,3.5c-0.9,0.5-1.6,1.7-1.6,2.7v5.5c0,1,0.7,1.4,1.6,0.9l6-3.5C153.5,276.7,154.2,275.5,154.2,274.5z
				 M185,225.8v-5.5c0-1-0.7-1.4-1.6-0.9l-6,3.5c-0.9,0.5-1.6,1.7-1.6,2.7v5.5c0,1,0.7,1.4,1.6,0.9l6-3.5
				C184.3,228,185,226.8,185,225.8z M185,236.1v-5.5c0-1-0.7-1.4-1.6-0.9l-6,3.5c-0.9,0.5-1.6,1.7-1.6,2.7v5.5c0,1,0.7,1.4,1.6,0.9
				l6-3.5C184.3,238.3,185,237.1,185,236.1z M185,246.4v-5.5c0-1-0.7-1.4-1.6-0.9l-6,3.5c-0.9,0.5-1.6,1.7-1.6,2.7v5.5
				c0,1,0.7,1.4,1.6,0.9l6-3.5C184.3,248.6,185,247.4,185,246.4z M185,256.7v-5.5c0-1-0.7-1.4-1.6-0.9l-6,3.5
				c-0.9,0.5-1.6,1.7-1.6,2.7v5.5c0,1,0.7,1.4,1.6,0.9l6-3.5C184.3,258.9,185,257.7,185,256.7z M195.3,219.8v-5.5
				c0-1-0.7-1.4-1.6-0.9l-6,3.5c-0.9,0.5-1.6,1.7-1.6,2.7v5.5c0,1,0.7,1.4,1.6,0.9l6-3.5C194.6,222,195.3,220.8,195.3,219.8z
				 M195.3,230.2v-5.5c0-1-0.7-1.4-1.6-0.9l-6,3.5c-0.9,0.5-1.6,1.7-1.6,2.7v5.5c0,1,0.7,1.4,1.6,0.9l6-3.5
				C194.6,232.4,195.3,231.2,195.3,230.2z M195.3,240.5l0-5.5c0-1-0.7-1.4-1.6-0.9l-6,3.5c-0.9,0.5-1.6,1.7-1.6,2.7v5.5
				c0,1,0.7,1.4,1.6,0.9l6-3.5C194.6,242.7,195.3,241.5,195.3,240.5z M195.3,250.8v-5.5c0-1-0.7-1.4-1.6-0.9l-6,3.5
				c-0.9,0.5-1.6,1.7-1.6,2.7v5.5c0,1,0.7,1.4,1.6,0.9l6-3.5C194.6,253,195.3,251.8,195.3,250.8z M164.5,278.9v-5.5
				c0-1-0.7-1.4-1.6-0.9l-6,3.5c-0.9,0.5-1.6,1.7-1.6,2.7v5.5c0,1,0.7,1.4,1.6,0.9l6-3.5C163.8,281.1,164.5,279.9,164.5,278.9z
				 M164.5,289.2v-5.5c0-1-0.7-1.4-1.6-0.9l-6,3.5c-0.9,0.5-1.6,1.7-1.6,2.7v5.5c0,1,0.7,1.4,1.6,0.9l6-3.5
				C163.8,291.4,164.5,290.2,164.5,289.2z M174.7,273l0-5.5c0-1-0.7-1.4-1.6-0.9l-6,3.5c-0.9,0.5-1.6,1.7-1.6,2.7v5.5
				c0,1,0.7,1.4,1.6,0.9l6-3.5C174,275.2,174.7,274,174.7,273z M174.7,283.3v-5.5c0-1-0.7-1.4-1.6-0.9l-6,3.5
				c-0.9,0.5-1.6,1.7-1.6,2.7v5.5c0,1,0.7,1.4,1.6,0.9l6-3.5C174,285.5,174.7,284.3,174.7,283.3z M144,290.7v-5.5
				c0-1-0.7-1.4-1.6-0.9l-6,3.5c-0.9,0.5-1.6,1.7-1.6,2.7l0,5.5c0,1,0.7,1.4,1.6,0.9l6-3.5C143.3,292.9,144,291.7,144,290.7z
				 M144,301.1v-5.5c0-1-0.7-1.4-1.6-0.9l-6,3.5c-0.9,0.5-1.6,1.7-1.6,2.7v5.5c0,1,0.7,1.4,1.6,0.9l6-3.5
				C143.3,303.3,144,302,144,301.1z M154.2,284.8v-5.5c0-1-0.7-1.4-1.6-0.9l-6,3.5c-0.9,0.5-1.6,1.7-1.6,2.7v5.5
				c0,1,0.7,1.4,1.6,0.9l6-3.5C153.5,287,154.2,285.8,154.2,284.8z M154.2,295.1v-5.5c0-1-0.7-1.4-1.6-0.9l-6,3.5
				c-0.9,0.5-1.6,1.7-1.6,2.7v5.5c0,1,0.7,1.4,1.6,0.9l6-3.5C153.5,297.3,154.2,296.1,154.2,295.1z M185,267v-5.5
				c0-1-0.7-1.4-1.6-0.9l-6,3.5c-0.9,0.5-1.6,1.7-1.6,2.7v5.5c0,1,0.7,1.4,1.6,0.9l6-3.5C184.3,269.3,185,268,185,267z M185,277.4
				v-5.5c0-1-0.7-1.4-1.6-0.9l-6,3.5c-0.9,0.5-1.6,1.7-1.6,2.7v5.5c0,1,0.7,1.4,1.6,0.9l6-3.5C184.3,279.6,185,278.4,185,277.4z
				 M195.3,261.1l0-5.5c0-1-0.7-1.4-1.6-0.9l-6,3.5c-0.9,0.5-1.6,1.7-1.6,2.7v5.5c0,1,0.7,1.4,1.6,0.9l6-3.5
				C194.6,263.3,195.3,262.1,195.3,261.1z M195.3,271.4v-5.5c0-1-0.7-1.4-1.6-0.9l-6,3.5c-0.9,0.5-1.6,1.7-1.6,2.7v5.5
				c0,1,0.7,1.4,1.6,0.9l6-3.5C194.6,273.6,195.3,272.4,195.3,271.4z M164.5,299.5V294c0-1-0.7-1.4-1.6-0.9l-6,3.5
				c-0.9,0.5-1.6,1.7-1.6,2.7v5.5c0,1,0.7,1.4,1.6,0.9l6-3.5C163.8,301.7,164.5,300.5,164.5,299.5z M174.7,293.6V288
				c0-1-0.7-1.4-1.6-0.9l-6,3.5c-0.9,0.5-1.6,1.7-1.6,2.7v5.5c0,1,0.7,1.4,1.6,0.9l6-3.5C174,295.8,174.7,294.6,174.7,293.6z
				 M144,311.3v-5.5c0-1-0.7-1.4-1.6-0.9l-6,3.5c-0.9,0.5-1.6,1.7-1.6,2.7v5.5c0,1,0.7,1.4,1.6,0.9l6-3.5
				C143.3,313.5,144,312.3,144,311.3z M154.2,305.4v-5.5c0-1-0.7-1.4-1.6-0.9l-6,3.5c-0.9,0.5-1.6,1.7-1.6,2.7v5.5
				c0,1,0.7,1.4,1.6,0.9l6-3.5C153.5,307.6,154.2,306.4,154.2,305.4z M185,287.7v-5.5c0-1-0.7-1.4-1.6-0.9l-6,3.5
				c-0.9,0.5-1.6,1.7-1.6,2.7v5.5c0,1,0.7,1.4,1.6,0.9l6-3.5C184.3,289.9,185,288.6,185,287.7z M195.3,281.7v-5.5
				c0-1-0.7-1.4-1.6-0.9l-6,3.5c-0.9,0.5-1.6,1.7-1.6,2.7v5.5c0,1,0.7,1.4,1.6,0.9l6-3.5C194.6,283.9,195.3,282.7,195.3,281.7z"/>
            <path class="st33" d="M374.4,118.2l-6,3.5c-0.9,0.5-1.6,0.1-1.6-0.9v-5.5c0-1,0.7-2.2,1.6-2.7l6-3.5c0.9-0.5,1.6-0.1,1.6,0.9v5.5
				C376,116.5,375.3,117.7,374.4,118.2z M376,125.8v-5.5c0-1-0.7-1.4-1.6-0.9l-6,3.5c-0.9,0.5-1.6,1.7-1.6,2.7l0,5.5
				c0,1,0.7,1.4,1.6,0.9l6-3.5C375.3,128,376,126.8,376,125.8z M376,136.1v-5.5c0-1-0.7-1.4-1.6-0.9l-6,3.5
				c-0.9,0.5-1.6,1.7-1.6,2.7v5.5c0,1,0.7,1.4,1.6,0.9l6-3.5C375.3,138.3,376,137.1,376,136.1z M376,146.5v-5.5c0-1-0.7-1.4-1.6-0.9
				l-6,3.5c-0.9,0.5-1.6,1.7-1.6,2.7v5.5c0,1,0.7,1.4,1.6,0.9l6-3.5C375.3,148.7,376,147.4,376,146.5z M386.3,109.6V104
				c0-1-0.7-1.4-1.6-0.9l-6,3.5c-0.9,0.5-1.6,1.7-1.6,2.7v5.5c0,1,0.7,1.4,1.6,0.9l6-3.5C385.6,111.8,386.3,110.6,386.3,109.6z
				 M386.3,119.9v-5.5c0-1-0.7-1.4-1.6-0.9l-6,3.5c-0.9,0.5-1.6,1.7-1.6,2.7v5.5c0,1,0.7,1.4,1.6,0.9l6-3.5
				C385.6,122.1,386.3,120.9,386.3,119.9z M386.3,130.2v-5.5c0-1-0.7-1.4-1.6-0.9l-6,3.5c-0.9,0.5-1.6,1.7-1.6,2.7v5.5
				c0,1,0.7,1.4,1.6,0.9l6-3.5C385.6,132.4,386.3,131.2,386.3,130.2z M386.3,140.5V135c0-1-0.7-1.4-1.6-0.9l-6,3.5
				c-0.9,0.5-1.6,1.7-1.6,2.7v5.5c0,1,0.7,1.4,1.6,0.9l6-3.5C385.6,142.7,386.3,141.5,386.3,140.5z M365.8,121.4v-5.5
				c0-1-0.7-1.4-1.6-0.9l-6,3.5c-0.9,0.5-1.6,1.7-1.6,2.7v5.5c0,1,0.7,1.4,1.6,0.9l6-3.5C365.1,123.6,365.8,122.4,365.8,121.4z
				 M365.8,131.7v-5.5c0-1-0.7-1.4-1.6-0.9l-6,3.5c-0.9,0.5-1.6,1.7-1.6,2.7v5.5c0,1,0.7,1.4,1.6,0.9l6-3.5
				C365.1,133.9,365.8,132.7,365.8,131.7z M365.8,142l0-5.5c0-1-0.7-1.4-1.6-0.9l-6,3.5c-0.9,0.5-1.6,1.7-1.6,2.7v5.5
				c0,1,0.7,1.4,1.6,0.9l6-3.5C365.1,144.2,365.8,143,365.8,142z M365.8,152.4v-5.5c0-1-0.7-1.4-1.6-0.9l-6,3.5
				c-0.9,0.5-1.6,1.7-1.6,2.7v5.5c0,1,0.7,1.4,1.6,0.9l6-3.5C365.1,154.6,365.8,153.3,365.8,152.4z M396.5,103.6v-5.5
				c0-1-0.7-1.4-1.6-0.9l-6,3.5c-0.9,0.5-1.6,1.7-1.6,2.7v5.5c0,1,0.7,1.4,1.6,0.9l6-3.5C395.8,105.8,396.5,104.6,396.5,103.6z
				 M396.5,114v-5.5c0-1-0.7-1.4-1.6-0.9l-6,3.5c-0.9,0.5-1.6,1.7-1.6,2.7l0,5.5c0,1,0.7,1.4,1.6,0.9l6-3.5
				C395.8,116.2,396.5,115,396.5,114z M396.5,124.3v-5.5c0-1-0.7-1.4-1.6-0.9l-6,3.5c-0.9,0.5-1.6,1.7-1.6,2.7v5.5
				c0,1,0.7,1.4,1.6,0.9l6-3.5C395.8,126.5,396.5,125.3,396.5,124.3z M396.5,134.6v-5.5c0-1-0.7-1.4-1.6-0.9l-6,3.5
				c-0.9,0.5-1.6,1.7-1.6,2.7v5.5c0,1,0.7,1.4,1.6,0.9l6-3.5C395.8,136.8,396.5,135.6,396.5,134.6z M406.8,97.7v-5.5
				c0-1-0.7-1.4-1.6-0.9l-6,3.5c-0.9,0.5-1.6,1.7-1.6,2.7v5.5c0,1,0.7,1.4,1.6,0.9l6-3.5C406.1,99.9,406.8,98.7,406.8,97.7z
				 M406.8,108v-5.5c0-1-0.7-1.4-1.6-0.9l-6,3.5c-0.9,0.5-1.6,1.7-1.6,2.7v5.5c0,1,0.7,1.4,1.6,0.9l6-3.5
				C406.1,110.2,406.8,109,406.8,108z M406.8,118.3v-5.5c0-1-0.7-1.4-1.6-0.9l-6,3.5c-0.9,0.5-1.6,1.7-1.6,2.7v5.5
				c0,1,0.7,1.4,1.6,0.9l6-3.5C406.1,120.6,406.8,119.3,406.8,118.3z M406.8,128.7v-5.5c0-1-0.7-1.4-1.6-0.9l-6,3.5
				c-0.9,0.5-1.6,1.7-1.6,2.7v5.5c0,1,0.7,1.4,1.6,0.9l6-3.5C406.1,130.9,406.8,129.7,406.8,128.7z M376,156.8v-5.5
				c0-1-0.7-1.4-1.6-0.9l-6,3.5c-0.9,0.5-1.6,1.7-1.6,2.7v5.5c0,1,0.7,1.4,1.6,0.9l6-3.5C375.3,159,376,157.8,376,156.8z M376,167.1
				v-5.5c0-1-0.7-1.4-1.6-0.9l-6,3.5c-0.9,0.5-1.6,1.7-1.6,2.7v5.5c0,1,0.7,1.4,1.6,0.9l6-3.5C375.3,169.3,376,168.1,376,167.1z
				 M386.3,150.8v-5.5c0-1-0.7-1.4-1.6-0.9l-6,3.5c-0.9,0.5-1.6,1.7-1.6,2.7v5.5c0,1,0.7,1.4,1.6,0.9l6-3.5
				C385.6,153.1,386.3,151.8,386.3,150.8z M386.3,161.2v-5.5c0-1-0.7-1.4-1.6-0.9l-6,3.5c-0.9,0.5-1.6,1.7-1.6,2.7v5.5
				c0,1,0.7,1.4,1.6,0.9l6-3.5C385.6,163.4,386.3,162.2,386.3,161.2z M365.8,162.7l0-5.5c0-1-0.7-1.4-1.6-0.9l-6,3.5
				c-0.9,0.5-1.6,1.7-1.6,2.7v5.5c0,1,0.7,1.4,1.6,0.9l6-3.5C365.1,164.9,365.8,163.7,365.8,162.7z M365.8,173v-5.5
				c0-1-0.7-1.4-1.6-0.9l-6,3.5c-0.9,0.5-1.6,1.7-1.6,2.7v5.5c0,1,0.7,1.4,1.6,0.9l6-3.5C365.1,175.2,365.8,174,365.8,173z
				 M396.5,144.9v-5.5c0-1-0.7-1.4-1.6-0.9l-6,3.5c-0.9,0.5-1.6,1.7-1.6,2.7v5.5c0,1,0.7,1.4,1.6,0.9l6-3.5
				C395.8,147.1,396.5,145.9,396.5,144.9z M396.5,155.2v-5.5c0-1-0.7-1.4-1.6-0.9l-6,3.5c-0.9,0.5-1.6,1.7-1.6,2.7v5.5
				c0,1,0.7,1.4,1.6,0.9l6-3.5C395.8,157.4,396.5,156.2,396.5,155.2z M406.8,139v-5.5c0-1-0.7-1.4-1.6-0.9l-6,3.5
				c-0.9,0.5-1.6,1.7-1.6,2.7v5.5c0,1,0.7,1.4,1.6,0.9l6-3.5C406.1,141.2,406.8,140,406.8,139z M406.8,149.3v-5.5
				c0-1-0.7-1.4-1.6-0.9l-6,3.5c-0.9,0.5-1.6,1.7-1.6,2.7v5.5c0,1,0.7,1.4,1.6,0.9l6-3.5C406.1,151.5,406.8,150.3,406.8,149.3z
				 M376,177.4v-5.5c0-1-0.7-1.4-1.6-0.9l-6,3.5c-0.9,0.5-1.6,1.7-1.6,2.7v5.5c0,1,0.7,1.4,1.6,0.9l6-3.5
				C375.3,179.6,376,178.4,376,177.4z M386.3,171.5v-5.5c0-1-0.7-1.4-1.6-0.9l-6,3.5c-0.9,0.5-1.6,1.7-1.6,2.7v5.5
				c0,1,0.7,1.4,1.6,0.9l6-3.5C385.6,173.7,386.3,172.4,386.3,171.5z M365.8,183.3v-5.5c0-1-0.7-1.4-1.6-0.9l-6,3.5
				c-0.9,0.5-1.6,1.7-1.6,2.7v5.5c0,1,0.7,1.4,1.6,0.9l6-3.5C365.1,185.5,365.8,184.3,365.8,183.3z M396.5,165.5V160
				c0-1-0.7-1.4-1.6-0.9l-6,3.5c-0.9,0.5-1.6,1.7-1.6,2.7v5.5c0,1,0.7,1.4,1.6,0.9l6-3.5C395.8,167.7,396.5,166.5,396.5,165.5z
				 M406.8,159.6v-5.5c0-1-0.7-1.4-1.6-0.9l-6,3.5c-0.9,0.5-1.6,1.7-1.6,2.7v5.5c0,1,0.7,1.4,1.6,0.9l6-3.5
				C406.1,161.8,406.8,160.6,406.8,159.6z M436,82.7l-6,3.5c-0.9,0.5-1.6,0.1-1.6-0.9v-5.5c0-1,0.7-2.2,1.6-2.7l6-3.5
				c0.9-0.5,1.6-0.1,1.6,0.9V80C437.5,81,436.8,82.2,436,82.7z M437.5,90.3v-5.5c0-1-0.7-1.4-1.6-0.9l-6,3.5
				c-0.9,0.5-1.6,1.7-1.6,2.7v5.5c0,1,0.7,1.4,1.6,0.9l6-3.5C436.8,92.5,437.5,91.3,437.5,90.3z M437.5,100.6v-5.5
				c0-1-0.7-1.4-1.6-0.9l-6,3.5c-0.9,0.5-1.6,1.7-1.6,2.7v5.5c0,1,0.7,1.4,1.6,0.9l6-3.5C436.8,102.8,437.5,101.6,437.5,100.6z
				 M437.5,110.9v-5.5c0-1-0.7-1.4-1.6-0.9l-6,3.5c-0.9,0.5-1.6,1.7-1.6,2.7v5.5c0,1,0.7,1.4,1.6,0.9l6-3.5
				C436.8,113.1,437.5,111.9,437.5,110.9z M447.8,74v-5.5c0-1-0.7-1.4-1.6-0.9l-6,3.5c-0.9,0.5-1.6,1.7-1.6,2.7v5.5
				c0,1,0.7,1.4,1.6,0.9l6-3.5C447.1,76.2,447.8,75,447.8,74z M447.8,84.3v-5.5c0-1-0.7-1.4-1.6-0.9l-6,3.5
				c-0.9,0.5-1.6,1.7-1.6,2.7v5.5c0,1,0.7,1.4,1.6,0.9l6-3.5C447.1,86.6,447.8,85.3,447.8,84.3z M447.8,94.7l0-5.5
				c0-1-0.7-1.4-1.6-0.9l-6,3.5c-0.9,0.5-1.6,1.7-1.6,2.7v5.5c0,1,0.7,1.4,1.6,0.9l6-3.5C447.1,96.9,447.8,95.7,447.8,94.7z
				 M447.8,105v-5.5c0-1-0.7-1.4-1.6-0.9l-6,3.5c-0.9,0.5-1.6,1.7-1.6,2.7v5.5c0,1,0.7,1.4,1.6,0.9l6-3.5
				C447.1,107.2,447.8,106,447.8,105z M415.5,94.5l-6,3.5c-0.9,0.5-1.6,0.1-1.6-0.9v-5.5c0-1,0.7-2.2,1.6-2.7l6-3.5
				c0.9-0.5,1.6-0.1,1.6,0.9v5.5C417.1,92.8,416.4,94,415.5,94.5z M417.1,102.1v-5.5c0-1-0.7-1.4-1.6-0.9l-6,3.5
				c-0.9,0.5-1.6,1.7-1.6,2.7v5.5c0,1,0.7,1.4,1.6,0.9l6-3.5C416.4,104.3,417.1,103.1,417.1,102.1z M417.1,112.4v-5.5
				c0-1-0.7-1.4-1.6-0.9l-6,3.5c-0.9,0.5-1.6,1.7-1.6,2.7l0,5.5c0,1,0.7,1.4,1.6,0.9l6-3.5C416.4,114.6,417.1,113.4,417.1,112.4z
				 M417.1,122.7v-5.5c0-1-0.7-1.4-1.6-0.9l-6,3.5c-0.9,0.5-1.6,1.7-1.6,2.7v5.5c0,1,0.7,1.4,1.6,0.9l6-3.5
				C416.4,125,417.1,123.7,417.1,122.7z M427.3,85.9v-5.5c0-1-0.7-1.4-1.6-0.9l-6,3.5c-0.9,0.5-1.6,1.7-1.6,2.7v5.5
				c0,1,0.7,1.4,1.6,0.9l6-3.5C426.6,88.1,427.3,86.8,427.3,85.9z M427.3,96.2v-5.5c0-1-0.7-1.4-1.6-0.9l-6,3.5
				c-0.9,0.5-1.6,1.7-1.6,2.7v5.5c0,1,0.7,1.4,1.6,0.9l6-3.5C426.6,98.4,427.3,97.2,427.3,96.2z M427.3,106.5V101
				c0-1-0.7-1.4-1.6-0.9l-6,3.5c-0.9,0.5-1.6,1.7-1.6,2.7v5.5c0,1,0.7,1.4,1.6,0.9l6-3.5C426.6,108.7,427.3,107.5,427.3,106.5z
				 M427.3,116.8v-5.5c0-1-0.7-1.4-1.6-0.9l-6,3.5c-0.9,0.5-1.6,1.7-1.6,2.7v5.5c0,1,0.7,1.4,1.6,0.9l6-3.5
				C426.6,119,427.3,117.8,427.3,116.8z M458.1,68.1v-5.5c0-1-0.7-1.4-1.6-0.9l-6,3.5c-0.9,0.5-1.6,1.7-1.6,2.7v5.5
				c0,1,0.7,1.4,1.6,0.9l6-3.5C457.4,70.3,458.1,69.1,458.1,68.1z M458.1,78.4v-5.5c0-1-0.7-1.4-1.6-0.9l-6,3.5
				c-0.9,0.5-1.6,1.7-1.6,2.7v5.5c0,1,0.7,1.4,1.6,0.9l6-3.5C457.4,80.6,458.1,79.4,458.1,78.4z M458.1,88.7v-5.5
				c0-1-0.7-1.4-1.6-0.9l-6,3.5c-0.9,0.5-1.6,1.7-1.6,2.7V94c0,1,0.7,1.4,1.6,0.9l6-3.5C457.4,90.9,458.1,89.7,458.1,88.7z
				 M458.1,99.1v-5.5c0-1-0.7-1.4-1.6-0.9l-6,3.5c-0.9,0.5-1.6,1.7-1.6,2.7v5.5c0,1,0.7,1.4,1.6,0.9l6-3.5
				C457.4,101.3,458.1,100.1,458.1,99.1z M468.3,62.2v-5.5c0-1-0.7-1.4-1.6-0.9l-6,3.5c-0.9,0.5-1.6,1.7-1.6,2.7v5.5
				c0,1,0.7,1.4,1.6,0.9l6-3.5C467.6,64.4,468.3,63.2,468.3,62.2z M468.3,72.5V67c0-1-0.7-1.4-1.6-0.9l-6,3.5
				c-0.9,0.5-1.6,1.7-1.6,2.7v5.5c0,1,0.7,1.4,1.6,0.9l6-3.5C467.6,74.7,468.3,73.5,468.3,72.5z M468.3,82.8v-5.5
				c0-1-0.7-1.4-1.6-0.9l-6,3.5c-0.9,0.5-1.6,1.7-1.6,2.7l0,5.5c0,1,0.7,1.4,1.6,0.9l6-3.5C467.6,85,468.3,83.8,468.3,82.8z
				 M468.3,93.1v-5.5c0-1-0.7-1.4-1.6-0.9l-6,3.5c-0.9,0.5-1.6,1.7-1.6,2.7v5.5c0,1,0.7,1.4,1.6,0.9l6-3.5
				C467.6,95.3,468.3,94.1,468.3,93.1z M437.5,121.2v-5.5c0-1-0.7-1.4-1.6-0.9l-6,3.5c-0.9,0.5-1.6,1.7-1.6,2.7v5.5
				c0,1,0.7,1.4,1.6,0.9l6-3.5C436.8,123.4,437.5,122.2,437.5,121.2z M437.5,131.6V126c0-1-0.7-1.4-1.6-0.9l-6,3.5
				c-0.9,0.5-1.6,1.7-1.6,2.7v5.5c0,1,0.7,1.4,1.6,0.9l6-3.5C436.8,133.8,437.5,132.6,437.5,131.6z M447.8,115.3l0-5.5
				c0-1-0.7-1.4-1.6-0.9l-6,3.5c-0.9,0.5-1.6,1.7-1.6,2.7v5.5c0,1,0.7,1.4,1.6,0.9l6-3.5C447.1,117.5,447.8,116.3,447.8,115.3z
				 M447.8,125.6v-5.5c0-1-0.7-1.4-1.6-0.9l-6,3.5c-0.9,0.5-1.6,1.7-1.6,2.7v5.5c0,1,0.7,1.4,1.6,0.9l6-3.5
				C447.1,127.8,447.8,126.6,447.8,125.6z M417.1,133.1v-5.5c0-1-0.7-1.4-1.6-0.9l-6,3.5c-0.9,0.5-1.6,1.7-1.6,2.7l0,5.5
				c0,1,0.7,1.4,1.6,0.9l6-3.5C416.4,135.3,417.1,134.1,417.1,133.1z M417.1,143.4v-5.5c0-1-0.7-1.4-1.6-0.9l-6,3.5
				c-0.9,0.5-1.6,1.7-1.6,2.7v5.5c0,1,0.7,1.4,1.6,0.9l6-3.5C416.4,145.6,417.1,144.4,417.1,143.4z M427.3,127.1v-5.5
				c0-1-0.7-1.4-1.6-0.9l-6,3.5c-0.9,0.5-1.6,1.7-1.6,2.7v5.5c0,1,0.7,1.4,1.6,0.9l6-3.5C426.6,129.3,427.3,128.1,427.3,127.1z
				 M427.3,137.5v-5.5c0-1-0.7-1.4-1.6-0.9l-6,3.5c-0.9,0.5-1.6,1.7-1.6,2.7v5.5c0,1,0.7,1.4,1.6,0.9l6-3.5
				C426.6,139.7,427.3,138.5,427.3,137.5z M458.1,109.4v-5.5c0-1-0.7-1.4-1.6-0.9l-6,3.5c-0.9,0.5-1.6,1.7-1.6,2.7v5.5
				c0,1,0.7,1.4,1.6,0.9l6-3.5C457.4,111.6,458.1,110.4,458.1,109.4z M458.1,119.7v-5.5c0-1-0.7-1.4-1.6-0.9l-6,3.5
				c-0.9,0.5-1.6,1.7-1.6,2.7v5.5c0,1,0.7,1.4,1.6,0.9l6-3.5C457.4,121.9,458.1,120.7,458.1,119.7z M468.3,103.5v-5.5
				c0-1-0.7-1.4-1.6-0.9l-6,3.5c-0.9,0.5-1.6,1.7-1.6,2.7l0,5.5c0,1,0.7,1.4,1.6,0.9l6-3.5C467.6,105.7,468.3,104.5,468.3,103.5z
				 M468.3,113.8v-5.5c0-1-0.7-1.4-1.6-0.9l-6,3.5c-0.9,0.5-1.6,1.7-1.6,2.7v5.5c0,1,0.7,1.4,1.6,0.9l6-3.5
				C467.6,116,468.3,114.8,468.3,113.8z M437.5,141.8v-5.5c0-1-0.7-1.4-1.6-0.9l-6,3.5c-0.9,0.5-1.6,1.7-1.6,2.7v5.5
				c0,1,0.7,1.4,1.6,0.9l6-3.5C436.8,144.1,437.5,142.8,437.5,141.8z M447.8,135.9v-5.5c0-1-0.7-1.4-1.6-0.9l-6,3.5
				c-0.9,0.5-1.6,1.7-1.6,2.7v5.5c0,1,0.7,1.4,1.6,0.9l6-3.5C447.1,138.1,447.8,136.9,447.8,135.9z M417.1,153.7v-5.5
				c0-1-0.7-1.4-1.6-0.9l-6,3.5c-0.9,0.5-1.6,1.7-1.6,2.7v5.5c0,1,0.7,1.4,1.6,0.9l6-3.5C416.4,155.9,417.1,154.7,417.1,153.7z
				 M427.3,147.7v-5.5c0-1-0.7-1.4-1.6-0.9l-6,3.5c-0.9,0.5-1.6,1.7-1.6,2.7v5.5c0,1,0.7,1.4,1.6,0.9l6-3.5
				C426.6,150,427.3,148.7,427.3,147.7z M458.1,130v-5.5c0-1-0.7-1.4-1.6-0.9l-6,3.5c-0.9,0.5-1.6,1.7-1.6,2.7v5.5
				c0,1,0.7,1.4,1.6,0.9l6-3.5C457.4,132.2,458.1,131,458.1,130z M468.3,124.1v-5.5c0-1-0.7-1.4-1.6-0.9l-6,3.5
				c-0.9,0.5-1.6,1.7-1.6,2.7v5.5c0,1,0.7,1.4,1.6,0.9l6-3.5C467.6,126.3,468.3,125.1,468.3,124.1z M497.5,47.1l-6,3.5
				c-0.9,0.5-1.6,0.1-1.6-0.9v-5.5c0-1,0.7-2.2,1.6-2.7l6-3.5c0.9-0.5,1.6-0.1,1.6,0.9v5.5C499.1,45.4,498.4,46.6,497.5,47.1z
				 M499.1,54.7v-5.5c0-1-0.7-1.4-1.6-0.9l-6,3.5c-0.9,0.5-1.6,1.7-1.6,2.7V60c0,1,0.7,1.4,1.6,0.9l6-3.5
				C498.4,56.9,499.1,55.7,499.1,54.7z M499.1,65.1v-5.5c0-1-0.7-1.4-1.6-0.9l-6,3.5c-0.9,0.5-1.6,1.7-1.6,2.7l0,5.5
				c0,1,0.7,1.4,1.6,0.9l6-3.5C498.4,67.3,499.1,66.1,499.1,65.1z M499.1,75.4l0-5.5c0-1-0.7-1.4-1.6-0.9l-6,3.5
				c-0.9,0.5-1.6,1.7-1.6,2.7v5.5c0,1,0.7,1.4,1.6,0.9l6-3.5C498.4,77.6,499.1,76.4,499.1,75.4z M509.4,38.5V33c0-1-0.7-1.4-1.6-0.9
				l-6,3.5c-0.9,0.5-1.6,1.7-1.6,2.7v5.5c0,1,0.7,1.4,1.6,0.9l6-3.5C508.7,40.7,509.4,39.5,509.4,38.5z M509.4,48.8v-5.5
				c0-1-0.7-1.4-1.6-0.9l-6,3.5c-0.9,0.5-1.6,1.7-1.6,2.7v5.5c0,1,0.7,1.4,1.6,0.9l6-3.5C508.7,51,509.4,49.8,509.4,48.8z
				 M509.4,59.1v-5.5c0-1-0.7-1.4-1.6-0.9l-6,3.5c-0.9,0.5-1.6,1.7-1.6,2.7v5.5c0,1,0.7,1.4,1.6,0.9l6-3.5
				C508.7,61.3,509.4,60.1,509.4,59.1z M509.4,69.5v-5.5c0-1-0.7-1.4-1.6-0.9l-6,3.5c-0.9,0.5-1.6,1.7-1.6,2.7v5.5
				c0,1,0.7,1.4,1.6,0.9l6-3.5C508.7,71.7,509.4,70.4,509.4,69.5z M477,59l-6,3.5c-0.9,0.5-1.6,0.1-1.6-0.9V56c0-1,0.7-2.2,1.6-2.7
				l6-3.5c0.9-0.5,1.6-0.1,1.6,0.9l0,5.5C478.6,57.2,477.9,58.5,477,59z M478.6,66.6V61c0-1-0.7-1.4-1.6-0.9l-6,3.5
				c-0.9,0.5-1.6,1.7-1.6,2.7v5.5c0,1,0.7,1.4,1.6,0.9l6-3.5C477.9,68.8,478.6,67.6,478.6,66.6z M478.6,76.9v-5.5
				c0-1-0.7-1.4-1.6-0.9l-6,3.5c-0.9,0.5-1.6,1.7-1.6,2.7v5.5c0,1,0.7,1.4,1.6,0.9l6-3.5C477.9,79.1,478.6,77.9,478.6,76.9z
				 M478.6,87.2v-5.5c0-1-0.7-1.4-1.6-0.9l-6,3.5c-0.9,0.5-1.6,1.7-1.6,2.7v5.5c0,1,0.7,1.4,1.6,0.9l6-3.5
				C477.9,89.4,478.6,88.2,478.6,87.2z M488.9,50.3v-5.5c0-1-0.7-1.4-1.6-0.9l-6,3.5c-0.9,0.5-1.6,1.7-1.6,2.7v5.5
				c0,1,0.7,1.4,1.6,0.9l6-3.5C488.2,52.5,488.9,51.3,488.9,50.3z M488.9,60.6v-5.5c0-1-0.7-1.4-1.6-0.9l-6,3.5
				c-0.9,0.5-1.6,1.7-1.6,2.7v5.5c0,1,0.7,1.4,1.6,0.9l6-3.5C488.2,62.8,488.9,61.6,488.9,60.6z M488.9,71v-5.5c0-1-0.7-1.4-1.6-0.9
				l-6,3.5c-0.9,0.5-1.6,1.7-1.6,2.7v5.5c0,1,0.7,1.4,1.6,0.9l6-3.5C488.2,73.2,488.9,72,488.9,71z M488.9,81.3v-5.5
				c0-1-0.7-1.4-1.6-0.9l-6,3.5c-0.9,0.5-1.6,1.7-1.6,2.7l0,5.5c0,1,0.7,1.4,1.6,0.9l6-3.5C488.2,83.5,488.9,82.3,488.9,81.3z
				 M519.6,32.6V27c0-1-0.7-1.4-1.6-0.9l-6,3.5c-0.9,0.5-1.6,1.7-1.6,2.7v5.5c0,1,0.7,1.4,1.6,0.9l6-3.5
				C518.9,34.8,519.6,33.6,519.6,32.6z M519.6,42.9v-5.5c0-1-0.7-1.4-1.6-0.9l-6,3.5c-0.9,0.5-1.6,1.7-1.6,2.7v5.5
				c0,1,0.7,1.4,1.6,0.9l6-3.5C518.9,45.1,519.6,43.9,519.6,42.9z M519.6,53.2v-5.5c0-1-0.7-1.4-1.6-0.9l-6,3.5
				c-0.9,0.5-1.6,1.7-1.6,2.7v5.5c0,1,0.7,1.4,1.6,0.9l6-3.5C518.9,55.4,519.6,54.2,519.6,53.2z M519.6,63.5l0-5.5
				c0-1-0.7-1.4-1.6-0.9l-6,3.5c-0.9,0.5-1.6,1.7-1.6,2.7v5.5c0,1,0.7,1.4,1.6,0.9l6-3.5C518.9,65.7,519.6,64.5,519.6,63.5z
				 M529.9,26.6l0-5.5c0-1-0.7-1.4-1.6-0.9l-6,3.5c-0.9,0.5-1.6,1.7-1.6,2.7v5.5c0,1,0.7,1.4,1.6,0.9l6-3.5
				C529.2,28.8,529.9,27.6,529.9,26.6z M529.9,37v-5.5c0-1-0.7-1.4-1.6-0.9l-6,3.5c-0.9,0.5-1.6,1.7-1.6,2.7v5.5
				c0,1,0.7,1.4,1.6,0.9l6-3.5C529.2,39.2,529.9,38,529.9,37z M529.9,47.3v-5.5c0-1-0.7-1.4-1.6-0.9l-6,3.5
				c-0.9,0.5-1.6,1.7-1.6,2.7v5.5c0,1,0.7,1.4,1.6,0.9l6-3.5C529.2,49.5,529.9,48.3,529.9,47.3z M529.9,57.6v-5.5
				c0-1-0.7-1.4-1.6-0.9l-6,3.5c-0.9,0.5-1.6,1.7-1.6,2.7v5.5c0,1,0.7,1.4,1.6,0.9l6-3.5C529.2,59.8,529.9,58.6,529.9,57.6z
				 M499.1,85.7v-5.5c0-1-0.7-1.4-1.6-0.9l-6,3.5c-0.9,0.5-1.6,1.7-1.6,2.7l0,5.5c0,1,0.7,1.4,1.6,0.9l6-3.5
				C498.4,87.9,499.1,86.7,499.1,85.7z M499.1,96l0-5.5c0-1-0.7-1.4-1.6-0.9l-6,3.5c-0.9,0.5-1.6,1.7-1.6,2.7v5.5
				c0,1,0.7,1.4,1.6,0.9l6-3.5C498.4,98.2,499.1,97,499.1,96z M509.4,79.8v-5.5c0-1-0.7-1.4-1.6-0.9l-6,3.5
				c-0.9,0.5-1.6,1.7-1.6,2.7V85c0,1,0.7,1.4,1.6,0.9l6-3.5C508.7,82,509.4,80.8,509.4,79.8z M509.4,90.1v-5.5c0-1-0.7-1.4-1.6-0.9
				l-6,3.5c-0.9,0.5-1.6,1.7-1.6,2.7v5.5c0,1,0.7,1.4,1.6,0.9l6-3.5C508.7,92.3,509.4,91.1,509.4,90.1z M478.6,97.5V92
				c0-1-0.7-1.4-1.6-0.9l-6,3.5c-0.9,0.5-1.6,1.7-1.6,2.7v5.5c0,1,0.7,1.4,1.6,0.9l6-3.5C477.9,99.7,478.6,98.5,478.6,97.5z
				 M478.6,107.9v-5.5c0-1-0.7-1.4-1.6-0.9l-6,3.5c-0.9,0.5-1.6,1.7-1.6,2.7v5.5c0,1,0.7,1.4,1.6,0.9l6-3.5
				C477.9,110.1,478.6,108.8,478.6,107.9z M488.9,91.6v-5.5c0-1-0.7-1.4-1.6-0.9l-6,3.5c-0.9,0.5-1.6,1.7-1.6,2.7v5.5
				c0,1,0.7,1.4,1.6,0.9l6-3.5C488.2,93.8,488.9,92.6,488.9,91.6z M488.9,101.9v-5.5c0-1-0.7-1.4-1.6-0.9l-6,3.5
				c-0.9,0.5-1.6,1.7-1.6,2.7l0,5.5c0,1,0.7,1.4,1.6,0.9l6-3.5C488.2,104.1,488.9,102.9,488.9,101.9z M519.6,73.8v-5.5
				c0-1-0.7-1.4-1.6-0.9l-6,3.5c-0.9,0.5-1.6,1.7-1.6,2.7v5.5c0,1,0.7,1.4,1.6,0.9l6-3.5C518.9,76.1,519.6,74.8,519.6,73.8z
				 M519.6,84.2l0-5.5c0-1-0.7-1.4-1.6-0.9l-6,3.5c-0.9,0.5-1.6,1.7-1.6,2.7v5.5c0,1,0.7,1.4,1.6,0.9l6-3.5
				C518.9,86.4,519.6,85.2,519.6,84.2z M529.9,67.9v-5.5c0-1-0.7-1.4-1.6-0.9l-6,3.5c-0.9,0.5-1.6,1.7-1.6,2.7v5.5
				c0,1,0.7,1.4,1.6,0.9l6-3.5C529.2,70.1,529.9,68.9,529.9,67.9z M529.9,78.2v-5.5c0-1-0.7-1.4-1.6-0.9l-6,3.5
				c-0.9,0.5-1.6,1.7-1.6,2.7v5.5c0,1,0.7,1.4,1.6,0.9l6-3.5C529.2,80.4,529.9,79.2,529.9,78.2z M499.1,106.3l0-5.5
				c0-1-0.7-1.4-1.6-0.9l-6,3.5c-0.9,0.5-1.6,1.7-1.6,2.7v5.5c0,1,0.7,1.4,1.6,0.9l6-3.5C498.4,108.5,499.1,107.3,499.1,106.3z
				 M509.4,100.4v-5.5c0-1-0.7-1.4-1.6-0.9l-6,3.5c-0.9,0.5-1.6,1.7-1.6,2.7v5.5c0,1,0.7,1.4,1.6,0.9l6-3.5
				C508.7,102.6,509.4,101.4,509.4,100.4z M478.6,118.1v-5.5c0-1-0.7-1.4-1.6-0.9l-6,3.5c-0.9,0.5-1.6,1.7-1.6,2.7v5.5
				c0,1,0.7,1.4,1.6,0.9l6-3.5C477.9,120.3,478.6,119.1,478.6,118.1z M488.9,112.2v-5.5c0-1-0.7-1.4-1.6-0.9l-6,3.5
				c-0.9,0.5-1.6,1.7-1.6,2.7l0,5.5c0,1,0.7,1.4,1.6,0.9l6-3.5C488.2,114.4,488.9,113.2,488.9,112.2z M519.6,94.5l0-5.5
				c0-1-0.7-1.4-1.6-0.9l-6,3.5c-0.9,0.5-1.6,1.7-1.6,2.7v5.5c0,1,0.7,1.4,1.6,0.9l6-3.5C518.9,96.7,519.6,95.4,519.6,94.5z
				 M529.9,88.5V83c0-1-0.7-1.4-1.6-0.9l-6,3.5c-0.9,0.5-1.6,1.7-1.6,2.7v5.5c0,1,0.7,1.4,1.6,0.9l6-3.5
				C529.2,90.7,529.9,89.5,529.9,88.5z"/>
            <g>
				<defs>
					<polygon id="SVGID_43_" points="357.1,120.1 524,23.7 524.2,92.7 357.2,189.1 					"/>
				</defs>
                <clipPath id="SVGID_14_">
					<use xlink:href="#SVGID_43_" style="overflow:visible;"/>
				</clipPath>
			</g>
            <g>
				<defs>
					<polygon id="SVGID_45_" points="27.3,310.4 194.3,214 194.5,283 27.5,379.4 					"/>
				</defs>
                <clipPath id="SVGID_15_">
					<use xlink:href="#SVGID_45_" style="overflow:visible;"/>
				</clipPath>
			</g>
            <g>
				<g>
					<path class="st25" d="M350.7,189.8c-10.9,6.1-21,15.9-29.1,27.6c-11.2,16.2-18.6,35.7-18.8,53.3c-0.1,3.8,0.2,7.4,0.8,10.6
						c4.1,22.3,22.9,30.4,45.6,17.8c3.4-1.9,6.7-4.2,9.9-6.7l3.1-2.5c-2.9,2.3-5.9,4.3-8.9,6c-20.4,11.4-37.2,4.1-40.9-16
						c-0.5-2.9-0.8-6.1-0.8-9.6c0.2-15.7,6.8-33.3,16.9-47.8c7.3-10.5,16.3-19.3,26.1-24.8c23.4-13,42-1.6,41.7,25.5
						c0,3.1-0.3,6.3-0.9,9.5l0.6-4c0.6-3.6,0.9-7.1,0.9-10.6C397.5,188.1,376.7,175.3,350.7,189.8z"/>
                    <linearGradient id="SVGID_16_" gradientUnits="userSpaceOnUse" x1="373.2401" y1="189.0502"
                                    x2="313.5669" y2="292.4072">
						<stop offset="0" style="stop-color:#756C68"/>
                        <stop offset="1" style="stop-color:#645956"/>
					</linearGradient>
                    <path class="st34" d="M384.1,195.3c-7.5-4.4-17.9-3.9-29.4,2.5c-23.4,13-42.6,45.5-43,72.6c-0.2,13.8,4.6,23.5,12.3,28l8.5,4.9
						c-7.8-4.5-12.5-14.2-12.3-28c0.4-27.1,19.6-59.6,43-72.6c11.5-6.4,21.9-6.9,29.4-2.5L384.1,195.3z"/>
                    <linearGradient id="SVGID_17_" gradientUnits="userSpaceOnUse" x1="336.1116" y1="159.4487"
                                    x2="269.5304" y2="274.7708">
						<stop offset="0" style="stop-color:#EFEBE6"/>
                        <stop offset="0.1721" style="stop-color:#EAE6E0"/>
                        <stop offset="0.3764" style="stop-color:#DCD8D1"/>
                        <stop offset="0.4242" style="stop-color:#D8D3CC"/>
                        <stop offset="0.7846" style="stop-color:#C2BDB2"/>
                        <stop offset="1" style="stop-color:#B9B4A8"/>
					</linearGradient>
                    <path class="st35" d="M322.2,151.4c-8.4-4.9-19.9-4.3-32.7,2.8c-26,14.5-47.5,50.7-47.9,80.9c-0.2,15.3,5.1,26.2,13.7,31.2
						l61.1,35.6c-8.7-5-13.9-15.9-13.7-31.2c0.4-30.2,21.8-66.4,47.9-80.9c12.8-7.1,24.3-7.7,32.7-2.8L322.2,151.4z"/>
                    <g>
						<linearGradient id="SVGID_18_" gradientUnits="userSpaceOnUse" x1="403.4092" y1="198.1036"
                                        x2="338.9611" y2="347.8396">
							<stop offset="0" style="stop-color:#EFEBE6"/>
                            <stop offset="0.1721" style="stop-color:#EAE6E0"/>
                            <stop offset="0.3764" style="stop-color:#DCD8D1"/>
                            <stop offset="0.4242" style="stop-color:#D8D3CC"/>
                            <stop offset="0.7846" style="stop-color:#C2BDB2"/>
                            <stop offset="1" style="stop-color:#B9B4A8"/>
						</linearGradient>
                        <path class="st36" d="M416.3,213.4c-5.9-19.4-24.1-25.7-45.8-13.6c-14.2,7.9-27,22-36,38.1c-8.1,14.4-13.1,30.4-13.3,45.1
							l0.5,0.1l-0.5-0.1c-0.3,25.6,14.3,39,34.5,34.4l45.7-10.3l28.5-49L416.3,213.4z"/>
                        <path class="st37" d="M387.5,193.9c-5.3,0.6-11,2.6-16.9,5.9c-7.2,4-14.1,9.7-20.3,16.4l48.5,43.4c2.9-3.2,6.2-5.9,9.6-7.8
							c2.5-1.4,4.9-2.3,7.2-2.7L387.5,193.9z"/>
					</g>
                    <path class="st32" d="M408.4,251.8c-12.6,7-23,24.5-23.2,39.2c-0.2,14.6,9.9,20.8,22.5,13.8c12.6-7,23-24.5,23.2-39.1
						C431.1,251,421,244.8,408.4,251.8z"/>
                    <path class="st38" d="M408.3,255.3c-10.9,6.1-20,21.3-20.1,34c-0.2,12.7,8.6,18,19.5,11.9c10.9-6.1,20-21.3,20.1-34
						C428,254.6,419.3,249.2,408.3,255.3z M407.8,300c-10.4,5.8-18.6,0.7-18.5-11.3c0.2-12,8.7-26.4,19-32.2
						c10.4-5.8,18.6-0.7,18.5,11.3C426.6,279.9,418.1,294.3,407.8,300z"/>
                    <linearGradient id="SVGID_19_" gradientUnits="userSpaceOnUse" x1="383.3131" y1="184.8247"
                                    x2="314.9109" y2="303.3009">
						<stop offset="0" style="stop-color:#EFEBE6"/>
                        <stop offset="0.1721" style="stop-color:#EAE6E0"/>
                        <stop offset="0.3764" style="stop-color:#DCD8D1"/>
                        <stop offset="0.4242" style="stop-color:#D8D3CC"/>
                        <stop offset="0.7846" style="stop-color:#C2BDB2"/>
                        <stop offset="1" style="stop-color:#B9B4A8"/>
					</linearGradient>
                    <path class="st39" d="M396.9,192.7c-8.6-5-20.5-4.5-33.7,2.9c-26.8,14.9-48.9,52.2-49.3,83.2c-0.2,15.8,5.2,26.9,14.1,32.1
						l7.3,4.3c-8.9-5.2-14.3-16.3-14.1-32.1c0.4-31.1,22.5-68.3,49.3-83.2c13.2-7.3,25.1-7.9,33.7-2.9L396.9,192.7z"/>
				</g>
                <path class="st28" d="M386.7,194.1c-5,0.7-10.5,2.6-16.2,5.7c-7.3,4-14.2,9.8-20.4,16.6l-7.3-4.2c6.2-6.8,13.2-12.5,20.4-16.6
					c5.7-3.2,11.1-5,16.1-5.7L386.7,194.1z M331.2,205.5c6-6.4,12.5-11.8,19.4-15.6c6.6-3.7,12.8-5.6,18.5-5.9l-61.6-35.6
					c-5.5,0.4-11.6,2.3-18,5.9c-7,3.9-13.6,9.4-19.6,15.8L331.2,205.5z"/>
			</g>
		</g>
	</g>
</g>
</svg>
