<svg xmlns="http://www.w3.org/2000/svg" width="1147.929" height="1012.306" viewBox="0 0 1147.929 1012.306">
    <defs>
        <style>.a{fill:#eeeeec;}</style>
    </defs>
    <g transform="translate(-736.304 -38.914)">
        <path class="a"
              d="M1222.514,375.171q.426,1.088.856,2.174a4.778,4.778,0,0,0,8.972,0q.427-1.088.856-2.174c1.281-3.257-1.986-6.654-5.342-6.654s-6.623,3.4-5.342,6.654Z"/>
        <path class="a" d="M1066.111,316.018a2.191,2.191,0,1,0,0-4.381,2.191,2.191,0,1,0,0,4.381Z"/>
        <path class="a" d="M1424.984,223.445a3.134,3.134,0,1,0,0-6.267,3.134,3.134,0,1,0,0,6.267Z"/>
        <path class="a" d="M1674.149,673.918c5.439,0,5.448-8.02,0-8.02s-5.448,8.02,0,8.02Z"/>
        <path class="a" d="M1456.575,846.79c5.715,0,5.723-8.423,0-8.423s-5.72,8.423,0,8.423Z"/>
        <path class="a" d="M1751.12,869.295a2.864,2.864,0,1,0,0-5.728,2.864,2.864,0,1,0,0,5.728Z"/>
        <path class="a" d="M1724.695,338.9a2.291,2.291,0,1,0,0-4.582,2.291,2.291,0,1,0,0,4.582Z"/>
        <path class="a"
              d="M1000.4,814.871a19.517,19.517,0,0,0,3.084-.374,1.975,1.975,0,0,0,0-3.832,19.521,19.521,0,0,0-3.084-.377c-3.1-.275-3.11,4.861,0,4.583Z"/>
        <path class="a" d="M1174.782,794.811a1.415,1.415,0,1,0,0-2.83,1.415,1.415,0,1,0,0,2.83Z"/>
        <path class="a"
              d="M1020.619,615.894c-.521-.034-1.045-.07-1.565-.107-3.673-.25-3.415,5.593.719,5.043l1.506-.2c2.374-.315,2.377-4.232,0-4.549-.5-.064-1-.132-1.506-.2-4.081-.545-4.454,5.295-.719,5.04.52-.034,1.044-.07,1.565-.107a2.46,2.46,0,1,0,0-4.919Z"/>
        <path class="a" d="M1210.165,508.491a.438.438,0,1,0,0-.876.438.438,0,1,0,0,.876Z"/>
        <path class="a" d="M901.837,410.208a2.864,2.864,0,1,0,0-5.728,2.864,2.864,0,1,0,0,5.728Z"/>
        <path class="a" d="M1081.275,174.747a2.392,2.392,0,1,0,0-4.784,2.392,2.392,0,1,0,0,4.784Z"/>
        <path class="a"
              d="M1490.862,297.042q-.035-1.2-.071-2.4c-.094-3.206-5.158-3.212-5.255,0q-.036,1.2-.071,2.4c-.1,3.3,5.495,3.3,5.4,0Z"/>
        <path class="a" d="M1704.477,248.454a2.965,2.965,0,1,0,0-5.93,2.965,2.965,0,1,0,0,5.93Z"/>
        <path class="a"
              d="M979.806,454.571l1.2-1.23c2.817-2.885,3.234-7.812,0-10.63a8.412,8.412,0,0,0-11.2,0l-1.3,1.139a7.365,7.365,0,0,0,0,10.721c3.087,2.692,8.266,3.108,11.3,0Z"/>
        <path class="a"
              d="M1861.472,184.458q.088-.987.178-1.975c.2-2.215-2.134-4.111-4.333-4.111s-4.531,1.887-4.332,4.111l.177,1.975a4.161,4.161,0,0,0,8.31,0Z"/>
        <path class="a"
              d="M1620.46,438.815a20.229,20.229,0,0,0-4.111.416c-2.527.661-3.888,2.156-5.412,4.043a7.2,7.2,0,0,0,0,7.925c1.524,1.886,2.885,3.382,5.412,4.042a20.16,20.16,0,0,0,4.111.415c4.643.176,9.082-4,8.875-8.42a8.782,8.782,0,0,0-8.875-8.421Z"/>
        <path class="a" d="M1717,452.812c4.8,0,4.806-7.076,0-7.076s-4.806,7.076,0,7.076Z"/>
        <path class="a" d="M1107.373,828.385c5.345,0,5.354-7.885,0-7.885s-5.356,7.885,0,7.885Z"/>
        <path class="a" d="M1280.136,888.9a3.235,3.235,0,1,0,0-6.469,3.235,3.235,0,1,0,0,6.469Z"/>
        <path class="a" d="M1424.522,1051.22c5.9,0,5.9-8.693,0-8.693s-5.907,8.693,0,8.693Z"/>
        <path class="a" d="M1796.351,480.566c5.025,0,5.034-7.412,0-7.412s-5.037,7.412,0,7.412Z"/>
        <path class="a"
              d="M846.7,212.164c.124-.126.25-.252.374-.38l-3.6,1.415-.97-.171c4.03,1.1,8.631-2,8.446-6.106-.107-2.329-.918-4.631-3.146-5.87a7,7,0,0,0-6.9.4c-3.384,2.006-4.748,7.2-1.35,9.942-.16-.2-.32-.394-.48-.591q-.255-1.861-.511-3.72c-.042.172-.082.347-.122.521a4.692,4.692,0,0,0,2.269,5.288,5.249,5.249,0,0,0,5.982-.733Z"/>
        <path class="a" d="M778.833,137.216a1.584,1.584,0,1,0,0-3.167,1.584,1.584,0,1,0,0,3.167Z"/>
        <path class="a"
              d="M858.026,91.919a11.028,11.028,0,0,0-2.545.163c-2.678.411-2.68,4.72,0,5.133a10.972,10.972,0,0,0,2.545.162,2.729,2.729,0,1,0,0-5.458Z"/>
        <path class="a" d="M1297.191,111.881c4.842,0,4.851-7.143,0-7.143s-4.853,7.143,0,7.143Z"/>
        <path class="a" d="M1500.572,44.508a2.8,2.8,0,1,0,0-5.594,2.8,2.8,0,1,0,0,5.594Z"/>
        <path class="a"
              d="M1813.5,641.335a7.6,7.6,0,0,0-.671,3.184,6.233,6.233,0,0,0,6.321,6c3.427-.146,6.318-2.634,6.321-6a7.648,7.648,0,0,0-.671-3.184c-.965-2.215-2.871-4.2-5.65-4.082a6.182,6.182,0,0,0-5.65,4.082Z"/>
        <path class="a" d="M1230.6,1023.377a3.167,3.167,0,1,0,0-6.334,3.167,3.167,0,1,0,0,6.334Z"/>
        <path class="a"
              d="M835.482,1034.682l.27-.312c3.1-3.552,3.124-7.662,0-11.243l-.27-.311c-2.239-2.566-6.64-2.943-9.66-1.736-3.1,1.242-5.593,4.339-5.436,7.669a8.678,8.678,0,0,0,4.379,7.244c3.118,1.73,8.251,1.513,10.717-1.311Z"/>
        <path class="a" d="M856.227,980.583a3.066,3.066,0,1,0,0-6.132,3.066,3.066,0,1,0,0,6.132Z"/>
        <path class="a" d="M737.435,1028.153a1.112,1.112,0,1,0,0-2.223,1.112,1.112,0,1,0,0,2.223Z"/>
        <path class="a" d="M1493.375,978.393a.876.876,0,1,0,0-1.752.876.876,0,1,0,0,1.752Z"/>
        <path class="a" d="M1835.347,777.673a3.37,3.37,0,1,0,0-6.739,3.37,3.37,0,1,0,0,6.739Z"/>
        <path class="a" d="M1216.2,690.122c6.262,0,6.271-9.232,0-9.232s-6.271,9.232,0,9.232Z"/>
        <path class="a"
              d="M831.47,819.762c.1-.354.2-.708.306-1.059a4.078,4.078,0,0,0-1.16-4.161l-.325-.261a4.348,4.348,0,0,0-5.725,0c-.108.087-.216.174-.326.261a4.079,4.079,0,0,0-1.158,4.161c.1.351.2.705.306,1.059,1.094,3.779,6.986,3.785,8.082,0Z"/>
        <path class="a" d="M1696.756,627.285a1.55,1.55,0,1,0,0-3.1,1.55,1.55,0,1,0,0,3.1Z"/>
        <path class="a"
              d="M1884.212,620.614a5.681,5.681,0,0,0-.713-3.459,3.788,3.788,0,0,0-6.315,0,5.68,5.68,0,0,0-.714,3.459c.285,4.723,7.458,4.731,7.742,0Z"/>
        <path class="a" d="M1864.144,492.457a3.336,3.336,0,1,0,0-6.671,3.336,3.336,0,1,0,0,6.671Z"/>
        <path class="a" d="M739.236,182.919a1.179,1.179,0,1,0,0-2.358,1.179,1.179,0,1,0,0,2.358Z"/>
        <path class="a"
              d="M767.445,53.429l1.406-.64c3.388-1.543,3.388-6.953,0-8.5q-.7-.318-1.406-.639a6.465,6.465,0,0,0-6.022,0,5.519,5.519,0,0,0,0,9.775,6.468,6.468,0,0,0,6.022,0Z"/>
        <path class="a" d="M922.82,152.428a3.134,3.134,0,1,0,0-6.267,3.134,3.134,0,1,0,0,6.267Z"/>
        <path class="a" d="M892.223,302.534a2.965,2.965,0,1,0,0-5.93,2.965,2.965,0,1,0,0,5.93Z"/>
        <path class="a"
              d="M1210.52,69.4c.3-.121.592-.243.891-.364,5.466-2.233,5.466-11.44,0-13.674L1210.52,55c-16.6-6.78-16.6,21.181,0,14.4Z"/>
    </g>
</svg>
