<svg xmlns="http://www.w3.org/2000/svg" width="1783.311" height="998.18" viewBox="0 0 1783.311 998.18">
    <defs>
        <style>.a{fill:#eeeeec;}</style>
    </defs>
    <g transform="translate(-100.922 -2198.914)" opacity="0.3">
        <path class="a"
              d="M424.514,2465.171q.426,1.088.856,2.174a4.778,4.778,0,0,0,8.972,0q.428-1.087.856-2.174c1.281-3.257-1.986-6.654-5.342-6.654s-6.623,3.405-5.342,6.654Z"/>
        <path class="a" d="M268.111,2406.018a2.191,2.191,0,1,0,0-4.381,2.191,2.191,0,1,0,0,4.381Z"/>
        <path class="a" d="M626.984,2313.445a3.134,3.134,0,1,0,0-6.267,3.134,3.134,0,1,0,0,6.267Z"/>
        <path class="a" d="M876.149,2763.918c5.439,0,5.448-8.02,0-8.02s-5.448,8.02,0,8.02Z"/>
        <path class="a" d="M953.12,2959.295a2.864,2.864,0,1,0,0-5.728,2.864,2.864,0,1,0,0,5.728Z"/>
        <path class="a" d="M926.7,2428.9a2.291,2.291,0,1,0,0-4.582,2.291,2.291,0,1,0,0,4.582Z"/>
        <path class="a"
              d="M202.4,2904.871a19.538,19.538,0,0,0,3.084-.374,1.975,1.975,0,0,0,0-3.832,19.514,19.514,0,0,0-3.084-.377c-3.1-.275-3.11,4.861,0,4.583Z"/>
        <path class="a" d="M376.782,2884.811a1.415,1.415,0,1,0,0-2.83,1.415,1.415,0,1,0,0,2.83Z"/>
        <path class="a"
              d="M222.619,2705.894c-.521-.034-1.045-.07-1.565-.107-3.673-.25-3.415,5.593.719,5.043l1.506-.2c2.374-.315,2.377-4.232,0-4.549-.5-.064-1-.132-1.506-.2-4.081-.545-4.454,5.3-.719,5.04.52-.034,1.044-.07,1.565-.107a2.46,2.46,0,1,0,0-4.919Z"/>
        <path class="a" d="M412.165,2598.491a.438.438,0,1,0,0-.876.438.438,0,1,0,0,.876Z"/>
        <path class="a" d="M103.837,2500.208a2.864,2.864,0,1,0,0-5.728,2.864,2.864,0,1,0,0,5.728Z"/>
        <path class="a" d="M283.275,2264.747a2.392,2.392,0,1,0,0-4.784,2.392,2.392,0,1,0,0,4.784Z"/>
        <path class="a"
              d="M692.862,2387.042q-.035-1.2-.071-2.4c-.094-3.206-5.158-3.212-5.255,0q-.036,1.2-.071,2.4c-.1,3.3,5.495,3.3,5.4,0Z"/>
        <path class="a"
              d="M181.806,2544.571l1.2-1.23c2.817-2.885,3.234-7.812,0-10.63a8.412,8.412,0,0,0-11.2,0l-1.3,1.139a7.365,7.365,0,0,0,0,10.721c3.087,2.692,8.266,3.108,11.3,0Z"/>
        <path class="a"
              d="M1063.472,2274.458q.088-.987.178-1.975c.2-2.215-2.134-4.111-4.333-4.111s-4.531,1.887-4.332,4.111l.177,1.975a4.161,4.161,0,0,0,8.31,0Z"/>
        <path class="a" d="M919,2542.812c4.8,0,4.806-7.076,0-7.076s-4.806,7.076,0,7.076Z"/>
        <path class="a" d="M309.373,2918.385c5.345,0,5.354-7.885,0-7.885s-5.356,7.885,0,7.885Z"/>
        <path class="a" d="M482.136,2978.9a3.235,3.235,0,1,0,0-6.469,3.235,3.235,0,1,0,0,6.469Z"/>
        <path class="a" d="M626.522,3141.22c5.9,0,5.9-8.693,0-8.693s-5.907,8.693,0,8.693Z"/>
        <path class="a" d="M998.351,2570.566c5.025,0,5.034-7.412,0-7.412s-5.037,7.412,0,7.412Z"/>
        <path class="a"
              d="M858.026,2251.919a11.027,11.027,0,0,0-2.545.163c-2.678.411-2.68,4.72,0,5.133a10.986,10.986,0,0,0,2.545.162,2.729,2.729,0,1,0,0-5.458Z"/>
        <path class="a" d="M1297.191,2271.881c4.842,0,4.851-7.143,0-7.143s-4.853,7.143,0,7.143Z"/>
        <path class="a" d="M1500.572,2204.508a2.8,2.8,0,1,0,0-5.594,2.8,2.8,0,1,0,0,5.594Z"/>
        <path class="a"
              d="M1813.5,2801.335a7.6,7.6,0,0,0-.671,3.184,6.233,6.233,0,0,0,6.321,6c3.427-.146,6.318-2.634,6.321-6a7.648,7.648,0,0,0-.671-3.184c-.965-2.215-2.871-4.2-5.65-4.082a6.183,6.183,0,0,0-5.65,4.082Z"/>
        <path class="a" d="M1230.6,3183.377a3.167,3.167,0,1,0,0-6.334,3.167,3.167,0,1,0,0,6.334Z"/>
        <path class="a"
              d="M835.482,3194.682l.27-.312c3.1-3.552,3.124-7.662,0-11.243l-.27-.311c-2.239-2.566-6.64-2.943-9.66-1.736-3.1,1.242-5.593,4.339-5.436,7.669a8.678,8.678,0,0,0,4.379,7.244c3.118,1.73,8.251,1.513,10.717-1.311Z"/>
        <path class="a" d="M856.227,3140.583a3.067,3.067,0,1,0,0-6.132,3.067,3.067,0,1,0,0,6.132Z"/>
        <path class="a" d="M737.435,3188.153a1.112,1.112,0,1,0,0-2.223,1.112,1.112,0,1,0,0,2.223Z"/>
        <path class="a" d="M1493.375,3138.393a.876.876,0,1,0,0-1.752.876.876,0,1,0,0,1.752Z"/>
        <path class="a" d="M1835.347,2937.673a3.37,3.37,0,1,0,0-6.739,3.37,3.37,0,1,0,0,6.739Z"/>
        <path class="a"
              d="M831.47,2979.762c.1-.354.2-.708.306-1.059a4.078,4.078,0,0,0-1.16-4.161l-.325-.261a4.348,4.348,0,0,0-5.725,0c-.108.087-.216.174-.326.261a4.079,4.079,0,0,0-1.158,4.161c.1.351.2.705.306,1.059,1.094,3.779,6.986,3.785,8.082,0Z"/>
        <path class="a" d="M1696.756,2787.285a1.55,1.55,0,1,0,0-3.1,1.55,1.55,0,1,0,0,3.1Z"/>
        <path class="a"
              d="M1884.212,2780.614a5.681,5.681,0,0,0-.713-3.459,3.788,3.788,0,0,0-6.315,0,5.68,5.68,0,0,0-.714,3.459c.285,4.723,7.458,4.731,7.742,0Z"/>
        <path class="a" d="M1864.144,2652.457a3.336,3.336,0,1,0,0-6.671,3.336,3.336,0,1,0,0,6.671Z"/>
        <path class="a"
              d="M767.445,2213.429l1.406-.64c3.388-1.543,3.388-6.953,0-8.5-.469-.212-.938-.426-1.406-.639a6.465,6.465,0,0,0-6.022,0,5.519,5.519,0,0,0,0,9.775,6.467,6.467,0,0,0,6.022,0Z"/>
        <path class="a" d="M922.82,2312.428a3.134,3.134,0,1,0,0-6.267,3.134,3.134,0,1,0,0,6.267Z"/>
        <path class="a" d="M892.223,2462.534a2.965,2.965,0,1,0,0-5.93,2.965,2.965,0,1,0,0,5.93Z"/>
        <path class="a"
              d="M1210.52,2229.4c.3-.121.592-.243.891-.364,5.466-2.233,5.466-11.44,0-13.674l-.891-.363c-16.6-6.78-16.6,21.181,0,14.4Z"/>
    </g>
</svg>
