<svg xmlns="http://www.w3.org/2000/svg" width="1389.5" height="1119" viewBox="0 0 1389.5 1119">
    <defs>
        <style>.a{fill:#fff;}</style>
    </defs>
    <g transform="translate(-116.5 24)">
        <path class="a"
              d="M1506,603.891c-17-8.278-119.971-23.8-139.72-25.184-68.532-4.814-137.062-19.176-205.594-23.99-66.807-4.7-145.465-15.734-174.108-64.99-35-60.183,28.2-132.447-20.549-185.945-36.4-39.949-114.081-47.011-153.921-84.731C773.083,182.1,788.313,125.925,773.97,78.656,752.4,7.565,650.551-39.871,564.131-19.076H116.5v1105.1l472.269,3.017c79.955,24.3,180.145-29.271,200.392-96.642,10.815-35.984,2.176-76.8,26.8-107.975,22.491-28.476,65.717-39.972,104.947-51.328s81.735-27.813,95.823-59.653c15.637-35.345-8.358-80.994,22.569-108.917,17.865-16.129,47.189-50.985,73.8-52.8Z"/>
        <path class="a"
              d="M1274.836,568.809c2.25,12.3-17.14,39.779-32.383,40.957s-26.645,4.932-40.177,10.754c-14.073,6.052-35.722,24.221-46.477,33.761-14.52,12.88-37.689,18.884-58.707,15.214-17.067-2.981-34.624-11.758-50.676-6.185a29.093,29.093,0,0,0-18.354,20.277c-2.23,8.532-6.145,19.889-4.966,28.558l-37.125-28.182,18.505-80.686,258.671-39.755Z"/>
        <path class="a"
              d="M906.246,333.862c-11.7,18.669,77.508,45.261,72.375,76.446-3.4,20.647,27.777,32.395,53.277,35.507,31.8,3.881,66.706-7.251,95.238,4.795,36.6,15.455,39.177,58.331,68.632,81.8,18.5,14.737,45.189,19.935,70.474,24.534,79.705,14.494,159.41,30.987,239.115,45.481l-463.794-12.942-99.394-63.358Z"/>
    </g>
</svg>
