<?xml version="1.0" encoding="UTF-8"?>
<svg width="639px" height="588px" viewBox="0 0 639 588" version="1.1" xmlns="http://www.w3.org/2000/svg"
     xmlns:xlink="http://www.w3.org/1999/xlink">
    <defs>
        <path d="M66.0855519,133.949091 L57.0901786,117.880485 C51.3071429,116.817212 45.7890422,114.83903 40.775974,111.987152 L23.5469156,118.469818 L8.18896104,100.200485 L17.6728084,84.408 C16.7206981,81.7250909 15.9258929,78.9556364 15.4125812,76.0584242 C14.9075487,73.1570909 14.7088474,70.2846061 14.692289,67.4368485 L0.389935065,55.7861818 L8.60292208,33.4121212 L27.0200487,33.6923636 C30.7622565,29.3156364 35.2785714,25.5859394 40.3578734,22.6310303 L43.3383929,4.47709091 L55.1238636,2.42884848 L66.9093344,0.372363636 L75.9005682,16.4409697 C81.6877435,17.5083636 87.2017045,19.4865455 92.2147727,22.3425455 L109.447971,15.8557576 L117.122808,24.9924848 L124.801786,34.1250909 L115.317938,49.9175758 C116.270049,52.6004848 117.068994,55.3699394 117.578166,58.2712727 C118.087338,61.1643636 118.281899,64.0409697 118.298458,66.8887273 L132.600812,78.5393939 L124.387825,100.913455 L105.970698,100.633212 C102.22849,105.014061 97.7121753,108.739636 92.637013,111.694545 L89.6564935,129.848485 L66.0855519,133.949091 L66.0855519,133.949091 Z M66.5491883,23.3398788 C64.0281656,23.3398788 61.4781656,23.558303 58.9116071,24.0033939 C34.9722403,28.1740606 18.9560877,50.873697 23.1453734,74.7107879 C26.8834416,95.9968485 45.462013,110.985697 66.4456981,110.985697 C68.9584416,110.985697 71.5125812,110.767273 74.075,110.322182 C98.0185065,106.155636 114.034659,83.4518788 109.845373,59.6147879 C106.107305,38.3328485 87.5287338,23.3398788 66.5491883,23.3398788 L66.5491883,23.3398788 Z M66.4663961,88.4797576 C57.8974026,88.4797576 49.8127435,83.3653333 46.5010552,74.9333333 C42.6429383,65.1001212 46.6418019,54.1912727 55.4219156,48.9243636 L70.7633117,88.0470303 C69.3310065,88.3396364 67.8904221,88.4797576 66.4663961,88.4797576 L66.4663961,88.4797576 Z M77.5688312,85.4053333 L62.2232955,46.2785455 C63.6556006,45.9859394 65.0961851,45.8458182 66.5243506,45.8458182 C75.0974838,45.8458182 83.1862825,50.9643636 86.4896916,59.3881212 C90.3478084,69.2213333 86.3530844,80.1301818 77.5688312,85.4053333 L77.5688312,85.4053333 Z"
              id="path-1"></path>
        <path d="M34.4650234,67.4950928 L29.8814058,59.3864919 C26.9346438,58.8499391 24.1228803,57.8517015 21.5684574,56.4125757 L12.7893426,59.6838835 L4.96365399,50.4647432 L9.79617489,42.4954797 C9.31102438,41.1416199 8.90602918,39.7440872 8.64446978,38.2820851 C8.38712907,36.8180033 8.28588027,35.3684791 8.27744287,33.9314328 L0.989638542,28.0522292 L5.17458899,16.761746 L14.5590872,16.903163 C16.4659397,14.6945622 18.7672405,12.8124684 21.355413,11.321351 L22.874145,2.16044126 L28.8794646,1.12684941 L34.8847841,0.089098226 L39.4662923,8.19769914 C42.4151637,8.73633151 45.2248179,9.73456912 47.7792408,11.1757747 L56.5604649,7.90238718 L60.4711999,12.5129971 L64.3840442,17.1215274 L59.5515232,25.090791 C60.0366738,26.4446508 60.4437783,27.8421834 60.7032284,29.3062652 C60.9626784,30.7661877 61.0618179,32.2177916 61.0702553,33.6548378 L68.3580596,39.5340414 L64.1731091,50.8245247 L54.7886109,50.6831077 C52.8817585,52.8937881 50.5804576,54.7738022 47.9943945,56.2649197 L46.4756625,65.4258294 L34.4650234,67.4950928 L34.4650234,67.4950928 Z M34.7012706,11.6790528 C33.4166765,11.6790528 32.1173168,11.7892749 30.8095198,12.0138783 C18.6111486,14.118496 10.4500734,25.5732725 12.5847356,37.6020357 C14.4894787,48.3434883 23.9562416,55.9072179 34.6485369,55.9072179 C35.9289123,55.9072179 37.2303813,55.7969958 38.536069,55.5723923 C50.7365495,53.4698544 58.8976247,42.0129981 56.7629625,29.984235 C54.8582194,19.244862 45.3914565,11.6790528 34.7012706,11.6790528 L34.7012706,11.6790528 Z M34.6590836,44.5501854 C30.2927291,44.5501854 26.1731685,41.9693252 24.4856885,37.7143374 C22.5197742,32.7522647 24.5574064,27.2474002 29.0313378,24.5895925 L36.8485889,44.3318209 C36.1187538,44.4794769 35.3847,44.5501854 34.6590836,44.5501854 L34.6590836,44.5501854 Z M40.3163604,42.9987578 L32.4969998,23.2544497 C33.226835,23.1067938 33.9608888,23.0360853 34.6886145,23.0360853 C39.0570784,23.0360853 43.1787484,25.6190251 44.8620097,29.8698536 C46.8279239,34.8319263 44.7924011,40.3367908 40.3163604,42.9987578 L40.3163604,42.9987578 Z"
              id="path-3"></path>
    </defs>
    <g id="Page-1" stroke="none" stroke-width="1" fill="none" fill-rule="evenodd">
        <g id="Group-4" transform="translate(-0.465000, 0.000000)">
            <g id="Group-224" transform="translate(92.465000, 0.000000)">
                <mask id="mask-2" fill="white">
                    <use xlink:href="#path-1"></use>
                </mask>
                <g id="Clip-223"></g>
                <polygon id="Fill-222" fill="#CAC9C4" opacity="0.289760045" mask="url(#mask-2)"
                         points="0.389935065 133.949091 132.600812 133.949091 132.600812 0.372363636 0.389935065 0.372363636"></polygon>
            </g>
            <g id="Group-224-Copy"
               transform="translate(62.500816, 500.001325) rotate(-40.000000) translate(-62.500816, -500.001325) translate(28.000816, 466.001325)">
                <mask id="mask-4" fill="white">
                    <use xlink:href="#path-3"></use>
                </mask>
                <g id="Clip-223"></g>
                <polygon id="Fill-222" fill="#D0021B" opacity="0.289760045" mask="url(#mask-4)"
                         points="0.989638542 67.4950928 68.3580596 67.4950928 68.3580596 0.089098226 0.989638542 0.089098226"></polygon>
            </g>
            <path d="M418.73385,544 L413.632034,534.97885 C410.350526,534.380965 407.217614,533.26654 404.373641,531.664046 L394.603415,535.308297 L390.244582,530.179501 L385.889876,525.050705 L391.268247,516.184111 C390.727521,514.675163 390.277603,513.121475 389.988665,511.494577 C389.699728,509.863612 389.58828,508.252983 389.580025,506.654555 L381.465,500.110358 L383.793013,493.830531 L386.125154,487.550705 L396.57232,487.70526 C398.693949,485.248644 401.25724,483.154013 404.138363,481.494577 L405.830713,471.302061 L412.513431,470.15103 L419.200278,469 L424.302094,478.02115 C427.583602,478.619035 430.712386,479.729393 433.556359,481.331887 L443.330713,477.691703 L452.040124,487.949295 L446.661753,496.815889 C447.202479,498.32077 447.652397,499.878525 447.941335,501.505423 C448.230272,503.132321 448.34172,504.747017 448.354103,506.345445 L456.465,512.885575 L451.808974,525.449295 L441.35768,525.290672 C439.236051,527.751356 436.67276,529.84192 433.795765,531.501356 L432.103415,541.693872 L425.416569,542.844902 L418.73385,544 M418.993894,481.897234 C417.565715,481.897234 416.121026,482.015184 414.663954,482.267354 C401.083877,484.60602 391.998847,497.352766 394.372265,510.738069 C396.493894,522.687636 407.035996,531.102766 418.936106,531.102766 C420.364285,531.102766 421.813101,530.984816 423.266046,530.732646 C436.846123,528.389913 445.935281,515.643167 443.557735,502.261931 C441.436106,490.312364 430.898132,481.897234 418.993894,481.897234 M418.948489,518.469902 C414.090206,518.469902 409.500223,515.59436 407.622127,510.860087 C405.434455,505.340835 407.704681,499.215564 412.682666,496.258677 L421.38795,518.225868 C420.574796,518.388557 419.757515,518.469902 418.948489,518.469902 M425.247334,516.741323 L416.54205,494.774132 C417.355204,494.611443 418.172485,494.530098 418.981511,494.530098 C423.843921,494.530098 428.433905,497.401573 430.307873,502.135846 C432.495545,507.655098 430.229447,513.780369 425.247334,516.741323"
                  id="Fill-225" fill="#7ED321" opacity="0.568289621"></path>
            <path d="M609.782509,331 L605.767704,323.663288 C603.188222,323.17863 600.727668,322.271986 598.488563,320.972603 L590.79933,323.930685 L583.946685,315.587055 L588.178839,308.375685 C587.752343,307.151507 587.399663,305.885548 587.170011,304.561096 C586.944461,303.236644 586.858341,301.924726 586.850139,300.625342 L580.465,295.306644 L584.131226,285.087055 L592.349479,285.216575 C594.018555,283.215274 596.03621,281.514795 598.29992,280.165274 L599.632721,271.875959 L604.890106,270.940068 L610.151592,270 L614.162296,277.336712 C616.745879,277.825548 619.206433,278.728014 621.441437,280.031575 L629.134771,277.069315 L635.983315,285.412945 L631.751161,292.624315 C632.177657,293.848493 632.534438,295.114452 632.759989,296.438904 C632.98964,297.763356 633.07576,299.075274 633.083962,300.374658 L639.465,305.697534 L635.798774,315.912945 L627.580521,315.787603 C625.911445,317.784726 623.897891,319.489384 621.63008,320.838904 L620.30138,329.128219 L615.039894,330.06411 L609.782509,331 M609.987555,280.491164 C608.868003,280.491164 607.727946,280.58726 606.583788,280.791986 C595.896779,282.697192 588.752968,293.063014 590.618889,303.946918 C592.287965,313.669315 600.580034,320.513014 609.942445,320.513014 C611.066098,320.513014 612.206155,320.416918 613.350313,320.212192 C624.033221,318.306986 631.181133,307.941164 629.311111,297.053082 C627.642035,287.334863 619.354067,280.491164 609.987555,280.491164 M609.954748,310.234932 C606.128585,310.234932 602.519772,307.899384 601.043439,304.047192 C599.321051,299.559932 601.104953,294.579658 605.025437,292.173082 L611.869879,310.038562 C611.230135,310.17226 610.590391,310.234932 609.954748,310.234932 M614.908664,308.831096 L608.060121,290.965616 C608.699865,290.831918 609.339609,290.765068 609.979353,290.765068 C613.805516,290.765068 617.414329,293.104795 618.886561,296.952808 C620.608949,301.440068 618.829148,306.424521 614.908664,308.831096"
                  id="Fill-226" fill="#CAC9C4" opacity="0.568289621"></path>
            <path d="M318.865153,492 L314.919767,482.62142 C312.773013,482.836924 310.617971,482.944676 308.462928,482.944676 C306.303741,482.944676 304.148698,482.836924 302.006088,482.62142 L298.060702,491.995856 C292.233798,491.171137 286.485636,489.724772 280.957123,487.507565 L282.246004,477.283545 C278.371072,475.534645 274.64119,473.387891 271.106091,470.834994 L262.925217,477.03903 C260.625124,475.23211 258.387195,473.317437 256.265307,471.195549 C254.147563,469.077805 252.23289,466.835732 250.421825,464.535638 L256.630006,456.354765 C254.068821,452.815521 251.922067,449.089784 250.177311,445.210707 L239.957435,446.499588 C237.740228,440.971075 236.289718,435.222913 235.465,429.396009 L244.839436,425.454767 C244.404283,421.161259 244.404283,416.830452 244.839436,412.541088 L235.465,408.595702 C236.289718,402.772943 237.740228,397.024781 239.957435,391.496267 L250.177311,392.785149 C251.922067,388.906072 254.068821,385.17619 256.630006,381.641091 L250.42597,373.464362 C252.23289,371.164268 254.147563,368.922195 256.265307,366.804451 C258.387195,364.682563 260.629268,362.76789 262.929362,360.96097 L271.106091,367.165006 C274.64119,364.607965 278.371072,362.457067 282.246004,360.712311 L280.957123,350.492435 C286.489781,348.275228 292.237943,346.828863 298.060702,346.004144 L302.006088,355.374436 C304.148698,355.158932 306.303741,355.047035 308.462928,355.047035 C310.617971,355.047035 312.773013,355.158932 314.919767,355.374436 L318.861009,346 C324.683769,346.824718 330.436075,348.275228 335.964588,350.492435 L334.675707,360.712311 C338.554784,362.457067 342.280521,364.607965 345.819765,367.165006 L353.996494,360.956825 C356.296588,362.76789 358.538661,364.682563 360.660549,366.804451 C362.778293,368.922195 364.692966,371.164268 366.50403,373.460217 L360.299994,381.641091 C362.852891,385.17619 365.003789,388.906072 366.7444,392.785149 L376.972565,391.496267 C379.189772,397.024781 380.640282,402.772943 381.460856,408.595702 L372.082276,412.541088 C372.517428,416.830452 372.517428,421.161259 372.082276,425.454767 L381.465,429.400153 C380.640282,435.222913 379.189772,440.975219 376.972565,446.499588 L366.7444,445.210707 C365.003789,449.089784 362.852891,452.815521 360.299994,456.354765 L366.50403,464.535638 C364.69711,466.835732 362.782437,469.077805 360.660549,471.195549 C358.542805,473.317437 356.300732,475.23211 354.000638,477.03903 L345.819765,470.834994 C342.280521,473.387891 338.554784,475.534645 334.675707,477.283545 L335.964588,487.507565 C330.436075,489.724772 324.687913,491.175282 318.865153,492 M308.462928,366.046042 C294.911025,366.046042 281.359121,371.218144 271.019061,381.554061 C250.343083,402.234182 250.343083,435.761674 271.019061,456.445939 C281.359121,466.781856 294.911025,471.953958 308.462928,471.953958 C322.014831,471.953958 335.566734,466.781856 345.906795,456.445939 C366.586917,435.761674 366.586917,402.234182 345.906795,381.554061 C335.566734,371.218144 322.014831,366.046042 308.462928,366.046042 M308.525093,437.949871 C302.776931,437.949871 297.190397,435.309944 293.539257,430.606148 L326.420236,413.092282 C329.25909,421.687587 325.636961,431.323114 317.373201,435.728519 C314.546779,437.237049 311.513142,437.949871 308.525093,437.949871 M290.509764,424.911862 C287.67091,416.312413 291.293039,406.668597 299.552655,402.271481 C302.379076,400.767095 305.412714,400.050129 308.404907,400.050129 C314.153069,400.050129 319.739603,402.690056 323.390743,407.397996 L290.509764,424.911862"
                  id="Fill-227" fill="#CAC9C4" opacity="0.568289621"></path>
            <path d="M575.996865,248 L569.868849,245.555455 L563.744938,243.11091 L564.225164,233.031236 C561.865078,230.904482 559.8785,228.366229 558.327,225.534631 L548.320233,223.583069 L546.465,210.602535 L555.523628,205.961974 C556.213183,202.812585 557.411697,199.826166 559.078123,197.133092 L555.79042,187.583069 L566.18301,179.491625 L574.765516,184.963332 C576.271867,184.486646 577.823367,184.099593 579.43233,183.871435 C580.737561,183.688094 582.026373,183.614758 583.306977,183.614758 C583.61071,183.614758 583.918547,183.618832 584.22228,183.626981 L590.933135,176 L597.057046,178.444545 L603.185062,180.88909 L602.704836,190.972838 C605.069027,193.099593 607.0515,195.633771 608.598895,198.465369 L618.605662,200.416931 L619.537383,206.907198 L620.465,213.397465 L611.406372,218.038026 C610.716817,221.191489 609.518303,224.173834 607.851877,226.870982 L611.13958,236.421005 L605.943285,240.462653 L600.74699,244.504301 L592.164484,239.036668 C590.658133,239.513354 589.110737,239.900407 587.49767,240.128565 C586.192439,240.311906 584.899522,240.385242 583.614814,240.385242 C583.311081,240.385242 583.007348,240.381168 582.70772,240.373019 L575.996865,248 M583.475261,202.682209 C583.03608,202.682209 582.592794,202.714803 582.145404,202.775917 C577.010676,203.501132 573.443867,208.215029 574.170364,213.311906 C574.835292,217.960616 578.857701,221.321865 583.454739,221.321865 C583.89392,221.321865 584.337206,221.289271 584.784596,221.228158 C589.919324,220.502943 593.486133,215.780896 592.759636,210.688094 C592.090603,206.039384 588.076404,202.682209 583.475261,202.682209 M583.462948,218.962879 C582.904736,218.962879 582.338315,218.893617 581.76779,218.755093 C578.41031,217.923947 576.243135,214.811227 576.489405,211.494794 L589.861861,214.803078 C588.741333,217.333182 586.212962,218.962879 583.462948,218.962879 M590.440595,212.505206 L577.068139,209.196922 C578.188667,206.666818 580.712934,205.041195 583.462948,205.041195 C584.025264,205.041195 584.591685,205.106383 585.158106,205.248981 C588.51969,206.080127 590.686865,209.188773 590.440595,212.505206"
                  id="Fill-228" fill="#F9C83F" opacity="0.383649554"></path>
            <path d="M468.066394,328 L464.229038,327.657158 L460.391681,327.318446 L459.759695,314.154124 C457.487848,313.575836 455.261437,312.762101 453.092856,311.712921 L444.121125,321.370337 L440.965323,319.156319 L437.813651,316.9423 L443.852634,305.223699 C442.130161,303.542533 440.605958,301.720924 439.292417,299.779528 L426.693992,303.65406 L423.447316,296.669162 L434.513277,289.552085 C433.868898,287.263715 433.459966,284.909255 433.286479,282.538273 L420.465,279.601394 L420.803712,275.764038 L421.146554,271.926681 L434.310876,271.298825 C434.889164,269.026978 435.702899,266.796437 436.75621,264.631987 L427.094663,255.651994 L431.5227,249.348651 L443.241301,255.387634 C444.922467,253.665161 446.744076,252.140958 448.685472,250.827417 L444.81094,238.233122 L448.301324,236.609784 L451.795838,234.986446 L458.908785,246.048277 C461.201285,245.408029 463.551614,244.994966 465.926727,244.821479 L468.863606,232 L472.700962,232.338712 L476.534188,232.681554 L477.166175,245.845876 C479.438022,246.424164 481.668563,247.237899 483.837144,248.29121 L492.808875,238.629663 L495.964677,240.843681 L499.116349,243.0577 L493.073235,254.780431 C494.799839,256.461598 496.324042,258.279076 497.637583,260.220472 L510.231878,256.34594 L513.478554,263.330838 L502.416723,270.447915 C503.056971,272.740416 503.470034,275.090745 503.643521,277.465858 L516.465,280.402737 L515.779315,288.073319 L502.619124,288.705305 C502.040836,290.977152 501.227101,293.207693 500.17379,295.372144 L509.835337,304.348006 L505.4073,310.65548 L493.684569,304.612366 C492.003402,306.334839 490.181794,307.859042 488.244528,309.172583 L492.11906,321.771008 L488.628676,323.394346 L485.134162,325.017684 L478.017085,313.951723 C475.724584,314.596102 473.374255,315.009165 470.999142,315.178521 L468.066394,328 M468.483588,256.065057 C460.949317,256.065057 453.534833,259.61327 448.875481,266.247063 C441.279251,277.061056 443.88981,291.989157 454.707933,299.585388 C458.892262,302.526397 463.692056,303.934943 468.442282,303.934943 C475.976553,303.934943 483.391036,300.38673 488.050388,293.752937 C495.646619,282.938944 493.03606,268.010843 482.217937,260.414612 C478.033607,257.473603 473.237944,256.065057 468.483588,256.065057 M468.512502,295.458887 C463.824236,295.458887 459.264019,293.306828 456.285834,289.469472 L483.114284,275.181619 C485.431568,282.1913 482.474036,290.056022 475.732846,293.649671 C473.423823,294.876468 470.949575,295.458887 468.512502,295.458887 M453.815716,284.822512 C451.498432,277.80457 454.455964,269.939848 461.193024,266.35446 C463.502047,265.123532 465.976295,264.541113 468.413367,264.541113 C473.105764,264.541113 477.66185,266.693172 480.640035,270.534659 L453.815716,284.822512"
                  id="Fill-229" fill="#CAC9C4" opacity="0.568289621"></path>
            <path d="M195.066394,588 L191.229038,587.657158 L187.391681,587.318446 L186.759695,574.154124 C184.487848,573.575836 182.261437,572.762101 180.092856,571.712921 L171.121125,581.370337 L167.965323,579.156319 L164.813651,576.9423 L170.852634,565.223699 C169.130161,563.542533 167.605958,561.720924 166.292417,559.779528 L153.693992,563.65406 L150.447316,556.669162 L161.513277,549.552085 C160.868898,547.263715 160.459966,544.909255 160.286479,542.538273 L147.465,539.601394 L147.803712,535.764038 L148.146554,531.926681 L161.310876,531.298825 C161.889164,529.026978 162.702899,526.796437 163.75621,524.631987 L154.094663,515.651994 L158.5227,509.348651 L170.241301,515.387634 C171.922467,513.665161 173.744076,512.140958 175.685472,510.827417 L171.81094,498.233122 L175.301324,496.609784 L178.795838,494.986446 L185.908785,506.048277 C188.201285,505.408029 190.551614,504.994966 192.926727,504.821479 L195.863606,492 L199.700962,492.338712 L203.534188,492.681554 L204.166175,505.845876 C206.438022,506.424164 208.668563,507.237899 210.837144,508.29121 L219.808875,498.629663 L222.964677,500.843681 L226.116349,503.0577 L220.073235,514.780431 C221.799839,516.461598 223.324042,518.279076 224.637583,520.220472 L237.231878,516.34594 L240.478554,523.330838 L229.416723,530.447915 C230.056971,532.740416 230.470034,535.090745 230.643521,537.465858 L243.465,540.402737 L242.779315,548.073319 L229.619124,548.705305 C229.040836,550.977152 228.227101,553.207693 227.17379,555.372144 L236.835337,564.348006 L232.4073,570.65548 L220.684569,564.612366 C219.003402,566.334839 217.181794,567.859042 215.244528,569.172583 L219.11906,581.771008 L215.628676,583.394346 L212.134162,585.017684 L205.017085,573.951723 C202.724584,574.596102 200.374255,575.009165 197.999142,575.178521 L195.066394,588 M195.483588,516.065057 C187.949317,516.065057 180.534833,519.61327 175.875481,526.247063 C168.279251,537.061056 170.88981,551.989157 181.707933,559.585388 C185.892262,562.526397 190.692056,563.934943 195.442282,563.934943 C202.976553,563.934943 210.391036,560.38673 215.050388,553.752937 C222.646619,542.938944 220.03606,528.010843 209.217937,520.414612 C205.033607,517.473603 200.237944,516.065057 195.483588,516.065057 M195.512502,555.458887 C190.824236,555.458887 186.264019,553.306828 183.285834,549.469472 L210.114284,535.181619 C212.431568,542.1913 209.474036,550.056022 202.732846,553.649671 C200.423823,554.876468 197.949575,555.458887 195.512502,555.458887 M180.815716,544.822512 C178.498432,537.80457 181.455964,529.939848 188.193024,526.35446 C190.502047,525.123532 192.976295,524.541113 195.413367,524.541113 C200.105764,524.541113 204.66185,526.693172 207.640035,530.534659 L180.815716,544.822512"
                  id="Fill-229-Copy" fill="#CAC9C4" opacity="0.568289621"></path>
            <path d="M222.122736,328 L218.847654,327.705438 L215.568474,327.410877 L215.031508,316.030841 C213.088594,315.528841 211.18667,314.827702 209.333933,313.914976 L201.668849,322.26642 L198.975822,320.353844 L196.282796,318.441268 L201.443405,308.305858 C199.967774,306.853794 198.668399,305.277267 197.54528,303.60117 L186.78547,306.953364 L184.014563,300.908627 L193.462701,294.760172 C192.913438,292.777067 192.565025,290.744177 192.413363,288.694692 L181.465,286.155653 L182.047054,279.521793 L193.290544,278.978307 C193.782421,277.011796 194.479246,275.082625 195.381021,273.211537 L187.129784,265.449215 L190.909039,260.001899 L200.922836,265.221034 C202.357477,263.731631 203.910989,262.416475 205.571073,261.279716 L202.259101,250.389233 L208.227209,247.580526 L214.301891,257.147556 C216.261201,256.591623 218.269699,256.23483 220.298692,256.085474 L222.807264,245 L226.082346,245.294562 L229.361526,245.593272 L229.898492,256.969159 C231.841406,257.471159 233.74333,258.176447 235.596067,259.085024 L243.261151,250.73358 L245.954178,252.646156 L248.647204,254.562881 L243.486595,264.694142 C244.958127,266.146206 246.261601,267.722733 247.38472,269.402979 L258.14453,266.050785 L260.915437,272.087224 L251.467299,278.239828 C252.016562,280.222933 252.364975,282.255823 252.512538,284.309457 L263.465,286.848495 L262.882946,293.482355 L251.639456,294.025842 C251.14348,295.988204 250.450754,297.917375 249.553078,299.788463 L257.804315,307.550785 L255.910589,310.276517 L254.020961,313.002249 L244.007164,307.778966 C242.572523,309.268369 241.019011,310.583525 239.358927,311.720284 L242.670899,322.614916 L236.702791,325.419474 L230.62401,315.852444 C228.668799,316.408377 226.660301,316.76517 224.631308,316.914526 L222.122736,328 M222.483445,265.806008 C216.048054,265.806008 209.715137,268.876087 205.735032,274.609667 C199.246355,283.960962 201.476197,296.863591 210.715287,303.435219 C214.289594,305.974258 218.388569,307.193992 222.446555,307.193992 C228.881946,307.193992 235.214863,304.128062 239.194968,298.390333 C245.683645,289.039038 243.453803,276.136409 234.214713,269.564781 C230.640406,267.025742 226.541431,265.806008 222.483445,265.806008 M222.508039,299.86729 C218.499241,299.86729 214.605215,298.004499 212.06385,294.685494 L234.977122,282.33465 C236.956927,288.395981 234.431958,295.191643 228.672898,298.29906 C226.701291,299.361142 224.590319,299.86729 222.508039,299.86729 M209.952878,290.669499 C207.973073,284.604019 210.498042,277.804209 216.253003,274.70094 C218.22461,273.638858 220.339681,273.136859 222.421961,273.136859 C226.42666,273.136859 230.320686,274.995501 232.86615,278.314506 L209.952878,290.669499"
                  id="Fill-230" fill="#CAC9C4" opacity="0.568289621"></path>
            <path d="M30.2913438,274 L28.6126669,273.851166 L26.9298553,273.702333 L26.6569669,267.943302 C25.6605109,267.691111 24.6847283,267.335565 23.7378884,266.872527 L19.8140845,271.097746 L18.433104,270.130328 L17.0521234,269.16291 L19.6983136,264.036421 C18.9416686,263.300522 18.2759864,262.502609 17.701267,261.655084 L12.189749,263.350133 L11.4785854,261.820455 L10.7715564,260.290777 L15.6091229,257.181809 C15.3279652,256.177183 15.1501742,255.147751 15.0716155,254.11005 L9.465,252.824294 L9.7626964,249.46727 L15.5222947,249.194409 C15.7745097,248.198051 16.1300916,247.222364 16.5890402,246.275618 L12.3634052,242.3522 L13.3309185,240.971355 L14.3025665,239.590511 L19.42956,242.232306 C20.1655316,241.47987 20.9593887,240.814253 21.8111311,240.239591 L20.1159155,234.728615 L21.6416096,234.017521 L23.1714383,233.306428 L26.2848464,238.147652 C27.2854371,237.866522 28.3149705,237.688749 29.3527732,237.610198 L30.6386562,232 L32.3173331,232.148834 L33.99601,232.301801 L34.2730331,238.060833 C35.2653544,238.313023 36.241137,238.66857 37.187977,239.127473 L41.1159155,234.902254 L42.496896,235.869672 L43.8737419,236.841225 L41.2316864,241.967713 C41.9841967,242.703613 42.6540136,243.497391 43.228733,244.34905 L48.740251,242.654001 L49.44728,244.179545 L50.1584436,245.709223 L45.3208771,248.822325 C45.5979002,249.822817 45.7798258,250.852249 45.8542499,251.88995 L51.465,253.175706 L51.1673036,256.53273 L45.4077053,256.809725 C45.1554903,257.801949 44.7999084,258.777636 44.3368252,259.724382 L48.5665948,263.651934 L47.5949468,265.032779 L46.6274335,266.409489 L41.50044,263.767694 C40.7644684,264.52013 39.9664767,265.189881 39.1188689,265.764544 L40.8140845,271.275519 L39.2842558,271.982479 L37.7585617,272.693572 L34.6451536,267.856482 C33.6404282,268.137612 32.6108949,268.315385 31.5730921,268.389802 L30.2913438,274 M30.4732693,242.529973 C27.1779356,242.529973 23.932218,244.080323 21.8938246,246.982577 C18.5695481,251.716311 19.7148523,258.244315 24.4449173,261.568265 C26.2765771,262.854021 28.3769905,263.474161 30.4567307,263.474161 C33.7520644,263.474161 36.9936474,261.919677 39.0320408,259.017423 C42.3563172,254.283689 41.2151477,247.755685 36.480948,244.431735 C34.6492882,243.145979 32.5530095,242.529973 30.4732693,242.529973 M30.4856734,259.765725 C28.434876,259.765725 26.4378293,258.823113 25.1354076,257.144601 L36.8737419,250.893592 C37.8867366,253.961217 36.5925842,257.400925 33.6445629,258.971946 C32.6357029,259.509401 31.5524188,259.765725 30.4856734,259.765725 M24.0562581,255.110542 C23.0432634,252.038783 24.3332812,248.599075 27.2813024,247.032188 C28.2942971,246.494734 29.3734465,246.238409 30.4443266,246.238409 C32.495124,246.238409 34.488036,247.181022 35.7904578,248.859533 L24.0562581,255.110542"
                  id="Fill-231" fill="#CAC9C4" opacity="0.289760045"></path>
            <path d="M456.230879,421 L453.992358,420.802846 L451.753837,420.601584 L451.38828,412.924894 C450.061597,412.588089 448.763665,412.111633 447.498592,411.499633 L442.261685,417.134957 L440.421579,415.84524 L438.585581,414.551416 L442.109712,407.71263 C441.103404,406.735074 440.212103,405.671263 439.44813,404.537627 L432.10003,406.800792 L431.151226,404.763532 L430.206529,402.722165 L436.65922,398.573713 C436.285449,397.238815 436.043114,395.862843 435.944536,394.478656 L428.465,392.765879 L428.662154,390.531465 L428.863416,388.288837 L436.540106,387.92328 C436.876911,386.596597 437.353367,385.298665 437.965367,384.033592 L432.334151,378.796685 L433.623868,376.960687 L434.913584,375.120581 L441.75237,378.644712 C442.734033,377.638404 443.793737,376.75121 444.927373,375.98313 L442.664208,368.63503 L444.701468,367.686226 L446.742835,366.741529 L450.891287,373.19422 C452.230293,372.820449 453.602157,372.578114 454.986344,372.479536 L456.699121,365 L458.937642,365.197154 L461.172056,365.398416 L461.54172,373.075106 C462.868403,373.411911 464.166335,373.888367 465.431408,374.504474 L470.668315,368.865043 L472.508421,370.158868 L474.344419,371.448584 L470.820288,378.28737 C471.826596,379.269033 472.717897,380.332844 473.48187,381.462373 L480.82997,379.203315 L481.778774,381.240575 L482.723471,383.277835 L476.27078,387.426287 C476.644551,388.765293 476.886886,390.137157 476.985464,391.521344 L484.465,393.234121 L484.267846,395.472642 L484.066584,397.711163 L476.389894,398.07672 C476.053089,399.403403 475.576633,400.705442 474.964633,401.966408 L480.599957,407.203315 L479.306132,409.043421 L478.016416,410.883526 L471.17763,407.359396 C470.195967,408.361596 469.136263,409.252897 468.002627,410.01687 L470.261685,417.369077 L468.228532,418.313774 L466.187165,419.262579 L462.038713,412.80578 C460.699707,413.183659 459.327843,413.421886 457.943656,413.524571 L456.230879,421 M456.477322,379.03902 C452.082427,379.03902 447.757357,381.109139 445.038273,384.97829 C440.606411,391.287223 442.130249,399.994866 448.439182,404.426727 C450.883072,406.139504 453.680197,406.965087 456.452678,406.965087 C460.847573,406.965087 465.172643,404.894968 467.891727,401.025818 C472.323589,394.712777 470.799751,386.005134 464.48671,381.573273 C462.046928,379.860496 459.249803,379.03902 456.477322,379.03902 M456.493752,402.019803 C453.758237,402.019803 451.100764,400.762946 449.363342,398.524424 L465.012455,390.186446 C466.363782,394.277395 464.638683,398.865337 460.703815,400.9601 C459.360702,401.678891 457.914905,402.019803 456.493752,402.019803 M447.917545,395.813554 C446.566218,391.718498 448.291317,387.130556 452.222078,385.0399 C453.569298,384.321109 455.015095,383.984304 456.436248,383.984304 C459.171763,383.984304 461.829236,385.237054 463.566658,387.479683 L447.917545,395.813554"
                  id="Fill-232" fill="#CAC9C4" opacity="0.568289621"></path>
            <path d="M134.331854,302 L133.053657,301.885305 L131.77546,301.770609 L131.566523,297.383513 C130.808618,297.190988 130.063003,296.920635 129.341968,296.568356 L126.351314,299.788018 L125.29844,299.050691 L124.249663,298.313364 L126.261185,294.40553 C125.687635,293.844342 125.179633,293.238095 124.741277,292.590886 L120.542071,293.885305 L120.001295,292.71787 L119.460519,291.554531 L123.147627,289.182796 C122.934594,288.420891 122.795303,287.634409 122.737948,286.84383 L118.465,285.864823 L118.57971,284.58679 L118.690323,283.308756 L123.077982,283.099846 C123.270531,282.342038 123.545015,281.596518 123.893242,280.875576 L120.673168,277.885305 L121.41059,276.832565 L122.152108,275.783922 L126.056346,277.795187 C126.617605,277.22171 127.22393,276.713774 127.871222,276.275474 L126.580734,272.076805 L127.744222,271.536098 L128.907709,270.995392 L131.279748,274.682028 C132.045848,274.469022 132.828334,274.329749 133.619014,274.272401 L134.598146,270 L135.876343,270.114695 L137.15454,270.229391 L137.367573,274.616487 C138.125479,274.809012 138.866997,275.079365 139.588032,275.431644 L142.582783,272.211982 L143.63156,272.949309 L144.684434,273.686636 L142.668815,277.59447 C143.242365,278.151562 143.750367,278.757808 144.188723,279.405018 L148.387929,278.114695 L149.469481,280.441372 L145.782373,282.813108 C145.995406,283.579109 146.134697,284.361495 146.192052,285.152074 L150.465,286.13108 L150.35029,287.41321 L150.239677,288.691244 L145.852018,288.900154 C145.659469,289.657962 145.384985,290.399386 145.036758,291.120328 L148.256832,294.114695 L147.51941,295.163338 L146.781989,296.216078 L142.873654,294.200717 C142.312395,294.77829 141.70607,295.28213 141.058778,295.72043 L142.349266,299.923195 L140.022291,301.004608 L137.650252,297.313876 C136.884152,297.530978 136.101666,297.666155 135.310986,297.723502 L134.331854,302 M134.471145,278.020481 C131.959815,278.020481 129.489453,279.204301 127.936771,281.416283 C125.404956,285.020993 126.273475,289.993856 129.878647,292.525346 C131.275652,293.508449 132.873398,293.975422 134.458855,293.975422 C136.970185,293.975422 139.440547,292.795699 140.993229,290.583717 C143.525044,286.979007 142.656525,282.002048 139.051353,279.470558 C137.654348,278.491551 136.056602,278.020481 134.471145,278.020481 M134.483436,291.153098 C132.918463,291.153098 131.398555,290.436252 130.407133,289.154122 L139.350418,284.390169 C140.120614,286.729135 139.137385,289.350742 136.888249,290.546851 C136.118053,290.956477 135.294599,291.153098 134.483436,291.153098 M129.583679,287.605735 C128.809386,285.266769 129.796712,282.645161 132.041751,281.449053 C132.811947,281.039427 133.635401,280.846902 134.450661,280.846902 C136.011537,280.846902 137.531445,281.563748 138.522867,282.841782 L129.583679,287.605735"
                  id="Fill-233" fill="#CAC9C4" opacity="0.289760045"></path>
            <path d="M320.331854,564 L319.053657,563.885305 L317.77546,563.770609 L317.566523,559.383513 C316.808618,559.190988 316.063003,558.920635 315.341968,558.568356 L312.351314,561.788018 L311.29844,561.050691 L310.249663,560.313364 L312.261185,556.40553 C311.687635,555.844342 311.179633,555.238095 310.741277,554.590886 L306.542071,555.885305 L306.001295,554.71787 L305.460519,553.554531 L309.147627,551.182796 C308.934594,550.420891 308.795303,549.634409 308.737948,548.84383 L304.465,547.864823 L304.57971,546.58679 L304.690323,545.308756 L309.077982,545.099846 C309.270531,544.342038 309.545015,543.596518 309.893242,542.875576 L306.673168,539.885305 L307.41059,538.832565 L308.152108,537.783922 L312.056346,539.795187 C312.617605,539.22171 313.22393,538.713774 313.871222,538.275474 L312.580734,534.076805 L313.744222,533.536098 L314.907709,532.995392 L317.279748,536.682028 C318.045848,536.469022 318.828334,536.329749 319.619014,536.272401 L320.598146,532 L321.876343,532.114695 L323.15454,532.229391 L323.367573,536.616487 C324.125479,536.809012 324.866997,537.079365 325.588032,537.431644 L328.582783,534.211982 L329.63156,534.949309 L330.684434,535.686636 L328.668815,539.59447 C329.242365,540.151562 329.750367,540.757808 330.188723,541.405018 L334.387929,540.114695 L335.469481,542.441372 L331.782373,544.813108 C331.995406,545.579109 332.134697,546.361495 332.192052,547.152074 L336.465,548.13108 L336.35029,549.41321 L336.239677,550.691244 L331.852018,550.900154 C331.659469,551.657962 331.384985,552.399386 331.036758,553.120328 L334.256832,556.114695 L333.51941,557.163338 L332.781989,558.216078 L328.873654,556.200717 C328.312395,556.77829 327.70607,557.28213 327.058778,557.72043 L328.349266,561.923195 L326.022291,563.004608 L323.650252,559.313876 C322.884152,559.530978 322.101666,559.666155 321.310986,559.723502 L320.331854,564 M320.471145,540.020481 C317.959815,540.020481 315.489453,541.204301 313.936771,543.416283 C311.404956,547.020993 312.273475,551.993856 315.878647,554.525346 C317.275652,555.508449 318.873398,555.975422 320.458855,555.975422 C322.970185,555.975422 325.440547,554.795699 326.993229,552.583717 C329.525044,548.979007 328.656525,544.002048 325.051353,541.470558 C323.654348,540.491551 322.056602,540.020481 320.471145,540.020481 M320.483436,553.153098 C318.918463,553.153098 317.398555,552.436252 316.407133,551.154122 L325.350418,546.390169 C326.120614,548.729135 325.137385,551.350742 322.888249,552.546851 C322.118053,552.956477 321.294599,553.153098 320.483436,553.153098 M315.583679,549.605735 C314.809386,547.266769 315.796712,544.645161 318.041751,543.449053 C318.811947,543.039427 319.635401,542.846902 320.450661,542.846902 C322.011537,542.846902 323.531445,543.563748 324.522867,544.841782 L315.583679,549.605735"
                  id="Fill-233-Copy" fill="#CAC9C4" opacity="0.289760045"></path>
            <path d="M548.100107,166 L539.187188,144.81179 C537.115181,145.021452 535.039063,145.128339 532.962944,145.128339 C530.882715,145.128339 528.806597,145.021452 526.738701,144.81179 L517.825782,166 L511.326094,164.256926 L504.822294,162.509742 L507.700082,139.66479 C503.963069,137.987493 500.369946,135.915537 496.961823,133.453035 L478.60565,147.377068 L473.840856,142.616504 L469.084285,137.860051 L483.008665,119.496113 C480.54199,116.092187 478.469983,112.495042 476.792644,108.758122 L453.943012,111.639949 L450.465,98.6326739 L471.649627,89.7199771 C471.226181,85.5842884 471.226181,81.4116006 471.649627,77.2718009 L450.465,68.359104 L453.943012,55.3600508 L476.792644,58.2377666 C478.469983,54.5008471 480.54199,50.9037024 483.008665,47.4956647 L469.084285,29.1399492 L473.840856,24.3793851 L478.60565,19.622932 L496.961823,33.5469653 C500.369946,31.0803518 503.963069,29.0083965 507.704193,27.3269882 L504.822294,4.48203608 L511.326094,2.73896253 L517.825782,1 L526.738701,22.1840991 C528.806597,21.9744369 530.882715,21.8716614 532.962944,21.8716614 C535.039063,21.8716614 537.115181,21.9744369 539.187188,22.1840991 L548.100107,1 L554.603906,2.73896253 L561.107706,4.48203608 L558.225807,27.3269882 C561.96282,29.0083965 565.560054,31.0803518 568.964066,33.5469653 L587.32435,19.622932 L592.085032,24.3793851 L596.845715,29.1399492 L582.917224,47.4956647 C585.379788,50.9037024 587.451795,54.5008471 589.133245,58.2336556 L611.978766,55.3600508 L615.465,68.359104 L594.276262,77.2718009 C594.695597,81.4116006 594.695597,85.5842884 594.276262,89.7199771 L615.465,98.6326739 L611.978766,111.639949 L589.133245,108.758122 C587.451795,112.495042 585.379788,116.092187 582.917224,119.496113 L596.845715,137.860051 L587.32435,147.377068 L568.964066,133.453035 C565.560054,135.915537 561.96282,137.987493 558.225807,139.66479 L561.107706,162.509742 L554.603906,164.256926 L548.100107,166 M532.967056,60.1822802 C526.997702,60.1822802 521.028349,62.4597867 516.477333,67.0147997 C507.36708,76.1166035 507.36708,90.8833965 516.477333,99.9852003 C521.028349,104.540213 526.997702,106.81772 532.967056,106.81772 C538.932298,106.81772 544.901651,104.540213 549.452667,99.9852003 C558.558808,90.8833965 558.558808,76.1166035 549.452667,67.0147997 C544.901651,62.4597867 538.932298,60.1822802 532.967056,60.1822802 M532.893055,101.419947 C528.835375,101.419947 524.757139,100.046866 521.402461,97.2225932 C514.623216,91.5123829 513.1761,81.8720351 517.509226,74.4721945 L544.486428,97.193816 C541.172861,99.9852003 537.04118,101.419947 532.893055,101.419947 M548.420774,92.5236944 L521.443572,69.802073 C524.753028,67.0106887 528.880597,65.5759418 533.028722,65.5759418 C537.090514,65.5759418 541.16875,66.9531343 544.523428,69.7774068 C551.306784,75.4876171 552.749789,85.1320759 548.420774,92.5236944"
                  id="Fill-234" fill="#CAC9C4" opacity="0.453218006"></path>
            <path d="M45.6024239,391 L42.5782075,383.807607 C41.8751917,383.882484 41.1721758,383.915763 40.465,383.915763 C39.7619841,383.915763 39.0548083,383.882484 38.3517925,383.807607 L35.3275761,391 L33.1228517,390.4093 L30.9139675,389.818601 L31.8915339,382.064626 C30.6227774,381.494726 29.4039392,380.79171 28.2474989,379.955579 L22.0160325,384.681177 L20.397848,383.062992 L18.7838234,381.448967 L23.5094213,375.217501 C22.67329,374.061061 21.9702741,372.842223 21.4003736,371.573466 L13.6463995,372.551033 L12.465,368.137424 L19.6573934,365.109048 C19.5117984,363.707176 19.5117984,362.292824 19.6573934,360.886792 L12.465,357.862576 L13.6463995,353.448967 L21.4003736,354.426534 C21.9702741,353.157777 22.67329,351.934779 23.5094213,350.778339 L18.7838234,344.551033 L20.397848,342.932848 L22.0160325,341.318823 L28.2474989,346.044421 C29.4039392,345.20829 30.6227774,344.505274 31.8915339,343.935374 L30.9139675,336.181399 L33.1228517,335.58654 L35.3275761,335 L38.3517925,342.188234 C39.0548083,342.117516 39.7619841,342.080077 40.465,342.080077 C41.1721758,342.080077 41.8751917,342.117516 42.5782075,342.188234 L45.6024239,335 L47.8113081,335.58654 L50.0160325,336.181399 L49.0384661,343.935374 C50.3072226,344.505274 51.5302206,345.20829 52.6825011,346.044421 L58.9139675,341.318823 L60.532152,342.932848 L62.1461766,344.551033 L57.4205787,350.778339 C58.25671,351.934779 58.9597259,353.157777 59.5296264,354.422374 L67.2836005,353.448967 L68.465,357.862576 L61.2767665,360.886792 C61.4182016,362.292824 61.4182016,363.707176 61.2767665,365.109048 L68.465,368.137424 L67.2836005,372.551033 L59.5296264,371.573466 C58.9597259,372.842223 58.25671,374.061061 57.4205787,375.217501 L62.1461766,381.448967 L60.532152,383.062992 L58.9139675,384.681177 L52.6825011,379.955579 C51.5302206,380.79171 50.3072226,381.494726 49.0384661,382.064626 L50.0160325,389.818601 L47.8113081,390.4093 L45.6024239,391 M40.465,355.083791 C38.4391495,355.083791 36.4132989,355.857525 34.8699918,357.404992 C31.7792178,360.495766 31.7792178,365.504234 34.8699918,368.595008 C36.4132989,370.142475 38.4391495,370.912049 40.465,370.912049 C42.4908505,370.912049 44.5167011,370.142475 46.064168,368.595008 C49.1549421,365.504234 49.1549421,360.495766 46.064168,357.404992 C44.5167011,355.857525 42.4908505,355.083791 40.465,355.083791 M40.4400409,369.081711 C39.0631281,369.081711 37.6820554,368.615807 36.5422545,367.65904 C34.2418534,365.720547 33.7509902,362.446739 35.2194198,359.934185 L44.3752659,367.646561 C43.2521044,368.595008 41.8502325,369.081711 40.4400409,369.081711 M45.7105802,366.061655 L36.5547341,358.349279 C37.6820554,357.404992 39.0797675,356.918289 40.4899591,356.918289 C41.8668719,356.918289 43.2521044,357.384193 44.3919054,358.34096 C46.6923065,360.279453 47.1831697,363.553261 45.7105802,366.061655"
                  id="Fill-235" fill="#CAC9C4" opacity="0.289760045"></path>
            <path d="M569.41419,580 L563.851792,567.028005 C562.558745,567.163052 561.265698,567.223072 559.965,567.223072 C558.671953,567.223072 557.371255,567.163052 556.078208,567.028005 L550.51581,580 L546.460692,578.934631 L542.397922,577.869262 L544.195946,563.884415 C541.862341,562.856559 539.620549,561.58862 537.493525,560.080597 L526.032078,568.603551 L523.055774,565.685039 L520.087122,562.774031 L528.778846,551.535136 C527.240962,549.449413 525.947915,547.251151 524.899705,544.962858 L510.637931,546.725969 L508.465,538.765711 L521.693866,533.303818 C521.426076,530.775442 521.426076,528.224558 521.693866,525.688679 L508.465,520.234289 L510.637931,512.274031 L524.899705,514.037142 C525.947915,511.748849 527.240962,509.543084 528.778846,507.457361 L520.087122,496.225969 L523.055774,493.307458 L526.032078,490.396449 L537.493525,498.919403 C539.620549,497.41138 541.862341,496.143441 544.195946,495.115585 L542.397922,481.130738 L546.460692,480.057867 L550.51581,479 L556.078208,491.964493 C557.371255,491.836948 558.671953,491.769425 559.965,491.769425 C561.265698,491.769425 562.558745,491.836948 563.851792,491.964493 L569.41419,479 L573.47696,480.057867 L577.532078,481.130738 L575.734054,495.115585 C578.067659,496.143441 580.317102,497.41138 582.436475,498.919403 L593.897922,490.396449 L596.874226,493.307458 L599.842878,496.225969 L591.151154,507.457361 C592.689038,509.543084 593.982085,511.748849 595.030295,514.029639 L609.292069,512.274031 L611.465,520.234289 L598.243785,525.688679 C598.503924,528.224558 598.503924,530.775442 598.243785,533.303818 L611.465,538.765711 L609.292069,546.725969 L595.030295,544.962858 C593.982085,547.251151 592.689038,549.449413 591.151154,551.535136 L599.842878,562.774031 L596.874226,565.685039 L593.897922,568.603551 L582.436475,560.080597 C580.317102,561.58862 578.067659,562.856559 575.734054,563.884415 L577.532078,577.869262 L573.47696,578.934631 L569.41419,580 M561.570569,514.269841 C557.863361,514.269841 554.156152,515.680466 551.331975,518.501717 C545.676008,524.136633 545.676008,533.267776 551.331975,538.902693 C554.156152,541.723943 557.863361,543.126984 561.570569,543.126984 C565.277777,543.126984 568.984985,541.723943 571.816775,538.902693 C577.472742,533.267776 577.472742,524.136633 571.816775,518.501717 C568.984985,515.680466 565.277777,514.269841 561.570569,514.269841 M561.03784,539.920635 C558.597665,539.920635 556.150118,539.104102 554.130155,537.427294 C550.053367,534.029934 549.183455,528.292333 551.785817,523.888889 L568.011875,537.405422 C566.0214,539.06765 563.536992,539.920635 561.03784,539.920635 M569.748409,535.111111 L553.5275,521.588428 C555.524713,519.932738 558.000963,519.079365 560.499322,519.079365 C562.938723,519.079365 565.392863,519.896269 567.412185,521.573841 C571.48768,524.972746 572.357315,530.712957 569.748409,535.111111"
                  id="Fill-235-Copy" fill="#CAC9C4" opacity="0.289760045"></path>
            <path d="M355.385662,213 L351.586452,195.979072 C349.170651,196.178292 346.738331,196.277903 344.310141,196.277903 C336.558928,196.277903 328.76229,195.256896 321.011078,193.119423 L314.139465,209.115194 L291.311173,199.208109 L298.178657,183.208187 C289.163794,177.688111 281.482784,170.781789 275.143887,162.808806 L260.211343,171.699035 L247.533547,150.195638 L262.234835,141.442374 C258.274572,131.879774 256.168489,121.648956 255.66881,111.189863 L238.465,109.571194 L240.785821,84.6851935 L257.878133,86.2955618 C259.063321,81.3067405 260.467376,76.3303706 262.556941,71.4577615 C264.650636,66.5851524 267.293564,62.1483388 270.089287,57.8609409 L257.205012,46.4596997 L273.636592,27.6997396 L286.607587,39.1715382 C294.523983,32.364827 303.377792,26.8904051 313.02035,23.2297226 L309.278955,6.47442197 L333.544338,1 L337.343548,18.0209284 C339.759349,17.825858 342.18341,17.7220971 344.6116,17.7220971 C352.362812,17.7220971 360.16358,18.7472543 367.918922,20.8847276 L374.790535,4.88895632 L397.618827,14.791891 L390.747214,30.7918127 C399.766206,36.3160399 407.443086,43.218211 413.786113,51.1953445 L428.718657,42.3009652 L441.392323,63.8085123 L426.695165,72.5617769 C430.655428,82.124376 432.761511,92.3551949 433.26119,102.814288 L450.465,104.432957 L448.144179,129.318957 L431.051867,127.708589 C429.866679,132.69741 428.462624,137.67378 426.368929,142.542238 C424.279364,147.414848 421.636436,151.855812 418.836584,156.14321 L431.724988,167.544451 L415.293408,186.304411 L402.322413,174.832612 C394.406017,181.635173 385.552208,187.113745 375.90965,190.770277 L379.651045,207.529728 L355.385662,213 M344.500101,32.3814288 C315.770647,32.3814288 288.42873,49.2363398 276.320815,77.4302355 C260.066808,115.257288 277.406894,159.160575 315.039712,175.492531 C324.628586,179.651266 334.609769,181.622722 344.425769,181.622722 C373.155223,181.622722 400.497141,164.76366 412.609185,136.573915 C428.859063,98.7468627 411.523106,54.8435756 373.886158,38.5116193 C364.301414,34.3528847 354.316102,32.3814288 344.500101,32.3814288 M344.508361,160.243838 C334.510659,160.243838 324.401459,157.413242 315.419633,151.486423 C290.894086,135.312183 284.059639,102.220776 300.152594,77.5755007 C310.352644,61.9532685 327.31281,53.4739325 344.60747,53.4739325 C354.605172,53.4739325 364.714372,56.3086787 373.696198,62.2313475 C398.217615,78.4055874 405.052062,111.496995 388.959108,136.14642 C378.763186,151.764502 361.803021,160.243838 344.508361,160.243838 M344.595082,66.4398872 C331.500199,66.4398872 318.66135,72.8606081 310.939044,84.6851935 C298.756797,103.345543 303.927025,128.401711 322.493595,140.649641 C329.295006,145.132109 336.951238,147.277883 344.520749,147.277883 C357.615632,147.277883 370.454481,140.857162 378.176787,129.032577 C390.359034,110.372227 385.184676,85.3160594 366.618106,73.0681298 C359.816696,68.5856614 352.164593,66.4398872 344.595082,66.4398872 M344.487713,131.365122 C344.405121,131.365122 344.3184,131.365122 344.231679,131.365122 L352.829454,84.1290354 C363.731533,88.1466552 370.532943,99.5188434 368.373175,111.393234 C366.234055,123.180466 356.000968,131.369271 344.487713,131.365122 M336.100546,129.875115 C325.194338,125.853345 318.388798,114.481157 320.548565,102.610916 C322.695945,90.8278353 332.929032,82.6348793 344.438158,82.6348793 C344.520749,82.6348793 344.60747,82.6348793 344.690062,82.6390297 L336.100546,129.875115"
                  id="Fill-236" fill="#398EBA" opacity="0.834914435"></path>
            <path d="M103.858661,228 L102.153073,220.53653 C101.073007,220.622695 99.9845997,220.667828 98.8920225,220.667828 C95.4224646,220.667828 91.9278857,220.216492 88.4541576,219.280994 L85.3724229,226.297229 L75.1430651,221.952087 L78.2206297,214.931748 C74.1797623,212.510941 70.7393953,209.482882 67.8995288,205.98297 L61.2106214,209.884982 L55.5267181,200.452043 L62.1155421,196.611577 C60.3390617,192.414145 59.3966097,187.925395 59.171422,183.338172 L51.465,182.628342 L52.5033653,171.710094 L60.1639158,172.415821 C60.6935238,170.228889 61.3232152,168.04606 62.2614971,165.908365 C63.1956088,163.77067 64.3799291,161.825818 65.6351418,159.942513 L59.8594954,154.940881 L67.2239658,146.710139 L73.0371435,151.744595 C76.581764,148.757566 80.5517389,146.357275 84.8720058,144.752978 L83.1956088,137.400291 L94.0713386,135 L95.7727565,142.467573 C96.8528232,142.381408 97.9412302,142.336275 99.0296372,142.336275 C102.503365,142.336275 105.997944,142.783508 109.471672,143.72311 L112.553407,136.706874 L122.782765,141.052016 L119.70103,148.068252 C123.746068,150.493162 127.186435,153.521221 130.026301,157.021133 L136.719379,153.119121 L142.399112,162.55206 L135.810288,166.392526 C137.586768,170.585855 138.52922,175.074605 138.754408,179.665931 L146.465,180.375761 L145.422465,191.289906 L137.761914,190.584179 C137.232306,192.771111 136.602615,194.958043 135.664333,197.095738 C134.730221,199.22933 133.545901,201.178285 132.290688,203.06159 L138.066334,208.059119 L130.701864,216.289861 L124.888686,211.255405 C121.344066,214.242434 117.374091,216.646828 113.053824,218.251125 L114.730221,225.599709 L103.858661,228 M98.9795955,148.765773 C86.1063678,148.765773 73.8544912,156.15949 68.4249666,168.530221 C61.1438991,185.123004 68.9128732,204.382776 85.7769266,211.546722 C90.0721726,213.372584 94.5467348,214.238331 98.9462344,214.238331 C111.819462,214.238331 124.071339,206.84051 129.500863,194.473882 C136.781931,177.881099 129.012957,158.621327 112.148903,151.457381 C107.853657,149.631519 103.379095,148.765773 98.9795955,148.765773 M98.9837656,204.858731 C94.5008632,204.858731 89.9720892,203.615503 85.9479024,201.018265 C74.9595788,193.919968 71.8945246,179.403335 79.1088699,168.591767 C83.6751751,161.739654 91.2773436,158.018177 99.0296372,158.018177 C103.508369,158.018177 108.037143,159.261405 112.06133,161.862746 C123.049654,168.95694 126.114708,183.473573 118.900363,194.285141 C114.334058,201.137254 106.731889,204.858731 98.9837656,204.858731 M99.0212969,163.709124 C93.1539074,163.709124 87.3991118,166.523824 83.9378941,171.710094 C78.4791785,179.899806 80.7977773,190.887806 89.1172102,196.262817 C92.1655838,198.228183 95.5976105,199.171887 98.9879358,199.171887 C104.855325,199.171887 110.610121,196.353084 114.071339,191.166814 C119.530054,182.981205 117.211455,171.989103 108.892023,166.614092 C105.843649,164.648725 102.411622,163.709124 99.0212969,163.709124 M98.9754254,192.192579 C98.9378941,192.192579 98.8961927,192.188476 98.8586614,192.188476 L102.711872,171.468014 C107.595108,173.228227 110.643482,178.217551 109.676009,183.428439 C108.716877,188.598297 104.133891,192.192579 98.9754254,192.192579 M95.2139575,191.536089 C90.3307214,189.771773 87.2781776,184.782449 88.2456505,179.575664 C89.2089533,174.405806 93.7961093,170.811524 98.9504045,170.811524 C98.9879358,170.811524 99.0254671,170.811524 99.0629983,170.811524 L95.2139575,191.536089"
                  id="Fill-237" fill="#0556C3" opacity="0.289760045"></path>
            <path d="M197.694444,212 L196.747792,207.745749 C196.143102,207.796046 195.534242,207.821194 194.925382,207.821194 C192.990376,207.821194 191.038688,207.56552 189.103681,207.033215 L187.385529,211.031791 L181.676425,208.554686 L183.394577,204.551918 C181.13846,203.172954 179.220134,201.446105 177.63543,199.451008 L173.903036,201.676631 L170.733629,196.299091 L174.407639,194.11119 C173.415114,191.722104 172.88966,189.16117 172.764551,186.549941 L168.465,186.143377 L169.044668,179.919178 L173.319198,180.32155 C173.615287,179.07671 173.96559,177.83187 174.486874,176.612179 C175.012329,175.396679 175.671232,174.285963 176.371838,173.21297 L173.148217,170.362831 L177.255936,165.672677 L180.500408,168.543772 C182.481288,166.842072 184.691532,165.471491 187.10195,164.55777 L186.167809,160.36639 L192.235556,159 L193.186379,163.254251 C193.786898,163.203954 194.395758,163.178806 195.004618,163.178806 C196.939624,163.178806 198.891312,163.43448 200.830489,163.970977 L202.548642,159.9724 L208.253575,162.445314 L206.535423,166.448082 C208.79154,167.827046 210.709866,169.553895 212.29874,171.548992 L216.031134,169.323369 L219.200542,174.700909 L215.522361,176.88881 C216.514886,179.282088 217.04034,181.83883 217.165449,184.454251 L221.465,184.856623 L220.885332,191.080822 L216.614972,190.67845 C216.314713,191.92329 215.96441,193.16813 215.443126,194.387821 C214.917671,195.603321 214.258768,196.714037 213.558162,197.78703 L216.781783,200.637169 L212.674064,205.327323 L209.429592,202.460419 C207.452883,204.162119 205.238468,205.528509 202.82805,206.44223 L203.762191,210.63361 L197.694444,212 M194.975426,166.842072 C187.794216,166.842072 180.954968,171.0586 177.92735,178.108501 C173.865504,187.564255 178.198417,198.541479 187.610724,202.623883 C190.00446,203.663345 192.502454,204.157928 194.958745,204.157928 C202.139955,204.157928 208.975032,199.9414 212.00265,192.891499 C216.064496,183.435745 211.731583,172.458521 202.323447,168.376117 C199.92554,167.336655 197.427546,166.842072 194.975426,166.842072 M194.975426,198.809727 C192.477432,198.809727 189.950247,198.105575 187.70247,196.621827 C181.572168,192.577145 179.862356,184.307552 183.88667,178.142032 C186.438877,174.239858 190.675874,172.119019 195.000447,172.119019 C197.502611,172.119019 200.029797,172.827363 202.273403,174.30692 C208.403705,178.351601 210.113517,186.625386 206.089203,192.786714 C203.541166,196.69308 199.299999,198.809727 194.975426,198.809727 M194.996277,175.358956 C191.722613,175.358956 188.515673,176.964255 186.584836,179.923369 C183.536367,184.588375 184.829151,190.850297 189.474836,193.914195 C191.172137,195.033294 193.086292,195.56979 194.979596,195.56979 C198.25326,195.56979 201.464371,193.964492 203.395207,191.009569 C206.439506,186.344563 205.146722,180.07845 200.505208,177.018743 C198.803736,175.895453 196.889581,175.358956 194.996277,175.358956 M194.971255,191.592171 C194.950404,191.592171 194.929553,191.592171 194.908701,191.592171 L197.056392,179.780862 C199.78375,180.786793 201.481052,183.628549 200.943086,186.600237 C200.409291,189.546777 197.848744,191.592171 194.971255,191.592171 M192.873608,191.219138 C190.14625,190.213207 188.444778,187.371451 188.986914,184.403954 C189.524879,181.457414 192.081256,179.407829 194.958745,179.407829 C194.979596,179.407829 195.000447,179.407829 195.021299,179.407829 L192.873608,191.219138"
                  id="Fill-238" fill="#CAC9C4" opacity="0.289760045"></path>
            <path d="M161.767463,365 L161.142315,362.270858 C160.742992,362.303124 160.340915,362.319257 159.938837,362.319257 C158.661003,362.319257 157.372152,362.155239 156.094318,361.81376 L154.959689,364.378885 L151.189526,362.789798 L152.324155,360.221985 C150.834266,359.337367 149.567447,358.229577 148.520945,356.949703 L146.056156,358.377461 L143.963151,354.927718 L146.389384,353.52416 C145.733943,351.991538 145.386945,350.348675 145.304326,348.673547 L142.465,348.412732 L142.8478,344.41985 L145.670602,344.677975 C145.866133,343.879399 146.097465,343.080822 146.441709,342.298379 C146.788708,341.518624 147.223832,340.806089 147.686497,340.117754 L145.55769,338.289363 L148.270335,335.280585 L150.412911,337.12242 C151.721039,336.030763 153.180635,335.151522 154.77242,334.565362 L154.155534,331.876552 L158.162537,331 L158.790439,333.729142 C159.187008,333.696876 159.589085,333.680743 159.991163,333.680743 C161.268997,333.680743 162.557848,333.844761 163.838436,334.188928 L164.973065,331.623804 L168.740474,333.210202 L167.605845,335.778015 C169.095734,336.662633 170.362553,337.770423 171.411809,339.050297 L173.876598,337.622539 L175.969603,341.072282 L173.540616,342.47584 C174.196057,344.011151 174.543055,345.651325 174.625674,347.329142 L177.465,347.587268 L177.0822,351.58015 L174.262152,351.322025 C174.063867,352.120601 173.832535,352.919178 173.488291,353.701621 C173.141292,354.481376 172.706168,355.193911 172.243503,355.882246 L174.37231,357.710637 L171.659665,360.719415 L169.517089,358.880269 C168.211715,359.971926 166.749365,360.848478 165.15758,361.434638 L165.774466,364.123448 L161.767463,365 M160.767134,335.857143 C156.151079,335.857143 151.754836,338.601322 149.808694,343.189503 C147.197755,349.343448 149.982936,356.487588 156.033131,359.144478 C157.571816,359.820975 159.177517,360.142857 160.756411,360.142857 C165.372466,360.142857 169.766029,357.398678 171.71217,352.810497 C174.32311,346.656552 171.537929,339.512412 165.490414,336.855522 C163.949049,336.179025 162.343348,335.857143 160.767134,335.857143 M160.752211,356.904762 C159.10632,356.904762 157.441195,356.434913 155.960168,355.444873 C151.921004,352.746037 150.794434,347.228105 153.445994,343.114127 C155.127606,340.510379 157.919301,339.095238 160.768698,339.095238 C162.417336,339.095238 164.082461,339.567884 165.560741,340.555127 C169.599905,343.253963 170.726475,348.774692 168.074915,352.885873 C166.396051,355.492417 163.601608,356.904762 160.752211,356.904762 M161.560787,340.714286 C159.4889,340.714286 157.459243,341.743063 156.237225,343.63945 C154.307863,346.629081 155.126061,350.642116 158.066292,352.605657 C159.140506,353.322846 160.351966,353.666667 161.55023,353.666667 C163.622117,353.666667 165.654413,352.63789 166.876431,350.744188 C168.803154,347.754557 167.984956,343.738836 165.047364,341.777982 C163.97051,341.058107 162.75905,340.714286 161.560787,340.714286 M160.013674,352.047619 C159.99745,352.047619 159.981225,352.047619 159.965,352.047619 L161.636152,343.952381 C163.758352,344.641826 165.079048,346.58951 164.660449,348.626246 C164.245095,350.645747 162.252693,352.047619 160.013674,352.047619 M159.885083,352.047619 C157.763297,351.358174 156.439613,349.41049 156.861375,347.376626 C157.279893,345.357126 159.268662,343.952381 161.507244,343.952381 C161.523466,343.952381 161.539687,343.952381 161.555909,343.952381 L159.885083,352.047619"
                  id="Fill-238-Copy" fill="#CAC9C4" opacity="0.289760045"></path>
            <path d="M576.587264,415 L575.153971,408.574097 C574.241126,408.648817 573.324149,408.690328 572.407173,408.690328 C569.482761,408.690328 566.541828,408.304276 563.613286,407.494811 L561.019316,413.530511 L552.407173,409.794521 L554.997012,403.758821 C551.593459,401.670818 548.697962,399.068078 546.306388,396.058531 L540.668222,399.412619 L535.885074,391.30137 L541.432369,387.997094 C539.937119,384.389788 539.144058,380.529265 538.954054,376.581569 L532.465,375.971357 L533.336541,366.577418 L539.78842,367.18763 C540.234517,365.30303 540.767354,363.426733 541.556285,361.587796 C542.345215,359.748858 543.340671,358.075965 544.398086,356.457036 L539.536458,352.156496 L545.736375,345.07472 L550.631047,349.404317 C553.617416,346.834786 556.959011,344.771689 560.598003,343.389373 L559.185363,337.067248 L568.342736,335 L569.776029,341.425903 C570.688874,341.351183 571.605851,341.309672 572.522827,341.309672 C575.443108,341.309672 578.388172,341.695724 581.316714,342.505189 L583.906553,336.469489 L592.522827,340.205479 L589.928858,346.241179 C593.33241,348.329182 596.232038,350.931922 598.623612,353.941469 L604.257648,350.587381 L609.044926,358.702781 L603.493501,362.002906 C604.988751,365.610212 605.785942,369.474886 605.975946,373.418431 L612.465,374.032794 L611.589329,383.422582 L605.14158,382.81237 C604.691353,384.69697 604.162646,386.573267 603.373715,388.412204 C602.584785,390.251142 601.585198,391.924035 600.531914,393.542964 L605.393542,397.843504 L599.193625,404.92528 L594.298953,400.595683 C591.312584,403.165214 587.970989,405.232462 584.331997,406.610627 L585.744637,412.932752 L576.587264,415 M572.477392,346.843088 C561.638895,346.843088 551.316714,353.202574 546.748354,363.841843 C540.614525,378.113325 547.157276,394.680365 561.36215,400.844749 C564.980489,402.413865 568.747528,403.156912 572.452608,403.156912 C583.291105,403.156912 593.609155,396.797426 598.181646,386.158157 C604.311344,371.886675 597.768594,355.319635 583.56785,349.155251 C579.949511,347.586135 576.182472,346.843088 572.477392,346.843088 M572.481522,395.091324 C568.706223,395.091324 564.893748,394.02034 561.502588,391.787049 C552.250213,385.684932 549.668635,373.198423 555.744637,363.895807 C559.590155,358.001245 565.992468,354.800747 572.518697,354.800747 C576.289866,354.800747 580.10647,355.871731 583.497631,358.105023 C592.750006,364.211291 595.327454,376.6978 589.255582,385.996264 C585.405933,391.890826 579.007751,395.091324 572.481522,395.091324 M572.514566,359.694894 C567.570328,359.694894 562.725223,362.114985 559.813203,366.581569 C555.215929,373.621835 557.169667,383.078041 564.175037,387.698215 C566.740093,389.387713 569.62733,390.197177 572.485653,390.197177 C577.42576,390.197177 582.270865,387.777086 585.187016,383.314653 C589.78429,376.270237 587.830551,366.818182 580.825182,362.198007 C578.260126,360.504359 575.368759,359.694894 572.514566,359.694894 M572.473261,384.194687 C572.440217,384.194687 572.407173,384.194687 572.378259,384.194687 L575.620721,366.369863 C579.734723,367.885015 582.30391,372.177252 581.486066,376.656289 C580.680613,381.106268 576.818573,384.194687 572.473261,384.194687 M569.309279,383.630137 C565.195277,382.114985 562.62609,377.822748 563.439804,373.343711 C564.249387,368.897883 568.111427,365.805313 572.452608,365.805313 C572.485653,365.805313 572.518697,365.805313 572.551741,365.805313 L569.309279,383.630137"
                  id="Fill-239" fill="#398EBA" opacity="0.568289621"></path>
            <path d="M348.006515,302 L342.289807,299.72342 L336.577219,297.450919 L337.026153,288.067166 C334.822667,286.088418 332.973387,283.73024 331.527735,281.094629 L322.198958,279.279077 L321.32992,273.240835 L320.465,267.198514 L328.912383,262.881988 C329.559013,259.952625 330.671053,257.174218 332.227908,254.665083 L329.159502,245.779077 L338.850722,238.251675 L346.853289,243.343381 C348.257754,242.898673 349.703405,242.539642 351.206718,242.327488 C352.421724,242.156132 353.624374,242.090854 354.814669,242.090854 C355.102975,242.090854 355.387163,242.094934 355.671351,242.099014 L361.927604,235 L373.352781,239.55316 L372.907965,248.932834 C375.107333,250.911582 376.956613,253.27384 378.402265,255.909451 L387.731042,257.725003 L388.60008,263.763244 L389.465,269.801486 L381.017617,274.118012 C380.375106,277.051455 379.258947,279.829862 377.702092,282.338996 L380.770498,291.220923 L375.926947,294.986664 L371.079278,298.748325 L363.076711,293.656619 C361.672246,294.101327 360.230714,294.460358 358.723282,294.672512 C357.504157,294.843868 356.29327,294.913226 355.094738,294.913226 C354.814669,294.913226 354.534599,294.909146 354.258649,294.900986 L348.006515,302 M354.975297,259.830228 C354.567549,259.830228 354.151564,259.858787 353.73146,259.919985 C348.945571,260.593168 345.621808,264.983132 346.301388,269.723968 C346.919187,274.048654 350.667173,277.173852 354.954703,277.173852 C355.362451,277.173852 355.778436,277.145293 356.19854,277.084095 C360.984429,276.410912 364.312311,272.020948 363.628612,267.280112 C363.006694,262.955426 359.262827,259.830228 354.975297,259.830228 M354.962941,274.97887 C354.443989,274.97887 353.912681,274.913592 353.385492,274.783035 C350.251188,274.011935 348.233042,271.119291 348.459568,268.030812 L360.930887,271.107052 C359.884746,273.46115 357.528869,274.97887 354.962941,274.97887 M361.470432,268.969188 L348.999113,265.892948 C350.045254,263.53885 352.401131,262.02521 354.967059,262.02521 C355.486011,262.02521 356.017319,262.086408 356.544508,262.216965 C359.678812,262.992145 361.696958,265.884789 361.470432,268.969188"
                  id="Fill-240" fill="#CAC9C4"></path>
            <path d="M28.006515,68 L22.2939262,65.7234198 L16.5813374,63.4509195 L17.0261532,54.067166 C14.8267859,52.088418 12.9733866,49.7302399 11.527735,47.0946292 L2.1989581,45.2790768 L1.33403838,39.2408355 L0.465,33.1985142 L8.91650122,28.8819876 C9.55901301,25.9526245 10.6751713,23.1742175 12.2320268,20.6650834 L9.15950248,11.7790768 L14.0071716,8.01741566 L18.850722,4.25167458 L26.8532887,9.34338083 C28.2577535,8.89867251 29.7034051,8.53964194 31.2067179,8.32748752 C32.4217242,8.15613202 33.6243744,8.09085373 34.8187874,8.09085373 C35.1029753,8.09085373 35.3871632,8.09493363 35.6754698,8.09901352 L41.9276037,1 L53.3527813,5.55316039 L52.9079654,14.932834 C55.1073327,16.911582 56.9607321,19.27384 58.402265,21.9094507 L67.7310419,23.725003 L68.6000803,29.7632444 L69.465,35.8014858 L61.0176174,40.1180124 C60.3751057,43.0514554 59.2589474,45.8298624 57.7062105,48.3389965 L60.7704975,57.225003 L55.9269471,60.9866642 L51.0833967,64.7483254 L43.0767113,59.6566192 C41.6763651,60.1013275 40.2307136,60.4603581 38.7232821,60.6725125 C37.5082758,60.843868 36.2973882,60.9132262 35.1029753,60.9132262 C34.822906,60.9132262 34.5387181,60.9091463 34.2586489,60.9009865 L28.006515,68 M34.9794153,25.8302277 C34.5675488,25.8302277 34.1515636,25.858787 33.7355784,25.9199854 C28.9496893,26.5931677 25.6218077,30.9790525 26.3013875,35.7239678 C26.923306,40.0486542 30.6671727,43.1697723 34.9547033,43.1697723 C35.3665699,43.1697723 35.7825551,43.1452929 36.1985403,43.0840945 C40.9844294,42.4109122 44.3123109,38.0209475 43.6327312,33.280112 C43.0108127,28.9554256 39.2628273,25.8302277 34.9794153,25.8302277 M34.9670593,40.9788698 C34.4439888,40.9788698 33.9167997,40.9176714 33.3854919,40.783035 C30.2511875,40.0119352 28.2330415,37.1192912 28.4636868,34.0308123 L40.9308867,37.1070515 C39.8847457,39.4611497 37.5288692,40.9788698 34.9670593,40.9788698 M41.4704319,34.9691877 L29.003232,31.8929485 C30.0452543,29.5388503 32.4011308,28.0252101 34.9670593,28.0252101 C35.4901298,28.0252101 36.017319,28.0864085 36.5445081,28.216965 C39.6788125,28.9921447 41.7010771,31.8847887 41.4704319,34.9691877"
                  id="Fill-241" fill="#CAC9C4" opacity="0.407156808"></path>
            <path d="M149.196405,469 L142.820372,466.450181 L136.448471,463.904467 L136.944339,453.405453 C134.489793,451.192325 132.423678,448.548067 130.812107,445.599967 L120.398884,443.567502 L118.465,430.04648 L127.894752,425.209624 C128.609628,421.933045 129.85343,418.820705 131.593099,416.016314 L128.167479,406.067502 L133.572438,401.854757 L138.981529,397.642012 L147.915413,403.341126 C149.481529,402.844301 151.093099,402.441914 152.770785,402.203767 C154.126157,402.010785 155.469132,401.936877 156.799711,401.936877 C157.117893,401.936877 157.436074,401.940983 157.754256,401.949195 L164.733595,394 L171.109628,396.549819 L177.485661,399.095533 L176.985661,409.598653 C179.444339,411.811781 181.510455,414.456039 183.122025,417.404139 L193.531116,419.436604 L194.50219,426.199168 L195.465,432.957626 L186.03938,437.790376 C185.320372,441.075167 184.07657,444.183401 182.341033,446.991898 L185.762521,456.936604 L180.357562,461.149349 L174.948471,465.362094 L166.014587,459.66298 C164.452603,460.159805 162.841033,460.562192 161.159215,460.800339 C159.799711,460.989215 158.448471,461.067229 157.11376,461.067229 C156.799711,461.067229 156.485661,461.063123 156.175744,461.054911 L149.196405,469 M156.977397,421.797547 C156.522851,421.797547 156.055909,421.826289 155.588967,421.896091 C150.250124,422.647487 146.535248,427.562356 147.295579,432.867294 C147.989793,437.712362 152.167479,441.206559 156.952603,441.206559 C157.411281,441.206559 157.874091,441.177817 158.341033,441.112121 C163.679876,440.356619 167.394752,435.44175 166.634421,430.136812 C165.940207,425.291744 161.762521,421.797547 156.977397,421.797547 M156.965,438.751177 C156.382355,438.751177 155.791446,438.681375 155.200537,438.537666 C151.704669,437.671302 149.452603,434.431676 149.708802,430.978539 L163.622025,434.419358 C162.456736,437.055403 159.828636,438.751177 156.965,438.751177 M164.225331,432.025567 L150.307975,428.580642 C151.473264,425.948703 154.105496,424.252929 156.969132,424.252929 C157.547645,424.252929 158.138554,424.322731 158.729463,424.46644 C162.225331,425.332804 164.481529,428.57243 164.225331,432.025567"
                  id="Fill-242" fill="#EC9141" opacity="0.568289621"></path>
        </g>
    </g>
</svg>
