<?xml version="1.0" encoding="UTF-8"?>
<svg viewBox="0 0 394 361" version="1.1" xmlns="http://www.w3.org/2000/svg"
     xmlns:xlink="http://www.w3.org/1999/xlink">
    <defs>
        <path d="M41.7421212,84.3431818 L36.145,74.300303 C32.5466667,73.6357576 29.1131818,72.3993939 25.9939394,70.6169697 L15.2736364,74.6686364 L5.71757576,63.250303 L11.6186364,53.38 C11.0262121,51.7031818 10.5316667,49.9722727 10.2122727,48.1615152 C9.8980303,46.3481818 9.77439394,44.5528788 9.76409091,42.7730303 L0.864848485,35.4913636 L5.97515152,21.5075758 L17.434697,21.6827273 C19.7631818,18.9472727 22.5733333,16.6162121 25.7337879,14.7693939 L27.5883333,3.42318182 L34.9215152,2.1430303 L42.254697,0.857727273 L47.8492424,10.9006061 C51.4501515,11.5677273 54.8810606,12.8040909 58.000303,14.5890909 L68.7231818,10.5348485 L73.4986364,16.245303 L78.2766667,21.9531818 L72.3756061,31.8234848 C72.9680303,33.500303 73.4651515,35.2312121 73.7819697,37.0445455 C74.0987879,38.8527273 74.2198485,40.6506061 74.2301515,42.4304545 L83.1293939,49.7121212 L78.0190909,63.6959091 L66.5595455,63.5207576 C64.2310606,66.2587879 61.4209091,68.5872727 58.2630303,70.4340909 L56.4084848,81.780303 L41.7421212,84.3431818 L41.7421212,84.3431818 Z M42.0306061,15.2124242 C40.4619697,15.2124242 38.875303,15.3489394 37.2783333,15.6271212 C22.3827273,18.2337879 12.4171212,32.4210606 15.0237879,47.3192424 C17.349697,60.6230303 28.909697,69.9910606 41.9662121,69.9910606 C43.529697,69.9910606 45.1189394,69.8545455 46.7133333,69.5763636 C61.6115152,66.9722727 71.5771212,52.7824242 68.9704545,37.8842424 C66.6445455,24.5830303 55.0845455,15.2124242 42.0306061,15.2124242 L42.0306061,15.2124242 Z M41.9790909,55.9248485 C36.6472727,55.9248485 31.6168182,52.7283333 29.5562121,47.4583333 C27.1556061,41.3125758 29.6437879,34.4945455 35.1069697,31.2027273 L44.6527273,55.6543939 C43.7615152,55.8372727 42.8651515,55.9248485 41.9790909,55.9248485 L41.9790909,55.9248485 Z M48.8872727,54.0033333 L39.3389394,29.5490909 C40.2301515,29.3662121 41.1265152,29.2786364 42.0151515,29.2786364 C47.3495455,29.2786364 52.3825758,32.4777273 54.4380303,37.7425758 C56.8386364,43.8883333 54.3530303,50.7063636 48.8872727,54.0033333 L48.8872727,54.0033333 Z"
              id="path-1"></path>
    </defs>
    <g id="Page-1" stroke="none" stroke-width="1" fill="none" fill-rule="evenodd">
        <g id="Group-2">
            <g id="Group-224" transform="translate(63.035000, 0.000000)">
                <mask id="mask-2" fill="white">
                    <use xlink:href="#path-1"></use>
                </mask>
                <g id="Clip-223"></g>
                <polygon id="Fill-222" fill="#CAC9C4" opacity="0.289760045" mask="url(#mask-2)"
                         points="0.864848485 84.3431818 83.1293939 84.3431818 83.1293939 0.857727273 0.864848485 0.857727273"></polygon>
            </g>
            <path d="M229.390146,346 L226.193008,340.346746 C224.136596,339.972072 222.173305,339.273698 220.391081,338.269469 L214.268407,340.5532 L211.536871,337.339154 L208.807922,334.125108 L212.178368,328.568709 C211.839513,327.623102 211.557565,326.649458 211.376497,325.629935 C211.195429,324.607863 211.125589,323.598536 211.120416,322.596855 L206.035,318.495824 L207.493888,314.560466 L208.955363,310.625108 L215.502254,310.721963 C216.831808,309.182484 218.438137,307.869848 220.243641,306.829935 L221.30418,300.442625 L225.492017,299.721312 L229.682441,299 L232.879579,304.653254 C234.935991,305.027928 236.896695,305.723753 238.678919,306.727983 L244.80418,304.4468 L250.262078,310.874892 L246.891632,316.431291 C247.230487,317.374349 247.512435,318.350542 247.693503,319.370065 C247.874571,320.389588 247.944411,321.401464 247.952171,322.403145 L253.035,326.501627 L250.117223,334.374892 L243.567746,334.275488 C242.238192,335.817516 240.631863,337.127603 238.828946,338.167516 L237.768407,344.554826 L233.577983,345.276139 L229.390146,346 M229.553107,307.082267 C228.658115,307.082267 227.752777,307.156182 226.839678,307.314208 C218.329496,308.779772 212.636211,316.767733 214.123553,325.155857 C215.453107,332.644252 222.059491,337.917733 229.516893,337.917733 C230.411885,337.917733 231.31981,337.843818 232.230322,337.685792 C240.740504,336.217679 246.436376,328.229718 244.946447,319.844143 C243.616893,312.355748 237.013096,307.082267 229.553107,307.082267 M229.524653,330.001139 C226.480129,330.001139 223.60374,328.199132 222.4268,325.232321 C221.055859,321.77359 222.478533,317.935087 225.598071,316.082104 L231.053382,329.84821 C230.543806,329.950163 230.031643,330.001139 229.524653,330.001139 M233.471929,328.917896 L228.016618,315.15179 C228.526194,315.049837 229.038357,314.998861 229.545347,314.998861 C232.592457,314.998861 235.468847,316.798319 236.6432,319.76513 C238.014141,323.223861 236.594053,327.062364 233.471929,328.917896"
                  id="Fill-225" fill="#CAC9C4" opacity="0.568289621"></path>
            <path d="M368.420556,201 L365.902797,196.429589 C364.285156,196.127671 362.742097,195.562877 361.337912,194.753425 L356.515851,196.596164 L352.218429,191.398493 L354.872492,186.906164 C354.605028,186.143562 354.383857,185.354932 354.239838,184.529863 C354.098391,183.704795 354.044383,182.887534 354.03924,182.078082 L350.035,178.764795 L352.334159,172.398493 L357.487978,172.479178 C358.534687,171.232466 359.799996,170.173151 361.219611,169.332466 L362.055435,164.16863 L365.352439,163.585616 L368.652015,163 L371.167203,167.570411 C372.787415,167.874932 374.330475,168.437123 375.732088,169.249178 L380.556721,167.403836 L384.851571,172.601507 L382.197508,177.093836 C382.464972,177.856438 382.688715,178.645068 382.830162,179.470137 C382.974181,180.295205 383.028188,181.112466 383.033332,181.921918 L387.035,185.237808 L384.735841,191.601507 L379.582022,191.523425 C378.535313,192.767534 377.272576,193.829452 375.850389,194.670137 L375.017137,199.833973 L371.717561,200.416986 L368.420556,201 M368.549145,169.535479 C367.847053,169.535479 367.132102,169.595342 366.414579,169.722877 C359.712556,170.909726 355.232539,177.367123 356.402693,184.14726 C357.449402,190.203836 362.649513,194.467123 368.520855,194.467123 C369.225519,194.467123 369.94047,194.40726 370.657993,194.279726 C377.357444,193.092877 381.840032,186.635479 380.667307,179.85274 C379.620598,173.798767 374.423059,169.535479 368.549145,169.535479 M368.528571,188.064384 C366.129113,188.064384 363.865959,186.609452 362.940123,184.209726 C361.859981,181.414384 362.978699,178.311918 365.437308,176.81274 L369.729585,187.942055 C369.32839,188.025342 368.927194,188.064384 368.528571,188.064384 M371.635264,187.189863 L367.340415,176.060548 C367.74161,175.97726 368.142806,175.935616 368.544001,175.935616 C370.943459,175.935616 373.206613,177.393151 374.129877,179.790274 C375.210019,182.585616 374.093873,185.690685 371.635264,187.189863"
                  id="Fill-226" fill="#CAC9C4" opacity="0.568289621"></path>
            <path d="M153.017287,359 L150.558177,353.154447 C149.220132,353.288768 147.87692,353.355928 146.533708,353.355928 C145.187914,353.355928 143.844702,353.288768 142.50924,353.154447 L140.05013,358.997417 C136.418292,358.48338 132.835534,357.581879 129.389679,356.199921 L130.193023,349.827415 C127.777826,348.737347 125.453036,347.399302 123.249653,345.808113 L118.150615,349.675012 C116.716995,348.548781 115.322121,347.355389 113.999575,346.032842 C112.679611,344.712879 111.486219,343.315422 110.357405,341.881802 L114.226887,336.782764 C112.630532,334.576798 111.292487,332.254591 110.205002,329.836811 L103.835079,330.640154 C102.453121,327.1943 101.549037,323.611542 101.035,319.979704 L106.87797,317.523177 C106.606745,314.847086 106.606745,312.147748 106.87797,309.47424 L101.035,307.01513 C101.549037,303.385875 102.453121,299.803117 103.835079,296.357262 L110.205002,297.160606 C111.292487,294.742826 112.630532,292.418036 114.226887,290.214653 L110.359988,285.118198 C111.486219,283.684578 112.679611,282.287121 113.999575,280.967158 C115.322121,279.644611 116.719578,278.451219 118.153198,277.324988 L123.249653,281.191887 C125.453036,279.598115 127.777826,278.257487 130.193023,277.170002 L129.389679,270.800079 C132.838117,269.418121 136.420875,268.51662 140.05013,268.002583 L142.50924,273.84297 C143.844702,273.708649 145.187914,273.638905 146.533708,273.638905 C147.87692,273.638905 149.220132,273.708649 150.558177,273.84297 L153.014704,268 C156.643959,268.514037 160.2293,269.418121 163.675154,270.800079 L162.871811,277.170002 C165.289591,278.257487 167.611798,279.598115 169.817764,281.191887 L174.914219,277.322405 C176.347839,278.451219 177.745295,279.644611 179.067842,280.967158 C180.387806,282.287121 181.581198,283.684578 182.710012,285.115615 L178.843113,290.214653 C180.434302,292.418036 181.77493,294.742826 182.859832,297.160606 L189.234921,296.357262 C190.616879,299.803117 191.520963,303.385875 192.032417,307.01513 L186.186864,309.47424 C186.458089,312.147748 186.458089,314.847086 186.186864,317.523177 L192.035,319.982287 C191.520963,323.611542 190.616879,327.196883 189.234921,330.640154 L182.859832,329.836811 C181.77493,332.254591 180.434302,334.576798 178.843113,336.782764 L182.710012,341.881802 C181.583781,343.315422 180.390389,344.712879 179.067842,346.032842 C177.747879,347.355389 176.350422,348.548781 174.916802,349.675012 L169.817764,345.808113 C167.611798,347.399302 165.289591,348.737347 162.871811,349.827415 L163.675154,356.199921 C160.2293,357.581879 156.646542,358.485963 153.017287,359 M146.533708,280.494451 C138.086974,280.494451 129.64024,283.718158 123.195408,290.160408 C110.308326,303.050072 110.308326,323.947345 123.195408,336.839592 C129.64024,343.281842 138.086974,346.505549 146.533708,346.505549 C154.980443,346.505549 163.427177,343.281842 169.872009,336.839592 C182.761674,323.947345 182.761674,303.050072 169.872009,290.160408 C163.427177,283.718158 154.980443,280.494451 146.533708,280.494451 M146.572455,325.311221 C142.989696,325.311221 139.507679,323.665787 137.231968,320.733969 L157.726277,309.817792 C159.4957,315.17514 157.238071,321.180845 152.087372,323.92668 C150.325698,324.866928 148.434869,325.311221 146.572455,325.311221 M135.343723,317.184791 C133.5743,311.82486 135.831929,305.813988 140.980045,303.07332 C142.741719,302.135655 144.632547,301.688779 146.497545,301.688779 C150.080304,301.688779 153.562321,303.334213 155.838032,306.268614 L135.343723,317.184791"
                  id="Fill-227" fill="#CAC9C4" opacity="0.568289621"></path>
            <path d="M365.392646,155 L361.583339,153.472159 L357.776583,151.944319 L358.075102,145.644522 C356.608021,144.315301 355.373122,142.728893 354.408676,140.959144 L348.188253,139.739418 L347.035,131.626584 L352.666039,128.726234 C353.094682,126.757866 353.839704,124.891354 354.87559,123.208182 L352.831883,117.239418 L359.292141,112.182266 L364.627213,115.602082 C365.563593,115.304153 366.528039,115.062245 367.528205,114.919647 C368.339565,114.805059 369.140719,114.759224 369.936769,114.759224 C370.125576,114.759224 370.316935,114.76177 370.505742,114.766863 L374.677354,110 L378.48411,111.527841 L382.293417,113.055681 L381.994898,119.358024 C383.46453,120.687245 384.696878,122.271107 385.658773,124.040856 L391.879195,125.260582 L392.458373,129.316999 L393.035,133.373416 L387.403961,136.273766 C386.975318,138.244681 386.230296,140.108646 385.19441,141.794364 L387.238117,147.763128 L384.007988,150.289158 L380.777859,152.815188 L375.442787,149.397918 C374.506407,149.695847 373.544512,149.937755 372.541795,150.080353 C371.730435,150.194941 370.92673,150.240776 370.128128,150.240776 C369.939321,150.240776 369.750514,150.23823 369.564258,150.233137 L365.392646,155 M370.041379,126.676381 C369.768374,126.676381 369.492818,126.696752 369.21471,126.734948 C366.022853,127.188207 363.805647,130.134393 364.257253,133.319941 C364.670587,136.225385 367.171003,138.326166 370.028621,138.326166 C370.301626,138.326166 370.577182,138.305794 370.85529,138.267598 C374.047147,137.814339 376.264353,134.86306 375.812747,131.680059 C375.396861,128.774615 372.901548,126.676381 370.041379,126.676381 M370.033724,136.851799 C369.686728,136.851799 369.334628,136.808511 368.979978,136.721933 C366.892896,136.202467 365.545733,134.257017 365.698819,132.184246 L374.011427,134.251924 C373.314882,135.833239 371.743192,136.851799 370.033724,136.851799 M374.371181,132.815754 L366.058573,130.748076 C366.755118,129.166761 368.324256,128.150747 370.033724,128.150747 C370.383272,128.150747 370.735372,128.191489 371.087471,128.280613 C373.177104,128.800079 374.524267,130.742983 374.371181,132.815754"
                  id="Fill-228" fill="#CAC9C4" opacity="0.383649554"></path>
            <path d="M295.785871,171 L293.387524,170.785724 L290.989176,170.574029 L290.594184,162.346328 C289.17428,161.984897 287.782773,161.476313 286.42741,160.820576 L280.820078,166.856461 L278.847702,165.472699 L276.877907,164.088938 L280.652271,156.764812 C279.575725,155.714083 278.623099,154.575578 277.802136,153.362205 L269.92812,155.783787 L267.898947,151.418226 L274.815173,146.970053 C274.412436,145.539822 274.156854,144.068284 274.048425,142.586421 L266.035,140.750871 L266.246695,138.352524 L266.460971,135.954176 L274.688672,135.561766 C275.050103,134.141861 275.558687,132.747773 276.217006,131.394992 L270.178539,125.782496 L272.946062,121.842907 L280.270188,125.617271 C281.320917,124.540725 282.459422,123.588099 283.672795,122.767136 L281.251213,114.895702 L283.432702,113.881115 L285.616774,112.866529 L290.062365,119.780173 C291.495178,119.380018 292.964134,119.121854 294.448579,119.013425 L296.284129,111 L298.682476,111.211695 L301.078243,111.425971 L301.473234,119.653672 C302.893139,120.015103 304.287227,120.523687 305.64259,121.182006 L311.249922,115.143539 L313.222298,116.527301 L315.192093,117.911062 L311.415147,125.237769 C312.494275,126.288499 313.446901,127.424422 314.267864,128.637795 L322.139298,126.216213 L324.168471,130.581774 L317.254827,135.029947 C317.654982,136.46276 317.913146,137.931716 318.021575,139.416161 L326.035,141.25171 L325.606447,146.045824 L317.381328,146.440816 C317.019897,147.86072 316.511313,149.254808 315.852994,150.60759 L321.891461,156.217504 L319.123938,160.159675 L311.797231,156.382729 C310.746501,157.459275 309.607996,158.411901 308.397205,159.232864 L310.818787,167.10688 L308.637298,168.121466 L306.453226,169.136053 L302.005053,162.219827 C300.57224,162.622564 299.103284,162.880728 297.618839,162.986575 L295.785871,171 M296.046617,126.040661 C291.337698,126.040661 286.703646,128.258294 283.791551,132.404415 C279.043907,139.16316 280.675506,148.493223 287.436833,153.240867 C290.052039,155.078998 293.05191,155.959339 296.020801,155.959339 C300.729721,155.959339 305.363772,153.741706 308.275867,149.595585 C313.023512,142.83684 311.391912,133.506777 304.630585,128.759133 C302.01538,126.921002 299.01809,126.040661 296.046617,126.040661 M296.064689,150.661805 C293.134522,150.661805 290.284387,149.316768 288.423021,146.91842 L305.190802,137.988512 C306.639105,142.369562 304.790647,147.285014 300.577404,149.531044 C299.134264,150.297793 297.587859,150.661805 296.064689,150.661805 M286.879198,144.01407 C285.430895,139.627856 287.279353,134.712405 291.490015,132.471537 C292.933154,131.702207 294.479559,131.338195 296.002729,131.338195 C298.935478,131.338195 301.783031,132.683232 303.644397,135.084162 L286.879198,144.01407"
                  id="Fill-229" fill="#CAC9C4" opacity="0.568289621"></path>
            <path d="M164.322128,170 L162.285187,169.815455 L160.245697,169.630911 L159.911731,162.50125 C158.703333,162.186744 157.520429,161.747476 156.368117,161.175647 L151.600809,166.407878 L149.925877,165.209637 L148.250946,164.011397 L151.460594,157.661502 C150.542823,156.751774 149.734675,155.764071 149.03615,154.713986 L142.344073,156.814156 L140.620704,153.027092 L146.496985,149.175047 C146.15537,147.93262 145.938674,146.659002 145.844348,145.374988 L139.035,143.784265 L139.397009,139.628112 L146.389911,139.287614 C146.695835,138.055583 147.129226,136.846946 147.690086,135.674698 L142.558219,130.811557 L144.908732,127.39878 L151.136825,130.668599 C152.029101,129.735479 152.99531,128.911527 154.027802,128.19934 L151.967917,121.376387 L155.679789,119.616715 L159.457944,125.610517 C160.67654,125.262221 161.925727,125.038688 163.187662,124.945116 L164.747872,118 L166.784813,118.184545 L168.824303,118.371688 L169.158269,125.49875 C170.366667,125.813256 171.549571,126.255123 172.701883,126.824353 L177.469191,121.592122 L179.144123,122.790363 L180.819054,123.991203 L177.609406,130.338498 C178.524628,131.248226 179.335325,132.235929 180.03385,133.288613 L186.725927,131.188443 L188.449296,134.970309 L182.573015,138.824953 C182.91463,140.06738 183.131326,141.340998 183.223103,142.627612 L190.035,144.218334 L189.672991,148.374488 L182.680089,148.714986 C182.371616,149.944417 181.940774,151.153054 181.382463,152.325302 L186.51433,157.188443 L185.336525,158.896131 L184.161268,160.603819 L177.933175,157.331401 C177.040899,158.264521 176.07469,159.088473 175.042198,159.80066 L177.102083,166.626212 L173.390211,168.383285 L169.609506,162.389483 C168.39346,162.737779 167.144273,162.961312 165.882338,163.054884 L164.322128,170 M164.546472,131.035089 C160.543973,131.035089 156.605207,132.958512 154.129776,136.550635 C150.094135,142.409277 151.480989,150.492852 157.227252,154.610017 C159.450296,156.20074 161.999659,156.964911 164.523528,156.964911 C168.526027,156.964911 172.464793,155.044087 174.940224,151.449365 C178.975865,145.590723 177.589011,137.507148 171.842748,133.389983 C169.619704,131.79926 167.070341,131.035089 164.546472,131.035089 M164.561768,152.374688 C162.068492,152.374688 159.646597,151.207638 158.065992,149.128262 L172.31693,141.390383 C173.548272,145.187844 171.977864,149.445366 168.39601,151.392182 C167.169766,152.057583 165.856845,152.374688 164.561768,152.374688 M156.75307,146.612216 C155.521728,142.812156 157.092136,138.552034 160.671441,136.607818 C161.897684,135.942417 163.213155,135.627912 164.508232,135.627912 C166.998959,135.627912 169.420854,136.792362 171.004008,138.871738 L156.75307,146.612216"
                  id="Fill-230" fill="#CAC9C4" opacity="0.568289621"></path>
            <path d="M25.9274985,141 L24.8883176,140.907865 L23.8465771,140.81573 L23.6776462,137.250615 C23.0607925,137.094497 22.4567366,136.874397 21.8705976,136.587755 L19.4415761,139.203366 L18.5866834,138.604489 L17.7317907,138.005611 L19.3699084,134.83207 C18.9015092,134.376513 18.4894202,133.882567 18.1336415,133.357909 L14.7217494,134.407225 L14.2815052,133.460282 L13.8438206,132.513338 L16.8385046,130.588739 C16.6644546,129.966827 16.5543936,129.32956 16.505762,128.687174 L13.035,127.891229 L13.2192882,125.813072 L16.7847539,125.644158 C16.940887,125.027365 17.1610091,124.423368 17.4451201,123.837287 L14.8292508,121.408505 L15.4281876,120.553696 L16.029684,119.698888 L19.2035371,121.334285 C19.6591386,120.868491 20.1505739,120.456443 20.6778431,120.100699 L19.6284239,116.689143 L20.5729012,116.248942 L21.519938,115.808741 L23.4472859,118.80569 C24.0666992,118.631657 24.7040293,118.521606 25.3464786,118.47298 L26.1425015,115 L27.1816824,115.092135 L28.2208634,115.186829 L28.3923538,118.751944 C29.006648,118.908062 29.6107039,119.128162 30.1968429,119.412245 L32.6284239,116.796634 L33.4833166,117.395511 L34.3356497,117.996949 L32.7000916,121.170489 C33.1659313,121.626046 33.5805798,122.117433 33.9363585,122.64465 L37.3482506,121.595334 L37.7859352,122.539718 L38.2261794,123.486662 L35.2314954,125.41382 C35.4029858,126.033173 35.5156064,126.67044 35.5616785,127.312826 L39.035,128.108771 L38.8507118,130.186928 L35.2852461,130.358401 C35.129113,130.972635 34.9089909,131.576632 34.6223203,132.162713 L37.2407492,134.594055 L36.6392528,135.448863 L36.040316,136.301112 L32.8664629,134.665715 C32.4108614,135.131509 31.9168665,135.546117 31.3921569,135.90186 L32.4415761,139.313417 L31.4945393,139.751058 L30.550062,140.191259 L28.6227141,137.19687 C28.0007413,137.370903 27.3634111,137.480953 26.7209618,137.52702 L25.9274985,141 M26.0401191,121.518555 C24.0001506,121.518555 21.9908968,122.478295 20.7290343,124.274929 C18.6711488,127.205335 19.3801467,131.246481 22.3082821,133.304164 C23.4421668,134.100108 24.7424227,134.484004 26.0298809,134.484004 C28.0698494,134.484004 30.0765436,133.521705 31.3384062,131.725071 C33.3962916,128.794665 32.6898533,124.753519 29.7591583,122.695836 C28.6252737,121.899892 27.3275773,121.518555 26.0401191,121.518555 M26.0477978,132.188306 C24.7782565,132.188306 23.5419896,131.604784 22.7357285,130.565705 L30.0023164,126.696033 C30.6294083,128.595039 29.8282664,130.724382 28.0033008,131.696919 C27.3787685,132.029629 26.708164,132.188306 26.0477978,132.188306 M22.0676836,129.306526 C21.4405917,127.404961 22.2391741,125.275618 24.0641396,124.30564 C24.6912315,123.97293 25.3592764,123.814253 26.0222022,123.814253 C27.2917435,123.814253 28.5254509,124.397775 29.331712,125.436854 L22.0676836,129.306526"
                  id="Fill-231" fill="#CAC9C4" opacity="0.289760045"></path>
            <path d="M290.388675,263 L288.989599,262.876779 L287.590523,262.75099 L287.36205,257.953059 C286.532873,257.742555 285.721666,257.44477 284.930995,257.062271 L281.657928,260.584348 L280.507862,259.778275 L279.360363,258.969635 L281.562945,254.695394 C280.934002,254.084421 280.376939,253.419539 279.899457,252.711017 L275.306894,254.125495 L274.713891,252.852208 L274.123455,251.576353 L278.156388,248.98357 C277.922781,248.149259 277.771321,247.289277 277.70971,246.42416 L273.035,245.353675 L273.158221,243.957166 L273.28401,242.555523 L278.081941,242.32705 C278.292445,241.497873 278.59023,240.686666 278.972729,239.895995 L275.453219,236.622928 L276.259292,235.475429 L277.065365,234.325363 L281.339606,236.527945 C281.953146,235.899002 282.615461,235.344506 283.323983,234.864457 L281.909505,230.271894 L283.182792,229.678891 L284.458647,229.088455 L287.05143,233.121388 C287.888308,232.887781 288.745723,232.736321 289.61084,232.67471 L290.681325,228 L292.080401,228.123221 L293.47691,228.24901 L293.70795,233.046941 C294.537127,233.257445 295.348334,233.55523 296.139005,233.940296 L299.412072,230.415652 L300.562138,231.224292 L301.709637,232.030365 L299.507055,236.304606 C300.135998,236.918146 300.693061,237.583028 301.170543,238.288983 L305.763106,236.877072 L306.356109,238.150359 L306.946545,239.423647 L302.913612,242.01643 C303.147219,242.853308 303.298679,243.710723 303.36029,244.57584 L308.035,245.646325 L307.911779,247.045401 L307.78599,248.444477 L302.988059,248.67295 C302.777555,249.502127 302.47977,250.315901 302.097271,251.104005 L305.619348,254.377072 L304.810708,255.527138 L304.004635,256.677204 L299.730394,254.474622 C299.116854,255.100998 298.454539,255.658061 297.746017,256.135543 L299.157928,260.730673 L297.887208,261.321109 L296.611353,261.914112 L294.01857,257.878612 C293.181692,258.114787 292.324277,258.263679 291.45916,258.327857 L290.388675,263 M290.542701,236.774388 C287.795892,236.774388 285.092723,238.068212 283.393295,240.486431 C280.623382,244.429514 281.57578,249.871791 285.518864,252.641705 C287.046295,253.71219 288.794498,254.22818 290.527299,254.22818 C293.274108,254.22818 295.977277,252.934355 297.676705,250.516136 C300.446618,246.570486 299.49422,241.128209 295.548569,238.358295 C294.023705,237.28781 292.275502,236.774388 290.542701,236.774388 M290.55297,251.137377 C288.843273,251.137377 287.182352,250.351841 286.096464,248.952765 L295.877159,243.741529 C296.721739,246.298372 295.643552,249.165835 293.184259,250.475062 C292.344814,250.924307 291.44119,251.137377 290.55297,251.137377 M285.192841,247.258471 C284.348261,244.699061 285.426448,241.831597 287.883174,240.524938 C288.725186,240.075693 289.62881,239.86519 290.51703,239.86519 C292.226727,239.86519 293.887648,240.648159 294.973536,242.049802 L285.192841,247.258471"
                  id="Fill-232" fill="#CAC9C4" opacity="0.568289621"></path>
            <path d="M89.951784,189 L89.1529106,188.928315 L88.3540373,188.856631 L88.2234522,186.114695 C87.7497612,185.994368 87.2837518,185.825397 86.8331052,185.605223 L84.9639464,187.617512 L84.3059,187.156682 L83.6504142,186.695853 L84.9076155,184.253456 C84.5491467,183.902714 84.2316458,183.52381 83.9576732,183.119304 L81.3331692,183.928315 L80.9951844,183.198669 L80.6571995,182.471582 L82.9616419,180.989247 C82.8284964,180.513057 82.7414396,180.021505 82.7055928,179.527394 L80.035,178.915515 L80.1066938,178.116743 L80.175827,177.317972 L82.9181136,177.187404 C83.0384567,176.713774 83.2100096,176.247824 83.4276514,175.797235 L81.415105,173.928315 L81.8759935,173.270353 L82.3394425,172.614951 L84.779591,173.871992 C85.1303783,173.513569 85.5093311,173.196109 85.9138887,172.922171 L85.1073339,170.298003 L85.8345135,169.960061 L86.5616931,169.62212 L88.0442178,171.926267 C88.5230297,171.793139 89.0120836,171.706093 89.5062585,171.670251 L90.118216,169 L90.9170894,169.071685 L91.7159627,169.143369 L91.8491083,171.885305 C92.3227993,172.005632 92.7862482,172.174603 93.2368948,172.394777 L95.1086141,170.382488 L95.7641,170.843318 L96.4221463,171.304147 L95.1623845,173.746544 C95.5208533,174.094726 95.8383542,174.47363 96.1123268,174.878136 L98.7368308,174.071685 L99.4128005,175.525858 L97.1083581,177.008193 C97.2415036,177.486943 97.3285604,177.975934 97.3644072,178.470046 L100.035,179.081925 L99.9633062,179.883257 L99.894173,180.682028 L97.1518864,180.812596 C97.0315433,181.286226 96.8599904,181.749616 96.6423486,182.200205 L98.654895,184.071685 L98.1940065,184.727087 L97.733118,185.385049 L95.290409,184.125448 C94.9396217,184.486431 94.5606689,184.801331 94.1561113,185.075269 L94.9626661,187.701997 L93.5083069,188.37788 L92.0257822,186.071173 C91.5469703,186.206861 91.0579164,186.291347 90.5637415,186.327189 L89.951784,189 M90.0388407,174.012801 C88.4692594,174.012801 86.9252829,174.752688 85.9548566,176.135177 C84.3724728,178.388121 84.915297,181.49616 87.1685296,183.078341 C88.0416573,183.69278 89.040249,183.984639 90.0311593,183.984639 C91.6007406,183.984639 93.1447171,183.247312 94.1151434,181.864823 C95.6975272,179.611879 95.154703,176.50128 92.9014704,174.919099 C92.0283427,174.30722 91.029751,174.012801 90.0388407,174.012801 M90.0465222,182.220686 C89.0684144,182.220686 88.118472,181.772657 87.4988331,180.971326 L93.0883863,177.993856 C93.5697587,179.455709 92.9552407,181.094214 91.5495308,181.841782 C91.0681584,182.097798 90.5534996,182.220686 90.0465222,182.220686 M86.9841742,180.003584 C86.5002413,178.541731 87.1173198,176.903226 88.5204692,176.155658 C89.0018416,175.899642 89.5165004,175.779314 90.0260383,175.779314 C91.0015856,175.779314 91.951528,176.227343 92.5711669,177.026114 L86.9841742,180.003584"
                  id="Fill-233" fill="#CAC9C4" opacity="0.289760045"></path>
            <path d="M347.982976,104 L342.419153,90.7734204 C341.125719,90.9043004 339.829718,90.9710235 338.533717,90.9710235 C337.235149,90.9710235 335.939148,90.9043004 334.64828,90.7734204 L329.084458,104 L325.027077,102.9119 L320.967129,101.821233 L322.763566,87.5604445 C320.430764,86.5134044 318.187784,85.220002 316.06029,83.6828035 L304.601588,92.3747758 L301.627201,89.4030297 L298.657948,86.4338499 L307.350136,74.970301 C305.810333,72.8454256 304.516899,70.5999352 303.469832,68.2671915 L289.206122,70.0661501 L287.035,61.946457 L300.259343,56.3827736 C299.99501,53.8011013 299.99501,51.1963325 300.259343,48.6120939 L287.035,43.0484104 L289.206122,34.9338499 L303.469832,36.7302422 C304.516899,34.3974985 305.810333,32.1520082 307.350136,30.0245665 L298.657948,18.5661501 L301.627201,15.594404 L304.601588,12.6252242 L316.06029,21.3171965 C318.187784,19.7774317 320.430764,18.4840293 322.766132,17.434423 L320.967129,3.17363464 L325.027077,2.08553418 L329.084458,1 L334.64828,14.2240134 C335.939148,14.0931333 337.235149,14.0289765 338.533717,14.0289765 C339.829718,14.0289765 341.125719,14.0931333 342.419153,14.2240134 L347.982976,1 L352.042923,2.08553418 L356.102871,3.17363464 L354.303868,17.434423 C356.636669,18.4840293 358.882216,19.7774317 361.007144,21.3171965 L372.468412,12.6252242 L375.440232,15.594404 L378.412052,18.5661501 L369.717297,30.0245665 C371.254534,32.1520082 372.547969,34.3974985 373.597601,36.7276759 L387.858745,34.9338499 L390.035,43.0484104 L376.808091,48.6120939 C377.069857,51.1963325 377.069857,53.8011013 376.808091,56.3827736 L390.035,61.946457 L387.858745,70.0661501 L373.597601,68.2671915 C372.547969,70.5999352 371.254534,72.8454256 369.717297,74.970301 L378.412052,86.4338499 L372.468412,92.3747758 L361.007144,83.6828035 C358.882216,85.220002 356.636669,86.5134044 354.303868,87.5604445 L356.102871,101.821233 L352.042923,102.9119 L347.982976,104 M338.536283,37.9440901 C334.80996,37.9440901 331.083636,39.3658063 328.242699,42.2092386 C322.555693,47.8909707 322.555693,57.1090293 328.242699,62.7907614 C331.083636,65.6341937 334.80996,67.0559099 338.536283,67.0559099 C342.26004,67.0559099 345.986364,65.6341937 348.827301,62.7907614 C354.511741,57.1090293 354.511741,47.8909707 348.827301,42.2092386 C345.986364,39.3658063 342.26004,37.9440901 338.536283,37.9440901 M338.490089,63.6863913 C335.957113,63.6863913 333.411305,62.8292555 331.317173,61.0662248 C327.08528,57.5016693 326.181929,51.4837552 328.88685,46.8644608 L345.727164,61.0482609 C343.658695,62.7907614 341.079525,63.6863913 338.490089,63.6863913 M348.18315,58.1329729 L331.342836,43.9491728 C333.408739,42.2066723 335.985343,41.3110425 338.574778,41.3110425 C341.110321,41.3110425 343.656129,42.1707445 345.750261,43.9337752 C349.98472,47.4983307 350.885505,53.518811 348.18315,58.1329729"
                  id="Fill-234" fill="#CAC9C4" opacity="0.453218006"></path>
            <path d="M24.7458899,184 L22.8557547,179.504754 C22.4163698,179.551553 21.9769848,179.572352 21.535,179.572352 C21.0956151,179.572352 20.6536302,179.551553 20.2142453,179.504754 L18.3241101,184 L16.9461573,183.630813 L15.5656047,183.261625 L16.1765837,178.415391 C15.3836109,178.059204 14.621837,177.619819 13.8990618,177.097237 L10.0043953,180.050735 L8.99303001,179.03937 L7.9842646,178.030605 L10.9377633,174.135938 C10.4151813,173.413163 9.97579632,172.651389 9.61960853,171.858416 L4.77337468,172.469395 L4.035,169.71089 L8.53024588,167.818155 C8.439249,166.941985 8.439249,166.058015 8.53024588,165.179245 L4.035,163.28911 L4.77337468,160.530605 L9.61960853,161.141584 C9.97579632,160.348611 10.4151813,159.584237 10.9377633,158.861462 L7.9842646,154.969395 L8.99303001,153.95803 L10.0043953,152.949265 L13.8990618,155.902763 C14.621837,155.380181 15.3836109,154.940796 16.1765837,154.584609 L15.5656047,149.738375 L16.9461573,149.366587 L18.3241101,149 L20.2142453,153.492646 C20.6536302,153.448447 21.0956151,153.425048 21.535,153.425048 C21.9769848,153.425048 22.4163698,153.448447 22.8557547,153.492646 L24.7458899,149 L26.1264426,149.366587 L27.5043953,149.738375 L26.8934163,154.584609 C27.6863891,154.940796 28.4507629,155.380181 29.1709382,155.902763 L33.0656047,152.949265 L34.07697,153.95803 L35.0857354,154.969395 L32.1322367,158.861462 C32.6548187,159.584237 33.0942037,160.348611 33.4503915,161.138984 L38.2966253,160.530605 L39.035,163.28911 L34.542354,165.179245 C34.630751,166.058015 34.630751,166.941985 34.542354,167.818155 L39.035,169.71089 L38.2966253,172.469395 L33.4503915,171.858416 C33.0942037,172.651389 32.6548187,173.413163 32.1322367,174.135938 L35.0857354,178.030605 L34.07697,179.03937 L33.0656047,180.050735 L29.1709382,177.097237 C28.4507629,177.619819 27.6863891,178.059204 26.8934163,178.415391 L27.5043953,183.261625 L26.1264426,183.630813 L24.7458899,184 M21.535,161.55237 C20.2688434,161.55237 19.0026868,162.035953 18.0381199,163.00312 C16.1063861,164.934854 16.1063861,168.065146 18.0381199,169.99688 C19.0026868,170.964047 20.2688434,171.44503 21.535,171.44503 C22.8011566,171.44503 24.0673132,170.964047 25.03448,169.99688 C26.9662138,168.065146 26.9662138,164.934854 25.03448,163.00312 C24.0673132,162.035953 22.8011566,161.55237 21.535,161.55237 M21.5194005,170.30107 C20.65883,170.30107 19.7956596,170.00988 19.0832841,169.4119 C17.6455334,168.200342 17.3387439,166.154212 18.2565124,164.583866 L23.9789162,169.4041 C23.2769403,169.99688 22.4007703,170.30107 21.5194005,170.30107 M24.8134876,168.413534 L19.0910838,163.5933 C19.7956596,163.00312 20.6692297,162.69893 21.5505995,162.69893 C22.41117,162.69893 23.2769403,162.99012 23.9893159,163.5881 C25.4270666,164.799658 25.733856,166.845788 24.8134876,168.413534"
                  id="Fill-235" fill="#CAC9C4" opacity="0.289760045"></path>
            <path d="M227.834657,133 L225.469112,122.402063 C223.964934,122.526107 222.45047,122.588128 220.938578,122.588128 C216.112352,122.588128 211.257841,121.952407 206.431615,120.621527 L202.153063,130.581159 L187.939221,124.412596 L192.215201,114.450381 C186.602174,111.013352 181.819658,106.713189 177.872797,101.748879 L168.575176,107.284305 L160.681454,93.8953973 L169.835086,88.4452515 C167.369262,82.4911803 166.057927,76.1210478 165.746806,69.6087825 L155.035,68.6009319 L156.48004,53.1058752 L167.122422,54.1085573 C167.86037,51.0023101 168.734593,47.9038157 170.035643,44.869927 C171.339264,41.8360383 172.984861,39.073494 174.725594,36.4039821 L166.703309,29.305096 L176.934293,17.6243662 L185.010573,24.7671842 C189.93965,20.5290432 195.452399,17.1204409 201.456256,14.841148 L199.126708,4.40860236 L214.235343,1 L216.600888,11.5979365 C218.105066,11.4764776 219.614387,11.4118718 221.126279,11.4118718 C225.952506,11.4118718 230.809588,12.0501772 235.638385,13.3810568 L239.916937,3.42142563 L254.130779,9.58740383 L249.852227,19.5496192 C255.467826,22.9892324 260.247771,27.2868106 264.197203,32.253705 L273.494824,26.7156953 L281.385975,40.1071869 L272.234914,45.5573328 C274.700738,51.5114039 276.012073,57.8815364 276.323194,64.3938018 L287.035,65.4016523 L285.58996,80.896709 L274.947578,79.8940269 C274.20963,83.0002741 273.335407,86.0987686 272.031786,89.130073 C270.730736,92.1639617 269.085139,94.9290902 267.341835,97.5986022 L275.366691,104.697488 L265.135707,116.378218 L257.059427,109.2354 C252.13035,113.470957 246.617601,116.882143 240.613744,119.158852 L242.943292,129.593982 L227.834657,133 M221.056856,20.5393802 C203.168705,20.5393802 186.144492,31.0339474 178.605602,48.5886372 C168.485182,72.1413301 179.28184,99.477339 202.713594,109.646293 C208.684025,112.235694 214.898724,113.463204 221.010573,113.463204 C238.898724,113.463204 255.922937,102.966053 263.464398,85.413947 C273.582247,61.8612541 262.78816,34.5252452 239.353834,24.3562912 C233.385975,21.7668905 227.168705,20.5393802 221.056856,20.5393802 M221.061998,100.151824 C214.837014,100.151824 208.542607,98.3893772 202.950149,94.6990936 C187.679525,84.6283404 183.424115,64.0242565 193.444256,48.6790853 C199.795231,38.9520351 210.355334,33.6724486 221.123708,33.6724486 C227.348692,33.6724486 233.643099,35.4374792 239.235557,39.1251786 C254.503609,49.1959318 258.75902,69.8000157 248.738878,85.1477711 C242.390475,94.8722371 231.830372,100.151824 221.061998,100.151824 M221.115994,41.7455902 C212.962577,41.7455902 204.968576,45.7433975 200.160348,53.1058752 C192.575176,64.7245835 195.794374,80.3255937 207.354691,87.9516631 C211.589532,90.742634 216.35662,92.078682 221.069712,92.078682 C229.223129,92.078682 237.21713,88.0808747 242.025358,80.718397 C249.61053,69.0996887 246.38876,53.4986785 234.828443,45.8726091 C230.593603,43.0816382 225.829086,41.7455902 221.115994,41.7455902 M221.049142,82.1707365 C220.997717,82.1707365 220.943721,82.1707365 220.889725,82.1707365 L226.243057,52.7595881 C233.031143,55.2611249 237.265984,62.3419213 235.921222,69.7354099 C234.589318,77.0746295 228.217773,82.1733198 221.049142,82.1707365 M215.826943,81.2429961 C209.036286,78.7388751 204.798874,71.6580787 206.143635,64.2671744 C207.480682,56.930539 213.852227,51.8292645 221.018287,51.8292645 C221.069712,51.8292645 221.123708,51.8292645 221.175133,51.8318487 L215.826943,81.2429961"
                  id="Fill-236" fill="#CAC9C4" opacity="0.320405506"></path>
            <path d="M36.5742213,108 L35.5149614,103.345363 C34.8441831,103.3991 34.1682251,103.427248 33.4896771,103.427248 C31.334899,103.427248 29.1645817,103.145769 27.0072137,102.56234 L25.0932942,106.938057 L18.7403246,104.228183 L20.6516542,99.8499074 C18.1420629,98.3401571 16.0054139,96.4516898 14.2417073,94.2689491 L10.0875438,96.7024618 L6.55754071,90.8195535 L10.6495472,88.4244242 C9.54625938,85.8066708 8.96094706,83.0072355 8.82109367,80.1463867 L4.035,79.7036972 L4.6798795,72.8944675 L9.43748453,73.3345981 C9.76639897,71.970705 10.1574705,70.6093709 10.7401929,69.2761846 C11.3203255,67.9429983 12.0558507,66.7300803 12.8354038,65.5555458 L9.24842347,62.4362481 L13.8221472,57.3030971 L17.4324365,60.442866 C19.6338324,58.5799876 22.0993958,57.0830319 24.7825089,56.0825024 L23.7413781,51.4969558 L30.4957787,50 L31.5524488,54.6571958 C32.223227,54.6034589 32.8991851,54.575311 33.5751431,54.575311 C35.7325111,54.575311 37.9028285,54.854231 40.0601964,55.4402188 L41.9741159,51.0645019 L48.3270855,53.7743757 L46.413166,58.1500926 C48.9253472,59.6624018 51.0619962,61.5508691 52.8257028,63.7336098 L56.9824562,61.3000971 L60.5098694,67.1830054 L56.4178629,69.5781347 C57.5211507,72.1933292 58.1064631,74.9927645 58.2463164,77.8561722 L63.035,78.2988617 L62.3875306,85.1055325 L57.6299256,84.6654019 C57.3010111,86.029295 56.9099396,87.393188 56.3272172,88.7263743 C55.7470846,90.0570017 55.0115594,91.2724786 54.2320063,92.4470131 L57.8189867,95.5637519 L53.2452629,100.696903 L49.6349737,97.557134 C47.4335778,99.4200124 44.9680144,100.919527 42.2849012,101.920056 L43.326032,106.503044 L36.5742213,108 M33.5440646,58.5851054 C25.5491126,58.5851054 17.9400525,63.1962411 14.5680319,70.9113209 C10.0461057,81.2595076 14.8710476,93.2709786 25.3445123,97.7388158 C28.0120862,98.8775258 30.7910248,99.4174535 33.5233456,99.4174535 C41.5182975,99.4174535 49.1273577,94.8037589 52.4993782,87.091238 C57.0213044,76.7430513 52.1963625,64.7315803 41.7228978,60.2637431 C39.055324,59.1250331 36.2763854,58.5851054 33.5440646,58.5851054 M33.5466544,93.5678108 C30.7625361,93.5678108 27.9499291,92.7924645 25.4506973,91.1726815 C18.62637,86.7457866 16.72281,77.6924027 21.2032981,70.9497044 C24.039214,66.6763434 28.7605608,64.3554222 33.5751431,64.3554222 C36.3566716,64.3554222 39.1692786,65.1307686 41.6685104,66.7531104 C48.4928377,71.1774464 50.3963977,80.2308303 45.9159095,86.9735286 C43.0799936,91.2468896 38.3586469,93.5678108 33.5466544,93.5678108 M33.5699633,67.9046148 C29.9260057,67.9046148 26.3519747,69.6600194 24.2023763,72.8944675 C20.8122266,78.0020295 22.2521985,84.8547604 27.4190042,88.2069179 C29.3122047,89.4326304 31.4436739,90.0211771 33.5492443,90.0211771 C37.193202,90.0211771 40.767233,88.2632136 42.9168314,85.0287656 C46.306981,79.9237625 44.8670091,73.0684726 39.7002035,69.7163152 C37.807003,68.4906027 35.6755338,67.9046148 33.5699633,67.9046148 M33.5414747,85.6684902 C33.5181658,85.6684902 33.492267,85.6659314 33.4689581,85.6659314 L35.862005,72.7434925 C38.8947515,73.84126 40.787952,76.952881 40.1871004,80.2026824 C39.5914286,83.4268949 36.7451532,85.6684902 33.5414747,85.6684902 M31.2054052,85.2590664 C28.1726586,84.15874 26.2768682,81.047119 26.8777198,77.7998765 C27.4759815,74.575664 30.3248468,72.3340686 33.5259354,72.3340686 C33.5492443,72.3340686 33.5725532,72.3340686 33.5958621,72.3340686 L31.2054052,85.2590664"
                  id="Fill-237" fill="#CAC9C4" opacity="0.289760045"></path>
            <path d="M93.2344649,159 L92.6450401,156.351127 C92.2685353,156.382444 91.8894339,156.398102 91.5103324,156.398102 C90.305517,156.398102 89.0903151,156.238909 87.8854996,155.907473 L86.8157066,158.397153 L83.2609816,156.854804 L84.3307746,154.362515 C82.9260221,153.503915 81.731593,152.428707 80.7448906,151.186477 L78.420947,152.572242 L76.4475423,149.223962 L78.7351338,147.861684 C78.1171465,146.37414 77.7899768,144.779597 77.7120792,143.153737 L75.035,142.900593 L75.3959253,139.025148 L78.0574251,139.275682 C78.2417826,138.500593 78.4598957,137.725504 78.7844689,136.966074 C79.1116386,136.209253 79.521899,135.517675 79.9581253,134.849585 L77.9509651,133.07497 L80.5086014,130.154686 L82.5287446,131.942349 C83.7621225,130.8828 85.1383126,130.029419 86.6391388,129.460498 L86.0575037,126.850771 L89.8355351,126 L90.4275565,128.648873 C90.8014647,128.617556 91.1805661,128.601898 91.5596676,128.601898 C92.764483,128.601898 93.9796849,128.761091 95.1870969,129.095136 L96.25689,126.605457 L99.8090184,128.145196 L98.7392254,130.637485 C100.143978,131.496085 101.338407,132.571293 102.327706,133.813523 L104.65165,132.427758 L106.625054,135.776038 L104.334866,137.138316 C104.952853,138.62847 105.280023,140.220403 105.357921,141.848873 L108.035,142.099407 L107.674075,145.974852 L105.015172,145.724318 C104.828217,146.499407 104.610104,147.274496 104.285531,148.033926 C103.958361,148.790747 103.548101,149.482325 103.111875,150.150415 L105.119035,151.92503 L102.561399,154.845314 L100.541255,153.060261 C99.3104741,154.11981 97.9316874,154.970581 96.4308612,155.539502 L97.0124963,158.149229 L93.2344649,159 M91.5414915,130.8828 C87.0701719,130.8828 82.8117724,133.508185 80.9266516,137.897746 C78.3975777,143.785291 81.0954296,150.620166 86.9559222,153.16204 C88.446362,153.809253 90.0017165,154.1172 91.5311051,154.1172 C96.0024247,154.1172 100.258228,151.491815 102.143348,147.102254 C104.672422,141.214709 101.97457,134.379834 96.1166744,131.83796 C94.623638,131.190747 93.0682835,130.8828 91.5414915,130.8828 M91.5414915,150.787189 C89.986137,150.787189 88.4126064,150.348754 87.0130471,149.424911 C83.196067,146.906524 82.1314671,141.757533 84.6371717,137.918624 C86.2262818,135.488968 88.8644122,134.168446 91.557071,134.168446 C93.115022,134.168446 94.6885526,134.60949 96.0855154,135.530724 C99.9024955,138.04911 100.967095,143.200712 98.4613907,147.037011 C96.8748773,149.469276 94.2341502,150.787189 91.5414915,150.787189 M91.5544744,136.185765 C89.5161551,136.185765 87.5193811,137.185291 86.3171622,139.027758 C84.4190585,141.932384 85.2239999,145.831317 88.1165957,147.739027 C89.1734059,148.435824 90.3652384,148.76987 91.544088,148.76987 C93.5824073,148.76987 95.5817779,147.770344 96.7839968,145.930486 C98.6795039,143.02586 97.8745625,139.124318 94.9845633,137.219217 C93.9251566,136.51981 92.733324,136.185765 91.5544744,136.185765 M91.5388949,146.293238 C91.525912,146.293238 91.512929,146.293238 91.4999461,146.293238 L92.8371874,138.939027 C94.5353541,139.565362 95.5921642,141.334757 95.2572047,143.185053 C94.9248418,145.019692 93.3305386,146.293238 91.5388949,146.293238 M90.2328126,146.060973 C88.5346459,145.434638 87.4752392,143.665243 87.8127953,141.817556 C88.1477547,139.982918 89.7394614,138.706762 91.5311051,138.706762 C91.544088,138.706762 91.557071,138.706762 91.5700539,138.706762 L90.2328126,146.060973"
                  id="Fill-238" fill="#CAC9C4" opacity="0.289760045"></path>
            <path d="M365.611415,259 L364.715607,254.983811 C364.145078,255.030511 363.571968,255.056455 362.998858,255.056455 C361.171101,255.056455 359.333017,254.815172 357.502679,254.309257 L355.881448,258.081569 L350.498858,255.746575 L352.117507,251.974263 C349.990287,250.669261 348.180601,249.042549 346.685867,247.161582 L343.162014,249.257887 L340.172546,244.188356 L343.639606,242.123184 C342.705074,239.868618 342.209411,237.455791 342.090659,234.988481 L338.035,234.607098 L338.579713,228.735886 L342.612138,229.117269 C342.890948,227.939394 343.223971,226.766708 343.717053,225.617372 C344.210134,224.468037 344.832295,223.422478 345.493178,222.410648 L342.454661,219.72281 L346.32961,215.2967 L349.388779,218.002698 C351.25526,216.396741 353.343757,215.107306 355.618127,214.243358 L354.735227,210.29203 L360.458585,209 L361.354393,213.016189 C361.924922,212.969489 362.498032,212.943545 363.071142,212.943545 C364.896318,212.943545 366.736983,213.184828 368.567321,213.690743 L370.185971,209.918431 L375.571142,212.253425 L373.949911,216.025737 C376.077131,217.330739 377.889399,218.957451 379.384133,220.838418 L382.905405,218.742113 L385.897454,223.814238 L382.427813,225.876816 C383.362344,228.131382 383.860589,230.546804 383.979341,233.011519 L388.035,233.395496 L387.487705,239.264114 L383.457862,238.882731 C383.17647,240.060606 382.846029,241.233292 382.352947,242.382628 C381.859866,243.531963 381.235124,244.577522 380.576822,245.589352 L383.615339,248.27719 L379.74039,252.7033 L376.681221,249.997302 C374.81474,251.603259 372.726243,252.895289 370.451873,253.756642 L371.334773,257.70797 L365.611415,259 M363.042745,216.40193 C356.268684,216.40193 349.817321,220.376609 346.962096,227.026152 C343.128453,235.945828 347.217672,246.300228 356.095719,250.152968 C358.357181,251.133665 360.71158,251.59807 363.027255,251.59807 C369.801316,251.59807 376.250097,247.623391 379.107904,240.973848 C382.938965,232.054172 378.849746,221.699772 369.974281,217.847032 C367.712819,216.866335 365.35842,216.40193 363.042745,216.40193 M363.045326,246.557078 C360.685764,246.557078 358.302968,245.887713 356.183492,244.491905 C350.400758,240.678082 348.787272,232.874014 352.584773,227.05988 C354.988222,223.375778 358.989667,221.375467 363.068561,221.375467 C365.425541,221.375467 367.810919,222.044832 369.930394,223.440639 C375.713129,227.257057 377.324033,235.061125 373.529114,240.872665 C371.123083,244.556766 367.124219,246.557078 363.045326,246.557078 M363.065979,224.434309 C359.97583,224.434309 356.947639,225.946866 355.127627,228.738481 C352.254331,233.138647 353.475417,239.048775 357.853773,241.936384 C359.456933,242.99232 361.261456,243.498236 363.047908,243.498236 C366.135475,243.498236 369.163666,241.985679 370.98626,239.196658 C373.859556,234.793898 372.63847,228.886364 368.260114,225.998755 C366.656954,224.940224 364.849849,224.434309 363.065979,224.434309 M363.040163,239.746679 C363.019511,239.746679 362.998858,239.746679 362.980787,239.746679 L365.007325,228.606164 C367.578577,229.553134 369.184318,232.235782 368.673166,235.035181 C368.169758,237.816418 365.755983,239.746679 363.040163,239.746679 M361.062675,239.393836 C358.491423,238.446866 356.885682,235.764218 357.394252,232.964819 C357.900242,230.186177 360.314017,228.253321 363.027255,228.253321 C363.047908,228.253321 363.068561,228.253321 363.089213,228.253321 L361.062675,239.393836"
                  id="Fill-239" fill="#CAC9C4" opacity="0.568289621"></path>
            <path d="M234.198553,185 L230.635967,183.57289 L227.075948,182.148338 L227.355719,176.265985 C225.982532,175.025575 224.830081,173.547315 223.929168,171.895141 L218.115583,170.757033 L217.574008,166.971867 L217.035,163.184143 L222.299311,160.478261 C222.702283,158.641944 223.395294,156.900256 224.365508,155.327366 L222.453313,149.757033 L228.492769,145.038363 L233.479876,148.230179 C234.355122,147.951407 235.256035,147.726343 236.192882,147.59335 C236.95006,147.485934 237.699538,147.445013 238.441315,147.445013 C238.620985,147.445013 238.798087,147.44757 238.97519,147.450128 L242.874014,143 L249.994052,145.85422 L249.716848,151.734015 C251.087468,152.974425 252.239919,154.455243 253.140832,156.107417 L258.954417,157.245524 L259.495992,161.030691 L260.035,164.815857 L254.770689,167.521739 C254.370283,169.360614 253.674706,171.102302 252.704492,172.675192 L254.616687,178.242967 L251.598242,180.603581 L248.577231,182.961637 L243.590124,179.769821 C242.714878,180.048593 241.816532,180.273657 240.877118,180.40665 C240.117373,180.514066 239.362762,180.557545 238.615851,180.557545 C238.441315,180.557545 238.266779,180.554987 238.09481,180.549872 L234.198553,185 M238.541417,158.565217 C238.287313,158.565217 238.028076,158.58312 237.766272,158.621483 C234.783761,159.043478 232.712431,161.795396 233.135937,164.767263 C233.520943,167.478261 235.856644,169.43734 238.528583,169.43734 C238.782687,169.43734 239.041924,169.419437 239.303728,169.381074 C242.286239,168.959079 244.360136,166.207161 243.934063,163.235294 C243.54649,160.524297 241.213356,158.565217 238.541417,158.565217 M238.533717,168.061381 C238.210312,168.061381 237.879207,168.02046 237.550669,167.938619 C235.597407,167.455243 234.339722,165.641944 234.48089,163.705882 L242.252871,165.634271 C241.600928,167.109974 240.132774,168.061381 238.533717,168.061381 M242.58911,164.294118 L234.817129,162.365729 C235.469072,160.890026 236.937226,159.941176 238.536283,159.941176 C238.859688,159.941176 239.190793,159.97954 239.519331,160.061381 C241.472593,160.547315 242.730278,162.360614 242.58911,164.294118"
                  id="Fill-240" fill="#CAC9C4" opacity="0.568289621"></path>
            <path d="M23.1985528,43 L19.6385337,41.57289 L16.0785146,40.1483376 L16.3557187,34.2659847 C14.9850985,33.0255754 13.8300815,31.5473146 12.9291682,29.8951407 L7.11558258,28.7570332 L6.57657464,24.971867 L6.035,21.1841432 L11.3018776,18.4782609 C11.7022835,16.6419437 12.3978604,14.9002558 13.3680747,13.3273657 L11.4533131,7.75703325 L14.4743243,5.39897698 L17.4927688,3.03836317 L22.4798755,6.23017903 C23.3551218,5.95140665 24.256035,5.72634271 25.1928822,5.59335038 C25.95006,5.4859335 26.6995377,5.44501279 27.443882,5.44501279 C27.6209846,5.44501279 27.7980872,5.44757033 27.9777565,5.45012788 L31.8740139,1 L38.9940521,3.85421995 L38.716848,9.73401535 C40.0874682,10.9744246 41.2424852,12.455243 42.1408318,14.1074169 L47.9544174,15.2455243 L48.4959921,19.0306905 L49.035,22.8158568 L43.7706891,25.5217391 C43.3702832,27.3606138 42.6747063,29.1023018 41.7070587,30.6751918 L43.6166869,36.2455243 L40.5982424,38.6035806 L37.5797979,40.9616368 L32.5901245,37.769821 C31.7174449,38.0485934 30.8165317,38.2736573 29.8771178,38.4066496 C29.11994,38.5140665 28.3653289,38.5575448 27.6209846,38.5575448 C27.4464487,38.5575448 27.2693461,38.5549872 27.0948102,38.5498721 L23.1985528,43 M27.5439835,16.5652174 C27.287313,16.5652174 27.0280759,16.5831202 26.7688387,16.6214834 C23.7863281,17.0434783 21.7124309,19.7928389 22.1359371,22.7672634 C22.5235095,25.4782609 24.8566439,27.4347826 27.5285832,27.4347826 C27.7852537,27.4347826 28.0444908,27.4194373 28.303728,27.3810742 C31.2862386,26.9590793 33.3601358,24.2071611 32.9366296,21.2352941 C32.5490572,18.5242967 30.2133561,16.5652174 27.5439835,16.5652174 M27.5362834,26.0613811 C27.2103119,26.0613811 26.8817737,26.0230179 26.5506688,25.9386189 C24.5974067,25.455243 23.3397215,23.6419437 23.483457,21.7058824 L31.2528714,23.6342711 C30.6009285,25.1099744 29.1327735,26.0613811 27.5362834,26.0613811 M31.5891097,22.2941176 L23.8196953,20.3657289 C24.4690715,18.8900256 25.9372265,17.9411765 27.5362834,17.9411765 C27.8622548,17.9411765 28.190793,17.9795396 28.5193312,18.0613811 C30.4725933,18.5473146 31.7328452,20.3606138 31.5891097,22.2941176"
                  id="Fill-241" fill="#CAC9C4" opacity="0.407156808"></path>
            <path d="M100.192239,252 L96.2175695,250.402113 L92.2454755,248.8068 L92.5545879,242.227417 C91.0244816,240.840523 89.7365134,239.183456 88.7318981,237.335979 L82.2405383,236.062302 L81.035,227.589127 L86.913287,224.558031 C87.358924,222.504708 88.1342809,220.554309 89.2187501,218.79689 L87.0832988,212.562302 L90.4526237,209.922315 L93.8245245,207.282328 L99.3936992,210.853772 C100.369979,210.542429 101.374594,210.290266 102.420424,210.141027 C103.265332,210.020092 104.102511,209.973776 104.931963,209.973776 C105.13031,209.973776 105.328657,209.97635 105.527004,209.981496 L109.877761,205 L113.852431,206.597887 L117.8271,208.1932 L117.515412,214.775156 C119.048094,216.16205 120.336063,217.819117 121.340678,219.666594 L127.829462,220.940272 L128.434807,225.178145 L129.035,229.413446 L123.159289,232.441969 C122.711076,234.500438 121.935719,236.448265 120.853826,238.208256 L122.986701,244.440272 L119.617376,247.080258 L116.245475,249.720245 L110.676301,246.148801 C109.702597,246.460145 108.697982,246.712307 107.649576,246.861546 C106.802092,246.979908 105.959761,247.028797 105.127734,247.028797 C104.931963,247.028797 104.736191,247.026224 104.542996,247.021077 L100.192239,252 M105.042728,222.419796 C104.759375,222.419796 104.468294,222.437808 104.177213,222.48155 C100.849103,222.952425 98.5333364,226.03241 99.0073087,229.356838 C99.440066,232.39308 102.044338,234.582777 105.027272,234.582777 C105.313201,234.582777 105.601706,234.564765 105.892787,234.523596 C109.220897,234.050148 111.536664,230.970163 111.062691,227.645735 C110.629934,224.609493 108.025662,222.419796 105.042728,222.419796 M105.035,233.044071 C104.671793,233.044071 104.303434,233.000328 103.935075,232.91027 C101.755833,232.367349 100.351948,230.337184 100.511656,228.173218 L109.184834,230.329465 C108.45842,231.981386 106.820124,233.044071 105.035,233.044071 M109.56092,228.829355 L100.885166,226.670535 C101.61158,225.021187 103.252452,223.958502 105.037576,223.958502 C105.398207,223.958502 105.766566,224.002245 106.134925,224.092303 C108.314167,224.635224 109.720628,226.665389 109.56092,228.829355"
                  id="Fill-242" fill="#CAC9C4" opacity="0.568289621"></path>
            <polyline id="Fill-243" fill="#398EBA"
                      points="323.035 198.209772 269.204231 215 266.035 205.459221 319.458077 180 323.035 198.209772"></polyline>
            <polyline id="Fill-244" fill="#2D2E2C"
                      points="265.035 215.780316 258.32136 218 255.035 208.217047 261.74864 206 265.035 215.780316"></polyline>
            <polyline id="Fill-245" fill="#F9C83F"
                      points="270.035 216.799292 266.52082 218 262.035 204.19818 265.54918 203 270.035 216.799292"></polyline>
            <path d="M261.623048,212.473121 C263.018492,216.661849 260.754138,221.190345 256.56262,222.588317 C252.371102,223.983695 247.842395,221.716854 246.446952,217.528125 C245.051508,213.336803 247.315862,208.808307 251.50738,207.412929 C255.698898,206.014957 260.227605,208.281798 261.623048,212.473121"
                  id="Fill-246" fill="#EC9141"></path>
            <polygon id="Fill-247" fill="#398EBA" points="339.035 324 381.035 324 381.035 293 339.035 293"></polygon>
            <polygon id="Fill-248" fill="#2D2E2C" points="329.035 361 380.035 361 380.035 324 329.035 324"></polygon>
            <path d="M334.297006,239.772975 C332.770942,230.710938 333.454598,208.37682 336.278841,202.016637 C338.767656,196.411838 341.540688,193.070615 340.201542,185.119742 C338.427108,174.583029 328.507693,167.490664 318.042889,169.274713 C307.578085,171.061339 300.534122,181.051493 302.308556,191.588205 L319.865972,295.880258 C321.640405,306.416971 331.562381,313.509336 342.027185,311.725287 C352.489429,309.938661 359.535952,299.948507 357.761519,289.411795 C356.422372,281.460921 352.709633,279.225705 348.52832,274.760428 C343.778574,269.691875 335.82307,248.835011 334.297006,239.772975"
                  id="Fill-249" fill="#F9C83F"></path>
            <path d="M340.697209,305.808873 C333.296548,307.052999 326.253481,302.09192 324.996717,294.750552 L307.228392,190.763259 C305.971628,183.42189 310.972775,176.435252 318.376027,175.191127 C325.776688,173.947001 332.817163,178.90808 334.071337,186.249448 C334.866856,190.912348 333.840714,192.986747 331.97241,196.74997 C331.500799,197.706198 331.008458,198.698414 330.526482,199.767745 C327.002358,207.597509 326.440053,231.040534 328.098464,240.741628 C329.754284,250.442721 338.074846,272.392281 344.003667,278.630902 C344.814733,279.48431 345.60507,280.258033 346.372086,281.006051 C349.383139,283.949281 351.044142,285.571271 351.842252,290.236741 C353.096426,297.57811 348.09787,304.564748 340.697209,305.808873"
                  id="Fill-250" fill="#EC9141"></path>
            <path d="M329.035,292.5 C329.035,297.747093 333.287907,302 338.535,302 C343.782093,302 348.035,297.747093 348.035,292.5 C348.035,287.252907 343.782093,283 338.535,283 C333.287907,283 329.035,287.252907 329.035,292.5"
                  id="Fill-251" fill="#2D2E2C"></path>
            <path d="M311.035,189.5 C311.035,194.747093 315.289948,199 320.533685,199 C325.780052,199 330.035,194.747093 330.035,189.5 C330.035,184.252907 325.780052,180 320.533685,180 C315.289948,180 311.035,184.252907 311.035,189.5"
                  id="Fill-252" fill="#2D2E2C"></path>
            <path d="M257.828845,213.734682 C258.527325,215.830055 257.393291,218.095394 255.297851,218.793851 C253.202412,219.492309 250.939656,218.358311 250.241176,216.262939 C249.542697,214.167566 250.67673,211.902227 252.769514,211.206425 C254.864953,210.507968 257.130365,211.63931 257.828845,213.734682"
                  id="Fill-253" fill="#2D2E2C"></path>
            <polyline id="Fill-254" fill="#BA3335"
                      points="242.035 211 234.035 199.075199 235.160772 197 242.035 211"></polyline>
            <polyline id="Fill-255" fill="#BA3335"
                      points="242.035 212 233.355178 204.795692 233.035 203 242.035 212"></polyline>
            <polyline id="Fill-256" fill="#BA3335"
                      points="236.562919 211.491 236.035 210.009 242.035 212.991 236.562919 211.491"></polyline>
            <polyline id="Fill-257" fill="#BA3335"
                      points="253.035 224 272.035 237 270.879595 235.030863 253.035 224"></polyline>
            <polyline id="Fill-258" fill="#BA3335"
                      points="254.035 224 265.035 227 264.120299 226.329961 254.035 224"></polyline>
            <polyline id="Fill-259" fill="#BA3335"
                      points="251.035 224 270.421677 240.382843 271.035 244 251.035 224"></polyline>
            <path d="M249.693618,275 L257.035,264.516103 L244.584448,256 C242.709287,259.950822 240.145712,263.43953 237.035,266.341708 L249.693618,275"
                  id="Fill-260" fill="#1C5D88"></path>
            <polyline id="Fill-261" fill="#398EBA"
                      points="244.032238 255 247.035 256.943711 244.037762 273 241.035 271.056289 244.032238 255"></polyline>
            <path d="M222.317584,242.946409 C223.459032,237.835326 220.241991,232.765192 215.128508,231.623709 C210.017584,230.479665 204.947609,233.699366 203.806161,238.81045 C202.662154,243.921533 205.881754,248.991666 210.992678,250.13571 C216.106161,251.277193 221.173577,248.060052 222.317584,242.946409 Z M245.097921,254.171853 C243.081192,259.044914 240.035624,263.27557 236.265774,266.661631 L239.792491,272.223166 L229.895674,278.506445 L226.353602,272.924436 C221.690556,274.861887 216.579632,275.785824 211.327946,275.517089 L209.879382,282 L198.436748,279.443179 L199.885312,272.960267 C195.020081,270.969069 190.789557,267.956678 187.393365,264.217423 L181.811529,267.759605 L175.528446,257.86248 L181.089806,254.333094 C179.119145,249.662224 178.164526,244.538344 178.415337,239.271138 L172.035,237.845563 L174.591742,226.402572 L180.933689,227.820469 C182.927385,222.906458 185.952478,218.632292 189.722328,215.2104 L186.27495,209.776834 L196.174326,203.496114 L199.608908,208.906645 C204.315462,206.920566 209.48269,205.968476 214.79324,206.23977 L216.190618,200 L227.630693,202.556821 L226.235874,208.796592 C231.159969,210.813384 235.431442,213.874403 238.845549,217.675083 L244.258471,214.240395 L250.538995,224.13752 L245.105599,227.587565 C247.058346,232.286588 247.979694,237.44374 247.690493,242.739099 L254.035,244.156996 L251.475699,255.597428 L245.097921,254.171853 L245.097921,254.171853 Z"
                  id="Fill-262" fill="#EC9141"></path>
            <path d="M213.051685,228.744917 C207.427475,228.744917 202.455272,232.734108 201.228265,238.232723 C200.522351,241.395325 201.087082,244.640073 202.822348,247.376545 C204.56018,250.110451 207.255488,252.007498 210.417984,252.710869 C211.29075,252.908532 212.184053,253.008647 213.072221,253.008647 C218.696431,253.008647 223.671201,249.019456 224.898208,243.52084 C226.356242,236.997973 222.233703,230.500777 215.708489,229.042694 C214.833156,228.845031 213.939854,228.744917 213.051685,228.744917 Z M201.518332,277.577856 L202.881388,271.473418 L200.840654,270.633993 C196.374143,268.806255 192.477497,266.077484 189.255961,262.527258 L187.777392,260.894616 L182.525391,264.231777 L179.029191,258.720327 L184.26579,255.393434 L183.405858,253.355198 C181.52941,248.91164 180.695148,244.211376 180.926174,239.390461 L181.03142,237.190502 L175.035,235.850503 L176.459663,229.481659 L182.430413,230.816524 L183.264675,228.762886 C185.089784,224.252584 187.831298,220.319868 191.412208,217.067419 L193.042228,215.5888 L189.805291,210.488077 L195.316555,206.989191 L198.545791,212.079646 L200.586525,211.219685 C204.542211,209.551105 208.726357,208.703979 213.026016,208.703979 C213.572778,208.703979 214.119541,208.719381 214.66887,208.747619 L216.871322,208.858002 L218.183039,203 L224.554235,204.422144 L223.242518,210.282713 L225.285819,211.11957 C229.795969,212.965277 233.728552,215.737688 236.975757,219.352091 L238.456893,221.000135 L243.544609,217.768223 L247.043376,223.279673 L241.945393,226.51672 L242.789923,228.549821 C244.643268,233.013916 245.449294,237.742417 245.18233,242.59927 L245.061683,244.812065 L251.035,246.144363 L249.610337,252.518341 L243.621618,251.178342 L242.779655,253.208877 C240.931443,257.672972 238.174528,261.569749 234.588484,264.796528 L232.943062,266.275147 L236.264709,271.509356 L230.753445,275.008242 L227.42153,269.756063 L225.388497,270.603189 C221.486717,272.225562 217.353911,273.052152 213.108158,273.052152 C212.558829,273.052152 212.009499,273.036749 211.457603,273.008512 L209.252584,272.895562 L207.889528,279 L201.518332,277.577856 L201.518332,277.577856 Z"
                  id="Fill-263" fill="#F9C83F"></path>
            <polyline id="Fill-264" fill="#EC9141"
                      points="266.218802 266 254.035 283.438447 289.851198 308 302.035 290.561553 266.218802 266"></polyline>
            <polyline id="Fill-265" fill="#398EBA"
                      points="266.035 266.448304 253.782258 284 249.035 275.602919 256.436889 265 266.035 266.448304"></polyline>
            <polyline id="Fill-266" fill="#398EBA"
                      points="205.035 229 197.766347 239 195.035 229.805723 205.035 229"></polyline>
            <path d="M209.512878,232.509076 L204.426041,229 L197.035,239.64059 L213.508385,251 C217.475445,250.572315 220.917529,247.725378 221.838176,243.628879 C222.026961,242.788968 222.057994,241.956787 222.021788,241.13491 L209.512878,232.509076"
                  id="Fill-267" fill="#1C5D88"></path>
            <path d="M221.799575,243.734371 C222.089993,242.543365 222.100849,241.357302 221.891857,240.223128 L219.953929,239 L218.035,249 C219.864361,247.737336 221.259452,245.933531 221.799575,243.734371"
                  id="Fill-268" fill="#398EBA"></path>
            <polyline id="Fill-269" fill="#398EBA"
                      points="212.032238 233 215.035 234.943711 212.037762 251 209.035 249.056289 212.032238 233"></polyline>
            <polyline id="Fill-270" fill="#398EBA"
                      points="205.030854 228 208.035 229.943711 205.039146 246 202.035 244.056289 205.030854 228"></polyline>
            <path d="M301.467854,346 C304.990848,346 308.26402,344.965897 311.035,343.202292 L303.894692,294.187367 C302.790889,286.615894 296.32102,281 288.701463,281 L283.776409,281 C276.154303,281 269.686983,286.615894 268.58318,294.187367 L261.035,346 L301.467854,346"
                  id="Fill-271" fill="#1C5D88"></path>
            <path d="M276.035,296 C276.035,301.524265 280.510735,306 286.035,306 C291.559265,306 296.035,301.524265 296.035,296 C296.035,290.475735 291.559265,286 286.035,286 C280.510735,286 276.035,290.475735 276.035,296"
                  id="Fill-272" fill="#FFFFFE"></path>
            <path d="M282.035,295.5 C282.035,297.985302 284.049698,300 286.535,300 C289.020302,300 291.035,297.985302 291.035,295.5 C291.035,293.014698 289.020302,291 286.535,291 C284.049698,291 282.035,293.014698 282.035,295.5"
                  id="Fill-273" fill="#2D2E2C"></path>
            <polygon id="Fill-274" fill="#EC9141" points="252.035 361 321.035 361 321.035 340 252.035 340"></polygon>
            <polyline id="Fill-275" fill="#398EBA"
                      points="150.106799 211 160.035 195.886953 121.963201 171 112.035 186.113047 150.106799 211"></polyline>
            <path d="M106.733686,170.989737 C102.585343,179.71645 106.295935,190.15297 115.022648,194.301314 C123.749361,198.449657 134.188456,194.739065 138.336799,186.012352 C142.485143,177.285639 138.771976,166.846544 130.045263,162.698201 C121.31855,158.549857 110.88203,162.263024 106.733686,170.989737"
                  id="Fill-276" fill="#F9C83F"></path>
            <path d="M117.568241,176.139318 C116.265754,178.881396 117.431137,182.161734 120.173214,183.466759 C122.917831,184.769246 126.198169,183.603863 127.500656,180.861786 C128.805682,178.117169 127.63776,174.836831 124.895682,173.534344 C122.153604,172.229318 118.873266,173.39724 117.568241,176.139318"
                  id="Fill-277" fill="#1C5D88"></path>
            <polyline id="Fill-278" fill="#1C5D88"
                      points="154.995526 203 192.66893 174.829867 217.96784 191.398414 221.035 186.742853 189.364246 166 145.035 196.478612 154.995526 203"></polyline>
            <polyline id="Fill-279" fill="#1C5D88"
                      points="154.612066 203.486272 143.549715 248.892738 169.035 265.372068 165.944929 270 134.035 249.371402 144.577137 197 154.612066 203.486272"></polyline>
            <polyline id="Fill-280" fill="#EC9141"
                      points="224.035 202 223.067034 195.788559 203.595919 183 201.035 186.898022 224.035 202"></polyline>
            <polyline id="Fill-281" fill="#EC9141"
                      points="181.035 267.390563 174.840586 269 155.035 255.971842 157.642494 252 181.035 267.390563"></polyline>
            <path d="M140.718389,206.487853 C144.027603,211.908515 151.101593,213.623266 156.522255,210.316611 C161.945476,207.009956 163.657668,199.933407 160.351013,194.512745 C157.044358,189.089524 149.967809,187.377332 144.547147,190.683987 C139.126485,193.990642 137.411734,201.067191 140.718389,206.487853"
                  id="Fill-282" fill="#F9C83F"></path>
            <path d="M146.693091,202.843156 C147.988707,204.963706 150.755826,205.635048 152.878853,204.341909 C154.999402,203.046293 155.670744,200.279174 154.375128,198.156147 C153.081989,196.035598 150.312393,195.364256 148.191844,196.659872 C146.071294,197.953011 145.399952,200.722607 146.693091,202.843156"
                  id="Fill-283" fill="#2D2E2C"></path>
            <polygon id="Fill-284" fill="#1C5D88" points="115.035 156 130.035 156 130.035 117 115.035 117"></polygon>
            <polyline id="Fill-285" fill="#1C5D88"
                      points="40.035 203.277805 58.1537299 207 74.035 130.722195 55.9162701 127 40.035 203.277805"></polyline>
            <polyline id="Fill-286" fill="#1C5D88"
                      points="127.857006 126 132.035 107.998697 76.2129944 90 72.035 107.998697 127.857006 126"></polyline>
            <path d="M67.578156,90.9983621 C62.8807813,98.1528868 64.8762632,107.761865 72.0331854,112.45678 C79.1875294,117.154273 88.7962645,115.158741 93.4936392,108.001638 C98.1884358,100.847113 96.1929539,91.2381354 89.0386099,86.5432202 C81.8816877,81.8457269 72.2729526,83.8412592 67.578156,90.9983621"
                  id="Fill-287" fill="#EC9141"></path>
            <path d="M71.6974736,93.1547133 L71.8579929,92.9161286 C75.1874722,87.8878906 81.9991831,86.4871671 87.0736618,89.786307 C92.1481404,93.0854468 93.5617452,99.8350867 90.2322658,104.863325 L90.0484454,105.089082 L77.8645186,123.539637 L76.5933099,129.629962 C76.3991334,130.558647 75.4826205,131.156392 74.5453953,130.963985 L56.4170792,127.249245 C55.9691788,127.15689 55.5730588,126.890086 55.3219239,126.510402 C55.0682,126.130719 54.9775843,125.666377 55.070789,125.219992 L57.4242079,113.952634 L71.6974736,93.1547133"
                  id="Fill-288" fill="#398EBA"></path>
            <path d="M77.6414292,96.7740243 C76.4119747,98.6478469 76.9352017,101.16346 78.8090243,102.392915 C80.6828469,103.622369 83.1984601,103.099142 84.4279146,101.225319 C85.657369,99.3514969 85.1341421,96.8358836 83.2603195,95.6064292 C81.3864969,94.3769747 78.8708836,94.9002017 77.6414292,96.7740243 Z M84.3248157,93.9851989 C87.0955987,95.8023171 87.8688405,99.5216101 86.0517223,102.289816 C84.2320266,105.060599 80.5127337,105.83384 77.7445281,104.016722 C74.973745,102.197027 74.2005033,98.4777337 76.0201989,95.7095281 C77.8373171,92.938745 81.5566101,92.1655033 84.3248157,93.9851989 L84.3248157,93.9851989 Z"
                  id="Fill-289" fill="#2D2E2C"></path>
            <path d="M109.576454,105.99639 C104.881485,113.153312 106.87704,122.762047 114.031647,127.456844 C121.188832,132.154219 130.79792,130.158737 135.492888,123.001815 C140.187857,115.847471 138.19488,106.238735 131.037696,101.541361 C123.880511,96.8465642 114.274001,98.8420461 109.576454,105.99639"
                  id="Fill-290" fill="#EC9141"></path>
            <path d="M118.642432,112.774681 C117.412874,114.648503 117.933567,117.164116 119.807547,118.393571 C121.681528,119.623025 124.199931,119.099798 125.429489,117.225976 C126.659047,115.352153 126.135776,112.83654 124.261795,111.607085 C122.387815,110.377631 119.87199,110.900858 118.642432,112.774681 Z M125.326381,109.983278 C128.097398,111.800396 128.868127,115.522266 127.050856,118.290472 C125.233584,121.061255 121.513978,121.834497 118.742961,120.014801 C115.974523,118.197683 115.201216,114.47839 117.018487,111.710184 C118.835758,108.939401 122.555365,108.16616 125.326381,109.983278 L125.326381,109.983278 Z"
                  id="Fill-291" fill="#F9C83F"></path>
            <path d="M48.0337133,183 C64.0500406,183 77.035,195.999364 77.035,212.033458 L77.035,264 L19.035,264 L19.035,212.033458 C19.035,195.999364 32.0199594,183 48.0337133,183"
                  id="Fill-292" fill="#398EBA"></path>
            <path d="M48.5337154,188 C62.6177414,188 74.035,198.972097 74.035,212.504515 L74.035,236.495485 C74.035,250.027903 62.6177414,261 48.5337154,261 C34.4522586,261 23.035,250.027903 23.035,236.495485 L23.035,212.504515 C23.035,198.972097 34.4522586,188 48.5337154,188"
                  id="Fill-293" fill="#F9C83F"></path>
            <path d="M32.035,212 C32.035,220.835052 39.1999485,228 48.035,228 C56.8726289,228 64.035,220.835052 64.035,212 C64.035,203.162371 56.8726289,196 48.035,196 C39.1999485,196 32.035,203.162371 32.035,212"
                  id="Fill-294" fill="#2D2E2C"></path>
            <path d="M38.035,211.501289 C38.035,217.299816 42.7351842,222 48.5337109,222 C54.3322376,222 59.035,217.299816 59.035,211.501289 C59.035,205.702762 54.3322376,201 48.5337109,201 C42.7351842,201 38.035,205.702762 38.035,211.501289"
                  id="Fill-295" fill="#FFFFFE"></path>
            <polyline id="Fill-296" fill="#398EBA"
                      points="0.035 361 96.035 361 76.8518766 263 19.2181234 263 0.035 361"></polyline>
        </g>
    </g>
</svg>
