<?xml version="1.0" encoding="UTF-8"?>
<svg width="2311px" height="539px" viewBox="0 0 2311 539" version="1.1" xmlns="http://www.w3.org/2000/svg" xmlns:xlink="http://www.w3.org/1999/xlink">
    <!-- Generator: Sketch 61.2 (89653) - https://sketch.com -->
    <title>Clouds</title>
    <desc>Created with Sketch.</desc>
    <g id="Page-2" stroke="none" stroke-width="1" fill="none" fill-rule="evenodd">
        <g id="Clouds" fill="#FFFFFF" fill-rule="nonzero">
            <path d="M2213.75663,106.985849 C2167.70295,106.985849 2129.16039,134.267711 2119.09856,170.880842 C2096.57546,127.442246 2045.59084,97.1106223 1986.25555,97.1106223 C1939.98398,97.1106223 1898.79586,115.573176 1872.20829,144.295925 C1847.82279,105.17999 1799.53243,78.5300781 1743.9181,78.5300781 C1692.46821,78.5300781 1647.30407,101.34729 1621.5176,135.725597 C1604.35353,118.186971 1578.5222,107.020846 1549.62105,107.020846 C1513.49077,107.020846 1482.16837,124.476478 1466.57831,150.017477 C1425.11205,101.105309 1357.65168,69.2408059 1281.41124,69.2408059 C1209.16349,69.2408059 1144.79473,97.8635633 1102.96574,142.486067 C1082.74724,108.900699 1041.72447,85.8995007 994.368522,85.8995007 C945.612891,85.8995007 903.551898,110.272591 884.01914,145.488832 C866.184715,127.623232 839.620215,116.273121 809.933345,116.273121 C770.310262,116.273121 736.243613,136.471538 721.093196,165.433269 C702.714023,115.086214 647.585475,78.5300781 582.42971,78.5300781 C525.495161,78.5300781 476.239643,106.464889 452.448874,147.109705 C440.889952,131.832902 420.781682,121.693696 397.861229,121.693696 C378.422039,121.693696 361.031104,129.004123 349.12867,140.525221 C318.785538,89.2182406 256.435548,54 184.391598,54 C82.5543914,54 0,124.32149 0,211.065694 L0,539 L2311,539 L2311,189.818359 C2311,144.070943 2267.46242,106.985849 2213.75663,106.985849 Z" id="White-Cloud"></path>
            <path d="M97.2431586,52.9868485 C143.296735,52.9868485 181.84818,80.2657111 191.904856,116.881842 C214.424068,73.4432457 265.413696,43.1086224 324.74757,43.1086224 C371.019046,43.1086224 412.207067,61.5711759 438.790735,90.2969252 C463.176187,51.1809899 511.466432,24.531078 567.083207,24.531078 C618.530423,24.531078 663.693177,47.3482902 689.483436,81.7265967 C706.643617,64.1879708 732.478738,53.0218457 761.375979,53.0218457 C797.506183,53.0218457 828.832356,70.4774781 844.422382,96.0184769 C885.884701,47.1063092 953.348768,15.2418058 1029.58519,15.2418058 C1101.83662,15.2418058 1166.2014,43.8645632 1208.03415,88.4830673 C1228.24876,54.8976987 1269.27143,31.8965009 1316.62728,31.8965009 C1365.38664,31.8965009 1407.44754,56.2695912 1426.97641,91.485832 C1444.81464,73.6192319 1471.37908,62.2731209 1501.07102,62.2731209 C1540.69401,62.2731209 1574.75674,82.4715383 1589.91097,111.430269 C1608.2901,61.0862139 1663.41596,24.5300781 1728.5703,24.5300781 C1785.50857,24.5300781 1834.76013,52.4648893 1858.55085,93.106705 C1870.10974,77.8329018 1890.21797,67.6936962 1913.14222,67.6936962 C1932.57752,67.6936962 1949.97226,75.0011236 1961.87595,86.5252207 C1992.21517,35.2182406 2054.56887,0 2126.61266,0 C2228.44579,0 2311,70.3184905 2311,157.062694 L2311,485 L0,485 L0,135.816359 C0,90.0719428 43.5362032,52.9868485 97.2431586,52.9868485 Z" id="Blue-Cloud" opacity="0.298270089"></path>
        </g>
    </g>
</svg>