<?xml version="1.0" encoding="UTF-8"?>
<svg width="1800px" height="808px" viewBox="0 0 1800 808" version="1.1" xmlns="http://www.w3.org/2000/svg">
    <defs>
        <linearGradient x1="0%" y1="50%" x2="100%" y2="50%" id="linearGradient-1">
            <stop stop-color="#FFFFFF" offset="0%"></stop>
            <stop stop-color="#FBE9F5" offset="100%"></stop>
        </linearGradient>
        <linearGradient x1="0%" y1="50%" x2="100%" y2="50%" id="linearGradient-2">
            <stop stop-color="#FFFFFF" offset="0%"></stop>
            <stop stop-color="#FBE9F5" offset="100%"></stop>
        </linearGradient>
        <linearGradient x1="-27997.4%" y1="-650172%" x2="-27897.4%" y2="-650172%" id="linearGradient-3">
            <stop stop-color="#FFFFFF" offset="0%"></stop>
            <stop stop-color="#FBE9F5" offset="100%"></stop>
        </linearGradient>
    </defs>
    <g id="Page-1" stroke="none" stroke-width="1" fill="none" fill-rule="evenodd" opacity="0.3">
        <g id="Bg" transform="translate(-58.000000, -1.000000)">
            <g id="Planets" transform="translate(538.882000, 0.957000)" opacity="0.6" stroke="#FFFFFF">
                <g id="Jupiter" style="mix-blend-mode: overlay;" transform="translate(278.444000, 473.195000)">
                    <path d="M87.797,81.159 C103.608215,50.2600565 136.463871,31.9156883 171.063896,34.6684163 C205.663921,37.4211444 235.205725,60.7297643 245.932416,93.7400253 C256.659108,126.750286 246.461749,162.972156 220.089,185.538"
                          id="Path"></path>
                    <path d="M189.902,202.208 C162.69016,210.69804 133.039096,205.136822 110.753148,187.363203 C88.4672006,169.589584 76.4492052,141.918651 78.673,113.5"
                          id="Path"></path>
                    <path d="M241.139,158.492 C255.221,175.392 261.839,188.466 257.639,193.707 C249.265,204.172 200.951,179.421 149.729,138.431 C98.507,97.441 63.77,55.72 72.147,45.252 C76.325,40.031 90.437,43.572 109.893,53.52 L116.62,48.583 C58.647,10.283 12.262,-8.817 2.048,3.942 C-11.852,21.313 46.548,91.162 132.503,159.954 C218.458,228.746 299.403,270.425 313.313,253.054 C323.533,240.283 294.678,199.154 244.53,150.937"
                          id="Path"></path>
                </g>
                <g id="Nepture" style="mix-blend-mode: overlay;" transform="translate(1085.520000, 282.310000)">
                    <circle id="Oval"
                            transform="translate(127.996448, 127.995583) rotate(-15.113000) translate(-127.996448, -127.995583) "
                            cx="127.996448" cy="127.995583" r="104.39"></circle>
                    <path d="M125.575,97.276 C101.784,110.587 77.335,126.199 53.308,133.726 C43.8498101,136.685089 34.0749922,138.51579 24.187,139.18 C25.0987418,147.549174 27.0162462,155.77789 29.898,163.688 C38.4901287,165.00729 47.2382604,164.939766 55.809,163.488 C81.014,159.288 112.033,140.353 140.209,124.874 C168.24,108.964 202.646,96.374 226.493,100.38 C227.281,100.492 228.034,100.619 228.77,100.761 C227.982,97.861 227.07,94.968 226.018,92.095 C223.781868,85.9869182 220.982129,80.1002008 217.655,74.511 C211.532785,72.9081459 205.233475,72.0806686 198.905,72.047615 C176.863,71.97 149.298,83.755 125.575,97.276 Z"
                          id="Path"></path>
                    <path d="M66.574,97.97 C84.874,90.709 107.252,86.696 128.06,81.916 C148.948,77.274 171.221,70.066 184.494,60.195 C188.860815,56.9639256 192.811148,53.2050473 196.255,49.004 C192.87743,46.0903041 189.316818,43.3957952 185.595,40.937 C172.184,52.037 148.26,60.969 125.889,66.006 C101.422,71.853 73.368,77.206 55.76,86.191 C45.641,91.291 40.621,96.127 34.36,101.481 C31.623,103.876 28.575,106.439 25.289,109.244 C24.2626794,114.821586 23.6941186,120.473749 23.589,126.144 C36.202,114.768 46.956,105.883 66.574,97.97 Z"
                          id="Path"></path>
                    <path d="M174.296,142.832 C194.443,135.943 216.09,127.241 231.929,118.032 C231.548252,114.090666 230.940914,110.17452 230.11,106.303 C214.265,115.191 193.985,123.725 175.11,130.221 C147.986,139.809 117.146,149.692 96.689,160.511 C84.943,166.671 78.665,171.619 70.973,177.236 C64.385,182.111 56.422,187.745 47.504,194.498 C49.296,196.668 51.167,198.756667 53.117,200.764 C69.443,188.398 82.725,178.724 105.86,168.044 C126.72,158.506 151.264,150.828 174.296,142.832 Z"
                          id="Path"></path>
                    <path d="M33.76,83.1 C57.604,77.017 85.629,60.05 111.295,45.951 C124.83846,38.1795115 139.130259,31.7919391 153.954,26.885 C105.601265,14.471352 55.2273782,38.0317494 33.76,83.101 L33.76,83.1 Z"
                          id="Path"></path>
                    <path d="M151.397,167.769 C127.606,181.077 103.157,196.692 79.13,204.219 C73.3190762,206.018127 67.3901201,207.411151 61.386,208.388 C72.8388948,217.85704 86.1729556,224.784657 100.505,228.712 C121.446,220.952 144.561,207.156 166.025,195.363 C183.695,185.335 203.892,176.63 222.385,172.563 C226.826475,163.165232 229.843893,153.158515 231.338,142.872 C229.259,142.683 227.068,142.565 224.721,142.534672 C202.687,142.463 175.12,154.245 151.397,167.769 Z"
                          id="Path"></path>
                    <path d="M124.29,232.34 C156.160915,233.448092 186.794769,219.948914 207.483,195.67993 C199.583,195.674 191.644,196.046 181.436,199.197 C163.636,204.572 143.784,218.08 124.29,232.34 Z"
                          id="Path"></path>
                </g>
                <g id="Uranus" style="mix-blend-mode: overlay;" transform="translate(0.000000, 30.000000)">
                    <circle id="Oval"
                            transform="translate(97.595138, 97.595830) rotate(-65.795000) translate(-97.595138, -97.595830) "
                            cx="97.595138" cy="97.5958302" r="73.819"></circle>
                    <path d="M112.674,81.866 C94.455,75.566 74.71,70.005 59.432,60.866 C53.421979,57.2613265 47.8579069,52.9606415 42.855,48.053 C38.863755,52.4713124 35.4205104,57.3553141 32.6,62.599 C35.9482448,67.7545274 40.100872,72.3403107 44.9,76.182 C58.973,87.515 83.567,94.982 104.99,102.571 C126.578,109.885 149.412,122.127 158.516,136.602 C158.829,137.069 159.116,137.526 159.387,137.981 C160.547,136.2 161.646,134.361 162.668,132.45 C164.840624,128.396873 166.631022,124.150199 168.016,119.765 C165.984113,115.777318 163.457153,112.06197 160.495,108.707 C150.163,97.037 130.973,88.028 112.674,81.866 Z"
                          id="Path"></path>
                    <path d="M76.963,26.722 C91.39,36.449 113.537,43.264 133.055,50.179 C143.528859,53.6727591 153.624151,58.2126759 163.188,63.73 C146.992315,32.3640216 110.856274,16.8543362 76.963,26.722 L76.963,26.722 Z"
                          id="Path"></path>
                    <path d="M87.608,128.662 C69.389,122.362 49.644,116.801 34.366,107.662 C30.6816205,105.440211 27.1564275,102.964557 23.816,100.253 C24.2072248,110.754526 26.8228535,121.053436 31.49,130.469 C45.439,137.869 63.599,143.585 79.922,149.369 C93.529,153.978 107.622,160.548 118.474,168.397 C125.524119,166.320704 132.22565,163.20586 138.358,159.155 C137.481,157.968 136.513,156.755 135.426,155.505 C125.097,143.834 105.906,134.825 87.608,128.662 Z"
                          id="Path"></path>
                </g>
                <g id="Earth" style="mix-blend-mode: overlay;" transform="translate(535.411000, 268.486000)">
                    <circle id="Oval"
                            transform="translate(60.729790, 60.730216) rotate(-67.614000) translate(-60.729790, -60.730216) "
                            cx="60.7297904" cy="60.7302161" r="46.519"></circle>
                    <circle id="Oval" cx="37.415" cy="47.06" r="11.019"></circle>
                    <path d="M59.2260005,30.189 C59.2268089,31.9048196 58.1939,33.4521571 56.6089603,34.1094268 C55.0240205,34.7666965 53.1992113,34.4044461 51.9855145,33.1916074 C50.7718177,31.9787688 50.4082766,30.1542162 51.0644252,28.568812 C51.7205737,26.9834077 53.2671803,25.9494047 54.983,25.949 C57.3249448,25.9495508 59.2237928,27.8470562 59.2260005,30.189 L59.2260005,30.189 Z"
                          id="Path"></path>
                    <path d="M92.9490005,34.432 C92.9485953,36.1478197 91.9145923,37.6944263 90.329188,38.3505748 C88.7437838,39.0067234 86.9192312,38.6431823 85.7063926,37.4294855 C84.4935539,36.2157887 84.1313035,34.3909795 84.7885732,32.8060397 C85.4458429,31.2211 86.9931804,30.1881911 88.709,30.1889995 C89.8339565,30.1892651 90.9127177,30.6364751 91.7079007,31.4322207 C92.5030837,32.2279664 92.9495305,33.3070436 92.9490005,34.432 L92.9490005,34.432 Z"
                          id="Path"></path>
                    <path d="M43.8490005,88.309 C43.8485953,90.0248197 42.8145923,91.5714263 41.229188,92.2275748 C39.6437838,92.8837234 37.8192312,92.5201823 36.6063926,91.3064855 C35.3935539,90.0927887 35.0313035,88.2679795 35.6885732,86.6830397 C36.3458429,85.0981 37.8931804,84.0651911 39.609,84.0659995 C40.7339565,84.0662651 41.8127177,84.5134751 42.6079007,85.3092207 C43.4030837,86.1049664 43.8495305,87.1840436 43.8490005,88.309 L43.8490005,88.309 Z"
                          id="Path"></path>
                    <path d="M80.2550002,42.865 C80.2558089,46.2767299 78.2013083,49.3529875 75.0495517,50.6592539 C71.8977951,51.9655204 68.2695018,51.2445346 65.8566154,48.8325063 C63.4437289,46.4204779 62.7214527,42.7924412 64.026598,39.6402202 C65.3317434,36.4879992 68.40727,34.4324046 71.819,34.432 C76.4769028,34.432 80.2533436,38.2070975 80.2550002,42.865 L80.2550002,42.865 Z"
                          id="Path"></path>
                    <path d="M103.402,79.451 C96.7222935,74.1567361 87.1281342,74.7395516 81.1384005,80.8034448 C75.1486669,86.867338 74.6839466,96.4679423 80.06,103.082 C90.4748248,98.3333143 98.7818227,89.9234664 103.402,79.451 L103.402,79.451 Z"
                          id="Path"></path>
                </g>
                <path d="M194.762,234.271 C187.69547,243.102399 176.004647,246.807103 165.141444,243.657456 C154.278241,240.507809 146.382222,231.124151 145.135625,219.882467 C143.889028,208.640783 149.537377,197.755182 159.446615,192.302068 C169.355853,186.848953 181.574303,187.902343 190.404,194.971 C202.459108,204.620361 204.410182,222.214949 194.762,234.271 L194.762,234.271 Z"
                      id="Pluto" style="mix-blend-mode: overlay;"></path>
                <path d="M1053.089,92.395 C1033.59065,116.755589 998.036331,120.698094 973.674737,101.200996 C949.313143,81.7038975 945.368804,46.1497867 964.864646,21.7871869 C984.360487,-2.57541293 1019.91439,-6.52158528 1044.278,12.973 C1068.64202,32.4721589 1072.58675,68.0298586 1053.089,92.395 L1053.089,92.395 Z"
                      id="Mars" style="mix-blend-mode: overlay;"></path>
            </g>
            <g id="Stars" transform="translate(187.465343, 120.841360)" fill="#FFFFFF" fill-rule="nonzero">
                <path d="M1094.42866,6.31163979 L1091.92166,3.80463979 L1094.42866,1.29763979 C1094.72551,1.00078674 1094.72551,0.519492843 1094.42866,0.22263979 C1094.1318,-0.0742132633 1093.65051,-0.0742132633 1093.35366,0.22263979 L1090.84666,2.72963979 L1088.33966,0.22263979 C1088.0428,-0.0742132633 1087.56151,-0.0742132633 1087.26466,0.22263979 C1086.9678,0.519492843 1086.9678,1.00078674 1087.26466,1.29763979 L1089.77166,3.80463979 L1087.26466,6.31163979 C1086.9678,6.60849284 1086.9678,7.08978674 1087.26466,7.38663979 C1087.56151,7.68349284 1088.0428,7.68349284 1088.33966,7.38663979 L1090.84666,4.87963979 L1093.35366,7.38663979 C1093.65051,7.68349284 1094.1318,7.68349284 1094.42866,7.38663979 C1094.72551,7.08978674 1094.72551,6.60849284 1094.42866,6.31163979 L1094.42866,6.31163979 Z"
                      id="Path"></path>
                <path d="M1044.23866,677.77564 L1041.73166,675.26864 L1044.23866,672.76164 C1044.53551,672.464787 1044.53551,671.983493 1044.23866,671.68664 C1043.9418,671.389787 1043.46051,671.389787 1043.16366,671.68664 L1040.65666,674.19364 L1038.14966,671.68664 C1037.8528,671.389787 1037.37151,671.389787 1037.07466,671.68664 C1036.7778,671.983493 1036.7778,672.464787 1037.07466,672.76164 L1039.57466,675.26864 L1037.07466,677.77564 C1036.7778,678.072493 1036.7778,678.553787 1037.07466,678.85064 C1037.37151,679.147493 1037.8528,679.147493 1038.14966,678.85064 L1040.65666,676.34364 L1043.16366,678.85064 C1043.46051,679.147493 1043.9418,679.147493 1044.23866,678.85064 C1044.53551,678.553787 1044.53551,678.072493 1044.23866,677.77564 L1044.23866,677.77564 Z"
                      id="Path"></path>
                <path d="M37.9203142,261.474297 L35.4133142,258.967297 L37.9203142,256.460297 C38.2182718,256.16372 38.2193911,255.681755 37.9228142,255.383797 C37.6262373,255.085839 37.1442718,255.08472 36.8463142,255.381297 L34.3393142,257.888297 L31.8323142,255.381297 C31.640284,255.189267 31.3603938,255.11427 31.0980756,255.184558 C30.8357573,255.254846 30.6308635,255.45974 30.5605756,255.722058 C30.4902876,255.984376 30.565284,256.264267 30.7573142,256.456297 L33.2643142,258.963297 L30.7573142,261.470297 C30.4604612,261.76715 30.4604612,262.248444 30.7573142,262.545297 C31.0541673,262.84215 31.5354612,262.84215 31.8323142,262.545297 L34.3393142,260.038297 L36.8463142,262.545297 C37.1431673,262.84215 37.6244612,262.84215 37.9213142,262.545297 C38.2181673,262.248444 38.2181673,261.76715 37.9213142,261.470297 L37.9203142,261.474297 Z"
                      id="Path"></path>
                <path d="M7.4276571,685.97564 L4.9206571,683.46864 L7.4276571,680.96164 C7.72451008,680.664787 7.72451004,680.183493 7.42765702,679.88664 C7.130804,679.589787 6.64951017,679.589787 6.3526571,679.88664 L3.8456571,682.39364 L1.3386571,679.88664 C1.04180404,679.589787 0.560510207,679.589787 0.263657186,679.88664 C-0.0331958342,680.183493 -0.0331958715,680.664787 0.263657103,680.96164 L2.7706571,683.46864 L0.263657103,685.97564 C-0.0331959499,686.272493 -0.0331959499,686.753787 0.263657103,687.05064 C0.560510156,687.347493 1.04180405,687.347493 1.3386571,687.05064 L3.8456571,684.54364 L6.3526571,687.05064 C6.64951016,687.347493 7.13080403,687.347493 7.42765707,687.05064 C7.72451011,686.753787 7.72451012,686.272493 7.4276571,685.97564 L7.4276571,685.97564 Z"
                      id="Path"></path>
                <path d="M635.782657,141.14564 L633.275657,138.63864 L635.782657,136.13164 C635.974687,135.93961 636.049684,135.659719 635.979396,135.397401 C635.909108,135.135083 635.704214,134.930189 635.441896,134.859901 C635.179578,134.789613 634.899687,134.864609 634.707657,135.05664 L632.200657,137.56364 L629.693657,135.05664 C629.396804,134.759787 628.91551,134.759787 628.618657,135.05664 C628.321804,135.353493 628.321804,135.834787 628.618657,136.13164 L631.118657,138.63864 L628.618657,141.14564 C628.321804,141.442493 628.321804,141.923787 628.618657,142.22064 C628.91551,142.517493 629.396804,142.517493 629.693657,142.22064 L632.200657,139.71364 L634.707657,142.22064 C634.899687,142.41267 635.179578,142.487666 635.441896,142.417378 C635.704214,142.347091 635.909108,142.142197 635.979396,141.879878 C636.049684,141.61756 635.974687,141.33767 635.782657,141.14564 Z"
                      id="Path"></path>
                <path d="M1360.16666,629.23964 L1357.66666,626.73264 L1360.16666,624.22564 C1360.46351,623.928787 1360.46351,623.447493 1360.16666,623.15064 C1359.8698,622.853787 1359.38851,622.853787 1359.09166,623.15064 L1356.58466,625.65764 L1354.07766,623.15064 C1353.7808,622.853787 1353.29951,622.853787 1353.00266,623.15064 C1352.7058,623.447493 1352.7058,623.928787 1353.00266,624.22564 L1355.50966,626.73264 L1353.00266,629.23964 C1352.7058,629.536493 1352.7058,630.017787 1353.00266,630.31464 C1353.29951,630.611493 1353.7808,630.611493 1354.07766,630.31464 L1356.58466,627.81464 L1359.09166,630.31464 C1359.38851,630.611493 1359.8698,630.611493 1360.16666,630.31464 C1360.46351,630.017787 1360.46351,629.536493 1360.16666,629.23964 Z"
                      id="Path"></path>
            </g>
            <g id="Dwarfs" opacity="0.6" style="mix-blend-mode: overlay;" transform="translate(58.103000, 100.521000)"
               fill-rule="nonzero">
                <path d="M1468.157,233.251 C1468.15659,233.876662 1467.77912,234.440396 1467.20078,234.679076 C1466.62243,234.917756 1465.95724,234.784321 1465.51569,234.341053 C1465.07414,233.897784 1464.94329,233.232083 1465.18422,232.654668 C1465.42514,232.077254 1465.99034,231.701977 1466.616,231.703992 C1467.02549,231.704795 1467.4179,231.868229 1467.7069,232.158348 C1467.99589,232.448467 1468.1578,232.841506 1468.157,233.251 Z"
                      id="Path" fill="url(#linearGradient-1)"></path>
                <path d="M1562.918,38.626 C1562.9169,39.8460279 1561.92736,40.8343672 1560.70733,40.8339991 C1559.48731,40.8336308 1558.49837,39.8446944 1558.498,38.6246661 C1558.49763,37.4046377 1559.48597,36.4151046 1560.706,36.4139991 C1561.29282,36.4134687 1561.85576,36.6463474 1562.27071,37.0612931 C1562.68565,37.4762388 1562.91853,38.0391784 1562.918,38.626 Z"
                      id="Path" fill="url(#linearGradient-2)"></path>
                <path d="M729.15,586.535 C729.150809,588.306099 728.08444,589.903217 726.448312,590.581361 C724.812184,591.259506 722.928644,590.88507 721.676287,589.632713 C720.42393,588.380356 720.049494,586.496816 720.727639,584.860688 C721.405783,583.22456 723.002901,582.158191 724.774,582.159 C727.190112,582.160655 729.148345,584.118888 729.15,586.535 Z"
                      id="Path" fill="#FFFFFF"></path>
                <path d="M836.907,349.703 C836.907,353.734679 833.638679,357.003 829.607,357.003 C825.575321,357.003 822.307,353.734679 822.307,349.703 C822.307,345.671321 825.575321,342.403 829.607,342.403 C831.54308,342.403 833.399864,343.172105 834.76888,344.54112 C836.137895,345.910136 836.907,347.76692 836.907,349.703 Z"
                      id="Path" fill="#FFFFFF"></path>
                <path d="M1202.881,368.369 C1202.8806,370.139827 1201.81346,371.736024 1200.17723,372.413222 C1198.54101,373.090421 1196.65796,372.715245 1195.40623,371.462652 C1194.15449,370.21006 1193.78061,368.326754 1194.45893,366.690995 C1195.13725,365.055235 1196.73417,363.989191 1198.505,363.99 C1199.66611,363.99 1200.77961,364.451453 1201.60036,365.272761 C1202.42111,366.094069 1202.8818,367.207893 1202.881,368.369 L1202.881,368.369 Z"
                      id="Path" fill="#FFFFFF"></path>
                <path d="M872.842001,272.961 C872.839791,275.378511 870.878514,277.336655 868.461002,277.335 C866.043491,277.333343 864.084899,275.372513 864.086002,272.955001 C864.087106,270.537489 866.047488,268.578449 868.465,268.579 C869.626556,268.57953 870.740313,269.041534 871.561189,269.863347 C872.382064,270.68516 872.842796,271.799444 872.842001,272.961 L872.842001,272.961 Z"
                      id="Path" fill="#FFFFFF"></path>
                <path d="M1684.128,560.358 C1684.12881,562.128826 1683.06276,563.725755 1681.42701,564.404074 C1679.79125,565.082394 1677.90794,564.708508 1676.65535,563.456774 C1675.40276,562.20504 1675.02758,560.321991 1675.70478,558.685767 C1676.38198,557.049543 1677.97817,555.982405 1679.749,555.982 C1682.16628,555.982 1684.12634,557.940717 1684.128,560.358 L1684.128,560.358 Z"
                      id="Path" fill="#FFFFFF"></path>
                <path d="M1599.866,506.242 C1599.86681,509.192916 1598.08974,511.853678 1595.3636,512.983318 C1592.63746,514.112959 1589.49927,513.488956 1587.41266,511.402344 C1585.32604,509.315731 1584.70204,506.177536 1585.83168,503.4514 C1586.96132,500.725264 1589.62208,498.948191 1592.573,498.949 C1596.60036,498.950104 1599.8649,502.214645 1599.866,506.242 L1599.866,506.242 Z"
                      id="Path" fill="#FFFFFF"></path>
                <path d="M653.448001,650.162 C653.447448,652.579903 651.486903,654.539552 649.069,654.539 C646.651098,654.538447 644.691448,652.577902 644.692,650.16 C644.692552,647.742097 646.653097,645.782448 649.071,645.783 C650.232281,645.782734 651.346045,646.244071 652.167007,647.065407 C652.987969,647.886744 653.448796,649.00072 653.448001,650.162 L653.448001,650.162 Z"
                      id="Path" fill="#FFFFFF"></path>
                <path d="M1508.303,150.886 C1508.303,151.630302 1507.85459,152.301295 1507.16691,152.586034 C1506.47922,152.870772 1505.68773,152.713166 1505.16157,152.186723 C1504.63541,151.660279 1504.47824,150.868698 1504.76335,150.181169 C1505.04846,149.493641 1505.7197,149.045595 1506.464,149.045999 C1506.95207,149.045468 1507.42029,149.239186 1507.76531,149.584397 C1508.11033,149.929608 1508.3038,150.397931 1508.303,150.886 L1508.303,150.886 Z"
                      id="Path" fill="#FFFFFF"></path>
                <path d="M1652.5,7.293 C1652.5011,11.3215263 1649.23653,14.5883416 1645.208,14.5899983 C1641.17947,14.5916538 1637.91221,11.3275238 1637.91,7.2989979 C1637.90779,3.27047203 1641.17147,0.00276130705 1645.2,-1.42108547e-14 C1649.22895,-1.42108547e-14 1652.49614,3.26405527 1652.5,7.293 L1652.5,7.293 Z"
                      id="Path" fill="#FFFFFF"></path>
                <path d="M1682.377,84.081 C1682.3759,85.5307785 1681.20011,86.7053674 1679.75033,86.7049992 C1678.30056,86.704631 1677.12537,85.529445 1677.125,84.0796662 C1677.12463,82.6298873 1678.29922,81.4541046 1679.749,81.4529992 C1680.44615,81.4524688 1681.1149,81.729176 1681.60786,82.2221368 C1682.10082,82.7150976 1682.37753,83.3838484 1682.377,84.081 L1682.377,84.081 Z"
                      id="Path" fill="#FFFFFF"></path>
                <path d="M472.914,174.625999 C474.134027,174.6249 475.124152,175.612645 475.125992,176.832671 C475.127827,178.052697 474.140681,179.043419 472.920656,179.045999 C471.700632,179.048569 470.709313,178.062023 470.705992,176.842 C470.704407,176.255179 470.936267,175.691818 471.350463,175.276122 C471.764658,174.860425 472.327177,174.626529 472.914,174.625999 Z"
                      id="Path" fill="url(#linearGradient-3)"></path>
                <path d="M585.177,229.242 C586.191578,229.243105 587.013367,230.066088 587.012999,231.080666 C587.012631,232.095244 586.190244,232.917631 585.175666,232.917999 C584.161088,232.918367 583.338105,232.096578 583.337,231.082 C583.336735,230.59392 583.530506,230.125755 583.87563,229.78063 C584.220755,229.435506 584.68892,229.241735 585.177,229.242 Z"
                      id="Path" fill="#FFFFFF"></path>
                <path d="M328.143,48.175 C332.170614,48.1777615 335.433919,51.4440505 335.432998,55.4716655 C335.432078,59.4992805 332.167281,62.7640776 328.139666,62.7649983 C324.112051,62.7659186 320.845761,59.5026142 320.843,55.475 C320.843,53.5389196 321.612105,51.6821361 322.98112,50.3131205 C324.350136,48.9441049 326.20692,48.175 328.143,48.175 L328.143,48.175 Z"
                      id="Path" fill="#FFFFFF"></path>
                <path d="M404.928,18.2989992 C405.990886,18.2981911 406.949525,18.9379425 407.356648,19.9197664 C407.763771,20.9015904 407.539143,22.0319947 406.787569,22.7835688 C406.035995,23.5351428 404.90559,23.7597706 403.923766,23.3526481 C402.941942,22.9455255 402.302191,21.9868859 402.302999,20.924 C402.302999,19.4742525 403.478253,18.2989992 404.928,18.2989992 Z"
                      id="Path" fill="#FFFFFF"></path>
                <path d="M1653.959,620.805 C1653.9594,622.575513 1652.89313,624.171896 1651.25747,624.849629 C1649.6218,625.527362 1647.73894,625.152948 1646.48699,623.901006 C1645.23505,622.649064 1644.86064,620.766196 1645.53837,619.130533 C1646.2161,617.494869 1647.81249,616.428596 1649.583,616.429 C1651.99934,616.430104 1653.9579,618.388659 1653.959,620.805 L1653.959,620.805 Z"
                      id="Path" fill="#FFFFFF"></path>
                <path d="M-4.59881775e-07,620.498 C-0.00080890602,618.726901 1.06555997,617.129783 2.70168785,616.451639 C4.33781574,615.773494 6.22135647,616.14793 7.47371303,617.400287 C8.7260696,618.652644 9.10050557,620.536184 8.42236144,622.172312 C7.7442173,623.80844 6.14709945,624.874809 4.376,624.874 C1.95943064,624.873448 0.00055204328,622.914569 -4.59881775e-07,620.498 Z"
                      id="Path" fill="#FFFFFF"></path>
                <path d="M84.2579983,674.611 C84.2579983,670.579321 87.5263213,667.311 91.558,667.311 C95.5896787,667.311 98.858,670.579321 98.858,674.611 C98.858,678.642679 95.5896787,681.911002 91.558,681.911002 C89.6215129,681.912328 87.7639578,681.143649 86.3946543,679.774346 C85.0253508,678.405042 84.2566723,676.547487 84.2579983,674.611 L84.2579983,674.611 Z"
                      id="Path" fill="#FFFFFF"></path>
                <path d="M30.166,560.048 C30.1665523,557.630358 32.126691,555.670816 34.5443333,555.671 C36.9619755,555.671184 38.9218158,557.631024 38.9219999,560.048667 C38.922184,562.466309 36.9626422,564.426448 34.545,564.427 C33.383617,564.427 32.2698012,563.965642 31.4485794,563.144421 C30.6273576,562.323199 30.166,561.209383 30.166,560.048 L30.166,560.048 Z"
                      id="Path" fill="#FFFFFF"></path>
                <path d="M27.491,150.987 C27.491,151.841385 26.7983845,152.534 25.944,152.534 C25.0896155,152.534 24.397,151.841385 24.397,150.987 C24.397,150.132615 25.0896155,149.44 25.944,149.44 C26.7979277,149.441102 27.4898982,150.133072 27.491,150.987 L27.491,150.987 Z"
                      id="Path" fill="url(#linearGradient-2)"></path>
                <path d="M67.6340003,68.622 C67.6344045,69.3655835 67.1867384,70.036155 66.4998342,70.320899 C65.81293,70.6056429 65.022131,70.448455 64.496338,69.922662 C63.970545,69.396869 63.8133571,68.60607 64.098101,67.9191658 C64.382845,67.2322616 65.0534165,66.7845955 65.797,66.7849997 C66.8110902,66.7861023 67.6328977,67.6079098 67.6340003,68.622 L67.6340003,68.622 Z"
                      id="Path" fill="#FFFFFF"></path>
            </g>
        </g>
    </g>
</svg>
