<?xml version="1.0" encoding="UTF-8"?>
<svg width="350px" height="504px" viewBox="0 0 440 704" version="1.1" xmlns="http://www.w3.org/2000/svg">
    <g id="Page-1" stroke="none" stroke-width="1" fill="none" fill-rule="evenodd">
        <g id="8478">
            <path d="M220.652,703.532 C187.927,703.532 155.167,696.302 130.114,681.838 C83.254,654.784 79.995,612.001 120.5,582.913 C125.613,588.296 132.117,593.354 140.01,597.911 C162.312,610.788 191.476,617.224 220.607,617.224 C249.738,617.224 278.836,610.785 300.99,597.911 C308.648,593.461 314.977,588.531 319.975,583.289 C360.264,612.372 357.304,654.899 310.95,681.837 C286.064,696.299 253.376,703.532 220.652,703.532"
                  id="Fill-3" fill="#9DCAE6"></path>
            <path d="M333.981,553.619 C333.95,554.191 333.916,554.764 333.859,555.335 C333.808,555.834 333.74,556.333 333.67,556.832 C333.591,557.4 333.506,557.969 333.402,558.536 C333.309,559.038 333.201,559.54 333.088,560.041 C332.963,560.596 332.833,561.149 332.683,561.702 C332.548,562.204 332.399,562.705 332.244,563.205 C332.073,563.756 331.893,564.305 331.699,564.853 C331.524,565.344 331.336,565.834 331.142,566.324 C330.913,566.9 330.671,567.475 330.416,568.047 C330.201,568.528 329.978,569.009 329.744,569.487 C329.465,570.058 329.169,570.626 328.864,571.193 C328.537,571.8 328.21,572.407 327.852,573.01 C327.769,573.148 327.689,573.288 327.605,573.427 C327.077,574.295 326.513,575.158 325.919,576.016 C325.808,576.177 325.695,576.338 325.581,576.498 C324.976,577.352 324.344,578.201 323.675,579.042 C323.548,579.201 323.413,579.359 323.284,579.519 C322.691,580.248 322.073,580.972 321.431,581.691 C321.256,581.888 321.083,582.085 320.905,582.281 C320.144,583.113 319.355,583.938 318.528,584.754 C318.378,584.902 318.219,585.048 318.067,585.195 C317.44,585.805 316.784,586.405 316.119,587.005 C315.585,587.486 315.035,587.963 314.477,588.438 C313.962,588.875 313.444,589.312 312.909,589.744 C312.328,590.213 311.73,590.678 311.125,591.14 C310.569,591.565 310.009,591.989 309.432,592.408 C308.806,592.864 308.16,593.313 307.508,593.762 C306.911,594.174 306.31,594.585 305.692,594.99 C305.018,595.432 304.324,595.866 303.626,596.299 C302.756,596.839 301.897,597.383 300.99,597.91 C299.288,598.9 297.531,599.838 295.75,600.751 C295.239,601.013 294.72,601.267 294.204,601.521 C292.816,602.208 291.407,602.872 289.976,603.514 C289.498,603.729 289.024,603.949 288.541,604.159 C286.678,604.967 284.787,605.742 282.861,606.476 C282.524,606.604 282.177,606.721 281.838,606.847 C280.209,607.452 278.56,608.03 276.891,608.582 C276.209,608.808 275.525,609.03 274.836,609.247 C273.916,609.537 272.99,609.819 272.058,610.093 C271.277,610.323 270.494,610.549 269.706,610.769 C268.764,611.029 267.817,611.28 266.867,611.525 C266.073,611.73 265.278,611.934 264.477,612.127 C263.514,612.361 262.543,612.581 261.571,612.799 C260.77,612.978 259.97,613.157 259.164,613.325 C258.175,613.531 257.18,613.723 256.184,613.912 C255.421,614.058 254.659,614.205 253.892,614.341 C251.759,614.718 249.614,615.065 247.454,615.368 C247.146,615.411 246.834,615.444 246.527,615.486 C244.648,615.739 242.76,615.963 240.865,616.161 C240.141,616.236 239.416,616.307 238.69,616.374 C237.472,616.487 236.252,616.588 235.031,616.678 C234.263,616.734 233.495,616.791 232.725,616.838 C231.451,616.916 230.174,616.977 228.897,617.03 C228.176,617.061 227.457,617.098 226.736,617.121 C225.63,617.154 224.524,617.169 223.417,617.185 C222.639,617.196 221.861,617.215 221.083,617.217 C219.901,617.22 218.72,617.2 217.539,617.182 C216.833,617.17 216.128,617.171 215.424,617.152 C214.337,617.123 213.252,617.071 212.167,617.024 C211.409,616.992 210.649,616.972 209.892,616.931 C208.717,616.866 207.545,616.776 206.374,616.691 C205.708,616.644 205.041,616.607 204.375,616.553 C202.948,616.435 201.526,616.288 200.105,616.139 C199.703,616.097 199.298,616.065 198.897,616.021 C197.077,615.817 195.263,615.587 193.458,615.332 C193.163,615.29 192.872,615.237 192.577,615.194 C191.031,614.968 189.489,614.729 187.957,614.466 C187.314,614.354 186.68,614.226 186.041,614.107 C184.864,613.892 183.685,613.677 182.518,613.438 C181.909,613.313 181.307,613.172 180.701,613.04 C179.417,612.764 178.138,612.48 176.87,612.176 C176.161,612.005 175.458,611.823 174.754,611.644 C173.599,611.35 172.449,611.049 171.308,610.731 C170.656,610.551 170.006,610.363 169.359,610.174 C167.547,609.646 165.754,609.092 163.983,608.504 C163.667,608.399 163.345,608.304 163.031,608.197 C160.994,607.506 158.991,606.769 157.015,605.998 C156.208,605.684 155.411,605.359 154.615,605.031 C153.986,604.772 153.353,604.518 152.731,604.25 C151.835,603.865 150.957,603.464 150.077,603.063 C149.502,602.8 148.922,602.546 148.356,602.276 C147.392,601.819 146.448,601.341 145.504,600.862 C145.042,600.628 144.571,600.403 144.114,600.164 C142.723,599.436 141.352,598.687 140.01,597.911 C125.984,589.813 116.346,580.133 111.102,569.865 C107.956,563.704 106.39,557.332 106.409,550.964 L106.32684,609.979 C106.278,626.961 117.487,643.97 139.927,656.926 C141.27,657.701 142.639,658.449 144.03,659.178 C144.492,659.42 144.969,659.647 145.437,659.885 C146.375,660.36 147.313,660.835 148.271,661.29 C148.842,661.562 149.426,661.817 150.003,662.081 C150.879,662.481 151.754,662.881 152.646,663.264 C153.272,663.532 153.909,663.789 154.542,664.05 C155.146,664.299 155.741,664.56 156.351,664.801 C156.541,664.875 156.74,664.938 156.929,665.012 C158.907,665.782 160.911,666.521 162.949,667.212 C163.263,667.318 163.584,667.414 163.9,667.519 C165.673,668.106 167.467,668.661 169.281,669.189 C169.582,669.277 169.873,669.382 170.174,669.468 C170.52,669.566 170.875,669.648 171.221,669.745 C172.366,670.063 173.52,670.365 174.679,670.66 C175.379,670.838 176.079,671.02 176.785,671.189 C178.052,671.494 179.332,671.777 180.615,672.055 C181.094,672.158 181.566,672.278 182.047,672.378 C182.177,672.405 182.309,672.426 182.439,672.452 C183.601,672.69 184.774,672.905 185.946,673.12 C186.59,673.238 187.228,673.368 187.875,673.48 C189.407,673.745 190.949,673.982 192.495,674.209 C192.775,674.25 193.051,674.301 193.333,674.341 L193.375,674.346 C195.18,674.602 196.995,674.831 198.815,675.035 C199.219,675.08 199.626,675.111 200.032,675.154 C201.45,675.304 202.869,675.449 204.293,675.567 L204.398,675.577 C205.034,675.63 205.673,675.661 206.31,675.707 C207.475,675.792 208.639,675.881 209.807,675.944 C210.567,675.986 211.329,676.007 212.09,676.039 C213.175,676.086 214.259,676.139 215.345,676.167 L215.61,676.178 C216.217,676.192 216.825,676.187 217.432,676.195 C218.623,676.214 219.813,676.234 221.004,676.231301 C221.779,676.229 222.552,676.211 223.327,676.199 C224.436,676.184 225.545,676.17 226.654,676.135 C226.859,676.129 227.063,676.13 227.267,676.123 C227.783,676.105 228.296,676.067 228.812,676.046 C230.09,675.991 231.368,675.932 232.644,675.853 C233.413,675.805 234.179,675.749 234.947,675.692 C236.17,675.603 237.391,675.501 238.611,675.389 C239.037,675.349 239.465,675.324 239.89,675.282 C240.189,675.252 240.484,675.207 240.782,675.176 C242.677,674.978 244.564,674.755 246.443,674.501 C246.752,674.459 247.063,674.427 247.372,674.383 C249.532,674.08 251.677,673.733 253.809,673.355 C254.008,673.32 254.211,673.296 254.411,673.26 C254.979,673.157 255.538,673.034 256.103,672.927 C257.098,672.737 258.092,672.547 259.08,672.341 C259.888,672.172 260.691,671.991 261.495,671.812 C262.463,671.595 263.431,671.376 264.392,671.143 C265.196,670.948 265.993,670.744 266.791,670.538 C267.738,670.294 268.68,670.044 269.618,669.784 C270.411,669.564 271.197,669.337 271.983,669.105 C272.91,668.833 273.832,668.553 274.749,668.264 C275.15,668.137 275.561,668.024 275.96,667.895 C276.25,667.801 276.526,667.69 276.814,667.596 C278.477,667.045 280.122,666.468 281.746,665.865 C282.089,665.737 282.44,665.619 282.781,665.489 C284.706,664.757 286.595,663.982 288.457,663.175 C288.942,662.964 289.417,662.742 289.898,662.526 C291.327,661.886 292.734,661.223 294.12,660.538 C294.637,660.281 295.157,660.027 295.668,659.766 C297.449,658.852 299.206,657.914 300.907,656.926 C301.375,656.653 301.838,656.38 302.296,656.104 C302.726,655.846 303.123,655.575 303.543,655.313 C304.242,654.88 304.936,654.446 305.61,654.005 C306.228,653.6 306.828,653.188 307.426,652.776 C308.078,652.328 308.723,651.879 309.35,651.423 C309.927,651.004 310.486,650.58 311.042,650.154 C311.647,649.691 312.247,649.228 312.827,648.759 C313.361,648.327 313.879,647.891 314.394,647.453 C314.953,646.978 315.503,646.501 316.038,646.019 C316.257,645.82 316.497,645.629 316.712,645.43 C317.149,645.026 317.564,644.618 317.985,644.211 C318.137,644.063 318.295,643.917 318.446,643.769 C319.272,642.953 320.061,642.128 320.822,641.297 C321.001,641.101 321.174,640.902 321.351,640.704 C321.993,639.984 322.612,639.26 323.205,638.529 C323.333,638.372 323.466,638.216 323.591,638.059 L323.772,637.839 C324.377,637.069 324.947,636.294 325.498,635.514 C325.612,635.353 325.726,635.19 325.838,635.028 C326.431,634.173 326.994,633.311 327.521,632.443 C327.607,632.303 327.688,632.162 327.772,632.021 C327.966,631.692 328.167,631.366 328.353,631.037 C328.508,630.764 328.632,630.484 328.781,630.21 C329.086,629.642 329.383,629.073 329.663,628.501 C329.896,628.022 330.119,627.544 330.333,627.063 C330.589,626.489 330.832,625.914 331.06,625.337 C331.163,625.079 331.289,624.823 331.385,624.565 C331.472,624.335 331.534,624.101 331.616,623.869 C331.811,623.32 331.991,622.77 332.162,622.219 C332.317,621.719 332.466,621.219 332.601,620.718 C332.75,620.164 332.881,619.61 333.006,619.056 C333.073,618.756 333.165,618.458 333.224,618.157 C333.265,617.956 333.283,617.753 333.32,617.552 C333.424,616.982 333.508,616.414 333.588,615.845 C333.658,615.347 333.726,614.849 333.776,614.351 C333.833,613.777 333.868,613.204 333.899,612.631 C333.917,612.296 333.961,611.962 333.971,611.627 C333.98,611.294 333.986,610.961 333.987,610.627 L334.069,551.612 C334.069,552.281 334.018,552.95 333.981,553.619"
                  id="Fill-4" fill="#5F72A1"></path>
            <path d="M300.464,504.665 C345.07,530.418 345.295,572.163 300.99,597.911 C256.683,623.658 184.615,623.664 140.01,597.911 C95.414,572.164 95.179,530.414 139.485,504.666 C183.791,478.918 255.869,478.918 300.464,504.665"
                  id="Fill-5" fill="#25366B"></path>
            <path d="M220.631,652.241 C253.393,652.241 284.231,645.16 307.464,632.304 C318.782,626.04 327.706,618.738 333.985,610.74 L333.987,610.627 L334.017,588.496 C331.148,601.549 320.259,613.793 302.623,623.554 C257.495,648.526 183.821,648.522 138.392,623.548 C120.218,613.558 109.083,600.964 106.358,587.564 L106.327,609.978 L106.33,610.125 C112.721,618.367 121.889,625.888 133.574,632.312 C156.955,645.164 187.872,652.242 220.631,652.241"
                  id="Fill-6" fill="#FFFFFF"></path>
            <path d="M217.696,646.039 C217.696,653.241 211.857,659.08 204.656,659.08 C197.454,659.08 191.615,653.241 191.615,646.039 C191.615,638.838 197.454,632.999 204.656,632.999 C211.857,632.999 217.696,638.838 217.696,646.039"
                  id="Fill-7" fill="#25366B"></path>
            <path d="M248.863,646.039 C248.863,653.241 243.024,659.08 235.822,659.08 C228.621,659.08 222.782,653.241 222.782,646.039 C222.782,638.838 228.621,632.999 235.822,632.999 C243.024,632.999 248.863,638.838 248.863,646.039"
                  id="Fill-8" fill="#C8E3F2"></path>
            <path d="M316.963,507.901 C316.936,508.388 316.908,508.874 316.859,509.359 C316.817,509.784 316.757,510.208 316.699,510.632 C316.631,511.115 316.56,511.599 316.471,512.081 C316.392,512.508 316.299,512.935 316.204,513.36 C316.098,513.831 315.987,514.303 315.86,514.772 C315.746,515.199 315.618,515.625 315.486,516.05 C315.341,516.518 315.189,516.984 315.023,517.45 C314.875,517.868 314.714,518.285 314.549,518.701 C314.355,519.19 314.15,519.679 313.932,520.166 C313.75,520.575 313.56,520.983 313.361,521.391 C313.125,521.875 312.873,522.358 312.613,522.841 C312.334,523.356 312.057,523.872 311.752,524.385 C311.682,524.503 311.615,524.621 311.543,524.739 C311.094,525.478 310.615,526.211 310.111,526.939 C310.015,527.076 309.919,527.214 309.823,527.35 C309.309,528.076 308.771,528.798 308.203,529.513 C308.094,529.648 307.98,529.782 307.87,529.917 C307.366,530.537 306.84,531.153 306.295,531.765 C306.146,531.932 306,532.1 305.847,532.266 C305.201,532.973 304.53,533.675 303.827,534.368 C303.7,534.494 303.565,534.618 303.435,534.744 C302.902,535.261 302.344,535.772 301.779,536.281 C301.326,536.69 300.858,537.096 300.383,537.499 C299.946,537.871 299.504,538.242 299.05,538.61 C298.556,539.009 298.047,539.403 297.534,539.796 C297.061,540.158 296.585,540.519 296.095,540.875 C295.562,541.263 295.013,541.645 294.459,542.025 C293.951,542.375 293.441,542.725 292.916,543.07 C292.343,543.445 291.752,543.814 291.159,544.183 C290.419,544.642 289.689,545.104 288.917,545.552 C287.471,546.394 285.978,547.19 284.463,547.967 C284.03,548.189 283.588,548.405 283.15,548.622 C281.969,549.206 280.772,549.77 279.556,550.315 C279.149,550.497 278.747,550.686 278.335,550.864 C276.752,551.551 275.144,552.21 273.507,552.833 C273.22,552.942 272.926,553.042 272.638,553.148 C271.253,553.663 269.851,554.154 268.433,554.624 C267.853,554.815 267.271,555.005 266.686,555.189 C265.903,555.436 265.116,555.676 264.325,555.908 C263.661,556.104 262.994,556.296 262.324,556.482 C261.524,556.704 260.719,556.917 259.911,557.126 C259.236,557.3 258.56,557.473 257.879,557.638 C257.061,557.836 256.236,558.023 255.41,558.208 C254.729,558.36 254.048,558.513 253.363,558.656 C252.523,558.831 251.676,558.993 250.83,559.155 C250.181,559.278 249.534,559.404 248.881,559.52 C247.069,559.84 245.245,560.135 243.409,560.393 C243.147,560.43 242.882,560.457 242.621,560.492 C241.023,560.708 239.418,560.898 237.807,561.066 C237.192,561.131 236.576,561.19 235.958,561.247 C234.923,561.344 233.887,561.429 232.848,561.506 C232.195,561.554 231.542,561.602 230.888,561.642 C229.805,561.709 228.719,561.76 227.633,561.806 C227.021,561.831 226.41,561.863 225.796,561.882 C224.857,561.911 223.917,561.924 222.975,561.937 C222.314,561.946 221.653,561.963 220.992,561.964 C219.987,561.967 218.983,561.949 217.978,561.934 C217.379,561.925 216.78,561.925 216.181,561.909 C215.257,561.885 214.334,561.84 213.412,561.801 C212.767,561.772 212.122,561.756 211.478,561.721 C210.479,561.666 209.484,561.59 208.488,561.518 C207.921,561.477 207.354,561.446 206.789,561.399 C205.575,561.299 204.366,561.175 203.159,561.047 C202.817,561.012 202.473,560.985 202.132,560.947 C200.584,560.773 199.042,560.579 197.507,560.361 C197.256,560.326 197.009,560.281 196.758,560.244 C195.445,560.052 194.133,559.85 192.832,559.625 C192.286,559.531 191.747,559.421 191.203,559.321 C190.202,559.137 189.201,558.954 188.208,558.751 C187.69,558.646 187.179,558.525 186.664,558.414 C185.573,558.179 184.485,557.938 183.407,557.679 C182.804,557.533 182.207,557.379 181.609,557.227 C180.626,556.977 179.649,556.721 178.679,556.451 C178.125,556.297 177.573,556.138 177.022,555.978 C175.482,555.528 173.958,555.057 172.453,554.558 C172.184,554.469 171.91,554.387 171.643,554.297 C169.911,553.709 168.208,553.082 166.529,552.428 C165.843,552.16 165.165,551.884 164.489,551.605 C163.954,551.386 163.416,551.169 162.887,550.941 C162.126,550.614 161.378,550.272 160.63,549.932 C160.143,549.709 159.65,549.492 159.167,549.264 C158.348,548.875 157.546,548.468 156.744,548.062 C156.351,547.862 155.95,547.671 155.562,547.468 C154.379,546.849 153.214,546.212 152.073,545.553 C140.15,538.669 131.958,530.44 127.5,521.711 C124.825,516.475 123.495,511.058 123.509,505.644 L123.439868,536.935 C123.399,551.371 132.926,565.83 152.003,576.844 C153.144,577.503 154.308,578.139 155.49,578.758 C155.883,578.964 156.289,579.157 156.686,579.358 C157.484,579.763 158.282,580.167 159.096,580.554 C159.582,580.784 160.078,581.002 160.569,581.227 C161.313,581.566 162.057,581.906 162.815,582.231 C163.347,582.46 163.888,582.678 164.426,582.899 C164.94,583.111 165.446,583.333 165.964,583.538 C166.125,583.602 166.294,583.654 166.457,583.717 C168.137,584.372 169.84,585 171.573,585.587 C171.84,585.678 172.114,585.759 172.381,585.848 C173.888,586.348 175.415,586.82 176.956,587.27 C177.211,587.344 177.458,587.432 177.715,587.505 C178.008,587.589 178.31,587.659 178.605,587.74 C179.579,588.011 180.559,588.269 181.544,588.519 C182.14,588.67 182.734,588.824 183.334,588.969 C184.413,589.228 185.5,589.469 186.59,589.704 C186.999,589.792 187.399,589.895 187.808,589.979 C187.918,590.002 188.031,590.02 188.141,590.043 C189.128,590.245 190.125,590.427 191.123,590.61 C191.669,590.711 192.212,590.821 192.762,590.916 C194.064,591.141 195.375,591.343 196.689,591.535 C196.927,591.57 197.163,591.614 197.401,591.647 L197.438,591.652 C198.972,591.869 200.514,592.064 202.062,592.238 C202.406,592.276 202.751,592.303 203.096,592.339 C204.301,592.466 205.507,592.59 206.718,592.69 L206.808,592.699 C207.348,592.743 207.892,592.771 208.433,592.81 C209.423,592.881 210.413,592.957 211.406,593.011 C212.052,593.047 212.7,593.064 213.347,593.092 C214.269,593.131 215.191,593.176 216.114,593.2 L216.338,593.209 C216.855,593.222 217.372,593.217 217.888,593.225 C218.9,593.24 219.912,593.258 220.924,593.255331 C221.583,593.254 222.241,593.237 222.899,593.228 C223.842,593.215 224.785,593.202 225.727,593.173 C225.901,593.168 226.075,593.169 226.249,593.163 C226.687,593.147 227.124,593.115 227.561,593.097 C228.649,593.051 229.735,593 230.819,592.933 C231.472,592.893 232.125,592.845 232.777,592.797 C233.817,592.72 234.855,592.635 235.891,592.538 C236.253,592.505 236.618,592.483 236.979,592.447 C237.233,592.423 237.483,592.384 237.737,592.357 C239.348,592.189 240.953,591.999 242.549,591.783 C242.812,591.748 243.077,591.721 243.338,591.684 C245.175,591.426 246.999,591.131 248.811,590.811 C248.98,590.78 249.153,590.759 249.322,590.729 C249.805,590.642 250.28,590.537 250.761,590.445 C251.607,590.284 252.452,590.122 253.291,589.947 C253.979,589.805 254.661,589.65 255.344,589.498 C256.168,589.313 256.991,589.127 257.807,588.93 C258.491,588.764 259.168,588.59 259.846,588.415 C260.651,588.208 261.453,587.995 262.25,587.774 C262.923,587.587 263.592,587.395 264.259,587.197 C265.048,586.966 265.832,586.728 266.611,586.481 C266.953,586.374 267.302,586.278 267.641,586.168 C267.887,586.088 268.122,585.994 268.367,585.914 C269.781,585.445 271.179,584.955 272.559,584.442 C272.851,584.334 273.149,584.233 273.439,584.123 C275.076,583.501 276.681,582.842 278.263,582.155 C278.676,581.977 279.08,581.788 279.489,581.604 C280.704,581.06 281.9,580.497 283.078,579.914 C283.518,579.696 283.959,579.48 284.395,579.258 C285.909,578.481 287.401,577.684 288.848,576.844 C289.246,576.612 289.639,576.379 290.029,576.145 C290.394,575.925 290.731,575.695 291.089,575.474 C291.682,575.104 292.273,574.736 292.845,574.36 C293.372,574.016 293.881,573.666 294.39,573.316 C294.943,572.935 295.493,572.554 296.025,572.166 C296.515,571.81 296.991,571.449 297.463,571.087 C297.978,570.694 298.487,570.3 298.981,569.9 C299.435,569.534 299.875,569.163 300.312,568.791 C300.788,568.387 301.255,567.981 301.71,567.571 C301.897,567.403 302.1,567.24 302.284,567.071 C302.655,566.729 303.007,566.381 303.365,566.035 C303.495,565.909 303.629,565.785 303.757,565.659 C304.459,564.966 305.13,564.265 305.777,563.558 C305.929,563.391 306.077,563.223 306.226,563.055 C306.772,562.442 307.298,561.826 307.802,561.205 C307.911,561.071 308.025,560.939 308.131,560.806 L308.285,560.618 C308.799,559.964 309.283,559.305 309.751,558.642 C309.849,558.505 309.946,558.367 310.042,558.229 C310.544,557.502 311.023,556.77 311.472,556.032 C311.544,555.912 311.614,555.792 311.685,555.673 C311.85,555.394 312.021,555.116 312.179,554.836 C312.311,554.604 312.417,554.366 312.542,554.133 C312.802,553.65 313.054,553.167 313.292,552.681 C313.491,552.273 313.679,551.866 313.862,551.458 C314.08,550.97 314.286,550.481 314.48,549.99 C314.568,549.771 314.674,549.555 314.756,549.335 C314.831,549.139 314.882,548.94 314.953,548.743 C315.119,548.276 315.271,547.809 315.417,547.34 C315.548,546.915 315.675,546.49 315.791,546.063 C315.917,545.594 316.029,545.123 316.134,544.651 C316.191,544.396 316.269,544.143 316.32,543.888 C316.354,543.717 316.37,543.544 316.401,543.372 C316.49,542.889 316.562,542.405 316.629,541.921 C316.688,541.498 316.747,541.075 316.789,540.651 C316.837,540.165 316.867,539.678 316.893,539.189 C316.909,538.905 316.946,538.621 316.955,538.336 C316.962,538.053 316.967,537.77 316.968,537.486 L317.038,506.195 C317.038,506.764 316.995,507.333 316.963,507.901"
                  id="Fill-9" fill="#000D2A"></path>
            <path d="M288.471,466.287 C326.389,488.179 326.581,523.665 288.917,545.553 C251.254,567.439 189.991,567.444 152.073,545.553 C114.164,523.666 113.963,488.175 151.626,466.287 C189.29,444.399 250.562,444.399 288.471,466.287"
                  id="Fill-10" fill="#5F72A1"></path>
            <path d="M248.124,489.735 C263.608,498.676 263.686,513.167 248.305,522.104 C232.925,531.043 207.907,531.045 192.423,522.106 C176.942,513.167 176.86,498.674 192.241,489.735 C207.622,480.798 232.642,480.798 248.124,489.735"
                  id="Fill-11" fill="#25366B"></path>
            <path d="M283.975,463.848 C265.685,454.53 242.808,449.871 219.957,449.871 C197.175,449.871 174.42,454.502 156.261,463.763 L0.793,210.7 L0.793,210.699 C0.793,210.699 71.181,153.714 219.291,153.714 C367.401,153.714 439.206,210.691 439.206,210.691 L283.975,463.848"
                  id="Fill-12" fill="#0556C3" opacity="0.370814732"></path>
            <path d="M180.941,503.639 L180.758,503.639 L156.261,463.763 C174.42,454.502 197.175,449.871 219.957,449.871 C242.808,449.871 265.685,454.53 283.975,463.848 L259.577,503.639 C258.677,498.561 254.856,493.623 248.124,489.735 C240.383,485.267 230.257,483.032 220.144,483.032 C210.031,483.032 199.931,485.267 192.241,489.735 C185.55,493.624 181.785,498.563 180.941,503.639"
                  id="Fill-13" fill="#4B6599"></path>
            <path d="M259.577,503.639 L180.941,503.639 C181.785,498.563 185.55,493.624 192.241,489.735 C199.931,485.267 210.031,483.032 220.144,483.032 C230.257,483.032 240.383,485.267 248.124,489.735 C254.856,493.623 258.677,498.561 259.58,503.634 L259.577,503.639"
                  id="Fill-14" fill="#1D3066"></path>
            <polyline id="Fill-15" fill="#EEF9FF"
                      points="359.32 80.642 221.357 160.817 82.492 80.644 220.455 0.468 359.32 80.642"></polyline>
            <polyline id="Fill-16" fill="#000D2A"
                      points="359.32 80.642 357.963 253.762 220 333.938 221.357 160.817 359.32 80.642"></polyline>
            <polyline id="Fill-17" fill="#5F72A1"
                      points="221.357 160.817 220 333.938 81.135 253.763 82.492 80.644 221.357 160.817"></polyline>
        </g>
    </g>
</svg>
