<?xml version="1.0" encoding="UTF-8"?>
<svg width="255px" height="595px" viewBox="0 0 255 595" version="1.1" xmlns="http://www.w3.org/2000/svg" xmlns:xlink="http://www.w3.org/1999/xlink">
    <!-- Generator: Sketch 61.2 (89653) - https://sketch.com -->
    <title>rocket</title>
    <desc>Created with Sketch.</desc>
    <defs>
        <linearGradient x1="-28574.4%" y1="-2189.1126%" x2="-28574.5%" y2="-2290.05082%" id="linearGradient-1">
            <stop stop-color="#FFFFFF" offset="0%"></stop>
            <stop stop-color="#EFF6FF" offset="12.9%"></stop>
            <stop stop-color="#C5DEFF" offset="51.5%"></stop>
            <stop stop-color="#ABD0FF" offset="81.9%"></stop>
            <stop stop-color="#A2CBFF" offset="100%"></stop>
        </linearGradient>
        <linearGradient x1="-20597.7304%" y1="5393.4%" x2="-20497.0593%" y2="5393.2%" id="linearGradient-2">
            <stop stop-color="#FC7200" offset="0%"></stop>
            <stop stop-color="#FCA12E" offset="49.9%"></stop>
            <stop stop-color="#FDD661" offset="100%"></stop>
        </linearGradient>
        <linearGradient x1="34531.0915%" y1="5350.8%" x2="34430.2259%" y2="5350.7%" id="linearGradient-3">
            <stop stop-color="#FDD661" offset="0%"></stop>
            <stop stop-color="#FCA12E" offset="50.1%"></stop>
            <stop stop-color="#FC7200" offset="100%"></stop>
        </linearGradient>
        <linearGradient x1="-9.82753365%" y1="28.5%" x2="110.230413%" y2="85.6%" id="linearGradient-4">
            <stop stop-color="#FFFFFF" offset="0%"></stop>
            <stop stop-color="#FBFCFF" offset="20.9%"></stop>
            <stop stop-color="#EFF6FF" offset="41.6%"></stop>
            <stop stop-color="#DBEAFF" offset="62.3%"></stop>
            <stop stop-color="#BFDBFF" offset="82.7%"></stop>
            <stop stop-color="#A2CBFF" offset="100%"></stop>
        </linearGradient>
        <linearGradient x1="18%" y1="40.0837448%" x2="83.6%" y2="118.824702%" id="linearGradient-5">
            <stop stop-color="#FDD661" offset="0%"></stop>
            <stop stop-color="#FCA12E" offset="50.1%"></stop>
            <stop stop-color="#FC7200" offset="100%"></stop>
        </linearGradient>
        <linearGradient x1="-8612.5%" y1="31197.1802%" x2="-8513.6%" y2="31212.3758%" id="linearGradient-6">
            <stop stop-color="#FCC715" offset="0%"></stop>
            <stop stop-color="#FCBF19" offset="8.3%"></stop>
            <stop stop-color="#FCA628" offset="43.1%"></stop>
            <stop stop-color="#FC9731" offset="74.6%"></stop>
            <stop stop-color="#FD9235" offset="100%"></stop>
        </linearGradient>
        <linearGradient x1="-32476.1%" y1="-592.284155%" x2="-32405.2%" y2="-521.774916%" id="linearGradient-7">
            <stop stop-color="#2559CD" offset="0%"></stop>
            <stop stop-color="#2255CB" offset="35.2%"></stop>
            <stop stop-color="#1A49C7" offset="69.2%"></stop>
            <stop stop-color="#0F38C1" offset="100%"></stop>
        </linearGradient>
        <linearGradient x1="-33858.1%" y1="-662.797451%" x2="-33807.5%" y2="-607.914011%" id="linearGradient-8">
            <stop stop-color="#0F38C1" offset="0%"></stop>
            <stop stop-color="#133EC3" offset="34.8%"></stop>
            <stop stop-color="#2051CA" offset="84.8%"></stop>
            <stop stop-color="#2559CD" offset="100%"></stop>
        </linearGradient>
        <linearGradient x1="-70364.182%" y1="5533.4%" x2="-70040.3217%" y2="5585.5%" id="linearGradient-9">
            <stop stop-color="#FDD661" offset="0%"></stop>
            <stop stop-color="#FCA12E" offset="50.1%"></stop>
            <stop stop-color="#FC7200" offset="100%"></stop>
        </linearGradient>
    </defs>
    <g id="Page-1" stroke="none" stroke-width="1" fill="none" fill-rule="evenodd">
        <g id="rocket" fill-rule="nonzero">
            <path d="M127.501489,343.5 C114.903585,343.5 102.821388,348.471743 93.9130447,357.323601 C85.0047018,366.17546 80,378.181489 80,390.700299 C80,458.47175 127.501489,502.792502 127.501489,594.5 C127.501489,502.792502 175,458.486547 175,390.700299 C175,364.632294 153.734192,343.5 127.501489,343.5 L127.501489,343.5 Z" id="Path" fill="#FFFFFF" opacity="0.5" style="mix-blend-mode: soft-light;"></path>
            <path d="M128.001498,343.5 C110.328729,343.5 96.0016551,357.644033 96,375.092652 C96,420.465109 128.001498,450.122611 128.001498,511.5 C128.001498,450.116693 160,420.459191 160,375.092652 C160,357.644512 145.673783,343.5 128.001498,343.5 Z" id="Path" fill="#FFFFFF" style="mix-blend-mode: soft-light;"></path>
            <path d="M159.386806,355.5 L94.4979336,355.173094 C93.0322325,355.166021 91.629406,354.574051 90.5982697,353.527501 C89.5671333,352.480951 88.9922162,351.065612 89,349.593056 L89.0592281,337.5 L165,337.883293 L164.940851,349.976349 C164.92456,353.042203 162.438386,355.514741 159.386806,355.5 Z" id="Path" fill="url(#linearGradient-1)"></path>
            <path d="M207.549546,229.5 L249.481443,288.315062 C254.511237,295.369632 256.210036,304.258944 254.134604,312.663662 L234.340112,392.824833 C234.040241,394.036823 233.118676,394.999558 231.918498,395.35463 C230.718321,395.709702 229.419324,395.403918 228.505102,394.551117 L165,336.849405 L207.549546,229.5 Z" id="Path" fill="url(#linearGradient-2)"></path>
            <path d="M48.0754483,229.5 L5.64786144,288.087217 C0.559278119,295.115461 -1.20325918,304.001697 0.819915195,312.428416 L20.119794,392.790232 C20.4091767,394.007182 21.3251564,394.979966 22.5261931,395.345862 C23.7272299,395.711759 25.0330624,395.415852 25.956787,394.568476 L90,337.240849 L48.0754483,229.5 Z" id="Path" fill="url(#linearGradient-3)"></path>
            <path d="M129.008209,0.5 C56.7583581,59.1255863 16.7257028,244.515769 74.8416541,332.639494 C76.4412135,335.267368 79.2620166,336.915216 82.3446147,337.022549 L172.552762,337.5 C175.634126,337.425004 178.469854,335.807042 180.094413,333.197014 C239.058576,245.693085 200.692584,59.8877278 129.008209,0.5 Z" id="Path" fill="url(#linearGradient-4)"></path>
            <path d="M128.244361,1.5 C102.038028,22.6441465 80.1162552,60.3465695 65.484809,103.984867 C42.2185089,102.880587 190,104.5 190,104.5 C175.771912,60.7669656 154.217643,22.895792 128.244361,1.5 Z" id="Path" fill="url(#linearGradient-5)"></path>
            <ellipse id="Oval" fill="url(#linearGradient-6)" transform="translate(127.817889, 179.569600) rotate(-43.946590) translate(-127.817889, -179.569600) " cx="127.817889" cy="179.5696" rx="41.5170116" ry="41.5110681"></ellipse>
            <path d="M160.628472,175.052691 C163.359402,193.350222 150.741163,210.397308 132.444834,213.128441 C114.148505,215.859574 97.1025191,203.240531 94.3715412,184.943007 C91.6405633,166.645482 104.258757,149.598363 122.555079,146.867182 C131.341313,145.555618 140.288669,147.788329 147.428819,153.07414 C154.56897,158.359951 159.317029,166.265875 160.628472,175.052691 Z" id="Path" fill="url(#linearGradient-7)"></path>
            <path d="M161.622926,174.954004 C160.504404,167.506644 156.880725,160.651713 151.339079,155.5 C151.375016,156.413947 151.449884,157.321958 151.554699,158.212166 C152.463765,162.285539 152.526937,166.499592 151.740371,170.597922 C150.579644,174.34236 147.722418,177.335892 144.01401,178.692876 C138.77925,180.562312 132.66704,178.862016 127.596989,181.13798 C121.42189,183.909493 118.786542,191.6543 112.680321,194.574181 C109.714872,195.837698 106.435208,196.191196 103.264941,195.589017 C101.005864,195.3246 98.8508469,194.498843 97,193.188424 C103.727119,208.688943 121.021267,216.832334 137.398684,212.211177 C153.776102,207.590019 164.146183,191.640712 161.622926,174.954004 L161.622926,174.954004 Z" id="Path" fill="url(#linearGradient-8)"></path>
            <g id="Group" opacity="0.4" style="mix-blend-mode: overlay;" transform="translate(101.000000, 150.500000)" fill="#FFFFFF">
                <path d="M27.651,0.641 C26.925,0.641 26.199,0.677 25.467,0.74 C23.9534042,0.861022708 22.8052892,2.1553666 22.8657203,3.67259 C22.9261514,5.1898134 24.1735736,6.38874291 25.692,6.389 L25.956,6.389 C26.532,6.338 27.111,6.317 27.684,6.311 C28.4350725,6.30783149 29.1539882,6.0058065 29.6819765,5.47162644 C30.2099648,4.93744638 30.503588,4.21505842 30.498,3.464 C30.4815817,1.90239496 29.2126881,0.644198008 27.651,0.641 L27.651,0.641 Z" id="Path"></path>
                <path d="M18.15,2.699 C17.4606469,2.40478384 16.6827117,2.3961521 15.987,2.675 C8.74868007,5.59309115 3.0307097,11.3620567 0.177,18.626 C-0.335037334,20.0678781 0.390814467,21.6557433 1.81623133,22.211964 C3.24164819,22.7681847 4.85112413,22.0916021 5.451,20.684 C7.70025238,14.8523937 12.2848151,10.2264992 18.096,7.925 C19.1593544,7.49994334 19.8610734,6.47518247 19.8730575,5.33008169 C19.8847379,4.18498091 19.2043441,3.14593874 18.15,2.699 L18.15,2.699 Z" id="Path"></path>
            </g>
            <path d="M75.1984463,317.639505 C77.2907528,324.300182 79.5623998,330.925287 82.0970796,337.5 L121.73732,337.5 C121.045863,336.397298 120.360383,335.275822 119.680882,334.135573 C117.986113,331.266176 116.357103,328.295995 114.760972,325.293206 C111.598601,319.260952 108.696273,313.018235 105.943395,306.68659 C100.525614,293.867829 96.001575,280.695341 92.4031834,267.262026 C85.1279234,239.997548 81.5494581,211.893032 81.7623106,183.690842 C81.8259709,169.436972 82.8334421,155.202632 84.7782209,141.079706 L85.459715,135.744051 L86.3773408,130.452859 L88.2305266,119.846762 L90.5559757,109.317735 L91.7246783,104.041365 L93.1235347,98.82428 C100.56662,70.7347744 110.913611,43.4822522 124,17.5 C108.049721,42.2557023 94.7216832,68.5797436 84.2282432,96.0527035 L82.228596,101.231253 L80.4620916,106.486874 L76.9231046,117.030722 L73.8504032,127.728711 L72.3230194,133.094009 L71.0287784,138.515627 C60.1444044,182.489815 58.0958441,228.158864 64.9999468,272.917821 C67.3609171,288.039418 70.7684676,302.981949 75.1984463,317.639505 L75.1984463,317.639505 Z" id="Path" fill="#FFFFFF" style="mix-blend-mode: soft-light;"></path>
            <path d="M127.04436,414.5 L127.04436,414.5 C120.528922,414.470067 115.234384,409.289801 115.131835,402.844471 L114.018682,322.710146 C113.857808,312.800403 114.736273,302.900875 116.639976,293.170458 L124.396134,253.5 L131.278528,253.532565 L138.633712,293.265193 C140.437409,303.01484 141.213591,312.923352 140.949787,322.831526 L139.061617,402.951048 C138.900427,409.394877 133.559476,414.527644 127.04436,414.5 Z" id="Path" fill="url(#linearGradient-9)"></path>
        </g>
    </g>
</svg>