<?xml version="1.0" encoding="UTF-8"?>
<svg width="1514px" height="1717px" viewBox="0 0 1514 1717" version="1.1" xmlns="http://www.w3.org/2000/svg" xmlns:xlink="http://www.w3.org/1999/xlink">
    <!-- Generator: Sketch 61.2 (89653) - https://sketch.com -->
    <title>ship</title>
    <desc>Created with Sketch.</desc>
    <g id="Page-1" stroke="none" stroke-width="1" fill="none" fill-rule="evenodd">
        <g id="ship" transform="translate(0.000000, 2.000000)">
            <polyline id="Fill-3" fill="#FFFFFE" points="418.032 545.731 426.697 555.736 439.856 554.278 433.01 565.604 438.464 577.668 425.574 574.664 415.785 583.577 414.672 570.388 403.165 563.839 415.363 558.692 418.032 545.731"></polyline>
            <polyline id="Fill-4" fill="#FFFFFE" points="1315.61 804.54 1316.74 812.26 1323.74 815.71 1316.74 819.17 1315.62 826.9 1310.17 821.31 1302.48 822.63 1306.11 815.72 1302.47 808.81 1310.17 810.13 1315.61 804.54"></polyline>
            <polyline id="Fill-5" fill="#FFFFFE" points="644.992 452.694 646.12 460.417 653.124 463.871 646.131 467.327 645.007 475.058 639.548 469.464 631.854 470.79 635.487 463.878 631.854 456.971 639.543 458.282 644.992 452.694"></polyline>
            <polyline id="Fill-6" fill="#FFFFFE" points="760.41 492.063 761.54 499.787 768.55 503.243 761.55 506.699 760.42 514.428 754.97 508.837 747.28 510.161 750.9 503.246 747.27 496.344 754.96 497.655 760.41 492.063"></polyline>
            <polyline id="Fill-7" fill="#FFFFFE" points="482.221 1092.85 483.344 1100.57 490.348 1104.02 483.349 1107.48 482.226 1115.21 476.776 1109.62 469.082 1110.95 472.716 1104.03 469.076 1097.13 476.771 1098.44 482.221 1092.85"></polyline>
            <polyline id="Fill-8" fill="#FFFFFE" points="1221.82 448.729 1223.73 461.822 1235.6 467.678 1223.74 473.538 1221.84 486.641 1212.6 477.167 1199.55 479.408 1205.7 467.692 1199.54 455.977 1212.58 458.209 1221.82 448.729"></polyline>
            <polyline id="Fill-9" fill="#FFFFFE" points="519.023 1181.94 520.93 1195.03 532.808 1200.89 520.944 1206.75 519.044 1219.85 509.799 1210.38 496.757 1212.62 502.912 1200.9 496.741 1189.19 509.793 1191.42 519.023 1181.94"></polyline>
            <polyline id="Fill-10" fill="#FFFFFE" points="150.751 789.03 152.667 802.13 164.54 807.98 152.678 813.84 150.776 826.94 141.541 817.47 128.494 819.71 134.649 807.99 128.479 796.28 141.525 798.51 150.751 789.03"></polyline>
            <polyline id="Fill-11" fill="#FFFFFE" points="744.64 1415.23 746.55 1428.33 758.42 1434.18 746.56 1440.05 744.67 1453.14 735.42 1443.68 722.38 1445.91 728.52 1434.2 722.35 1422.49 735.41 1424.71 744.64 1415.23"></polyline>
            <polyline id="Fill-12" fill="#FFFFFE" points="268.038 1492.42 269.954 1505.51 281.817 1511.37 269.954 1517.23 268.059 1530.33 258.808 1520.86 245.771 1523.1 251.921 1511.38 245.756 1499.67 258.803 1501.9 268.038 1492.42"></polyline>
            <polyline id="Fill-13" fill="#FFFFFE" points="1316.61 1253.08 1318.52 1266.17 1330.39 1272.03 1318.53 1277.89 1316.63 1290.99 1307.39 1281.52 1294.34 1283.77 1300.49 1272.05 1294.32 1260.33 1307.38 1262.56 1316.61 1253.08"></polyline>
            <polyline id="Fill-14" fill="#FFFFFE" points="1149.49 1519.92 1151.4 1533.02 1163.27 1538.87 1151.41 1544.73 1149.51 1557.83 1140.26 1548.36 1127.22 1550.6 1133.38 1538.88 1127.22 1527.17 1140.26 1529.4 1149.49 1519.92"></polyline>
            <polyline id="Fill-15" fill="#FFFFFE" points="1284.46 944.22 1286.38 957.31 1298.25 963.17 1286.38 969.03 1284.49 982.13 1275.24 972.65 1262.2 974.9 1268.35 963.18 1262.19 951.47 1275.23 953.69 1284.46 944.22"></polyline>
            <path d="M514.104,709.195 C513.309,709.509 512.513,709.822 511.718,710.137 C510.982,710.429 510.242,710.798 509.481,711.01 C509.892,710.959 510.303,710.904 510.714,710.849 C509.928,710.938 509.019,710.942 508.282,711.17 C507.88,711.3 507.486,711.48 507.096,711.64 C506.137,712.03 505.172,712.42 504.242,712.87 C505.154,712.63 506.066,712.38 506.979,712.13 C504.812,712.09 502.77,713.23 501.67,715.1 C500.095,717.77 500.985,721.34 503.679,722.92 C505.783,724.14 508.1,723.66 510.252,722.92 C512.656,722.1 514.175,720.16 514.292,717.62 C514.293,717.6 514.294,717.58 514.295,717.57 C513.413,719.1 512.532,720.64 511.65,722.17 C512.231,721.78 512.81,721.39 513.374,720.97 C514.224,720.35 514.874,719.72 515.295,718.73 C515.688,717.79 515.852,716.66 515.531,715.67 C514.891,713.69 513.138,712.23 511.005,712.22 C510.322,712.22 509.64,712.23 508.957,712.23 C510.493,713.11 512.029,713.99 513.565,714.87 C513.558,714.86 513.549,714.85 513.541,714.84 C512.807,713.84 512.079,713.08 510.909,712.58 C509.753,712.1 508.563,712.01 507.325,712.31 C506.756,712.45 506.185,712.59 505.604,712.67 C506.099,712.61 506.593,712.54 507.087,712.47 C506.932,712.49 506.775,712.51 506.618,712.5 C507.114,712.57 507.61,712.63 508.107,712.7 C508.075,712.7 508.048,712.69 508.018,712.68 C508.464,712.87 508.91,713.06 509.356,713.25 C509.351,713.24 509.344,713.24 509.337,713.24 C509.716,713.53 510.094,713.82 510.472,714.11 C510.467,714.11 510.462,714.1 510.457,714.1 C510.749,714.48 511.042,714.86 511.334,715.23 C511.33,715.23 511.327,715.23 511.324,715.22 C511.513,715.67 511.701,716.11 511.89,716.56 C511.888,716.56 511.886,716.55 511.884,716.54 C511.951,717.04 512.018,717.54 512.084,718.04 C512.084,718.03 512.084,718.02 512.084,718.02 C512.018,718.52 511.95,719.01 511.884,719.51 C511.886,719.5 511.887,719.5 511.889,719.49 C511.699,719.94 511.511,720.38 511.322,720.83 C511.334,720.81 511.347,720.79 511.363,720.77 C511.071,721.14 510.778,721.52 510.485,721.9 C510.533,721.85 510.586,721.8 510.642,721.76 C510.263,722.05 509.883,722.35 509.504,722.64 C510.558,721.86 511.357,721.08 511.869,719.87 C512.023,719.51 512.094,719.31 512.208,719 C511.743,719.8 511.278,720.59 510.813,721.39 C510.968,721.26 511.13,721.13 511.292,721 C510.931,721.28 510.57,721.56 510.209,721.84 C510.673,721.48 511.148,721.15 511.627,720.81 C512.221,720.4 512.876,720 513.366,719.47 C513.616,719.2 513.834,718.89 514.122,718.66 C513.812,718.9 513.501,719.14 513.19,719.38 C514.56,718.52 515.938,717.67 517.315,716.81 C519.089,715.72 519.834,713.54 519.021,711.61 C518.285,709.865 516.043,708.433 514.104,709.195" id="Fill-16" fill="#FFFFFE"></path>
            <path d="M402.645,894.17 C402.401,894.4 402.154,894.61 401.896,894.82 C403.287,894.82 404.677,894.82 406.067,894.82 C406.036,894.79 406.006,894.77 405.976,894.74 C405.32,894.22 404.716,893.85 403.858,893.73 C402.977,893.61 402.323,893.81 401.507,894.17 C402.158,893.91 402.316,893.84 401.979,893.95 C401.602,894.04 401.819,894.01 402.632,893.88 C402.253,893.87 402.493,893.9 403.353,893.98 C403.888,894.13 404.352,894.4 404.743,894.79 C404.499,894.53 404.645,894.72 405.18,895.36 C405.011,895.03 405.101,895.25 405.448,896.01 C405.438,895.86 405.367,895.68 405.342,895.53 C405.39,895.88 405.437,896.24 405.484,896.59 C405.412,896.02 405.426,895.45 405.266,894.88 C405.127,894.54 404.982,894.19 404.833,893.85 C404.926,894.08 405.02,894.3 405.112,894.52 C404.714,893.57 404.273,892.68 403.313,892.18 C403.001,892.04 402.689,891.91 402.378,891.78 C401.851,891.57 402.275,891.82 403.652,892.51 C403.57,892.43 403.478,892.37 403.391,892.3 C403.085,892.05 402.778,891.73 402.444,891.53 C401.788,891.14 401.117,891.09 400.423,891.38 C399.99,891.56 399.647,891.86 399.3,892.17 C399.149,892.3 398.474,892.87 399.131,892.36 C399.945,891.74 398.665,892.7 398.568,892.79 C398.034,893.28 397.725,893.99 397.533,894.67 C397.3,895.5 397.294,896.42 397.534,897.25 C397.82,898.24 398.278,899.25 399.011,899.99 C400.655,901.66 403.32,901.97 405.229,900.54 C405.894,900.04 406.406,899.56 406.738,898.77 C407.033,898.07 407.211,897.11 406.924,896.37 C406.891,896.29 406.858,896.2 406.825,896.12 C406.572,897.08 406.32,898.03 406.067,898.99 C406.309,898.77 406.539,898.53 406.765,898.3 C407.813,897.19 407.946,895.26 406.765,894.17 C405.56,893.07 403.847,893.07 402.645,894.17" id="Fill-17" fill="#FFFFFE"></path>
            <path d="M225.146,640.796 C224.991,640.779 224.824,640.743 224.67,640.744 C224.938,640.742 225.382,640.853 224.845,640.759 C224.576,640.712 224.311,640.655 224.047,640.59 C224.875,641.418 225.703,642.245 226.53,643.073 C226.161,641.626 225.332,640.464 223.922,639.869 C223.608,639.737 223.292,639.633 222.979,639.501 C223.323,639.646 223.667,639.791 224.01,639.937 C223.873,639.872 223.746,639.8 223.626,639.709 C223.916,639.933 224.205,640.156 224.495,640.381 C224.438,640.331 224.389,640.283 224.339,640.227 C224.563,640.516 224.786,640.805 225.009,641.094 C224.969,641.04 224.937,640.989 224.905,640.929 C225.049,641.27 225.193,641.61 225.337,641.951 C225.313,641.893 225.296,641.839 225.283,641.777 C225.334,642.156 225.385,642.534 225.436,642.913 C225.425,642.83 225.426,642.754 225.436,642.671 C225.385,643.049 225.334,643.427 225.283,643.805 C225.301,643.718 225.327,643.638 225.361,643.556 C225.218,643.895 225.075,644.233 224.933,644.572 C225.032,644.365 225.336,643.987 224.798,644.687 C224.252,645.396 224.594,644.977 224.757,644.806 C225.222,644.316 223.816,645.428 224.323,645.141 C224.461,645.063 224.59,644.973 224.729,644.897 C224.86,644.827 225,644.773 225.131,644.704 C225.786,644.353 225.971,644.067 226.365,643.558 C226.312,643.627 227.207,642.462 226.489,643.396 C225.964,644.078 226.365,643.565 226.511,643.413 C226.625,643.293 226.745,643.18 226.87,643.071 C228.424,641.717 228.02,638.799 226.2,637.874 C224.808,637.165 223.143,636.593 221.604,637.204 C220.419,637.675 219.295,638.213 218.417,639.179 C217.154,640.567 216.611,642.349 217.074,644.197 C217.574,646.195 219.307,647.318 221.104,648 C222.425,648.502 224.405,647.957 225.315,646.887 C225.416,646.769 225.516,646.651 225.616,646.533 C224.778,646.881 223.939,647.228 223.102,647.575 C223.785,647.609 224.465,647.574 225.146,647.513 C226.891,647.355 228.591,646.081 228.504,644.154 C228.416,642.182 227.023,640.987 225.146,640.796" id="Fill-18" fill="#FFFFFE"></path>
            <path d="M540.992,464.585 C540.983,463.969 541.042,463.333 541.003,462.72 C540.95,461.872 540.678,463.94 540.949,463.153 C541.137,462.608 541.131,461.996 541.186,461.422 C541.344,459.782 540.146,457.903 538.735,457.148 C538.728,457.145 538.72,457.141 538.712,457.137 C539.278,457.703 539.846,458.27 540.412,458.837 C540.347,458.746 540.281,458.656 540.215,458.565 C540.354,459.625 540.492,460.685 540.631,461.744 C540.701,461.507 540.787,461.281 540.866,461.047 C540.54,462.006 541.13,460.416 541.197,460.222 C541.481,459.394 541.564,458.546 541.535,457.678 C541.494,456.489 540.584,455.572 539.39,455.532 C537.643,455.475 535.987,456.07 534.57,457.086 C535.265,456.897 535.959,456.71 536.653,456.522 C536.953,456.564 537.253,456.607 537.553,456.649 C535.382,455.946 533.148,457.147 531.964,458.924 C530.879,460.552 530.903,462.704 530.875,464.585 C530.836,467.231 533.229,469.765 535.934,469.644 C538.643,469.521 541.031,467.42 540.992,464.585" id="Fill-19" fill="#FFFFFE"></path>
            <path d="M724.16,456.556 C723.07,458.283 723.71,458.041 722.27,458.869 C723.91,459.299 725.55,459.729 727.19,460.159 C727.17,460.126 727.14,460.092 727.12,460.059 C727.24,460.981 727.36,461.903 727.48,462.826 C727.81,461.148 728.69,459.779 728.88,457.985 C729.04,456.398 727.3,455.561 726.01,455.8 C722.97,456.361 718.75,460.411 720.99,463.787 C722.35,465.847 724.79,466.042 726.63,464.515 C727.91,463.452 728.45,460.841 729.05,459.415 C730.44,456.145 726.17,453.378 724.16,456.556" id="Fill-20" fill="#FFFFFE"></path>
            <path d="M1260.46,505.483 C1259.23,506.333 1258.06,507.243 1256.9,508.178 C1253.43,510.953 1258.55,516.345 1261.87,513.146 C1262.36,512.669 1262.82,512.152 1263.29,511.656 C1264.11,510.799 1264.59,509.451 1264.18,508.281 C1263.68,506.815 1263.25,506.374 1261.76,505.857 C1260.59,505.451 1259.24,505.935 1258.39,506.75 C1257.89,507.221 1257.37,507.685 1256.9,508.178 C1253.7,511.492 1259.09,516.61 1261.87,513.146 C1262.8,511.975 1263.71,510.816 1264.56,509.58 C1266.24,507.148 1262.89,503.805 1260.46,505.483" id="Fill-21" fill="#FFFFFE"></path>
            <path d="M1371.61,540.703 C1376.24,540.703 1376.25,533.5 1371.61,533.5 C1366.97,533.5 1366.96,540.703 1371.61,540.703" id="Fill-22" fill="#FFFFFE"></path>
            <path d="M1371.61,999.7 C1375.88,999.7 1375.88,993.06 1371.61,993.06 C1367.34,993.06 1367.33,999.7 1371.61,999.7" id="Fill-23" fill="#FFFFFE"></path>
            <path d="M1240.77,1065.44 C1240.76,1065.11 1240.75,1064.79 1240.75,1064.47 C1240.72,1062.47 1239.01,1060.55 1236.92,1060.64 C1234.87,1060.73 1233.06,1062.33 1233.09,1064.47 C1233.11,1065.84 1233.13,1067.2 1233.16,1068.57 C1233.19,1070.53 1234.86,1072.42 1236.92,1072.33 C1238.99,1072.24 1240.65,1070.67 1240.68,1068.57 C1240.71,1067.2 1240.73,1065.84 1240.75,1064.47 C1240.78,1062.47 1238.97,1060.55 1236.92,1060.64 C1234.82,1060.74 1233.13,1062.32 1233.09,1064.47 C1233.09,1064.79 1233.08,1065.11 1233.08,1065.44 C1233.04,1067.45 1234.87,1069.37 1236.92,1069.28 C1238.98,1069.19 1240.8,1067.59 1240.77,1065.44" id="Fill-24" fill="#FFFFFE"></path>
            <path d="M733.47,1494.66 C733,1493.78 732.54,1492.9 732.07,1492.02 C730.95,1489.94 727.67,1489.94 726.55,1492.02 C726.08,1492.9 725.61,1493.78 725.15,1494.66 C724.34,1496.2 724.25,1497.98 725.15,1499.52 C726.01,1500.98 727.61,1501.91 729.31,1501.91 C731,1501.91 732.61,1500.98 733.47,1499.52 C734.37,1497.98 734.28,1496.2 733.47,1494.66" id="Fill-25" fill="#FFFFFE"></path>
            <path d="M711.97,1365.8 C711.73,1366.03 711.49,1366.24 711.23,1366.45 C711.57,1366.19 711.91,1365.93 712.24,1365.67 C711.96,1365.88 711.67,1366.08 711.35,1366.24 C711.75,1366.07 712.15,1365.9 712.55,1365.73 C712.39,1365.79 712.24,1365.84 712.08,1365.87 C712.53,1365.81 712.97,1365.75 713.42,1365.69 C713.35,1365.7 713.29,1365.7 713.22,1365.7 C713.67,1365.76 714.12,1365.82 714.56,1365.88 C714.45,1365.86 714.33,1365.84 714.22,1365.8 C714.62,1365.97 715.02,1366.14 715.42,1366.31 C715.33,1366.27 715.27,1366.23 715.19,1366.17 C715.53,1366.43 715.87,1366.69 716.2,1366.95 C716.13,1366.88 716.06,1366.81 716,1366.73 C716.26,1367.07 716.52,1367.4 716.77,1367.74 C716.66,1367.57 716.57,1367.4 716.49,1367.22 C716.65,1367.61 716.82,1368 716.98,1368.38 C716.4,1366.96 715.92,1365.47 714.44,1364.69 C714.07,1364.54 713.71,1364.38 713.34,1364.23 C713.6,1364.42 713.66,1364.48 713.54,1364.39 C713.46,1364.36 713.4,1364.29 713.33,1364.25 C712.78,1363.92 712.1,1363.76 711.46,1363.95 C711.18,1364.03 710.88,1364.15 710.64,1364.34 C710.34,1364.57 710.86,1364.26 710.91,1364.23 C710.54,1364.38 710.18,1364.54 709.81,1364.69 C709.28,1364.98 708.85,1365.37 708.53,1365.87 C707.7,1366.95 707.3,1368.38 707.44,1369.74 C707.56,1370.92 707.73,1371.96 708.36,1373 C709.35,1374.62 711.18,1375.83 713.13,1375.8 C715.51,1375.76 717.41,1374.51 719.01,1372.84 C720.82,1370.96 721.02,1367.64 719.01,1365.8 C716.97,1363.92 714.01,1363.91 711.97,1365.8" id="Fill-26" fill="#FFFFFE"></path>
            <path d="M467.894,1241.26 C467.181,1241.16 466.397,1241.11 465.727,1240.84 C466.062,1240.98 466.396,1241.12 466.731,1241.26 C466.183,1240.99 467.647,1242.1 467.354,1241.75 C467.576,1242.04 467.797,1242.33 468.019,1242.61 C468.011,1242.6 468.003,1242.59 467.995,1242.58 C468.138,1242.92 468.28,1243.25 468.424,1243.59 C468.41,1243.57 468.402,1243.54 468.399,1243.51 C468.45,1243.89 468.501,1244.26 468.552,1244.64 C468.551,1244.63 468.551,1244.61 468.551,1244.6 C468.5,1244.98 468.449,1245.36 468.398,1245.73 C468.415,1245.61 468.449,1245.49 468.493,1245.38 C468.351,1245.72 468.207,1246.06 468.064,1246.39 C468.23,1246.02 468.472,1245.69 468.71,1245.36 C468.828,1245.2 469.387,1244.47 468.966,1245.01 C468.396,1245.75 469.324,1244.59 469.499,1244.24 C469.709,1243.81 469.873,1243.35 470.058,1242.91 C470.282,1242.37 470.208,1241.49 470.058,1240.94 C469.843,1240.16 469.362,1239.51 468.729,1239.02 C467.45,1238.03 466.037,1238.12 464.615,1238.73 C463.539,1239.18 462.46,1240.09 461.63,1240.95 C460.374,1242.24 459.65,1243.95 460.17,1245.78 C460.762,1247.86 462.678,1249.06 464.763,1249.11 C465.805,1249.13 466.868,1248.9 467.894,1248.75 C468.689,1248.64 469.45,1247.96 469.911,1247.36 C470.417,1246.7 470.783,1245.86 470.745,1245.01 C470.715,1244.32 470.537,1243.66 470.215,1243.04 C469.824,1242.31 468.751,1241.38 467.894,1241.26" id="Fill-27" fill="#FFFFFE"></path>
            <path d="M297.31,1396.59 C296.874,1397.04 296.442,1397.48 295.991,1397.91 C295.818,1398.08 295.641,1398.24 295.459,1398.4 C296.116,1397.92 296.285,1397.79 295.964,1398.01 C295.027,1398.61 297.094,1397.79 296.337,1397.83 C295.484,1397.87 294.147,1398.9 293.649,1399.49 C295.175,1399.08 296.7,1398.68 298.226,1398.28 C297.986,1398.23 296.864,1397.89 297.969,1398.28 C297.409,1398.08 296.868,1397.78 296.297,1397.6 C294.587,1397.07 292.729,1397.54 291.752,1399.11 C290.305,1401.44 291.988,1404.39 293.649,1406.14 C293.246,1405.45 292.843,1404.75 292.439,1404.06 C293.007,1407.85 297.344,1408.99 300.408,1407.7 C302.182,1406.95 303.563,1405.53 304.922,1404.2 C306.937,1402.23 307.048,1398.54 304.922,1396.59 C302.787,1394.63 299.42,1394.45 297.31,1396.59" id="Fill-28" fill="#FFFFFE"></path>
            <path d="M121.546,1145.78 C126.05,1145.43 131.162,1142.72 133.896,1139.12 C134.522,1138.3 134.174,1137.01 133.535,1136.32 C131.794,1134.45 129.438,1134.64 127.122,1135.2 C125.277,1135.64 123.398,1136.98 121.546,1137.04 C115.896,1137.21 115.97,1146.2 121.546,1145.78" id="Fill-29" fill="#FFFFFE"></path>
            <path d="M266.585,1117.41 C266.807,1117.41 266.808,1117.07 266.585,1117.07 C266.362,1117.07 266.362,1117.41 266.585,1117.41" id="Fill-30" fill="#FFFFFE"></path>
            <path d="M66.293,692.186 C64.964,692.076 63.975,691.612 62.629,692.034 C57.661,693.595 59.782,701.436 64.787,699.863 C65.584,699.613 66.364,699.349 67.153,699.07 C70.219,697.992 70.224,693.908 67.153,692.827 C66.364,692.55 65.584,692.284 64.787,692.034 C59.791,690.465 57.653,698.301 62.629,699.863 C63.975,700.286 64.964,699.822 66.293,699.713 C71.129,699.314 71.138,692.585 66.293,692.186" id="Fill-31" fill="#FFFFFE"></path>
            <path d="M4.138,1045.44 C9.501,1045.44 9.51,1037.1 4.138,1037.1 C-1.227,1037.1 -1.235,1045.44 4.138,1045.44" id="Fill-32" fill="#FFFFFE"></path>
            <path d="M111.556,1522.32 C111.805,1521.68 112.096,1521.04 112.306,1520.38 C111.979,1521.4 112.248,1520.52 112.366,1520.25 C112.473,1520 112.578,1519.76 112.685,1519.51 C112.779,1519.29 112.875,1519.07 112.97,1518.85 C113.815,1516.9 112.105,1515.19 110.146,1516.03 C109.926,1516.12 109.706,1516.22 109.485,1516.31 C109.259,1516.41 109.032,1516.51 108.806,1516.61 C108.667,1516.67 108.528,1516.73 108.391,1516.79 C108.14,1516.89 107.756,1516.91 108.612,1516.69 C107.958,1516.86 107.31,1517.19 106.678,1517.44 C105.349,1517.95 104.303,1518.77 103.907,1520.21 C103.532,1521.57 103.928,1523.07 104.928,1524.07 C105.928,1525.07 107.421,1525.46 108.786,1525.09 C110.224,1524.69 111.041,1523.65 111.556,1522.32" id="Fill-33" fill="#FFFFFE"></path>
            <path d="M490.797,1713.06 C491.212,1712.37 491.663,1711.69 492.043,1710.98 C492.488,1710.15 492.786,1709.19 493.146,1708.32 C493.748,1706.85 491.924,1705.03 490.458,1705.63 C489.579,1705.99 488.628,1706.29 487.791,1706.73 C487.077,1707.1 486.396,1707.56 485.704,1707.97 C483.646,1709.2 483.25,1712.12 484.95,1713.82 C486.646,1715.51 489.565,1715.12 490.797,1713.06" id="Fill-34" fill="#FFFFFE"></path>
            <path d="M1040.1,1576.46 C1044.47,1576.46 1044.48,1569.66 1040.1,1569.66 C1035.72,1569.66 1035.71,1576.46 1040.1,1576.46" id="Fill-35" fill="#FFFFFE"></path>
            <path d="M1267.45,1586.88 C1267.5,1588.14 1267.59,1589.46 1267.96,1590.68 C1268.46,1592.34 1269.99,1593.57 1271.75,1593.57 C1271.76,1593.57 1271.77,1593.57 1271.79,1593.57 C1270.56,1592.64 1269.34,1591.71 1268.12,1590.77 C1268.56,1591.91 1269.04,1592.86 1270.02,1593.61 C1271.11,1594.45 1272.55,1594.83 1273.9,1594.44 C1275.86,1593.87 1277.02,1592.33 1277.69,1590.49 C1278.04,1589.52 1278.06,1588.47 1277.69,1587.5 C1277.54,1587.1 1277.39,1586.69 1277.18,1586.31 C1276.62,1585.3 1275.4,1584.65 1274.24,1584.99 C1273.66,1585.16 1273.24,1585.5 1272.81,1585.91 C1272.74,1585.98 1272.66,1586.04 1272.58,1586.11 C1272.18,1586.49 1273.27,1585.59 1272.85,1585.9 C1272.2,1586.38 1271.76,1586.83 1271.33,1587.52 C1271.27,1587.61 1271.21,1587.7 1271.15,1587.79 C1270.89,1588.2 1271.85,1587.01 1271.39,1587.45 C1271.22,1587.62 1270.59,1588.16 1271.25,1587.64 C1272.01,1587.06 1270.83,1587.75 1271.76,1587.36 C1272.5,1587.05 1272.21,1587.19 1272.07,1587.22 C1271.71,1587.32 1273.02,1587.12 1272.88,1587.13 C1272.35,1587.15 1273.89,1587.31 1273.57,1587.22 C1273.44,1587.18 1274.57,1587.65 1274.33,1587.53 C1274.01,1587.36 1275.19,1588.28 1274.9,1587.96 C1274.98,1588.04 1275.57,1588.92 1275.28,1588.41 C1275.42,1588.65 1275.65,1589.43 1275.45,1588.75 C1274.87,1590.18 1274.29,1591.62 1273.71,1593.05 C1273.71,1593.04 1273.72,1593.04 1273.73,1593.03 C1275.23,1592.03 1275.96,1590.37 1275.53,1588.6 C1275.48,1588.36 1275.43,1588.11 1275.4,1587.87 C1275.45,1588.22 1275.49,1588.57 1275.54,1588.92 C1275.46,1588.24 1275.45,1587.56 1275.46,1586.88 C1275.51,1584.78 1273.59,1582.77 1271.46,1582.87 C1269.35,1582.96 1267.37,1584.63 1267.45,1586.88" id="Fill-36" fill="#FFFFFE"></path>
            <path d="M1149.7,1288.99 C1152.75,1285.98 1157.34,1284.73 1159.32,1280.6 C1160,1279.16 1158.81,1276.73 1156.94,1277.51 C1152.58,1279.32 1148.17,1280.65 1144.6,1283.9 C1141.18,1287.01 1146.38,1292.26 1149.7,1288.99" id="Fill-37" fill="#FFFFFE"></path>
            <path d="M1439.86,1252.44 C1438.75,1252.6 1437.64,1252.75 1436.54,1252.91 C1435.48,1253.06 1434.62,1254.36 1434.66,1255.37 C1434.71,1256.39 1435.41,1257.67 1436.54,1257.83 C1437.64,1257.98 1438.75,1258.14 1439.86,1258.3 C1440.93,1258.45 1442.02,1258.38 1442.81,1257.52 C1443.35,1256.92 1443.7,1256.19 1443.7,1255.37 C1443.7,1254.59 1443.36,1253.77 1442.81,1253.22 C1441.97,1252.38 1440.97,1252.29 1439.86,1252.44" id="Fill-38" fill="#FFFFFE"></path>
            <path d="M1513.18,1041.44 C1513.4,1041.44 1513.41,1041.1 1513.18,1041.1 C1512.96,1041.1 1512.96,1041.44 1513.18,1041.44" id="Fill-39" fill="#FFFFFE"></path>
            <path d="M1453.5,837.47 C1452.56,837.63 1451.61,837.79 1450.66,837.94 C1450.15,838.03 1449.75,837.91 1451.03,837.91 C1449.42,837.91 1447.88,839.32 1447.95,840.98 C1448.03,842.65 1449.3,844.06 1451.03,844.06 C1451.19,844.06 1449.9,843.88 1450.27,843.96 C1450.4,843.98 1450.53,844 1450.66,844.02 C1451.61,844.18 1452.56,844.34 1453.5,844.49 C1454.78,844.71 1456.11,844.58 1457.05,843.56 C1457.7,842.84 1458.12,841.97 1458.12,840.98 C1458.12,840.05 1457.71,839.07 1457.05,838.41 C1456.06,837.42 1454.83,837.25 1453.5,837.47" id="Fill-40" fill="#FFFFFE"></path>
            <path d="M1202.99,864.07 C1203.42,863.26 1203.84,862.44 1204.26,861.62 C1204.75,860.69 1205.14,859.76 1205.09,858.68 C1205.04,857.85 1204.79,857.04 1204.2,856.45 C1203.6,855.85 1202.79,855.6 1201.96,855.56 C1200.88,855.5 1199.95,855.89 1199.02,856.38 C1198.2,856.8 1197.39,857.23 1196.57,857.65 C1193.86,859.06 1193.57,862.97 1195.62,865.02 C1197.67,867.08 1201.59,866.78 1202.99,864.07" id="Fill-41" fill="#FFFFFE"></path>
            <path d="M1153.95,494.172 C1154.42,493.481 1154.89,492.791 1155.35,492.101 C1155.94,491.233 1156.38,490.444 1156.34,489.332 C1156.33,489.14 1156.33,488.947 1156.32,488.755 C1156.28,487.498 1155.32,486.534 1154.05,486.489 C1153.86,486.482 1153.67,486.476 1153.48,486.469 C1152.39,486.43 1151.57,486.877 1150.71,487.457 C1150.02,487.924 1149.33,488.391 1148.64,488.857 C1147.52,489.611 1146.65,490.794 1146.71,492.212 C1146.76,493.242 1147.11,494.215 1147.85,494.959 C1148.55,495.663 1149.6,496.097 1150.6,496.097 C1152.04,496.097 1153.17,495.328 1153.95,494.172" id="Fill-42" fill="#FFFFFE"></path>
            <path d="M1027.1,783.1 C1026.63,783.55 1026.02,784.07 1025.57,784.6 C1027.34,786.37 1029.1,788.13 1030.87,789.9 C1031.39,789.29 1031.89,788.7 1032.27,787.98 C1033.91,784.85 1030.62,781.56 1027.49,783.2 C1026.77,783.58 1026.18,784.08 1025.57,784.6 C1021.88,787.72 1027.21,792.99 1030.87,789.9 C1031.39,789.45 1031.92,788.84 1032.37,788.37 C1035.69,784.9 1030.57,779.78 1027.1,783.1" id="Fill-43" fill="#FFFFFE"></path>
            <path d="M781.86,560.382 C781.8,560.374 781.74,560.366 781.67,560.358 C782.09,560.414 782.5,560.47 782.92,560.525 C782.59,560.471 782.27,560.391 781.96,560.268 C782.34,560.428 782.72,560.589 783.1,560.749 C782.9,560.654 782.7,560.546 782.52,560.409 C782.85,560.662 783.17,560.915 783.5,561.168 C783.3,561.004 783.1,560.813 782.94,560.613 C783.19,560.941 783.44,561.27 783.7,561.598 C783.62,561.487 783.55,561.376 783.5,561.251 C783.66,561.636 783.82,562.02 783.99,562.404 C783.95,562.311 783.93,562.224 783.91,562.126 C783.97,562.552 784.02,562.978 784.08,563.403 C784.06,563.273 784.06,563.151 784.08,563.021 C784.02,563.443 783.96,563.867 783.91,564.29 C783.93,564.157 783.96,564.036 784.02,563.911 C783.86,564.288 783.7,564.666 783.54,565.043 C783.59,564.946 783.64,564.86 783.7,564.771 C783.45,565.089 783.21,565.406 782.96,565.725 C783.36,565.201 783.73,564.649 784.13,564.129 C783.89,564.428 783.66,564.727 783.43,565.025 C783.5,564.943 783.58,564.87 783.65,564.789 C784.03,564.345 783.24,565.089 783.19,565.127 C783.91,564.556 784.48,564.069 784.85,563.192 C785.09,562.624 785.24,562.32 785.2,561.61 C785.14,560.246 784.45,558.805 783.19,558.14 C782.37,557.704 781.62,557.568 780.69,557.488 C778.44,557.295 776.3,558.494 775.23,560.477 C774,562.768 774.3,565.799 776.17,567.676 C777.64,569.145 779.79,569.871 781.86,569.689 C783.12,569.579 784.24,569.244 785.15,568.326 C785.96,567.52 786.57,566.195 786.52,565.036 C786.46,563.832 786.07,562.584 785.15,561.745 C784.84,561.502 784.53,561.26 784.21,561.018 C783.49,560.597 782.7,560.385 781.86,560.382" id="Fill-44" fill="#FFFFFE"></path>
            <path d="M706.25,378.924 C704.85,380.59 703.28,382.23 702.53,384.313 C701.99,385.807 702.08,387.37 702.21,388.922 C702.61,393.655 709.17,393.661 709.57,388.922 C709.6,388.578 709.64,388.234 709.67,387.891 C709.73,386.965 709.42,388.574 709.68,387.84 C709.69,387.807 709.8,387.2 709.85,387.198 C709.87,387.197 709.37,388.131 709.82,387.388 C710.18,386.787 709.16,387.999 709.79,387.453 C710.02,387.257 710.23,387.021 710.45,386.816 C711.09,386.225 711.77,385.668 712.43,385.105 C714.19,383.623 714.07,380.43 712.43,378.924 C710.81,377.436 707.83,377.057 706.25,378.924" id="Fill-45" fill="#FFFFFE"></path>
            <path d="M705.13,677.321 C702.15,677.465 698.45,677.211 696.281,679.667 C694.974,681.15 694.966,683.115 696.281,684.606 C698.44,687.059 702.16,686.81 705.13,686.952 C707.65,687.073 710.06,684.651 709.95,682.137 C709.84,679.632 707.83,677.192 705.13,677.321" id="Fill-46" fill="#FFFFFE"></path>
            <path d="M1051.32,528.961 C1051.55,528.961 1051.55,528.616 1051.32,528.616 C1051.1,528.616 1051.1,528.961 1051.32,528.961" id="Fill-47" fill="#FFFFFE"></path>
            <path d="M545.13,574.326 C544.187,574.517 543.243,574.708 542.3,574.899 C541.694,575.022 541.468,574.857 542.836,574.857 C540.91,574.857 539.064,576.552 539.153,578.54 C539.243,580.535 540.771,582.223 542.836,582.223 C543.03,582.223 541.515,581.999 541.917,582.104 C542.042,582.136 542.173,582.155 542.3,582.181 C543.243,582.372 544.187,582.563 545.13,582.755 C546.636,583.06 548.287,582.823 549.382,581.631 C550.167,580.775 550.662,579.725 550.662,578.54 C550.662,577.42 550.175,576.242 549.382,575.45 C548.223,574.29 546.688,574.01 545.13,574.326" id="Fill-48" fill="#FFFFFE"></path>
            <path d="M453.057,402.602 C453.278,402.602 453.279,402.257 453.057,402.257 C452.834,402.257 452.834,402.602 453.057,402.602" id="Fill-49" fill="#FFFFFE"></path>
            <path d="M540.254,924.68 C542.031,924.65 544.021,924.69 545.339,923.29 C546.82,921.72 547.036,918.2 545.256,916.8 C544.233,916.01 543.196,916 542.165,916.8 C541.18,917.57 541.01,918.77 540.894,919.94 C540.883,920.04 540.857,920.18 540.861,920.29 C540.834,919.52 540.972,919.66 540.896,919.95 C540.877,920.02 540.821,920.13 540.823,920.2 C541.071,919.65 541.134,919.5 541.012,919.73 C540.921,919.87 540.969,919.82 541.152,919.56 C541.6,918.98 540.887,919.7 541.463,919.25 C541.719,919.06 541.774,919.01 541.631,919.1 C542.197,918.88 542.353,918.81 542.096,918.9 C542.018,918.91 541.917,918.94 541.846,918.97 C541.461,919.11 542.661,918.91 542.197,918.92 C541.549,918.92 540.903,918.94 540.254,918.93 C538.751,918.91 537.313,920.27 537.381,921.81 C537.449,923.34 538.644,924.71 540.254,924.68" id="Fill-50" fill="#FFFFFE"></path>
            <path d="M747.33,322.313 C746.15,322.422 744.97,322.438 743.8,322.635 C744.17,322.586 744.53,322.536 744.9,322.487 C744.78,322.503 744.66,322.511 744.53,322.501 C744.89,322.548 745.24,322.596 745.59,322.644 C744.89,322.541 746.6,323.186 746.11,322.882 C747.03,323.444 746.93,323.563 746.67,323.289 C747.15,323.92 747.3,324.115 747.12,323.874 C746.92,323.619 746.72,323.365 746.53,323.112 C746.45,323.031 746.21,322.851 746.19,322.738 C746.22,322.957 746.86,323.605 746.25,322.811 C745.83,322.275 745.33,321.917 744.67,321.727 C743.05,321.26 741.68,322.297 740.95,323.705 C739.97,325.566 740.24,327.948 741.8,329.428 C742.55,330.138 743.45,330.697 744.48,330.874 C745.42,331.036 746.38,331.127 747.33,331.215 C748.4,331.315 749.74,330.646 750.48,329.911 C751.25,329.14 751.83,327.873 751.78,326.764 C751.68,324.536 749.81,322.082 747.33,322.313" id="Fill-51" fill="#FFFFFE"></path>
            <path d="M1051.32,501.335 C1051.55,501.335 1051.55,500.989 1051.32,500.989 C1051.1,500.989 1051.1,501.335 1051.32,501.335" id="Fill-52" fill="#FFFFFE"></path>
            <path d="M553.194,664.762 C551.847,664.778 550.365,664.638 549.047,664.943 C545.708,665.72 545.706,670.925 549.047,671.701 C550.365,672.008 551.846,671.866 553.194,671.884 C555.058,671.907 556.841,670.229 556.755,668.322 C556.67,666.413 555.19,664.736 553.194,664.762" id="Fill-53" fill="#FFFFFE"></path>
            <path d="M459.959,847.91 C464.438,847.91 464.444,840.95 459.959,840.95 C455.48,840.95 455.473,847.91 459.959,847.91" id="Fill-54" fill="#FFFFFE"></path>
            <path d="M472.893,684.712 C473.213,684.389 473.534,684.064 473.854,683.74 C475.191,682.386 475.307,679.934 473.854,678.601 C472.402,677.268 470.153,677.166 468.715,678.601 C468.11,679.203 467.515,679.813 466.914,680.42 C465.802,681.544 464.09,682.847 463.726,684.425 C463.115,687.076 465.377,689.333 468.026,688.725 C469.6,688.363 470.91,686.648 472.033,685.539 C472.64,684.939 473.243,684.336 473.854,683.74 C472.141,682.026 470.428,680.313 468.715,678.601 C468.391,678.921 468.065,679.241 467.741,679.562 C466.384,680.902 466.298,683.388 467.741,684.712 C469.189,686.041 471.46,686.159 472.893,684.712" id="Fill-55" fill="#FFFFFE"></path>
            <path d="M290.215,858.25 C290.201,858.4 290.419,857.97 290.254,858.11 C290.116,858.22 290.042,858.46 289.865,858.58 C289.368,858.92 288.703,858.64 289.72,858.84 C291.137,859.12 292.245,860.04 293.644,860.32 C295.257,860.64 296.679,859.34 296.282,857.68 C295.622,854.91 292.144,852.39 289.319,852.56 C286.216,852.74 284.346,855.26 284.388,858.25 C284.44,862.05 289.883,861.93 290.215,858.25" id="Fill-56" fill="#FFFFFE"></path>
            <path d="M480.681,1010.7 C485.784,1010.7 485.792,1002.77 480.681,1002.77 C475.577,1002.77 475.568,1010.7 480.681,1010.7" id="Fill-57" fill="#FFFFFE"></path>
            <path d="M364.112,1111.51 C364.18,1111.28 364.247,1111.04 364.313,1110.81 C364.371,1110.61 364.428,1110.41 364.485,1110.21 C364.499,1110.16 364.582,1109.77 364.613,1109.76 C364.557,1109.77 364.187,1110.71 364.472,1110.08 C364.863,1109.22 365.203,1108.44 365.268,1107.48 C365.28,1107.28 365.289,1107.08 365.3,1106.88 C365.357,1105.83 364.326,1104.8 363.276,1104.86 C363.078,1104.87 362.879,1104.88 362.681,1104.89 C361.705,1104.95 360.939,1105.29 360.072,1105.68 C359.606,1105.89 359.929,1105.56 360.393,1105.54 C360.269,1105.55 360.119,1105.62 359.999,1105.65 C359.779,1105.71 359.561,1105.78 359.342,1105.84 C359.106,1105.91 358.872,1105.97 358.637,1106.04 C355.422,1106.95 354.289,1111.1 356.673,1113.48 C359.059,1115.87 363.195,1114.73 364.112,1111.51" id="Fill-58" fill="#FFFFFE"></path>
            <path d="M542.836,1237.99 C541.975,1238.04 541.113,1238.1 540.252,1238.15 C534.31,1238.52 537.488,1247.38 541.967,1244.48 C542.454,1244.22 542.94,1243.96 543.428,1243.7 C545.525,1242.83 545.529,1240.27 543.428,1239.4 C542.94,1239.14 542.454,1238.88 541.967,1238.61 C537.513,1235.74 534.268,1244.57 540.252,1244.95 C541.113,1245 541.975,1245.06 542.836,1245.11 C547.418,1245.4 547.426,1237.7 542.836,1237.99" id="Fill-59" fill="#FFFFFE"></path>
            <path d="M395.428,1300.26 C395.428,1299.19 395.428,1298.11 395.428,1297.04 C395.428,1294.67 393.343,1292.4 390.896,1292.51 C388.439,1292.62 386.363,1294.5 386.363,1297.04 C386.363,1298.11 386.363,1299.19 386.363,1300.26 C386.363,1302.63 388.447,1304.9 390.896,1304.79 C393.351,1304.68 395.428,1302.8 395.428,1300.26" id="Fill-60" fill="#FFFFFE"></path>
            <path d="M646.431,1341.55 C645.841,1341.53 645.253,1341.52 644.666,1341.58 C645.533,1341.94 646.399,1342.3 647.267,1342.66 C647.202,1342.59 647.137,1342.52 647.072,1342.45 C646.066,1341.39 644.448,1341.02 643.057,1341.39 C640.59,1342.06 638.671,1344.52 639.462,1347.16 C639.942,1348.76 641.103,1349.97 642.576,1350.72 C645.278,1352.09 648.666,1352.96 651.418,1351.23 C653.411,1349.97 653.337,1347.25 651.418,1345.98 C651.187,1345.83 650.655,1345.44 651.632,1346.17 C651.328,1345.94 651.103,1345.69 650.746,1345.48 C650.49,1345.33 650.215,1345.21 649.948,1345.08 C649.077,1344.63 648.188,1344.25 647.285,1343.87 C647.611,1344.01 647.937,1344.15 648.263,1344.29 C647.697,1344.04 647.14,1343.77 646.625,1343.43 C645.851,1342.92 647.526,1344.22 646.845,1343.6 C646.783,1343.54 646.724,1343.47 646.658,1343.42 C646.264,1343.1 647.375,1344.52 647.118,1343.99 C647.259,1344.32 647.399,1344.66 647.539,1344.99 C647.524,1344.95 647.514,1344.92 647.507,1344.88 C647.557,1345.25 647.606,1345.62 647.656,1345.99 C647.649,1345.96 647.648,1345.92 647.651,1345.89 C647.602,1346.25 647.553,1346.62 647.503,1346.99 C647.506,1346.96 647.515,1346.92 647.528,1346.89 C647.388,1347.22 647.248,1347.56 647.108,1347.89 C647.005,1348.1 646.53,1348.59 646.244,1348.82 C645.586,1349.33 645.915,1349.07 646.136,1348.97 C645.807,1349.11 645.478,1349.25 645.148,1349.39 C646.752,1348.79 647.663,1347.86 648.212,1346.24 C647.356,1347.09 646.5,1347.95 645.644,1348.81 C646.536,1348.64 644.826,1348.86 645.536,1348.81 C645.835,1348.79 646.132,1348.77 646.431,1348.75 C648.31,1348.66 650.122,1347.16 650.032,1345.15 C649.941,1343.14 648.449,1341.62 646.431,1341.55" id="Fill-61" fill="#FFFFFE"></path>
            <path d="M791.37,1408.28 C791.54,1409.23 791.71,1410.18 791.88,1411.13 C791.97,1411.64 791.85,1412.01 791.85,1410.76 C791.85,1412.37 793.26,1413.91 794.92,1413.84 C796.59,1413.76 798,1412.49 798,1410.76 C798,1410.61 797.82,1411.88 797.9,1411.52 C797.93,1411.39 797.95,1411.26 797.97,1411.13 C798.14,1410.18 798.31,1409.23 798.48,1408.28 C798.7,1407 798.55,1405.64 797.53,1404.7 C796.81,1404.04 795.92,1403.62 794.92,1403.62 C793.98,1403.62 792.99,1404.03 792.32,1404.7 C791.33,1405.7 791.14,1406.96 791.37,1408.28" id="Fill-62" fill="#FFFFFE"></path>
            <path d="M788.01,1532.12 C787.42,1532.17 786.83,1532.2 786.24,1532.28 C785.62,1532.37 785.09,1532.63 784.52,1532.89 C784.09,1533.09 783.68,1533.28 783.37,1533.67 C782.64,1534.57 782.63,1535.57 783.37,1536.48 C783.68,1536.87 784.08,1537.05 784.52,1537.25 C784.96,1537.46 785.4,1537.7 785.87,1537.81 C786.54,1537.98 787.32,1537.97 788.01,1538.03 C789.56,1538.15 791.03,1536.58 790.97,1535.07 C790.9,1533.58 789.66,1531.98 788.01,1532.12" id="Fill-63" fill="#FFFFFE"></path>
            <path d="M629.17,1584.29 C634.742,1584.29 634.751,1575.63 629.17,1575.63 C623.598,1575.63 623.588,1584.29 629.17,1584.29" id="Fill-64" fill="#FFFFFE"></path>
            <path d="M1081.53,1318.44 C1087.16,1318.44 1087.17,1309.7 1081.53,1309.7 C1075.91,1309.7 1075.9,1318.44 1081.53,1318.44" id="Fill-65" fill="#FFFFFE"></path>
            <path d="M1033.19,1494.84 C1039.18,1494.84 1039.19,1485.53 1033.19,1485.53 C1027.21,1485.53 1027.19,1494.84 1033.19,1494.84" id="Fill-66" fill="#FFFFFE"></path>
            <path d="M992.97,1478.6 C995.17,1480.57 997.77,1482.32 1000.83,1481.62 C1003.43,1481.02 1005.58,1479.46 1006.96,1477.19 C1007.84,1475.76 1006.13,1474.24 1004.75,1474.97 C1003.62,1475.58 1002.27,1476.57 1000.93,1476.29 C999.55,1476 998.4,1475.1 997.43,1474.14 C994.53,1471.27 989.95,1475.9 992.97,1478.6" id="Fill-67" fill="#FFFFFE"></path>
            <path d="M1116.07,1435.11 C1116.29,1435.11 1116.29,1434.76 1116.07,1434.76 C1115.84,1434.76 1115.84,1435.11 1116.07,1435.11" id="Fill-68" fill="#FFFFFE"></path>
            <path d="M1219.66,1241.72 C1219.88,1241.72 1219.88,1241.38 1219.66,1241.38 C1219.44,1241.38 1219.44,1241.72 1219.66,1241.72" id="Fill-69" fill="#FFFFFE"></path>
            <path d="M1179.6,1222.38 C1180.96,1222.02 1182.36,1221.21 1183.38,1220.23 C1185.33,1218.35 1186.07,1215.55 1185.19,1212.96 C1184.69,1211.49 1183.33,1210.21 1181.68,1210.29 C1179.96,1210.37 1178.76,1211.39 1178.17,1212.96 C1178.58,1211.89 1178.41,1212.44 1178.26,1212.69 C1177.86,1213.42 1178.68,1212.27 1178.52,1212.42 C1178.31,1212.61 1178.12,1212.82 1177.89,1213 C1178.19,1212.77 1178.48,1212.54 1178.78,1212.31 C1178.59,1212.45 1178.39,1212.57 1178.17,1212.66 C1178.53,1212.51 1178.9,1212.36 1179.26,1212.2 C1178.99,1212.31 1178.72,1212.38 1178.43,1212.43 C1178.85,1212.37 1179.28,1212.31 1179.71,1212.26 C1179.32,1212.31 1178.93,1212.31 1178.54,1212.26 C1179,1212.32 1179.45,1212.38 1179.9,1212.44 C1179.8,1212.43 1179.7,1212.41 1179.6,1212.39 C1176.34,1211.58 1173.04,1213.97 1173.04,1217.38 C1173.04,1220.75 1176.34,1223.23 1179.6,1222.38" id="Fill-70" fill="#FFFFFE"></path>
            <path d="M1288.73,1065.61 C1288.95,1065.61 1288.95,1065.26 1288.73,1065.26 C1288.51,1065.26 1288.51,1065.61 1288.73,1065.61" id="Fill-71" fill="#FFFFFE"></path>
            <path d="M1226.57,962.02 C1226.79,962.02 1226.79,961.67 1226.57,961.67 C1226.35,961.67 1226.35,962.02 1226.57,962.02" id="Fill-72" fill="#FFFFFE"></path>
            <path d="M1281.82,889.5 C1282.04,889.5 1282.04,889.16 1281.82,889.16 C1281.59,889.16 1281.59,889.5 1281.82,889.5" id="Fill-73" fill="#FFFFFE"></path>
            <path d="M1152.37,868.61 C1152.34,867.58 1152.32,866.55 1152.29,865.52 C1152.22,862.84 1149.98,860.26 1147.15,860.38 C1144.31,860.51 1142.09,862.64 1142.01,865.52 C1141.98,866.55 1141.96,867.58 1141.93,868.61 C1141.86,871.34 1144.38,873.96 1147.15,873.83 C1149.92,873.71 1152.45,871.54 1152.37,868.61" id="Fill-74" fill="#FFFFFE"></path>
            <path d="M1203.4,926.57 C1201.21,928.04 1199.2,929.72 1197.12,931.33 C1197.51,931.03 1197.9,930.73 1198.28,930.43 C1198.06,930.6 1197.84,930.77 1197.61,930.94 C1199.98,931.25 1202.34,931.55 1204.71,931.86 C1204.62,931.78 1204.53,931.7 1204.44,931.63 C1204.8,934.44 1205.17,937.25 1205.53,940.06 C1206.27,938.4 1207.19,936.89 1207.75,935.15 C1207.54,935.66 1207.33,936.16 1207.11,936.67 C1207.92,935.25 1208.54,933.79 1209.04,932.23 C1209.56,930.63 1210.08,929.02 1210.02,927.31 C1209.97,925.97 1209.43,924.85 1208.38,924.04 C1207.41,923.29 1205.96,922.83 1204.74,923.29 C1203.8,923.65 1202.96,924.03 1202.14,924.61 C1201.26,925.23 1200.43,925.94 1199.58,926.62 C1199.11,927.01 1198.58,927.37 1198.15,927.79 C1197.75,928.19 1197.46,928.72 1197.02,929.06 C1197.45,928.73 1197.88,928.4 1198.31,928.06 C1197.25,928.84 1196.39,929.6 1195.53,930.56 C1195.22,930.91 1194.9,931.26 1194.6,931.63 C1193.74,932.5 1193.14,933.52 1192.81,934.7 C1192.48,935.93 1192.48,937.16 1192.81,938.4 C1193.39,940.5 1194.87,942.07 1196.84,942.9 C1198.87,943.76 1201.1,943.68 1203.03,942.55 C1204.98,941.41 1206.72,938.91 1206.48,936.55 C1206.46,936.36 1206.44,936.18 1206.42,936 C1205.85,937.38 1205.28,938.76 1204.71,940.14 C1206.57,937.91 1208.43,935.64 1210.04,933.22 C1211.19,931.5 1210.79,928.72 1209.28,927.33 C1207.76,925.93 1205.23,925.35 1203.4,926.57" id="Fill-75" fill="#FFFFFE"></path>
            <path d="M1259.11,836.17 C1259.08,836.05 1259.07,835.93 1259.05,835.81 C1259.11,836.26 1259.17,836.71 1259.23,837.15 C1259.2,836.83 1259.2,836.51 1259.24,836.19 C1259.18,836.62 1259.12,837.05 1259.06,837.47 C1259.1,837.24 1259.16,837.03 1259.24,836.81 C1259.08,837.18 1258.93,837.56 1258.77,837.93 C1258.88,837.66 1259.04,837.44 1259.19,837.19 C1259.26,837.09 1259.32,836.97 1259.38,836.87 C1259.66,836.29 1258.59,837.76 1258.98,837.36 C1259.13,837.21 1259.28,837.07 1259.43,836.92 C1259.75,836.61 1258.5,837.56 1258.91,837.33 C1259.43,837.03 1260.04,836.48 1260.3,835.93 C1261.02,834.42 1260.89,832.83 1259.74,831.58 C1258.47,830.2 1255.85,830.06 1254.15,830.54 C1251.65,831.26 1249.81,833.71 1249.28,836.17 C1248.89,837.91 1249.21,839.87 1250.59,841.13 C1251.58,842.05 1252.81,842.63 1254.19,842.63 C1255.5,842.63 1256.87,842.06 1257.8,841.13 C1259.17,839.76 1259.44,838.01 1259.11,836.17" id="Fill-76" fill="#FFFFFE"></path>
            <path d="M1064.06,1033.63 C1052.28,982.12 1027.41,934.18 989.64,896.96 C956.36,864.16 913.97,840.73 867.91,832.05 C820.8,823.17 773.02,831.04 729.53,850.64 C681.543,872.27 639.537,907.9 611.225,952.34 C582.502,997.43 569.055,1051.17 575.655,1104.42 C582.356,1158.47 608.524,1211.18 643.071,1252.82 C676.294,1292.87 721.04,1324.98 772.15,1337.11 C797.47,1343.12 823.73,1343.97 849.39,1339.69 C875.41,1335.35 900.05,1325.26 923.49,1313.38 C966.79,1291.43 1006.4,1260.63 1034.27,1220.53 C1063.91,1177.89 1076.73,1126.13 1072.51,1074.51 C1071.95,1067.77 1071.13,1061.05 1070.09,1054.37 C1068.95,1046.97 1065.85,1040.58 1062.65,1033.84 C1062.35,1033.23 1061.41,1033.55 1061.41,1034.18 C1061.41,1041.5 1060.95,1048.53 1062.04,1055.79 C1063.09,1062.74 1063.83,1069.74 1064.29,1076.75 C1065.18,1090.13 1064.99,1103.58 1063.59,1116.92 C1061.06,1141 1054.26,1164.71 1043.57,1186.44 C1022.81,1228.67 988.75,1262.67 949.37,1287.85 C907.62,1314.55 859.48,1335.04 809.1,1332.85 C758.95,1330.67 712.17,1307.17 675.689,1273.5 C637.042,1237.81 608.709,1191.09 593.19,1140.94 C577.609,1090.59 580.881,1036.29 601.658,987.85 C621.7,941.13 656.886,900.89 699.82,873.79 C740.18,848.31 788.22,832.51 836.26,834.35 C880.83,836.05 924.28,852.24 960.28,878.35 C1000.75,907.69 1030.89,949.69 1048.48,996.28 C1053.21,1008.82 1057.03,1021.68 1060.08,1034.73 C1060.69,1037.32 1064.66,1036.22 1064.06,1033.63" id="Fill-77" fill="#FFFFFE"></path>
            <path d="M1063.78,1057.19 C1059.09,1067.18 1056.45,1078.59 1052.83,1089.03 C1048.99,1100.11 1044.62,1111.01 1039.88,1121.74 C1030.3,1143.41 1017.94,1163.37 1006.59,1184.09 C1006.16,1184.86 1007.26,1185.81 1007.86,1185.07 C1022.9,1166.63 1034.47,1144.93 1044.24,1123.33 C1048.89,1113.04 1052.96,1102.49 1056.61,1091.81 C1060.3,1081.04 1064.66,1069.06 1065.56,1057.67 C1065.64,1056.75 1064.18,1056.34 1063.78,1057.19" id="Fill-78" fill="#FFFFFE"></path>
            <path d="M1052.39,1064.26 C1049.83,1068.38 1048.34,1073.24 1046.35,1077.67 C1044.2,1082.45 1041.97,1087.2 1039.68,1091.92 C1035.21,1101.15 1030.41,1110.23 1025.41,1119.18 C1015.3,1137.28 1004.15,1154.83 994.43,1173.13 C993.96,1174.03 995.19,1174.71 995.77,1173.91 C1008.02,1156.83 1019.02,1138.69 1029.26,1120.35 C1034.26,1111.39 1039.05,1102.32 1043.52,1093.09 C1045.67,1088.64 1047.71,1084.15 1049.65,1079.6 C1051.59,1075.04 1054.09,1070.25 1055.02,1065.37 C1055.32,1063.81 1053.29,1062.82 1052.39,1064.26" id="Fill-79" fill="#FFFFFE"></path>
            <path d="M1029.57,1081.17 C1027,1083.43 1025.65,1086.83 1024.03,1089.81 C1022.16,1093.28 1020.33,1096.77 1018.52,1100.27 C1014.96,1107.16 1011.46,1114.08 1007.93,1120.98 C1000.75,1135.01 993.12,1148.87 984.35,1161.97 C983.64,1163.04 985.32,1164.37 986.15,1163.36 C996.1,1151.23 1003.79,1137.66 1011.01,1123.78 C1014.72,1116.64 1018.25,1109.42 1021.87,1102.23 C1023.65,1098.71 1025.44,1095.2 1027.29,1091.72 C1028.87,1088.71 1031.05,1085.76 1031.67,1082.4 C1031.9,1081.16 1030.55,1080.32 1029.57,1081.17" id="Fill-80" fill="#FFFFFE"></path>
            <path d="M1009.8,1096.03 C1004.3,1104.22 1000.73,1114.17 996.28,1122.98 C991.66,1132.11 986.7,1141.04 981.71,1149.97 C971.69,1167.94 960.71,1185.28 949.31,1202.4 C948.83,1203.12 949.96,1204.02 950.52,1203.34 C963.57,1187.32 975.15,1170.06 985.61,1152.25 C990.79,1143.44 995.5,1134.33 1000.05,1125.18 C1004.44,1116.33 1009.97,1106.73 1012.23,1097.05 C1012.58,1095.56 1010.64,1094.78 1009.8,1096.03" id="Fill-81" fill="#FFFFFE"></path>
            <path d="M990.77,1109.72 C983.99,1118.65 979.06,1129.61 973.48,1139.34 C967.7,1149.42 961.7,1159.36 955.75,1169.33 C943.85,1189.27 930.95,1208.71 920.11,1229.26 C919.68,1230.08 920.79,1230.69 921.32,1229.97 C935.24,1210.95 947.41,1190.61 959.65,1170.48 C965.69,1160.57 971.47,1150.5 977.14,1140.37 C982.45,1130.87 988.92,1120.74 992.19,1110.32 C992.47,1109.41 991.26,1109.07 990.77,1109.72" id="Fill-82" fill="#FFFFFE"></path>
            <path d="M968.88,1121.95 C964.74,1127.35 962.31,1134.59 959.2,1140.65 C955.94,1147 952.48,1153.25 949,1159.49 C942.06,1171.92 934.54,1184.01 927.17,1196.19 C926.49,1197.32 928.13,1198.19 928.89,1197.2 C937.74,1185.6 945.5,1173.25 952.63,1160.52 C956.12,1154.29 959.34,1147.9 962.42,1141.46 C965.22,1135.59 969.12,1128.95 970.16,1122.49 C970.29,1121.69 969.37,1121.31 968.88,1121.95" id="Fill-83" fill="#FFFFFE"></path>
            <path d="M948.06,1136.53 C940.54,1146.46 935,1158.28 928.44,1168.88 C921.64,1179.86 914.48,1190.59 907.61,1201.53 C900.87,1212.25 894.15,1222.99 887.77,1233.93 C881.5,1244.68 874.92,1255.7 870.43,1267.34 C870.3,1267.66 870.8,1267.85 870.97,1267.57 C877.6,1256.61 883.55,1245.27 890.41,1234.42 C897.34,1223.44 904.65,1212.71 911.89,1201.94 C918.92,1191.49 925.79,1180.88 932.34,1170.13 C938.61,1159.84 946.14,1148.8 949.54,1137.15 C949.81,1136.21 948.58,1135.84 948.06,1136.53" id="Fill-84" fill="#FFFFFE"></path>
            <path d="M924.11,1151.87 C918.78,1154.1 915.48,1161.2 912.51,1165.89 C906.41,1175.53 901,1185.65 895.16,1195.46 C881.96,1217.62 868.24,1239.31 854.16,1260.91 C853.66,1261.67 854.84,1262.61 855.43,1261.9 C871.27,1242.79 885.03,1221.53 897.79,1200.29 C903.81,1190.28 909.67,1180.18 915.42,1170.02 C918.63,1164.34 923.43,1159.24 925.29,1153.05 C925.49,1152.41 924.8,1151.58 924.11,1151.87" id="Fill-85" fill="#FFFFFE"></path>
            <path d="M910.1,1157.42 C902.47,1162.5 896.56,1171.92 891.12,1179.2 C884.41,1188.18 878.12,1197.46 872.06,1206.9 C860.2,1225.38 848.77,1244.61 839.34,1264.46 C838.77,1265.67 840.35,1266.59 841.12,1265.5 C853.53,1247.99 864,1229.04 875.49,1210.92 C881.2,1201.92 887.12,1193.05 893.4,1184.43 C896.56,1180.1 899.83,1175.83 903.16,1171.62 C906.23,1167.74 910.07,1164.11 912.42,1159.74 C913.18,1158.33 911.58,1156.43 910.1,1157.42" id="Fill-86" fill="#FFFFFE"></path>
            <path d="M883.11,1172.51 C875.01,1180.52 868.96,1190.75 862.9,1200.33 C856.71,1210.1 850.91,1220.12 844.7,1229.89 C843.39,1231.95 846.59,1233.76 847.95,1231.79 C854.36,1222.48 860.26,1212.89 866.2,1203.28 C872.31,1193.42 879.33,1184.14 885.37,1174.25 C886.23,1172.85 884.27,1171.36 883.11,1172.51" id="Fill-87" fill="#FFFFFE"></path>
            <path d="M858.35,1187.87 C851.63,1190.76 846.68,1198.25 842.41,1203.89 C837.11,1210.88 832.44,1218.26 827.91,1225.77 C818.85,1240.78 810.1,1256 800.16,1270.46 C799.38,1271.6 801.14,1272.94 802.07,1271.94 C813.62,1259.49 821.79,1244.54 830.41,1230.03 C834.75,1222.72 839.18,1215.44 843.97,1208.41 C848.52,1201.72 855.34,1195.61 858.81,1188.32 C858.96,1188 858.66,1187.73 858.35,1187.87" id="Fill-88" fill="#FFFFFE"></path>
            <path d="M832.42,1198.63 C825.59,1204.08 821.41,1212.88 817.03,1220.27 C812.18,1228.47 807.4,1236.66 801.84,1244.41 C800.24,1246.63 803.86,1248.63 805.47,1246.53 C811.24,1238.96 816.46,1230.96 821.36,1222.8 C825.79,1215.42 831.29,1207.69 833.59,1199.32 C833.79,1198.59 832.93,1198.22 832.42,1198.63" id="Fill-89" fill="#FFFFFE"></path>
            <path d="M803.16,1214.49 C794.12,1224.29 788.55,1237.5 782.17,1249.08 C775.19,1261.75 768.03,1274.32 759.98,1286.35 C759.26,1287.42 760.92,1288.71 761.78,1287.74 C771.27,1276.95 778.74,1264.65 785.6,1252.08 C792.12,1240.13 799.69,1227.99 804.33,1215.17 C804.57,1214.51 803.62,1213.99 803.16,1214.49" id="Fill-90" fill="#FFFFFE"></path>
            <path d="M777.26,1227.61 C769.43,1234.26 764.77,1244.6 759.85,1253.43 C754.63,1262.79 749.54,1272.23 744.15,1281.5 C743.43,1282.75 745.26,1283.76 746.06,1282.61 C752.22,1273.81 757.7,1264.61 763.31,1255.45 C768.63,1246.75 775.45,1238.25 779.11,1228.69 C779.54,1227.56 778.01,1226.97 777.26,1227.61" id="Fill-91" fill="#FFFFFE"></path>
            <path d="M756.85,1234.4 C749.85,1240.86 745.77,1249.88 741.41,1258.2 C736.76,1267.05 732.5,1276.11 728.52,1285.27 C728.18,1286.06 729.21,1287.13 729.86,1286.3 C735.71,1278.79 740.07,1270.05 744.39,1261.6 C748.88,1252.82 753.67,1244.2 758.18,1235.43 C758.62,1234.58 757.57,1233.74 756.85,1234.4" id="Fill-92" fill="#FFFFFE"></path>
            <path d="M735.27,1243.5 C730.17,1248.45 727,1255.03 723.87,1261.31 C720.51,1268.06 717.1,1274.81 713.93,1281.64 C713.56,1282.44 714.52,1283.33 715.2,1282.63 C725.32,1272.29 727.23,1255.9 736.78,1245.01 C737.68,1243.98 736.26,1242.53 735.27,1243.5" id="Fill-93" fill="#FFFFFE"></path>
            <path d="M713.93,1252.78 C708.03,1261.45 704.54,1271.4 699.39,1280.47 C699.01,1281.15 699.95,1281.94 700.49,1281.32 C707.38,1273.56 710.76,1262.76 715.33,1253.6 C715.8,1252.66 714.52,1251.92 713.93,1252.78" id="Fill-94" fill="#FFFFFE"></path>
            <path d="M1064.53,1085.73 C1063.47,1109.61 1052.52,1131.97 1040.1,1151.92 C1033.88,1161.92 1027,1171.48 1019.95,1180.9 C1013.28,1189.83 1005.76,1198.61 1000.4,1208.42 C999.91,1209.33 1001.09,1210.29 1001.85,1209.54 C1009.88,1201.56 1016.67,1191.99 1023.38,1182.91 C1030.84,1172.79 1038.03,1162.43 1044.46,1151.61 C1056.37,1131.56 1065.28,1109.39 1064.68,1085.73 C1064.68,1085.63 1064.54,1085.63 1064.53,1085.73" id="Fill-95" fill="#FFFFFE"></path>
            <path d="M1059.25,1135.44 C1052.04,1150.24 1044.84,1164.95 1035.86,1178.78 C1026.59,1193.06 1014.87,1204.83 1004,1217.78 C1003.16,1218.78 1004.22,1220.46 1005.47,1219.69 C1019.65,1210.92 1030.66,1196.66 1039.69,1182.9 C1049.08,1168.59 1056.51,1152.59 1060.26,1135.87 C1060.39,1135.29 1059.54,1134.85 1059.25,1135.44" id="Fill-96" fill="#FFFFFE"></path>
            <path d="M1037.09,1204.55 C1020.72,1220.63 1000.89,1231.95 981.18,1243.39 C980.04,1244.06 981.04,1245.6 982.19,1245.11 C1002.38,1236.53 1028.02,1226.41 1038.6,1205.71 C1039.09,1204.76 1037.9,1203.76 1037.09,1204.55" id="Fill-97" fill="#FFFFFE"></path>
            <path d="M932.74,1274.12 C939.13,1275.67 946.37,1273.06 952.36,1270.9 C959,1268.5 965.46,1265.49 971.73,1262.28 C985.13,1255.41 999.3,1247.88 1011.26,1238.7 C1011.77,1238.31 1011.51,1237.28 1010.78,1237.55 C997.5,1242.5 985.83,1251.71 973.37,1258.39 C966.58,1262.02 959.66,1265.27 952.31,1267.62 C945.9,1269.67 938.68,1270.16 932.59,1272.97 C932.09,1273.2 932.24,1274 932.74,1274.12" id="Fill-98" fill="#FFFFFE"></path>
            <path d="M908.52,1294.54 C923.71,1293.56 939.78,1287.03 953.32,1280.39 C960.73,1276.76 968,1272.85 975.16,1268.75 C978.69,1266.73 982.2,1264.7 985.72,1262.68 C989.14,1260.72 993.23,1258.97 995.86,1255.98 C996.6,1255.13 995.86,1254.03 994.82,1254.19 C987.92,1255.26 980.71,1261.05 974.67,1264.44 C967.74,1268.33 960.84,1272.28 953.8,1275.96 C946.41,1279.83 939.01,1283.87 931.25,1286.95 C923.79,1289.92 916.15,1291.82 908.44,1293.96 C908.13,1294.05 908.18,1294.56 908.52,1294.54" id="Fill-99" fill="#FFFFFE"></path>
            <path d="M874.23,1308.15 C885.69,1311.64 899.81,1308.78 911.31,1306.46 C917.82,1305.14 924.25,1303.47 930.61,1301.55 C936.04,1299.92 942.4,1298.49 946.79,1294.72 C947.24,1294.33 946.86,1293.59 946.32,1293.58 C940.62,1293.51 934.97,1296.23 929.59,1297.86 C923.54,1299.68 917.41,1301.29 911.22,1302.57 C904.94,1303.88 898.57,1304.87 892.18,1305.51 C886.18,1306.11 880.15,1305.9 874.23,1307.16 C873.71,1307.27 873.77,1308.01 874.23,1308.15" id="Fill-100" fill="#FFFFFE"></path>
            <path d="M851.03,1318.92 C856.78,1323.25 866.58,1323.45 873.5,1323.55 C880.13,1323.64 890.45,1323.87 895.73,1319.26 C896.34,1318.72 895.82,1317.79 895.1,1317.75 C891.98,1317.57 888.86,1318.69 885.78,1319.22 C881.47,1319.95 877.07,1320.2 872.7,1320.13 C865.66,1320.03 858.16,1317.7 851.2,1318.3 C850.86,1318.33 850.77,1318.72 851.03,1318.92" id="Fill-101" fill="#FFFFFE"></path>
            <path d="M830.29,1326.13 C836.49,1332.25 845.98,1331.96 853.95,1330.71 C855.21,1330.52 854.93,1328.35 853.64,1328.47 C845.68,1329.21 838.21,1327.61 830.54,1325.7 C830.29,1325.64 830.1,1325.95 830.29,1326.13" id="Fill-102" fill="#FFFFFE"></path>
            <path d="M661.117,899.74 C624.958,935.15 609.786,988.85 607.592,1038.11 C607.539,1039.3 609.361,1039.29 609.436,1038.11 C611.015,1013.19 615.605,988.33 624.295,964.88 C633.116,941.07 646.521,920.35 661.291,899.87 C661.366,899.77 661.204,899.65 661.117,899.74" id="Fill-103" fill="#FFFFFE"></path>
            <path d="M680.858,886.49 C664.121,896.68 657.672,919.7 653.416,937.57 C648.543,958.02 646.496,979.01 644.54,999.91 C644.452,1000.85 646.06,1001.08 646.206,1000.14 C649.267,980.4 651.611,960.57 656.129,941.09 C660.646,921.61 667.312,901.77 681.082,886.77 C681.22,886.63 681.044,886.37 680.858,886.49" id="Fill-104" fill="#FFFFFE"></path>
            <path d="M711.01,862.08 C705.1,864.42 701.65,870.1 698.74,875.47 C694.701,882.94 691.807,891.02 689.306,899.11 C684.47,914.74 681.747,930.9 678.467,946.91 C678.154,948.43 680.372,949.07 680.813,947.55 C685.008,933.12 687.933,918.36 692.09,903.91 C694.387,895.92 696.967,887.95 700.58,880.46 C703.58,874.24 707.62,868.94 711.87,863.56 C712.34,862.96 711.93,861.71 711.01,862.08" id="Fill-105" fill="#FFFFFE"></path>
            <path d="M747.83,846.1 C743.59,847.05 740.43,851.5 737.94,854.79 C734.58,859.24 731.81,864.1 729.4,869.13 C724.07,880.3 720.61,892.37 717.77,904.39 C712.29,927.54 710.28,951.24 706.62,974.7 C706.49,975.57 707.76,975.97 707.98,975.08 C713.24,953.16 716.1,930.72 721.3,908.78 C724.14,896.81 727.51,884.93 732.48,873.65 C734.62,868.81 737.02,864.07 739.95,859.65 C742.6,855.67 747.19,852.05 749.04,847.67 C749.4,846.82 748.81,845.88 747.83,846.1" id="Fill-106" fill="#FFFFFE"></path>
            <path d="M774.46,838.15 C768.25,838.77 763.92,848.77 761.68,853.58 C757.3,862.95 754.39,872.96 751.82,882.96 C746.95,901.91 744.27,921.21 740.76,940.43 C740.57,941.44 742.01,941.87 742.32,940.86 C747.75,923.5 750.56,905.27 754.91,887.62 C757.31,877.89 760.03,868.17 763.74,858.84 C765.29,854.93 767.06,851.06 769.33,847.51 C771.06,844.78 773.92,842.58 775.39,839.76 C775.72,839.11 775.32,838.07 774.46,838.15" id="Fill-107" fill="#FFFFFE"></path>
            <path d="M801.91,833.06 C790.52,848.98 788.02,870.12 785.22,888.97 C785.01,890.39 786.98,891.03 787.43,889.58 C793.03,871.4 793.9,850.94 804.97,834.85 C806.27,832.96 803.22,831.23 801.91,833.06" id="Fill-108" fill="#FFFFFE"></path>
            <path d="M824.52,833 C828.53,846.87 831.39,860.83 832.97,875.19 C834.49,889.06 834.51,903.01 835,916.94 C835.07,918.74 837.52,918.64 837.73,916.94 C841.19,889.25 837.51,858.22 827.15,832.28 C826.51,830.69 824.02,831.27 824.52,833" id="Fill-109" fill="#FFFFFE"></path>
            <path d="M846.55,832.85 C863.4,867.06 876.1,903.24 873.5,941.96 C873.42,943.15 875.36,943.43 875.6,942.24 C879.49,923.18 877.25,903.66 871.95,885.06 C866.63,866.38 858.7,848.19 847.25,832.44 C846.95,832.02 846.32,832.37 846.55,832.85" id="Fill-110" fill="#FFFFFE"></path>
            <path d="M870.94,835.55 C875.27,846.97 880.99,857.81 885.33,869.25 C889.84,881.12 893.59,893.26 896.63,905.59 C902.67,930.04 905.97,955.06 907.78,980.16 C907.88,981.48 909.76,981.49 909.85,980.16 C911.52,954.92 907.95,929.5 901.7,905.07 C898.48,892.5 894.53,880.1 889.76,868.03 C885.29,856.68 880.3,844.48 872.83,834.76 C872.19,833.93 870.48,834.35 870.94,835.55" id="Fill-111" fill="#FFFFFE"></path>
            <path d="M904.09,848.44 C911.35,854.04 917.25,859.84 921.81,867.92 C926.83,876.81 930.03,886.64 932.46,896.53 C937.63,917.65 939.2,939.26 940.75,960.88 C941.44,970.39 941.57,980.3 943.27,989.68 C943.52,991.05 945.39,990.56 945.52,989.38 C947.7,969.39 945.93,948.21 943.6,928.33 C941.1,907.05 937.16,884.7 926.3,865.89 C921.57,857.71 914.58,848.77 905.26,845.67 C903.49,845.09 902.85,847.48 904.09,848.44" id="Fill-112" fill="#FFFFFE"></path>
            <path d="M942.63,867.01 C944.08,871.24 948.17,875.03 950.77,878.61 C954.2,883.34 957.3,888.32 960.17,893.42 C966.82,905.21 972.54,917.6 977.35,930.25 C981.99,942.48 985.97,955.02 988.83,967.79 C990.12,973.55 991.24,979.38 992.07,985.23 C992.77,990.21 992.66,995.57 993.78,1000.45 C994.25,1002.46 997.15,1002.3 997.7,1000.45 C999.1,995.65 998.46,989.76 997.99,984.83 C997.41,978.74 996.41,972.72 995.08,966.75 C992.07,953.28 987.83,940.1 982.64,927.3 C977.54,914.72 971.69,902.42 964.43,890.93 C961.2,885.82 957.73,880.86 953.94,876.16 C951.16,872.7 947.57,867.8 943.18,866.46 C942.87,866.37 942.52,866.69 942.63,867.01" id="Fill-113" fill="#FFFFFE"></path>
            <path d="M984.47,897.61 C986.47,901.83 990.11,905.54 992.56,909.58 C995.21,913.97 997.57,918.54 999.67,923.23 C1004.26,933.44 1007.51,944.39 1010,955.29 C1014.87,976.58 1016.53,999.23 1014.23,1020.99 C1014.04,1022.72 1016.92,1023.11 1017.27,1021.41 C1021.93,998.82 1020.21,975.55 1014.49,953.26 C1011.67,942.25 1007.68,931.68 1002.64,921.49 C1000.16,916.49 997.39,911.63 994.27,907.01 C991.89,903.49 989.16,898.89 985.63,896.45 C984.87,895.92 984.14,896.92 984.47,897.61" id="Fill-114" fill="#FFFFFE"></path>
            <path d="M600.459,983.96 C596.129,989 594.571,996.07 593.431,1002.47 C591.938,1010.83 591.499,1019.37 591.428,1027.85 C591.284,1044.93 593.072,1061.89 593.539,1078.95 C593.556,1079.56 594.485,1079.56 594.498,1078.95 C594.829,1062.89 593.374,1046.84 593.337,1030.78 C593.317,1022.16 593.611,1013.46 594.951,1004.93 C596.088,997.69 598.513,991.08 600.828,984.17 C600.897,983.97 600.603,983.79 600.459,983.96" id="Fill-115" fill="#FFFFFE"></path>
            <path d="M650.149,908.74 C645.2,916.22 642.664,924.83 640.393,933.44 C637.784,943.33 635.819,953.41 634.333,963.52 C631.556,982.42 629.173,1001.88 628.848887,1020.99 C628.835,1021.81 630.121,1022.02 630.298,1021.19 C634.265,1002.62 635.138,983.3 638.012,964.54 C639.483,954.93 641.123,945.35 643.435,935.91 C645.645,926.88 648.832,918.16 651.229,909.2 C651.405,908.53 650.514,908.19 650.149,908.74" id="Fill-116" fill="#FFFFFE"></path>
            <path d="M684.11,880.91 C680.787,887.22 679.156,894.37 677.345,901.22 C675.361,908.73 673.573,916.29 672.144,923.92 C669.387,938.64 667.481,953.42 665.944,968.31 C665.886,968.88 666.86,969.02 666.959,968.44 C669.465,953.85 672.129,939.25 675.27,924.78 C676.851,917.5 678.431,910.21 680.269,902.99 C682.075,895.89 684.677,888.87 685.795,881.62 C685.942,880.67 684.639,879.91 684.11,880.91" id="Fill-117" fill="#FFFFFE"></path>
            <path d="M722.78,859.76 C717.29,862.1 714.33,868.11 711.91,873.34 C708.64,880.42 706.45,888.02 704.51,895.56 C700.73,910.31 698.28,925.39 695.834,940.4 C695.637,941.61 697.254,942.08 697.683,940.91 C702.57,927.55 704.4,912.98 707.76,899.19 C709.55,891.84 711.59,884.52 714.42,877.5 C716.87,871.45 720.33,866.16 723.64,860.62 C723.99,860.03 723.32,859.53 722.78,859.76" id="Fill-118" fill="#FFFFFE"></path>
            <path d="M758.22,844.06 C751.63,850.05 748.54,859.21 745.81,867.48 C742.61,877.14 740.69,887.14 738.12,896.97 C737.85,897.99 739.35,898.38 739.69,897.4 C742.76,888.53 745.31,879.49 748.06,870.51 C750.84,861.44 754.81,853.19 759.21,844.82 C759.54,844.18 758.75,843.57 758.22,844.06" id="Fill-119" fill="#FFFFFE"></path>
            <path d="M791.12,834.48 C786.27,836.57 783.4,842.31 781.32,846.85 C778.44,853.1 776.54,859.76 774.94,866.44 C771.78,879.57 770.29,893.07 766.92,906.15 C766.65,907.19 768.27,907.98 768.74,906.91 C773.74,895.54 775.17,882.71 777.78,870.66 C779.23,863.99 780.88,857.3 783.41,850.94 C785.67,845.24 789.29,840.91 792.38,835.75 C792.9,834.88 791.91,834.15 791.12,834.48" id="Fill-120" fill="#FFFFFE"></path>
            <path d="M814.59,832.65 C814.15,857.85 813.29,882.64 810.68,907.72 C810.6,908.49 811.77,908.59 811.99,907.9 C819.41,883.84 816.49,857.42 816,832.65 C815.98,831.75 814.61,831.74 814.59,832.65" id="Fill-121" fill="#FFFFFE"></path>
            <path d="M833.53,832.71 C834.52,839.97 837.54,846.86 839.75,853.82 C841.97,860.84 843.88,867.98 845.54,875.15 C849.06,890.37 849.46,905.44 850.74,920.9 C850.86,922.42 853.16,922.95 853.56,921.28 C857.18,906.19 854.67,889.4 851.04,874.56 C849.14,866.8 846.53,859.26 843.62,851.83 C841,845.16 838.39,838.16 833.9,832.49 C833.74,832.29 833.5,832.52 833.53,832.71" id="Fill-122" fill="#FFFFFE"></path>
            <path d="M857.84,834.5 C863.25,844.92 869.06,855.11 873.83,865.85 C878.69,876.77 881.85,888.27 886.49,899.23 C887.05,900.54 889.27,899.87 889.17,898.5 C888.32,887.02 883.22,875.61 878.38,865.3 C873.15,854.17 867.21,843.18 859.69,833.42 C858.87,832.36 857.19,833.24 857.84,834.5" id="Fill-123" fill="#FFFFFE"></path>
            <path d="M887.19,840.87 C890.81,847.52 895.14,853.69 898.45,860.55 C902.34,868.6 905.66,876.99 908.55,885.44 C911.29,893.45 913.61,901.59 915.7,909.8 C917.57,917.16 918.87,924.78 921.37,931.96 C922.07,933.96 925.43,933.8 925.28,931.43 C924.81,923.65 922.76,915.91 920.89,908.36 C918.68,899.43 916.13,890.58 913.11,881.89 C910.25,873.67 906.97,865.67 902.67,858.08 C898.99,851.59 894.41,844.2 888.05,840.01 C887.5,839.65 886.91,840.34 887.19,840.87" id="Fill-124" fill="#FFFFFE"></path>
            <path d="M927.26,855.89 C943.34,868.01 951.26,890.08 957.43,908.46 C963.69,927.11 968.72,946.64 971.99,966.05 C972.26,967.61 974.81,967.24 974.75,965.68 C973.93,944.72 967.74,923.83 960.46,904.29 C956.49,893.65 951.98,883.07 945.89,873.45 C941.36,866.31 935.78,858.47 927.89,854.81 C927.15,854.46 926.62,855.41 927.26,855.89" id="Fill-125" fill="#FFFFFE"></path>
            <path d="M968.02,881.48 C970.71,888 974.29,894.12 977.24,900.52 C981.21,909.17 984.84,917.99 988.32,926.84 C991.62,935.24 994.52,943.78 996.72,952.53 C998.61,960.05 999.38,967.72 1001.01,975.26 C1001.31,976.62 1003.28,976.49 1003.64,975.26 C1005.72,968.28 1004,959.94 1002.44,953.03 C1000.31,943.61 996.9,934.4 993.25,925.48 C989.75,916.94 985.68,908.61 981.09,900.6 C977.28,893.96 973.72,886.89 968.64,881.12 C968.41,880.85 967.88,881.13 968.02,881.48" id="Fill-126" fill="#FFFFFE"></path>
            <path d="M1010.71,924.59 C1011.63,925.72 1012.39,928.57 1013.03,930 C1014.35,933 1015.52,936.02 1016.57,939.12 C1019.37,947.4 1021.73,955.83 1023.9,964.29 C1027.64,978.81 1030,993.72 1034.15,1008.12 C1034.53,1009.41 1036.29,1009.07 1036.4,1007.82 C1036.95,1001.46 1035.46,994.76 1034.12,988.57 C1032.07,979.12 1029.67,969.74 1027.07,960.43 C1024.65,951.8 1022.1,943.18 1018.7,934.89 C1016.97,930.67 1015.39,925.77 1011.04,924.03 C1010.69,923.9 1010.53,924.36 1010.71,924.59" id="Fill-127" fill="#FFFFFE"></path>
            <path d="M1265.43,848.37 C1245.87,811.68 1097.04,870.85 999.84,909.69 L1013.81,928.13 C1046.15,916.94 1152.96,887.88 1162.06,901.42 C1171.18,914.96 1037.82,1043.93 871.94,1136.94 C734.23,1214.14 519.156,1269.7 509.184,1256.84 C499.217,1243.99 557.611,1193.73 596.493,1164.54 L588.331,1139.62 C505.977,1196.7 377.95,1296.38 396.136,1339.54 C414.307,1382.7 682.537,1282.01 884.13,1173.52 C1180.33,1014.12 1285,885.06 1265.43,848.37" id="Fill-128" fill="#161918"></path>
            <path d="M1268.49,846.58 C1263.41,837.4 1252.63,834.51 1242.89,833.61 C1227.55,832.19 1211.74,835.01 1196.78,838.14 C1153.41,847.22 1111.32,862.76 1069.98,878.41 C1046.17,887.42 1022.53,896.83 998.89,906.28 C997.03,907.02 995.25,909.46 996.78,911.48 C1001.44,917.62 1006.09,923.77 1010.75,929.92 C1011.66,931.12 1013.16,932.1 1014.75,931.55 C1044.11,921.43 1074.57,913.6 1104.97,907.35 C1119.05,904.45 1133.56,901.49 1147.99,901.44 C1151.67,901.42 1155.61,901.72 1158.63,902.99 C1159.88,903.52 1158.38,903.28 1158.94,902.67 C1158.37,903.29 1159.08,903.39 1158.61,904.66 C1156.59,910.1 1151.24,916.81 1146.97,921.92 C1138.71,931.81 1129.67,941.07 1120.46,950.07 C1092.38,977.53 1062.13,1002.81 1031.11,1026.84 C954.93,1085.84 872.8,1137.77 784.08,1175.71 C743.65,1193 702.25,1208.1 660.361,1221.45 C626.892,1232.11 593.003,1241.88 558.623,1249.17 C547.86,1251.45 536.988,1253.61 526.026,1254.68 C522.565,1255.01 519.052,1255.29 515.573,1255.1 C513.905,1255.02 514.025,1255.05 512.831,1254.78 C511.495,1254.48 511.833,1254.19 511.996,1254.66 C511.975,1254.6 511.519,1253.79 511.602,1252.66 C511.781,1250.23 513.253,1247.73 514.442,1245.69 C518.168,1239.31 523.185,1233.69 528.204,1228.32 C542.356,1213.16 558.207,1199.54 574.252,1186.44 C582.137,1180 590.146,1173.72 598.28,1167.6 C599.502,1166.68 600.432,1165.2 599.907,1163.6 C597.187,1155.29 594.466,1146.99 591.744,1138.68 C591.085,1136.67 588.52,1135.2 586.544,1136.57 C541.771,1167.62 497.769,1200.42 457.516,1237.22 C440.086,1253.15 423.079,1269.96 408.998,1288.99 C400.101,1301.01 389.919,1316.47 390.905,1332.17 C392.499,1357.56 425.063,1354.18 442.87,1351.9 C485.749,1346.41 527.751,1332.39 568.393,1318.18 C624.679,1298.51 679.874,1275.67 734.23,1251.2 C793.41,1224.55 851.57,1195.66 908.41,1164.33 C966.61,1132.26 1023.68,1097.97 1078.34,1060.15 C1117.68,1032.92 1156.03,1003.89 1191.3,971.51 C1214.27,950.42 1236.71,927.72 1254.03,901.64 C1262.78,888.46 1273.18,871.15 1270.97,854.56 C1270.6,851.75 1269.81,849.1 1268.49,846.58 C1266.38,842.54 1260.26,846.12 1262.38,850.15 C1262.97,851.29 1263.96,854.82 1264.06,856.01 C1264.33,859.11 1264.07,861.93 1263.62,864.31 C1262.13,872.26 1258.76,879.61 1254.88,886.64 C1241.95,910.11 1223.26,930.44 1204.39,949.23 C1173.92,979.56 1140.26,1006.66 1105.63,1032.06 C1057.25,1067.55 1006.49,1099.78 954.67,1129.99 C898.13,1162.94 840.23,1193.5 781.17,1221.67 C726.43,1247.77 670.795,1272.08 614.187,1293.83 C569.034,1311.18 523.058,1327.58 475.887,1338.58 C460.361,1342.2 444.51,1345.41 428.543,1346.11 C420.18,1346.48 408.499,1346.71 402.07,1341.6 C399.634,1339.66 398.279,1336.19 397.985,1332.17 C397.514,1325.72 399.647,1319.2 402.322,1313.41 C410.624,1295.46 424.456,1280.09 438.035,1265.97 C474.807,1227.74 517.419,1194.95 560.252,1163.86 C570.13,1156.69 580.089,1149.64 590.117,1142.68 C588.384,1141.97 586.65,1141.27 584.917,1140.56 C587.638,1148.87 590.358,1157.18 593.08,1165.48 C593.622,1164.15 594.164,1162.82 594.707,1161.49 C577.056,1174.76 559.841,1188.68 543.485,1203.53 C530.67,1215.17 515.875,1227.96 507.576,1243.45 C504.229,1249.7 502.254,1259.57 511.202,1261.67 C518.436,1263.36 526.765,1261.8 533.969,1260.8 C564.583,1256.54 594.785,1248.27 624.436,1239.74 C666.716,1227.59 708.45,1213.44 749.43,1197.45 C791.95,1180.85 833.88,1162.31 873.72,1140 C921.07,1113.48 966.58,1083.66 1010.23,1051.43 C1045.52,1025.37 1079.83,997.78 1111.98,967.91 C1123.5,957.21 1134.8,946.21 1145.34,934.54 C1151.72,927.48 1158.37,920.08 1163.05,911.75 C1165.72,907.01 1168.14,900.71 1162.5,897.07 C1154.24,891.73 1140.27,894.52 1131.29,895.67 C1097.01,900.08 1063.04,909.26 1030.02,919.24 C1024.27,920.97 1018.54,922.76 1012.87,924.72 C1014.2,925.26 1015.53,925.8 1016.87,926.35 C1012.21,920.2 1007.55,914.05 1002.89,907.9 C1002.19,909.64 1001.48,911.37 1000.78,913.1 C1041.76,896.73 1082.8,880.39 1124.6,866.2 C1144.37,859.49 1164.31,853.21 1184.58,848.2 C1200.43,844.27 1216.74,840.76 1233.13,840.4 C1242.76,840.19 1257.01,840.46 1262.38,850.15 C1264.59,854.14 1270.7,850.57 1268.49,846.58" id="Fill-129" fill="#FFFFFE"></path>
            <path d="M519.623,1204.98 C504.14,1216.72 490.057,1230.37 476.911,1244.69 C462.87,1259.98 448.613,1276.94 441.024,1296.51 C437.814,1304.79 435.707,1314.07 439.003,1322.62 C439.346,1323.51 440.585,1323.17 440.426,1322.23 C437.39,1304.33 447.281,1287.18 457.192,1273.11 C469.562,1255.54 484.675,1239.86 500.124,1224.99 C506.838,1218.53 513.53,1212.17 520.025,1205.5 C520.277,1205.25 519.934,1204.75 519.623,1204.98" id="Fill-130" fill="#FFFFFE"></path>
            <path d="M473.708,1286.83 C472.702,1301.17 491.057,1303.02 501.448,1303.00016 C524.841,1302.97 548.659,1295.95 570.915,1289.45 C627.624,1272.89 682.582,1250.03 737.01,1227.24 C747.53,1222.84 757.97,1218.22 768.39,1213.57 C773.94,1211.08 779.66,1207.85 785.46,1206.02 C786.41,1205.72 786.01,1204.22 785.05,1204.52 C771.67,1208.75 758.71,1214.18 745.68,1219.41 C720.93,1229.33 696.434,1239.85 671.612,1249.59 C643.692,1260.56 615.56,1271.06 587.001,1280.25 C562.941,1287.99 538.275,1295.72 513.102,1298.82 C500.887,1300.33 477.211,1303.54 473.925,1286.8 C473.9,1286.67 473.716,1286.71 473.708,1286.83" id="Fill-131" fill="#FFFFFE"></path>
            <path d="M1092.24,886.56 C1104.79,886.83 1116.8,883.37 1128.92,880.38 C1143.04,876.9 1157.59,873.73 1172.14,872.96 C1187.27,872.17 1210.85,875.67 1205.02,896.07 C1200.25,912.78 1185.74,927.12 1173.88,939.08 C1158.38,954.72 1141.59,969.09 1124.54,982.98 C1111.64,993.49 1097.45,1003.01 1085.53,1014.65 C1084.66,1015.5 1085.83,1017.14 1086.87,1016.39 C1117.8,993.95 1148.28,969.66 1175.12,942.44 C1187.5,929.88 1202.26,915.03 1207.46,897.65 C1209.09,892.17 1209.41,886.03 1206.22,881.03 C1201.94,874.3 1193.45,871.85 1185.98,871.07 C1169.99,869.4 1153.31,873.32 1137.8,876.74 C1122.73,880.07 1107.44,884 1092.2,886.27 C1092.04,886.29 1092.08,886.55 1092.24,886.56" id="Fill-132" fill="#FFFFFE"></path>
            <path d="M1212.03,860.29 C1219.46,863.53 1223.54,870.67 1226.91,877.68 C1227.07,878.02 1227.63,877.78 1227.51,877.42 C1224.89,869.72 1220.46,862.49 1212.7,859.14 C1211.93,858.81 1211.25,859.95 1212.03,860.29" id="Fill-133" fill="#FFFFFE"></path>
            <path d="M973.75,1086.87 C1027.56,1052.27 1074.33,1008.14 1126.63,971.42 C1127.21,971.02 1126.68,970.08 1126.07,970.47 C1072.09,1004.86 1025.92,1049.85 973.45,1086.36 C973.14,1086.58 973.43,1087.08 973.75,1086.87" id="Fill-134" fill="#FFFFFE"></path>
            <path d="M1028.57,1070.46 C1055.21,1049.93 1082.82,1030.69 1109.64,1010.38 C1136.14,990.3 1162.77,969.93 1186.14,946.2 C1186.74,945.58 1185.84,944.71 1185.2,945.26 C1159.43,967.51 1133.16,989.02 1106,1009.55 C1079.8,1029.35 1053.64,1049.23 1028.34,1070.17 C1028.18,1070.31 1028.4,1070.59 1028.57,1070.46" id="Fill-135" fill="#FFFFFE"></path>
            <path d="M558.073,221.981 C547.643,235.51 540.546,252.411 533.942,268.085 C527.045,284.459 521.291,301.29 516.513,318.4 C506.448,354.441 500.661,391.659 498.188,428.973 C493.167,504.672 501.554,582.075 523.224,654.804 C534.243,691.786 548.252,729.67 570.397,761.55 C571.476,763.1 573.802,761.77 572.941,760.06 C557.437,729.3 542.972,698.292 532.346,665.455 C520.895,630.073 512.898,593.554 508.004,556.697 C498.183,482.739 500.005,406.068 517.665,333.403 C522.389,313.967 528.328,294.823 535.614,276.192 C539.159,267.129 543.051,258.201 547.304,249.447 C551.561,240.687 556.601,232.326 560.616,223.468 C561.411,221.715 559.225,220.487 558.073,221.981" id="Fill-136" fill="#FFFFFE"></path>
            <path d="M582.545,228.336 C577.544,267.93 579.566,308.776 585.595,348.137 C591.428,386.22 601.86,423.481 616.084,459.27 C644.727,531.337 688.447,596.67 740.85,653.597 C770.6,685.916 802.95,717.24 839,742.49 C840.96,743.87 843.37,740.75 841.57,739.15 C812.45,713.34 782.89,688.264 755.94,660.111 C729.17,632.143 704.43,602.152 682.51,570.231 C639.345,507.382 607.474,436.732 593.433,361.577 C585.174,317.367 584.366,273.109 586.93,228.336 C587.094,225.458 582.889,225.617 582.545,228.336" id="Fill-137" fill="#FFFFFE"></path>
            <path d="M555.053,241.233 C553.813,261.005 550.807,280.463 546.555,299.802 C542.375,318.808 537.511,337.674 534.003,356.821 C527.544,392.08 528.729,427.617 533.501,463.019 C542.617,530.646 565.497,597.269 600.311,655.994 C619.253,687.948 641.668,719.31 669.531,744.1 C670.258,744.74 671.246,743.76 670.598,743.03 C648.368,718.18 627.548,692.451 610.104,663.971 C592.048,634.491 576.929,603.193 565.024,570.74 C553.352,538.921 544.665,505.971 539.416,472.48 C533.976,437.767 531.4,401.77 536.888,366.919 C540.245,345.593 545.746,324.694 550.405,303.635 C554.92,283.233 558.929,262.188 557.587,241.233 C557.483,239.604 555.155,239.601 555.053,241.233" id="Fill-138" fill="#FFFFFE"></path>
            <path d="M571.83,248.68 C564.8,276.134 563.812,305.864 563.224,334.075 C562.607,363.655 564.026,393.292 567.68,422.655 C574.909,480.764 590.829,538.014 618.695,589.722 C626.503,604.209 635.213,618.197 644.986,631.442 C654.459,644.281 664.827,657.257 676.948,667.698 C677.863,668.486 678.995,667.312 678.256,666.391 C669.109,654.987 659.48,644.09 650.868,632.242 C642.508,620.743 634.787,608.742 627.751,596.389 C613.393,571.179 601.961,544.372 593.108,516.759 C575.281,461.146 567.095,402.87 566.957,344.531 C566.919,328.456 567.49,312.38 568.659,296.348 C569.816,280.493 572.031,264.688 572.839,248.816 C572.869,248.235 571.973,248.122 571.83,248.68" id="Fill-139" fill="#FFFFFE"></path>
            <path d="M522.787,876.33 C519.743,872.76 514.826,871.06 511.53,867.52 C508.396,864.16 506.346,859.97 505.22,855.53 C502.757,845.83 504.53,835.36 507.752,826.06 C514.861,805.53 531.478,784.95 553.353,779.59 C559.148,778.17 565.225,778.07 571.039,779.44 C578.075,781.11 583.936,784.9 590.346,788 C592.358,788.98 594.05,786.69 592.67,784.99 C584.456,774.9 569.528,771.02 557.043,772.6 C544.729,774.16 533.68,780.77 524.835,789.26 C508.218,805.21 494.741,831.56 499.854,855.11 C501.061,860.67 503.556,865.93 507.348,870.19 C510.85,874.12 516.813,878.86 522.364,877.93 C523.138,877.8 523.206,876.82 522.787,876.33" id="Fill-140" fill="#FFFFFE"></path>
            <path d="M583.764,822.92 C584.455,819.64 583.65,816.27 584.139,812.93 C584.603,809.76 585.89,806.79 587.786,804.21 C591.677,798.92 597.938,795.6 604.067,793.61 C611.065,791.34 618.482,790.6 625.809,791.14 C633.138,791.67 639.779,794.43 646.9,795.66 C648.806,795.99 649.95,794 648.733,792.51 C643.593,786.2 633.409,784.48 625.809,783.99 C616.905,783.42 607.655,784.67 599.354,787.99 C592.313,790.8 585.472,795.4 581.741,802.2 C578.566,807.99 576.782,818.15 581.76,823.45 C582.355,824.08 583.578,823.8 583.764,822.92" id="Fill-141" fill="#FFFFFE"></path>
            <path d="M616.416,787.85 C611.799,778.43 612.132,768.77 618.436,760.25 C624.407,752.17 632.994,748.57 641.82,744.56 C643.317,743.88 642.429,741.77 641.043,741.69 C629.569,741.06 618.275,750.2 612.457,759.4 C606.283,769.17 605.599,781.29 613.672,789.97 C615.088,791.49 617.252,789.56 616.416,787.85" id="Fill-142" fill="#FFFFFE"></path>
            <path d="M666.619,777.25 C666.75,773.73 665.998,770.39 667.234,766.96 C668.26,764.12 670.195,761.71 672.524,759.82 C678.239,755.17 686.104,753.26 693.336,753.12 C701.3,752.97 709.44,754.97 715.98,759.64 C719.34,762.04 722.12,765.16 724.15,768.75 C726.53,772.95 726.83,778.15 729.62,782.01 C730.87,783.74 733.25,783.44 734,781.44 C736.83,773.94 730.36,763.79 725.31,758.55 C719.87,752.91 712.53,749.23 704.9,747.66 C691.726,744.94 674.834,747.3 665.847,758.32 C661.617,763.51 659.005,772.22 662.981,778.24 C664.048,779.85 666.546,779.23 666.619,777.25" id="Fill-143" fill="#FFFFFE"></path>
            <path d="M893.91,728.13 C892.07,727.01 891.26,725.2 888.89,724.35 C886.25,723.4 883.09,723.26 880.3,723.16 C874.7,722.98 869.03,723.81 863.66,725.39 C852.53,728.67 842.33,735.13 834.23,743.4 C826.36,751.43 819.99,761.55 817.5,772.61 C815.48,781.62 814.89,798.22 824.11,803.46 C825.15,804.05 826.39,803.29 826.43,802.13 C826.6,797.27 824.1,792.96 823.27,788.12 C822.42,783.16 822.6,778.06 823.7,773.16 C825.99,762.95 831.69,753.86 839.07,746.54 C846.6,739.06 855.99,733.23 866.24,730.35 C871.19,728.96 876.3,728.29 881.44,728.55 C883.72,728.66 885.95,729.19 888.22,729.31 C890.02,729.41 892.14,728.49 893.76,728.7 C894.08,728.75 894.15,728.28 893.91,728.13" id="Fill-144" fill="#FFFFFE"></path>
            <path d="M825.19,766.5 C815.63,749.9 794.6,749.47 780.64,760.37 C765.39,772.28 756.13,792.37 752.93,811.09 C751.52,819.35 749.21,834.41 756.28,840.87 C757.08,841.6 758.6,841.38 758.86,840.19 C759.86,835.45 758.48,830.11 758.42,825.29 C758.35,819.83 758.99,814.4 760.16,809.07 C762.58,798.09 767.02,787.5 773.38,778.22 C778.7,770.47 786.08,762.75 795.4,760.15 C806.15,757.15 813.93,763.69 822.24,769.45 C824.08,770.72 826.22,768.27 825.19,766.5" id="Fill-145" fill="#FFFFFE"></path>
            <path d="M709.2,803.45 C712.91,798.65 716.12,793.71 720.94,789.9 C725.45,786.34 730.69,783.62 736.21,782.02 C741.56,780.48 747.26,780.02 752.73,781.16 C755.74,781.78 758.46,782.89 761.15,784.34 C763.28,785.49 765.03,786.59 767.53,786 C768.23,785.83 768.78,785.09 768.770134,784.38 C768.63,778.42 759.17,775.82 754.46,774.88 C747.87,773.56 740.97,774.02 734.54,775.96 C722.87,779.49 708.75,789.47 706.51,802.31 C706.21,804.02 708.18,804.77 709.2,803.45" id="Fill-146" fill="#FFFFFE"></path>
            <path d="M811.87,824.85 C814.67,817.85 819.78,809.84 826.12,805.6 C833.91,800.41 841.89,801.28 849.63,805.99 C853.56,808.38 856.68,802.57 853.16,799.96 C844.46,793.5 832.9,793.3 823.85,799.14 C819.64,801.86 816.13,805.53 813.42,809.72 C810.29,814.55 809.55,819 809.50996,824.53 C809.5,825.98 811.39,826.04 811.87,824.85" id="Fill-147" fill="#FFFFFE"></path>
            <path d="M923.6,711.66 C911.96,703.572 899.12,716.38 893.72,726.01 C888.75,734.88 882.93,755.8 896,760.93 C897.75,761.61 899.77,759.53 899.12,757.81 C897.48,753.45 895.17,749.95 895.15,745.13 C895.12,739.84 896.79,734.5 899.22,729.84 C903.68,721.3 911.93,712.91 922.41,714.48 C924.12,714.73 925.1,712.7 923.6,711.66" id="Fill-148" fill="#FFFFFE"></path>
            <path d="M563.203,873.17 C550.445,858.96 527.714,864.23 513.757,873.36 C497.188,884.2 484.24,902.05 479.307,921.25 C477.96,926.5 477.173,932.02 477.359,937.44 C477.501,941.56 478.079,948.41 481.46,951.23 C482.378,952 483.949,951.81 484.266,950.49 C485.314,946.11 483.417,940.49 483.431,935.87 C483.446,930.36 484.445,924.92 486.07,919.67 C489.521,908.52 495.833,898.18 503.781,889.67 C511.248,881.67 520.53,874.77 531.191,871.8 C542.079,868.78 550.895,871.75 560.754,876.34 C562.806,877.29 564.795,874.94 563.203,873.17" id="Fill-149" fill="#FFFFFE"></path>
            <path d="M593.947,915.79 C592.936,899.52 598.664,881.89 608.673,869.1 C613.188,863.33 619.384,857.58 626.839,856.22 C630.469,855.56 634.197,856.08 637.58,857.54 C642.024,859.45 645.253,863.59 650.111,864.38 C651.32,864.57 652.143,863.72 651.965,862.52 C650.613,853.39 636.535,848.78 628.532,849.36 C619.338,850.03 611.575,855.81 605.928,862.75 C599.568,870.57 595.099,879.93 592.381,889.61 C589.981,898.15 588.453,907.63 591.93,916.06 C592.33,917.04 594.026,917.05 593.947,915.79" id="Fill-150" fill="#FFFFFE"></path>
            <path d="M637.163,878.57 C641.926,872.16 646.854,866.48 654.922,864.42 C658.65,863.46 662.617,863.31 666.416,863.94 C669.526,864.46 672.597,866.29 675.535,864.35 C676.135,863.95 676.321,863.37 676.212,862.68 C674.836,854.11 656.847,856.83 651.426,858.78 C643.18,861.75 635.073,868.57 634.992941,877.98 C634.982,879.23 636.517,879.44 637.163,878.57" id="Fill-151" fill="#FFFFFE"></path>
            <path d="M660.23,860.53 C660.477,855.96 660.08,851.67 661.665,847.26 C663.361,842.55 666.556,838.44 670.312,835.17 C674.365,831.65 679.264,829.04 684.454,827.66 C689.3,826.37 694.554,827.11 699.28,825.7 C700.62,825.3 700.66,823.7 699.64,822.95 C694.764,819.33 686.963,820.71 681.568,822.37 C675.684,824.18 670.233,827.34 665.683,831.48 C658.479,838.03 650.133,851.95 657.104,861.37 C658.079,862.69 660.136,862.28 660.23,860.53" id="Fill-152" fill="#FFFFFE"></path>
            <path d="M533.051,945.11 C524.095,939.21 509.883,941.15 500.63,945.26 C490.662,949.7 482.946,958.12 477.651,967.51 C466.456,987.36 464.07,1013.59 473.301,1034.63 C478.364,1046.18 487.814,1055.96 500.342,1058.91 C501.652,1059.22 502.45,1057.44 501.266,1056.72 C482.595,1045.43 473.077,1026.76 473.304,1005.04 C473.512,985.14 481.408,962.94 498.792,951.76 C503.362,948.82 508.486,946.83 513.878,946.07 C520.271,945.18 526.26,946.87 532.584,946.84 C533.533,946.83 533.801,945.61 533.051,945.11" id="Fill-153" fill="#FFFFFE"></path>
            <path d="M919.21,743.74 C924.83,735.82 930.62,727.63 940.72,725.53 C949.16,723.77 957.75,726.58 964.92,731.02 C973.27,736.18 979.87,743.7 984.74,752.16 C990.13,761.52 991.24,771.14 992.94,781.56 C993.19,783.06 995.31,782.78 995.71,781.56 C999.31,770.69 994.97,757.57 989.66,747.99 C984.26,738.22 975.69,729.66 965.88,724.32 C957.38,719.71 946.85,717.08 937.38,720.13 C932.74,721.62 928.53,724.36 925.17,727.87 C920.88,732.35 918.57,737.03 917.46,743 C917.25,744.08 918.57,744.64 919.21,743.74" id="Fill-154" fill="#FFFFFE"></path>
            <path d="M563.807,96.152 L485.545,152.267 C461.945,169.072 465.931,191.649 495.577,200.854 L528.518,211.075 L563.807,96.152" id="Fill-155" fill="#161918"></path>
            <path d="M563.807,96.152 L485.545,152.267 C461.945,169.072 465.931,191.649 495.577,200.854 L528.518,211.075 L563.807,96.152 Z" id="Stroke-156" stroke="#FFFFFE" stroke-width="4.871" stroke-linecap="round" stroke-linejoin="round"></path>
            <path d="M653.124,123.583 L686.41,213.952 C696.515,241.109 680.534,257.556 650.832,248.534 L617.835,238.501 L653.124,123.583" id="Fill-157" fill="#161918"></path>
            <path d="M653.124,123.583 L686.41,213.952 C696.515,241.109 680.534,257.556 650.832,248.534 L617.835,238.501 L653.124,123.583 Z" id="Stroke-158" stroke="#FFFFFE" stroke-width="4.871" stroke-linecap="round" stroke-linejoin="round"></path>
            <path d="M572.274,54.096 C561.397,72.302 560.538,79.496 560.538,79.496 L517.545,219.477 L621.988,251.548 L664.977,111.572 C664.977,111.572 669.51,101.857 669.912,84.078 L572.274,54.096" id="Fill-159" fill="#161918"></path>
            <path d="M572.274,54.096 C561.397,72.302 560.538,79.496 560.538,79.496 L517.545,219.477 L621.988,251.548 L664.977,111.572 C664.977,111.572 669.51,101.857 669.912,84.078 L572.274,54.096 Z" id="Stroke-160" stroke="#FFFFFE" stroke-width="4.871" stroke-linecap="round" stroke-linejoin="round"></path>
            <path d="M572.274,54.096 L669.912,84.078 C669.901,84.609 669.979,79.78 669.836,76.528 C668.783,52.065 649.557,3.338 641.805,0.957 C634.059,-1.422 590.775,24.868 576.183,47.763 C573.159,52.518 570.953,56.305 572.274,54.096" id="Fill-161" fill="#161918"></path>
            <path d="M572.274,54.096 L669.912,84.078 C669.901,84.609 669.979,79.78 669.836,76.528 C668.783,52.065 649.557,3.338 641.805,0.957 C634.059,-1.422 590.775,24.868 576.183,47.763 C573.159,52.518 570.953,56.305 572.274,54.096 Z" id="Stroke-162" stroke="#FFFFFE" stroke-width="4.871" stroke-linecap="round" stroke-linejoin="round"></path>
            <path d="M592.112,162.877 C573.556,157.185 563.136,137.52 568.834,118.971 C574.531,100.419 594.191,89.986 612.748,95.691 C631.304,101.387 641.719,121.049 636.021,139.605 C630.328,158.157 610.669,168.577 592.112,162.877 Z M615.797,85.758 C591.756,78.375 566.282,91.877 558.896,115.919 C551.518,139.959 565.017,165.429 589.058,172.809 C613.108,180.19 638.572,166.693 645.958,142.655 C653.343,118.612 639.838,93.138 615.797,85.758 L615.797,85.758 Z" id="Fill-163" fill="#161918"></path>
            <path d="M592.112,162.877 C573.556,157.185 563.136,137.52 568.834,118.971 C574.531,100.419 594.191,89.986 612.748,95.691 C631.304,101.387 641.719,121.049 636.021,139.605 C630.328,158.157 610.669,168.577 592.112,162.877 Z M615.797,85.758 C591.756,78.375 566.282,91.877 558.896,115.919 C551.518,139.959 565.017,165.429 589.058,172.809 C613.108,180.19 638.572,166.693 645.958,142.655 C653.343,118.612 639.838,93.138 615.797,85.758 Z" id="Stroke-164" stroke="#FFFFFE" stroke-width="4.871" stroke-linecap="round" stroke-linejoin="round"></path>
            <path d="M636.021,139.605 C630.328,158.157 610.669,168.577 592.112,162.877 C573.556,157.185 563.136,137.52 568.834,118.971 C574.531,100.419 594.191,89.986 612.748,95.691 C631.304,101.387 641.719,121.049 636.021,139.605" id="Fill-165" fill="#161918"></path>
            <path d="M636.021,139.605 C630.328,158.157 610.669,168.577 592.112,162.877 C573.556,157.185 563.136,137.52 568.834,118.971 C574.531,100.419 594.191,89.986 612.748,95.691 C631.304,101.387 641.719,121.049 636.021,139.605 Z" id="Stroke-166" stroke="#FFFFFE" stroke-width="4.871" stroke-linecap="round" stroke-linejoin="round"></path>
            <path d="M527.502,245.729 L555.156,254.225 C557.499,298.73 523.187,314.85 523.187,314.85 C499.293,278.194 527.502,245.729 527.502,245.729" id="Fill-167" fill="#161918"></path>
            <path d="M527.502,245.729 L555.156,254.225 C557.499,298.73 523.187,314.85 523.187,314.85 C499.293,278.194 527.502,245.729 527.502,245.729 Z" id="Stroke-168" stroke="#FFFFFE" stroke-width="4.871" stroke-linecap="round" stroke-linejoin="round"></path>
            <path d="M550.801,252.886 L531.832,247.058 C526.927,258.156 520.985,277.589 528.025,296.561 C528.025,296.561 545.494,283.005 550.801,252.886" id="Fill-169" fill="#161918"></path>
            <path d="M550.801,252.886 L531.832,247.058 C526.927,258.156 520.985,277.589 528.025,296.561 C528.025,296.561 545.494,283.005 550.801,252.886 Z" id="Stroke-170" stroke="#FFFFFE" stroke-width="4.871" stroke-linecap="round" stroke-linejoin="round"></path>
            <polyline id="Fill-171" fill="#161918" points="558.084 255.119 523.751 244.578 526.887 237.541 559.44 247.538 558.084 255.119"></polyline>
            <polygon id="Stroke-172" stroke="#FFFFFE" stroke-width="4.871" stroke-linecap="round" stroke-linejoin="round" points="558.084 255.119 523.751 244.578 526.887 237.541 559.44 247.538"></polygon>
            <path d="M561.326,248.123 L564.737,237.037 C565.21,235.487 564.346,233.843 562.79,233.368 L532.061,223.935 C530.511,223.457 528.874,224.331 528.391,225.881 L524.995,236.961 L561.326,248.123" id="Fill-173" fill="#161918"></path>
            <path d="M561.326,248.123 L564.737,237.037 C565.21,235.487 564.346,233.843 562.79,233.368 L532.061,223.935 C530.511,223.457 528.874,224.331 528.391,225.881 L524.995,236.961 L561.326,248.123 Z" id="Stroke-174" stroke="#FFFFFE" stroke-width="4.871" stroke-linecap="round" stroke-linejoin="round"></path>
            <path d="M571.816,259.34 L599.467,267.83 C601.82,312.342 567.497,328.459 567.497,328.459 C543.613,291.803 571.816,259.34 571.816,259.34" id="Fill-175" fill="#161918"></path>
            <path d="M571.816,259.34 L599.467,267.83 C601.82,312.342 567.497,328.459 567.497,328.459 C543.613,291.803 571.816,259.34 571.816,259.34 Z" id="Stroke-176" stroke="#FFFFFE" stroke-width="4.871" stroke-linecap="round" stroke-linejoin="round"></path>
            <path d="M595.121,266.496 L576.147,260.669 C571.243,271.768 565.301,291.201 572.341,310.172 C572.341,310.172 589.81,296.613 595.121,266.496" id="Fill-177" fill="#161918"></path>
            <path d="M595.121,266.496 L576.147,260.669 C571.243,271.768 565.301,291.201 572.341,310.172 C572.341,310.172 589.81,296.613 595.121,266.496 Z" id="Stroke-178" stroke="#FFFFFE" stroke-width="4.871" stroke-linecap="round" stroke-linejoin="round"></path>
            <polyline id="Fill-179" fill="#161918" points="602.399 268.733 568.065 258.188 571.202 251.154 603.757 261.149 602.399 268.733"></polyline>
            <polygon id="Stroke-180" stroke="#FFFFFE" stroke-width="4.871" stroke-linecap="round" stroke-linejoin="round" points="602.399 268.733 568.065 258.188 571.202 251.154 603.757 261.149"></polygon>
            <path d="M605.646,261.731 L609.053,250.649 C609.525,249.099 608.661,247.457 607.105,246.977 L576.381,237.541 C574.836,237.063 573.189,237.938 572.712,239.489 L569.307,250.57 L605.646,261.731" id="Fill-181" fill="#161918"></path>
            <path d="M605.646,261.731 L609.053,250.649 C609.525,249.099 608.661,247.457 607.105,246.977 L576.381,237.541 C574.836,237.063 573.189,237.938 572.712,239.489 L569.307,250.57 L605.646,261.731 Z" id="Stroke-182" stroke="#FFFFFE" stroke-width="4.871" stroke-linecap="round" stroke-linejoin="round"></path>
            <path d="M638.724,9.142 C638.658,14.552 640.594,20.312 642.048,25.491 C643.613,31.069 645.453,36.557 647.229,42.07 C649.007,47.591 650.666,53.141 652.254,58.719 C653.426,62.837 653.739,69.01 657.679,71.419 C658.395,71.856 659.191,71.518 659.647,70.903 C662.406,67.178 659.87,60.97 658.802,56.913 C657.324,51.308 655.369,45.821 653.453,40.354 C651.533,34.878 649.561,29.422 647.587,23.964 C645.73,18.83 644.391,13.116 641.852,8.295 C641.056,6.783 638.743,7.534 638.724,9.142" id="Fill-183" fill="#FFFFFE"></path>
            <path d="M616.03,75.817 C619.766,80.354 626.312,81.845 631.729,83.396 C637.035,84.915 642.42,86.322 647.678,88.001 C654.419,90.154 659.735,94.147 658.549,101.897 C657.468,108.951 655.558,116.089 653.982,123.053 C650.542,138.263 645.818,153.112 640.59,167.793 C637.974,175.139 635.237,182.44 632.471,189.73 C631.143,193.229 629.804,196.72 628.585,200.26 C627.979,202.02 627.296,203.774 626.771,205.561 C626.188,207.537 626.162,209.846 625.373,211.733 C624.848,212.991 626.611,213.624 627.434,212.934 C632.837,208.398 634.972,199.454 637.446,193.035 C640.59,184.884 643.704,176.721 646.662,168.5 C652.67,151.804 658.118,134.82 661.896,117.468 C664.534,105.343 669.381,91.621 655.789,84.322 C650.544,81.505 644.281,80.218 638.542,78.8 C631.464,77.051 624.56,75.2 617.563,73.184 C615.938,72.716 615.088,74.673 616.03,75.817" id="Fill-184" fill="#FFFFFE"></path>
            <path d="M539.226,122.295 C534.143,126.792 527.527,130.256 521.776,133.833 C514.245,138.517 506.62,143.095 499.595,148.527 C493.82,152.992 487.814,158.242 484.677,164.986 C482.195,170.319 480.89,179.234 486.253,183.281 C487.839,184.479 490.07,182.845 490.066,181.093 C490.059,177.995 488.184,175.308 488.271,172.114 C488.357,168.955 489.661,166.066 491.337,163.44 C495.486,156.939 502.036,152.049 508.249,147.667 C514.737,143.091 521.555,139.021 528.152,134.612 C532.941,131.412 537.413,128.218 540.517,123.291 C541.034,122.47 539.9,121.698 539.226,122.295" id="Fill-185" fill="#FFFFFE"></path>
            <path d="M650.264,176.846 C647.544,180.801 646.977,186.655 645.406,191.194 C643.643,196.295 641.743,201.347 639.846,206.398 C637.938,211.48 636.051,216.583 634.593,221.816 C633.626,225.284 630.759,232.51 632.558,235.946 C634.063,238.818 638.896,241.337 641.679,242.682 C645.537,244.545 649.762,245.61 653.979,246.283 C661.472,247.479 671.866,248.938 678.184,243.81 C679.512,242.731 678.614,240.72 677.247,240.261 C670.619,238.034 662.893,240.051 655.968,239.068 C652.256,238.541 648.623,237.579 645.126,236.232 C643.563,235.63 641.255,234.982 640.021,233.783 C638.255,232.069 639.172,230.139 639.712,227.638 C641.639,218.699 645.034,210.178 648.073,201.581 C650.411,194.969 655.101,184.113 652.392,177.124 C652.023,176.173 650.857,175.982 650.264,176.846" id="Fill-186" fill="#FFFFFE"></path>
            <path d="M576.346,118.099 C582.198,118.773 588.331,114.4 593.155,111.626 C598.939,108.299 605.663,105.334 610.544,100.733 C611.308,100.014 610.48,98.997 609.61,99.131 C603.146,100.125 597.452,104.552 591.945,107.824 C586.893,110.826 580.126,113.209 576.152,117.631 C575.982,117.819 576.111,118.071 576.346,118.099" id="Fill-187" fill="#FFFFFE"></path>
            <path d="M573.927,126.584 C582.612,124.549 590.214,118.122 597.678,113.533 C601.819,110.987 606.073,108.614 610.586,106.785 C613.466,105.617 618.238,105.416 619.881,102.513 C620.065,102.188 620.022,101.74 619.747,101.476 C617.164,98.993 612.967,100.954 610.06,102.028 C605.662,103.654 601.521,105.952 597.531,108.395 C589.289,113.439 580.448,119.057 573.46,125.782 C573.104,126.126 573.475,126.689 573.927,126.584" id="Fill-188" fill="#FFFFFE"></path>
            <path d="M573.146,134.684 C582.726,133.031 590.793,128.231 599.077,123.337 C603.363,120.805 607.603,118.192 611.862,115.616 C615.289,113.544 619.6,111.634 621.66,108.056 C622.049,107.38 621.556,106.511 620.773,106.509977 C616.857,106.501 613.426,109.082 610.213,111.087 C605.994,113.719 601.801,116.394 597.563,118.995 C589.356,124.032 580.855,128.513 572.697,133.619 C572.114,133.984 572.51,134.793 573.146,134.684" id="Fill-189" fill="#FFFFFE"></path>
            <path d="M572.936,143.251023 C582.773,143.188 592.69,135.585 600.647,130.547 C605.331,127.582 609.95,124.509 614.716,121.676 C618.376,119.5 624.786,117.766 626.707,113.781 C627.057,113.055 626.775,112.218 625.97,111.97 C621.98,110.74 617.604,114.156 614.284,116.054 C609.481,118.8 604.839,121.821 600.236,124.887 C595.867,127.796 591.498,130.711 586.967,133.363 C582.215,136.146 576.895,138.282 572.486,141.592 C571.824,142.088 571.976,143.257 572.936,143.251023" id="Fill-190" fill="#FFFFFE"></path>
        </g>
    </g>
</svg>