<?xml version="1.0" encoding="UTF-8"?>
<svg width="128px" height="92px" viewBox="0 0 128 92" version="1.1" xmlns="http://www.w3.org/2000/svg">
    <g id="Page-1" stroke="none" stroke-width="1" fill="none" fill-rule="evenodd">
        <g id="hamburger" fill="#E53E3E" fill-rule="nonzero">
            <path d="M4,12 L108,12 C110.21,12 112,10.6575 112,9 L112,3 C112,1.3425 110.21,0 108,0 L4,0 C1.79,0 0,1.3425 0,3 L0,9 C0,10.6575 1.79,12 4,12 Z M124,40 L20,40 C17.79,40 16,41.3425 16,43 L16,49 C16,50.6575 17.79,52 20,52 L124,52 C126.21,52 128,50.6575 128,49 L128,43 C128,41.3425 126.21,40 124,40 Z M108,80 L4,80 C1.79,80 0,81.3425 0,83 L0,89 C0,90.6575 1.79,92 4,92 L108,92 C110.21,92 112,90.6575 112,89 L112,83 C112,81.3425 110.21,80 108,80 Z"
                  id="Shape"></path>
        </g>
    </g>
</svg>
