<?xml version="1.0" encoding="UTF-8"?>
<svg width="512px" height="384px" viewBox="0 0 512 384" version="1.1" xmlns="http://www.w3.org/2000/svg" xmlns:xlink="http://www.w3.org/1999/xlink">
    <!-- Generator: Sketch 57.1 (83088) - https://sketch.com -->
    <title>toc</title>
    <desc>Created with Sketch.</desc>
    <g id="Page-1" stroke="none" stroke-width="1" fill="none" fill-rule="evenodd">
        <g id="toc" fill="#FFFFFF" fill-rule="nonzero">
            <path d="M16,64 L432,64 C440.84,64 448,56.84 448,48 L448,16 C448,7.16 440.84,0 432,0 L16,0 C7.16,0 0,7.16 0,16 L0,48 C0,56.84 7.16,64 16,64 Z M496,160 L80,160 C71.16,160 64,167.16 64,176 L64,208 C64,216.84 71.16,224 80,224 L496,224 C504.84,224 512,216.84 512,208 L512,176 C512,167.16 504.84,160 496,160 Z M432,320 L16,320 C7.16,320 0,327.16 0,336 L0,368 C0,376.84 7.16,384 16,384 L432,384 C440.84,384 448,376.84 448,368 L448,336 C448,327.16 440.84,320 432,320 Z" id="Shape"></path>
        </g>
    </g>
</svg>